<svg xmlns="http://www.w3.org/2000/svg" version="1.1" baseProfile="full" width="24" height="24" viewBox="0 0 24.00 24.00" xml:space="preserve"><path fill="#000" fill-opacity="1" stroke-width="1.333" stroke-linejoin="miter" d="M4.934 2.934C3.122 4.744 2 7.244 2 10c0 2.755 1.122 5.255 2.934 7.066l1.404-1.404C4.892 14.216 4 12.215 4 10s.892-4.216 2.338-5.662L4.934 2.934zm14.132 0l-1.404 1.404C19.108 5.784 20 7.785 20 10s-.892 4.216-2.338 5.662l1.404 1.404C20.878 15.256 22 12.756 22 10c0-2.755-1.122-5.255-2.934-7.066zM7.762 5.762C6.674 6.85 6 8.35 6 10c0 1.65.674 3.15 1.762 4.238l1.406-1.406C8.446 12.11 8 11.11 8 10c0-1.11.446-2.11 1.168-2.832L7.762 5.762zm8.476 0l-1.406 1.406C15.554 7.89 16 8.888 16 10c0 1.11-.446 2.11-1.168 2.832l1.406 1.406C17.326 13.15 18 11.65 18 10c0-1.65-.674-3.15-1.762-4.238zM12 8c-1.105 0-2 .895-2 2s.895 2 2 2 2-.895 2-2-.895-2-2-2zm-1 6v4h-1c-.552 0-1 .448-1 1H2v2h7c0 .552.448 1 1 1h4c.552 0 1-.448 1-1h7v-2h-7c0-.552-.448-1-1-1h-1v-4h-2z"/></svg>