<svg xmlns="http://www.w3.org/2000/svg" version="1.1" baseProfile="full" width="24" height="24" viewBox="0 0 24.00 24.00" xml:space="preserve"><path fill="#000" fill-opacity="1" stroke-width=".2" stroke-linejoin="miter" d="M4.934 4.934C3.122 6.744 2 9.244 2 12c0 2.755 1.122 5.255 2.934 7.066l1.404-1.404C4.892 16.216 4 14.215 4 12s.892-4.216 2.338-5.662L4.934 4.934zm14.132 0l-1.404 1.404C19.108 7.784 20 9.785 20 12s-.892 4.216-2.338 5.662l1.404 1.404C20.878 17.256 22 14.756 22 12c0-2.755-1.122-5.255-2.934-7.066zM7.762 7.762C6.674 8.85 6 10.35 6 12c0 1.65.674 3.15 1.762 4.238l1.406-1.406C8.446 14.11 8 13.11 8 12c0-1.11.446-2.11 1.168-2.832L7.762 7.762zm8.476 0l-1.406 1.406C15.554 9.89 16 10.89 16 12c0 1.11-.446 2.11-1.168 2.832l1.406 1.406C17.326 15.15 18 13.65 18 12c0-1.65-.674-3.15-1.762-4.238zM12 10c-1.105 0-2 .895-2 2s.895 2 2 2 2-.895 2-2-.895-2-2-2z"/></svg>