<svg xmlns="http://www.w3.org/2000/svg" version="1.1" baseProfile="full" width="24" height="24" viewBox="0 0 24.00 24.00" xml:space="preserve"><path fill="#000" fill-opacity="1" stroke-width=".2" stroke-linejoin="round" d="M11 10v2h-1v2H8v-2H5.83c-.413 1.165-1.524 2-2.83 2-1.657 0-3-1.343-3-3s1.343-3 3-3c1.306 0 2.417.835 2.83 2H11zm-8 0c-.552 0-1 .448-1 1s.448 1 1 1 1-.448 1-1-.448-1-1-1zm13 4c2.667 0 8 1.335 8 4v2H8v-2c0-2.665 5.333-4 8-4zm0-2c-2.208 0-4-1.793-4-4 0-2.208 1.792-4 4-4s4 1.792 4 4c0 2.207-1.792 4-4 4z"/></svg>