<svg xmlns="http://www.w3.org/2000/svg" version="1.1" baseProfile="full" width="24" height="24" viewBox="0 0 24.00 24.00" xml:space="preserve"><path fill="#000" fill-opacity="1" stroke-width=".2" stroke-linejoin="round" d="M19 18.998H5V5h14m0-2H5c-1.105 0-2 .896-2 2v14c0 1.105.895 2 2 2h14c1.103 0 2-.895 2-2v-14c0-1.104-.897-2-2-2zm-2.5 13.25c0-1.5-3-2.25-4.5-2.25s-4.5.75-4.5 2.25v.75h9m-4.5-4.75c1.24 0 2.25-1.006 2.25-2.25 0-1.242-1.01-2.25-2.25-2.25-1.243 0-2.25 1.008-2.25 2.25 0 1.244 1.007 2.25 2.25 2.25z"/></svg>