<svg xmlns="http://www.w3.org/2000/svg" version="1.1" baseProfile="full" width="24" height="24" viewBox="0 0 24.00 24.00" xml:space="preserve"><path fill="#050708" fill-opacity="1" stroke-width=".2" stroke-linejoin="round" d="M12 19.198c-2.505 0-4.708-1.28-6-3.22.027-1.987 4.005-3.08 6-3.08 1.993 0 5.97 1.093 5.997 3.08-1.29 1.94-3.494 3.22-5.998 3.22zm0-14.2c1.655 0 3 1.344 3 3 0 1.658-1.345 3-3 3-1.657 0-3-1.342-3-3 0-1.656 1.343-3 3-3zm0-3c-5.524 0-10 4.476-10 10 0 5.523 4.476 10 10 10 5.522 0 10-4.477 10-10 0-5.524-4.478-10-10-10z"/></svg>