<svg xmlns="http://www.w3.org/2000/svg" version="1.1" baseProfile="full" width="24" height="24" viewBox="0 0 24.00 24.00" xml:space="preserve"><path fill="#000" fill-opacity="1" stroke-width="1.333" stroke-linejoin="miter" d="M9.5 3C13.09 3 16 5.91 16 9.5c0 1.61-.59 3.09-1.57 4.23l.28.27h.79l4.99 5L19 20.49l-5-4.99v-.79l-.27-.28C12.59 15.41 11.11 16 9.5 16 5.91 16 3 13.09 3 9.5S5.91 3 9.5 3zm0 11c1.61 0 3.023-.846 3.818-2.118C12.523 10.752 11.11 10 9.5 10c-1.61 0-3.023.752-3.818 1.882C6.477 13.154 7.89 14 9.5 14zm0-9c-.966 0-1.75.784-1.75 1.75S8.534 8.5 9.5 8.5s1.75-.784 1.75-1.75S10.466 5 9.5 5z"/></svg>