<svg xmlns="http://www.w3.org/2000/svg" version="1.1" baseProfile="full" width="24" height="24" viewBox="0 0 24.00 24.00" xml:space="preserve"><path fill="#000" fill-opacity="1" stroke-width=".2" stroke-linejoin="round" d="M15 13.998c2.666 0 8 1.335 8 4v2H7v-2c0-2.665 5.332-4 8-4zm0-2c-2.21 0-4-1.793-4-4 0-2.208 1.79-4 4-4 2.207 0 4 1.792 4 4 0 2.207-1.793 4-4 4zM5 9.586l2.12-2.122L8.537 8.88 6.414 11l2.12 2.12-1.413 1.416L5 12.414l-2.12 2.122-1.416-1.415L3.586 11 1.464 8.88 2.88 7.463 5 9.587z"/></svg>