<svg xmlns="http://www.w3.org/2000/svg" version="1.1" baseProfile="full" width="24" height="24" viewBox="0 0 24.00 24.00" xml:space="preserve"><path fill="#000" fill-opacity="1" stroke-linejoin="round" d="M16 9c2.333 0 7 1.168 7 3.5V15h-6v-2.5c0-1.483-.806-2.61-1.965-3.446L16 9zM8 9c2.333 0 7 1.168 7 3.5V15H1v-2.5C1 10.168 5.666 9 8 9zm0-2C6.343 7 5 5.656 5 4s1.343-3 3-3 2.99 1.344 2.99 3S9.657 7 8 7zm8 0c-1.657 0-3-1.344-3-3s1.343-3 3-3 2.99 1.344 2.99 3S17.657 7 16 7zm-7 9.75V19h6v-2.25L18.25 20 15 23.25V21H9v2.25L5.75 20 9 16.75z"/></svg>