<svg xmlns="http://www.w3.org/2000/svg" version="1.1" baseProfile="full" width="24" height="24" viewBox="0 0 24.00 24.00" xml:space="preserve"><path fill="#000" fill-opacity="1" stroke-width=".2" stroke-linejoin="round" d="M13 12.998c-2 0-6 1-6 3v2h12v-2c0-2-4-3-6-3zm6.62.16c.83.725 1.38 1.658 1.38 2.84v2h3v-2c0-1.54-2.374-2.486-4.38-2.84zM13 10.998c1.657 0 2.99-1.344 2.99-3s-1.333-3-2.99-3c-1.657 0-3 1.344-3 3s1.343 3 3 3zm5 0c1.657 0 2.99-1.344 2.99-3s-1.333-3-2.99-3c-.32 0-.626.05-.915.144.567.81.905 1.793.905 2.856s-.338 2.045-.905 2.856c.29.093.596.144.915.144zm-10-1H5v-3H3v3H0v2h3v3h2v-3h3v-2z"/></svg>