<svg xmlns="http://www.w3.org/2000/svg" version="1.1" baseProfile="full" width="24" height="24" viewBox="0 0 24.00 24.00" xml:space="preserve"><path fill="#000" fill-opacity="1" stroke-width=".2" stroke-linejoin="round" d="M16 12.998c-.29 0-.618.018-.966.054 1.16.837 1.965 1.963 1.965 3.446v2.5h6v-2.5c0-2.332-4.668-3.5-7-3.5zm-8 0c-2.335 0-7 1.168-7 3.5v2.5h14v-2.5c0-2.332-4.668-3.5-7-3.5zm0-2c1.656 0 2.99-1.344 2.99-3s-1.334-3-2.99-3c-1.658 0-3 1.344-3 3s1.342 3 3 3zm8 0c1.656 0 2.99-1.344 2.99-3s-1.334-3-2.99-3c-1.658 0-3 1.344-3 3s1.342 3 3 3z"/></svg>