<svg xmlns="http://www.w3.org/2000/svg" version="1.1" baseProfile="full" width="24" height="24" viewBox="0 0 24.00 24.00" xml:space="preserve"><path fill="#000" fill-opacity="1" stroke-width=".2" stroke-linejoin="round" d="M12.002 2.002c-5.513 0-10 4.487-10 10 0 5.508 4.487 10 10 10 5.508 0 10-4.492 10-10 0-5.513-4.492-10-10-10zm0 17.998C7.587 20 4 16.41 4 12.002 4 7.587 7.587 4 12 4 16.413 4 20 7.587 20 12 20 16.413 16.41 20 12.002 20zM15 12.002C15 13.662 13.662 15 12.002 15 10.342 15 9 13.662 9 12.002 9 10.342 10.34 9 12 9 13.662 9 15 10.34 15 12z"/></svg>