<svg xmlns="http://www.w3.org/2000/svg" version="1.1" baseProfile="full" width="24" height="24" viewBox="0 0 24.00 24.00" xml:space="preserve"><path fill="#000" fill-opacity="1" stroke-width="1.333" stroke-linejoin="miter" d="M6.586.663c2.346-1.813 4.88.395 5.455 3.837.43.005.854.12 1.23.34.516-.6.982-1.422.804-2.327-.425-2.158 1.984-3.903 4.276-.937 1.814 2.346-.397 4.884-3.842 5.455-.006.432-.123.86-.345 1.237.598.512 1.415.97 2.314.793 2.157-.424 3.902 1.984.937 4.277-2.347 1.813-4.884-.396-5.455-3.84-.427-.01-.848-.127-1.22-.347-.52.6-.993 1.427-.814 2.337.424 2.158-1.984 3.902-4.276.937-1.818-2.35.405-4.893 3.86-5.458.007-.427.12-.85.338-1.224-.6-.515-1.42-.98-2.325-.803-2.157.424-3.902-1.985-.937-4.277zM5 16h2c1.105 0 2 .895 2 2v6H7v-2H5v2H3v-6c0-1.105.895-2 2-2zm0 2v2h2v-2H5zm7.93-2H15l-2.93 8H10l2.93-8zM18 16h3v2h-3v4h3v2h-3c-1.105 0-2-.895-2-2v-4c0-1.105.895-2 2-2z"/></svg>