<svg xmlns="http://www.w3.org/2000/svg" version="1.1" baseProfile="full" width="24" height="24" viewBox="0 0 24.00 24.00" xml:space="preserve"><path fill="#000" fill-opacity="1" stroke-width=".2" stroke-linejoin="round" d="M9.292 3.25l-4.13 3.466L4 5.34l4.14-3.466L9.292 3.25zM22 5.35l-1.16 1.377L16.7 3.25l1.16-1.376L22 5.348zM13 4c4.418 0 8 3.582 8 8s-3.582 8-8 8-8-3.582-8-8 3.582-8 8-8zm0 2c-3.314 0-6 2.686-6 6s2.686 6 6 6 6-2.686 6-6-2.686-6-6-6zm-1 1.5h1.5v4.534l3.217 1.464-.62 1.365L12 13V7.5zM1 14c0-2.484 1.132-4.704 2.91-6.17C3.324 9.097 3 10.51 3 12l.063 1.128L3 14c0 2.278 1.27 4.26 3.14 5.276 1.3 1.227 2.933 2.11 4.747 2.5C10.282 21.922 9.65 22 9 22c-4.418 0-8-3.582-8-8z"/></svg>