<svg xmlns="http://www.w3.org/2000/svg" version="1.1" baseProfile="full" width="24" height="24" viewBox="0 0 24.00 24.00" xml:space="preserve"><path fill="#000" fill-opacity="1" stroke-linejoin="round" d="M10.54 14.53L8.41 12.4l-1.06 1.06 3.18 3.18 6-6-1.06-1.06-4.93 4.95zM12 20c-3.87 0-7-3.13-7-7s3.13-7 7-7 7 3.13 7 7-3.13 7-7 7zm0-16c-4.97 0-9 4.03-9 9s4.02 9 9 9c4.97 0 9-4.03 9-9s-4.03-9-9-9zm-4.12-.61L6.6 1.86 2 5.71l1.29 1.53 4.59-3.85zM22 5.72l-4.6-3.86-1.29 1.53 4.6 3.86L22 5.72z"/></svg>