<svg xmlns="http://www.w3.org/2000/svg" version="1.1" baseProfile="full" width="24" height="24" viewBox="0 0 24.00 24.00" xml:space="preserve"><path fill="#000" fill-opacity="1" fill-rule="evenodd" stroke-linejoin="round" d="M15.93 17.087c-.177.16-.433.17-.633.063-.89-.74-1.05-1.082-1.535-1.786-1.47 1.498-2.513 1.948-4.417 1.948-2.256 0-4.01-1.392-4.01-4.176 0-2.175 1.177-3.654 2.856-4.38 1.455-.637 3.486-.753 5.04-.927v-.35c0-.637.05-1.39-.326-1.942-.326-.493-.953-.696-1.504-.696-1.022 0-1.93.524-2.154 1.61-.046.24-.222.48-.465.49l-2.596-.28c-.22-.05-.463-.225-.4-.56C6.38 2.952 9.226 2 11.774 2c1.305 0 3.01.348 4.037 1.334 1.304 1.218 1.18 2.842 1.18 4.61v4.175c0 1.255.52 1.806 1.01 2.482.17.244.21.534-.01.712l-2.053 1.78-.006-.007zm-2.7-6.532v-.58c-1.94 0-3.986.415-3.986 2.697 0 1.16.602 1.943 1.63 1.943.75 0 1.428-.464 1.854-1.218.526-.928.5-1.798.5-2.842zm6.93 8.98C17.98 21.146 14.82 22 12.1 22c-3.813 0-7.247-1.41-9.845-3.756-.204-.184-.022-.436.223-.293 2.804 1.632 6.27 2.615 9.85 2.615 2.416 0 5.072-.5 7.515-1.538.368-.156.677.243.317.51zm.907-1.034c-.28-.356-1.843-.168-2.546-.084-.212.026-.244-.16-.053-.295 1.248-.875 3.292-.622 3.53-.33.24.297-.063 2.346-1.232 3.325-.18.15-.35.07-.272-.13.263-.656.852-2.127.574-2.484z"/></svg>