<svg xmlns="http://www.w3.org/2000/svg" version="1.1" baseProfile="full" width="24" height="24" viewBox="0 0 24.00 24.00" xml:space="preserve"><path fill="#000" fill-opacity="1" stroke-width=".2" stroke-linejoin="round" d="M4.94 11.118c.287 0 .563.04.825.117 0-2.144 1.738-3.882 3.882-3.882 1.627 0 3.02 1 3.597 2.42.58-.756 1.494-1.244 2.52-1.244 1.755 0 3.177 1.422 3.177 3.176 0 .25-.027.49-.082.724.247-.088.512-.136.79-.136 1.3 0 2.352 1.054 2.352 2.353 0 1.3-1.053 2.353-2.353 2.353H4.94C3.318 17 2 15.683 2 14.06c0-1.626 1.317-2.942 2.94-2.942z"/></svg>