<svg xmlns="http://www.w3.org/2000/svg" version="1.1" baseProfile="full" width="24" height="24" viewBox="0 0 24.00 24.00" xml:space="preserve"><path fill="#000" fill-opacity="1" stroke-width=".2" stroke-linejoin="round" d="M18 18.498c.827 0 1.5-.672 1.5-1.5s-.673-1.5-1.5-1.5c-.83 0-1.5.672-1.5 1.5s.67 1.5 1.5 1.5zm1.5-9H17v2.5h4.463l-1.964-2.5zm-13.5 9c.827 0 1.5-.672 1.5-1.5s-.673-1.5-1.5-1.5c-.83 0-1.5.672-1.5 1.5s.67 1.5 1.5 1.5zm14-10.5l3 4v5h-2c0 1.657-1.344 3-3 3-1.658 0-3-1.343-3-3H9c0 1.657-1.344 3-3 3-1.658 0-3-1.343-3-3H1v-11c0-1.105.894-2 2-2h14v4h3zM8 6v3H5v2h3v3h2v-3h3V9h-3V6H8z"/></svg>