<svg xmlns="http://www.w3.org/2000/svg" version="1.1" baseProfile="full" width="24" height="24" viewBox="0 0 24.00 24.00" xml:space="preserve"><path fill="#000" fill-opacity="1" stroke-width="1.333" stroke-linejoin="miter" d="M10 2h4c.554 0 1 .446 1 1h6v18h-2c0 .552-.448 1-1 1s-1-.448-1-1H7c0 .552-.448 1-1 1s-1-.448-1-1H3V3h6c0-.554.446-1 1-1zM5 5v4h14V5H5zm2 1c.552 0 1 .448 1 1s-.448 1-1 1-1-.448-1-1 .448-1 1-1zm5 0h2v1h-2V6zm3 0h1v2h-1V6zm2 0h1v2h-1V6zm-5 5c-2.21 0-4 1.79-4 4s1.79 4 4 4 4-1.79 4-4-1.79-4-4-4zm-2-5c.552 0 1 .448 1 1s-.448 1-1 1-1-.448-1-1 .448-1 1-1z"/></svg>