<svg xmlns="http://www.w3.org/2000/svg" version="1.1" baseProfile="full" width="24" height="24" viewBox="0 0 24.00 24.00" xml:space="preserve"><path fill="#000" fill-opacity="1" stroke-width=".2" stroke-linejoin="round" d="M12.002 2.002C10.342 2.002 9 3.345 9 5c0 1.27.8 2.402 2 2.827V10H7.998v2.002h3.004v6.914C9.16 18.628 7.535 17.57 6.535 16h1.463v-2h-5v5H5v-1.7c1.582 2.31 4.2 3.696 7.002 3.7 2.798-.004 5.415-1.386 6.997-3.695V19h2v-5h-5v2h1.46c-1 1.564-2.626 2.628-4.463 2.916v-6.914h3.004V10H13V7.822C14.197 7.402 15 6.27 15 5c0-1.656-1.342-2.998-2.998-2.998zm0 1.997c.552 0 .995.45.995 1s-.443 1-.995 1c-.557 0-1-.45-1-1s.443-1 1-1z"/></svg>