<svg xmlns="http://www.w3.org/2000/svg" version="1.1" baseProfile="full" width="24" height="24" viewBox="0 0 24.00 24.00" xml:space="preserve"><path fill="#000" fill-opacity="1" stroke-width=".2" stroke-linejoin="round" d="M15 8.998c-.554 0-1-.448-1-1s.446-1 1-1c.552 0 1 .448 1 1s-.448 1-1 1zm-6 0c-.554 0-1-.448-1-1s.446-1 1-1c.552 0 1 .448 1 1s-.448 1-1 1zm7.122-4.63l2.1-2.1-.826-.826-2.304 2.305c-.937-.464-1.978-.75-3.093-.75-1.116 0-2.157.286-3.094.75L6.6 1.442l-.823.826 2.1 2.1C6.14 5.64 4.998 7.677 4.998 9.997v1h14v-1c0-2.32-1.142-4.358-2.878-5.63zM5 15.997c0 3.866 3.133 7 7 7 3.865 0 7-3.134 7-7v-4H5v4z"/></svg>