<svg xmlns="http://www.w3.org/2000/svg" version="1.1" baseProfile="full" width="24" height="24" viewBox="0 0 24.00 24.00" xml:space="preserve"><path fill="#000" fill-opacity="1" stroke-width=".2" stroke-linejoin="round" d="M15 4.998h-1v-1h1m-5 1H9v-1h1m5.53-1.842L16.836.852c.195-.196.195-.512 0-.708-.195-.195-.512-.195-.707 0L14.65 1.622c-.8-.396-1.698-.624-2.65-.624-.96 0-1.86.23-2.664.63L7.853.143c-.196-.195-.512-.195-.708 0-.195.196-.195.512 0 .708l1.312 1.31C6.97 3.256 6 5.013 6 7h12c0-1.99-.975-3.75-2.47-4.842zm4.97 5.842c-.83 0-1.5.67-1.5 1.5v7c0 .83.67 1.5 1.5 1.5.827 0 1.5-.67 1.5-1.5v-7c0-.83-.673-1.5-1.5-1.5zm-17 0c-.83 0-1.5.67-1.5 1.5v7c0 .83.67 1.5 1.5 1.5.827 0 1.5-.67 1.5-1.5v-7c0-.83-.673-1.5-1.5-1.5zm2.5 10c0 .55.448 1 1 1h1v3.5c0 .83.67 1.5 1.5 1.5.827 0 1.5-.67 1.5-1.5v-3.5h2v3.5c0 .83.67 1.5 1.5 1.5.827 0 1.5-.67 1.5-1.5v-3.5h1c.55 0 1-.45 1-1v-10H6v10z"/></svg>