<svg xmlns="http://www.w3.org/2000/svg" version="1.1" baseProfile="full" width="24" height="24" viewBox="0 0 24.00 24.00" xml:space="preserve"><path fill="#000" fill-opacity="1" stroke-linejoin="round" d="M11 2h2v2h.5c.828 0 1.5.672 1.5 1.5V9l-.438.438 1.642 2.843C17.312 11.194 18 9.678 18 8h2c0 2.42-1.074 4.588-2.772 6.055l3.138 5.435.134 2.232-1.866-1.232-3.074-5.324C14.488 15.7 13.28 16 12 16c-1.28 0-2.488-.3-3.56-.834L5.366 20.49 3.5 21.722l.134-2.232L9.438 9.438 9 9V5.5c0-.828.672-1.5 1.5-1.5h.5V2zM9.443 13.43c.776.365 1.642.57 2.557.57s1.78-.205 2.557-.57l-1.46-2.528h-.006c-.615.616-1.565.616-2.18 0H10.9l-1.46 2.527zM12 6c-.552 0-1 .448-1 1s.448 1 1 1 1-.448 1-1-.448-1-1-1z"/></svg>