<svg xmlns="http://www.w3.org/2000/svg" version="1.1" baseProfile="full" width="24" height="24" viewBox="0 0 24.00 24.00" xml:space="preserve"><path fill="#000" fill-opacity="1" stroke-width=".2" stroke-linejoin="round" d="M4 4h7.887c.57-1.093 1.246-2.123 2.046-2.996L15.04 2.11c-.426.593-.81 1.23-1.153 1.89H20c1.105 0 2 .895 2 2v13c0 1.105-.895 2-2 2h-5.075l.336 1.23-1.833.724-.5-1.954H4c-1.105 0-2-.895-2-2V6c0-1.105.895-2 2-2zm0 2v13h8.54c-.052-.33-.1-.664-.14-1.003-.133.002-.266.003-.4.003-2.753 0-5.217-.48-6.868-1.238l.91-1.64c.96.52 3.13.878 5.958.878h.238c-.025-.668-.017-1.34.033-2H9s.403-4.032 1.978-8H4zm16 13V6h-7.022c-.88 2.22-1.395 4.457-1.677 6h2.872c-.194 1.28-.206 2.62-.108 3.93 1.81-.128 3.183-.424 3.893-.807l.91 1.64c-1.176.54-2.766.938-4.58 1.123.06.38.124.752.193 1.114H20zM6 8h2v3H6V8zm10 0h2v3h-2V8z"/></svg>