<svg xmlns="http://www.w3.org/2000/svg" version="1.1" baseProfile="full" width="24" height="24" viewBox="0 0 24.00 24.00" xml:space="preserve"><path fill="#000" fill-opacity="1" stroke-linejoin="round" d="M12 2c5.523 0 10 4.477 10 10s-4.477 10-10 10S2 17.523 2 12 6.477 2 12 2zm0 2c-4.418 0-8 3.582-8 8 0 2.088.8 3.99 2.11 5.415L9.88 9.88l7.535-3.77C15.99 4.8 14.088 4 12 4zm0 16c4.418 0 8-3.582 8-8 0-2.088-.8-3.99-2.11-5.414l-3.77 7.535-7.534 3.77C8.01 19.2 9.912 20 12 20zm0-8l-.766-.766-1.532 3.064 3.064-1.532L12 12zm0 5.5h1V19h-1v-1.5zm3.88-1.61l.707-.71 1.06 1.062-.706.707-1.06-1.06zm1.604-3.885v-1h1.5v1h-1.5zM12 6.5h-1V5h1v1.5zM8.12 8.112l-.707.707-1.06-1.062.706-.707 1.06 1.062zm-1.604 3.883v1h-1.5v-1h1.5z"/></svg>