<svg xmlns="http://www.w3.org/2000/svg" version="1.1" baseProfile="full" width="24" height="24" viewBox="0 0 24.00 24.00" xml:space="preserve"><path fill="#000" fill-opacity="1" fill-rule="evenodd" stroke-width=".2" stroke-linejoin="round" d="M22 15.044C22 17.23 20.242 19 18.073 19H5.927C3.757 19 2 17.23 2 15.044c0-1.973 1.433-3.607 3.31-3.906-.026-.14-.04-.28-.04-.428 0-1.384 1.114-2.506 2.49-2.506.613 0 1.176.223 1.607.595.773-1.755 1.764-3.356 4.542-3.356 3.368 0 4.963 2.62 4.963 5.38 0 .117-.004.23-.01.344 1.79.368 3.137 1.964 3.137 3.877z"/></svg>