<svg xmlns="http://www.w3.org/2000/svg" version="1.1" baseProfile="full" width="24" height="24" viewBox="0 0 24.00 24.00" xml:space="preserve"><path fill="#000" fill-opacity="1" stroke-width=".2" stroke-linejoin="round" d="M18.707 19.518c-.83 1.22-1.69 2.43-3.05 2.457-1.335.025-1.763-.794-3.287-.794-1.526 0-2.004.77-3.265.82-1.31.05-2.307-1.317-3.145-2.53-1.712-2.482-3.02-7.018-1.262-10.08.87-1.52 2.43-2.48 4.12-2.506 1.287-.024 2.503.87 3.29.87.786 0 2.262-1.073 3.813-.916.65.027 2.473.263 3.644 1.98-.093.062-2.176 1.277-2.15 3.81.025 3.025 2.642 4.03 2.673 4.045-.024.07-.42 1.435-1.38 2.845zm-5.7-16.003c.72-.845 1.933-1.473 2.935-1.515.128 1.173-.343 2.348-1.038 3.194-.696.845-1.836 1.504-2.954 1.416-.152-1.148.41-2.345 1.057-3.095z"/></svg>