<svg xmlns="http://www.w3.org/2000/svg" version="1.1" baseProfile="full" width="24" height="24" viewBox="0 0 24.00 24.00" xml:space="preserve"><path fill="#000" fill-opacity="1" stroke-width=".2" stroke-linejoin="round" d="M14.474 9.142c.597-1.45 1.706-4.862 1.877-5.46.17-.597.598-.682.854-.682h2.047c.342 0 .534.256.45.682-2.155 7.593-3.605 9.81-3.605 10.323 0 1.28 1.365 3.668 2.644 3.668.767 0 .597-1.11 1.45-1.11h1.62c.256 0 .512.257.512.683 0 .427-.474 3.754-3.716 3.754s-4.452-3.92-4.452-3.92c-.427.854-2.922 3.92-5.993 3.92-5.46 0-6.482-5.8-6.482-9.213C1.678 8.374 3.298 3 7.905 3s6.57 6.142 6.57 6.142zm-9.98 2.39c0 1.96-.086 6.056 3.507 6.14 2.038.086 3.915-2.473 4.805-4.52-1.232-4.266-2.085-6.825-4.814-6.825-3.668.085-3.497 5.204-3.497 5.204z"/></svg>