<svg xmlns="http://www.w3.org/2000/svg" version="1.1" baseProfile="full" width="24" height="24" viewBox="0 0 24.00 24.00" xml:space="preserve"><path fill="#000" fill-opacity="1" stroke-width=".2" stroke-linejoin="round" d="M7.5 5.598L5 6.998l1.4-2.5-1.4-2.5 2.5 1.4 2.5-1.4-1.4 2.5 1.4 2.5-2.5-1.4zm12 9.8l2.5-1.4-1.4 2.5 1.4 2.5-2.5-1.4-2.5 1.4 1.4-2.5-1.4-2.5 2.5 1.4zm2.5-13.4l-1.4 2.5 1.4 2.5-2.5-1.4-2.5 1.4 1.4-2.5-1.4-2.5 2.5 1.4 2.5-1.4zM13.34 12.776l2.435-2.435-2.12-2.12-2.436 2.435 2.122 2.12zM14.37 7.29l2.336 2.337c.39.39.39 1.023 0 1.414L5.042 22.706c-.39.39-1.024.39-1.414 0L1.292 20.37c-.39-.392-.39-1.025 0-1.415L12.956 7.29c.39-.39 1.024-.39 1.414 0z"/></svg>