<svg xmlns="http://www.w3.org/2000/svg" version="1.1" baseProfile="full" width="24" height="24" viewBox="0 0 24.00 24.00" xml:space="preserve"><path fill="#000" fill-opacity="1" stroke-width=".2" stroke-linejoin="round" d="M11 17.003c0 .546.45.994 1.002.994.547 0 .995-.448.995-.994 0-.553-.448-1.002-.995-1.002-.552 0-1 .45-1 1.003zm0-14.005v4.005H13V5.077c3.393.494 6 3.394 6 6.925C19 15.87 15.87 19 12.003 19 8.13 19 5 15.87 5 12c0-1.68.59-3.223 1.582-4.425l5.42 5.42 1.407-1.406-6.8-6.8v.02c-2.19 1.64-3.613 4.237-3.613 7.192 0 4.966 4.024 9 9.005 9 4.966 0 9-4.034 9-9 0-4.97-4.034-9.004-9-9.004m5.995 9.005c0-.553-.448-1.002-.994-1.002-.553 0-1.002.45-1.002 1.002 0 .547.45.995 1.003.995.546 0 .994-.448.994-.995zM6 12.002c0 .546.45.995 1.003.995.546 0 .994-.45.994-.995 0-.553-.448-1.002-.994-1.002C6.45 11 6 11.45 6 12.003z"/></svg>