<svg xmlns="http://www.w3.org/2000/svg" version="1.1" baseProfile="full" width="24" height="24" viewBox="0 0 24.00 24.00" xml:space="preserve"><path fill="#000" fill-opacity="1" stroke-linejoin="round" d="M18.5 4C19.88 4 21 5.12 21 6.5S19.88 9 18.5 9 16 7.88 16 6.5 17.12 4 18.5 4zm-14 16c-.828 0-1.5-.672-1.5-1.5S3.672 17 4.5 17h7c.828 0 1.5.672 1.5 1.5s-.672 1.5-1.5 1.5h-7zm11.59-1.003L14.687 15H11l-4.25-4.25S9 8.25 12.5 8.25c3 0 3.348 1.002 3.564 1.615l2.857 8.138c.275.782-.136 1.638-.918 1.912-.78.275-1.637-.137-1.912-.918z"/></svg>