<svg xmlns="http://www.w3.org/2000/svg" version="1.1" baseProfile="full" width="24" height="24" viewBox="0 0 24.00 24.00" xml:space="preserve"><path fill="#000" fill-opacity="1" stroke-width=".2" stroke-linejoin="round" d="M3.388 15.64c.017-.094.037-.188.058-.28.042-.176.092-.35.15-.52.224-.654.563-1.262.926-1.85.18-.29.365-.578.55-.867.187-.295.378-.588.594-.863.35-.447.78-.93 1.336-1.11.784-.252 1.37.563 1.822 1.066.258.286.536.586.89.75.164.075.343.113.523.102.262-.017.495-.197.69-.36.536-.443.972-1.003 1.388-1.556.455-.604.895-1.222 1.418-1.773.213-.226.442-.526.75-.625.137-.046.29-.032.423.03.074.033.14.08.198.136.065.065.143.115.216.17.56.424 1.078.902 1.567 1.405.425.437.83.895 1.216 1.368.376.462.738.932 1.052 1.442.377.62.698 1.273 1.05 1.91.323.58.65 1.25.328 1.903-.018.034-.036.07-.056.102-.57.966-1.6 1.567-2.618 1.96-1.226.475-2.544.7-3.85.792-1.35.094-2.713.09-4.06-.036-1.218-.115-2.444-.33-3.59-.774-.956-.37-1.88-.916-2.52-1.736-.15-.19-.28-.396-.394-.61l-.04-.08c-.02-.038-.026-.053-.018-.096zm-1.304.883c.14.208.293.408.455.6.323.38.688.727 1.083 1.034.84.652 1.81 1.12 2.816 1.45 1.164.382 2.382.585 3.6.687 1.414.117 2.848.116 4.258-.032 1.307-.138 2.61-.41 3.832-.896 1.085-.43 2.08-1.046 2.952-1.824.224-.202.444-.417.622-.662.154-.207.274-.436.296-.695.024-.305-.024-.614-.084-.91-.067-.33-.156-.655-.238-.98-.03-.118-.06-.237-.087-.356-.32-1.41-.806-2.782-1.47-4.066-.56-1.087-1.254-2.114-2.06-3.036-.75-.86-1.626-1.614-2.63-2.162-.532-.29-1.097-.524-1.677-.698-.314-.094-.634-.172-.956-.235-.082-.016-.165-.037-.25-.037h-.933c-.093 0-.186-.004-.28.007-.084.01-.17.023-.255.037-.166.026-.327.06-.488.097-.32.077-.632.177-.938.297-.61.24-1.19.56-1.73.932-1.054.727-1.97 1.653-2.74 2.675-.818 1.085-1.472 2.29-1.976 3.55-.536 1.338-.907 2.742-1.136 4.166-.03.183-.072.373-.072.558v.298c0 .048 0 .074.025.113l.06.088z"/></svg>