<svg xmlns="http://www.w3.org/2000/svg" version="1.1" baseProfile="full" width="24" height="24" viewBox="0 0 24.00 24.00" xml:space="preserve"><path fill="#000" fill-opacity="1" stroke-width=".2" stroke-linejoin="round" d="M5.5 21c-.78 0-1.457-.447-1.786-1.1l-.006.002L1.1 10.44 1 10c0-.552.448-1 1-1h4.578l4.603-6.574C11.363 2.17 11.66 2 12 2c.344 0 .648.174.827.438L17.422 9H22c.552 0 1 .448 1 1l-.042.287-2.672 9.613c-.33.653-1.005 1.1-1.786 1.1h-13zM12 4.743L9.02 9h5.96L12 4.743zM12 13c-1.105 0-2 .895-2 2s.895 2 2 2 2-.895 2-2-.895-2-2-2z"/></svg>