<svg xmlns="http://www.w3.org/2000/svg" version="1.1" baseProfile="full" width="24" height="24" viewBox="0 0 24.00 24.00" xml:space="preserve"><path fill="#000" fill-opacity="1" stroke-width=".2" stroke-linejoin="round" d="M15.066 12.252l-.895.918c-.536.537-.92 1.01-1.083 1.828H11.05c.114-.902.51-1.717 1.12-2.328l1.244-1.258c.36-.362.585-.862.585-1.414 0-1.104-.896-2-2-2-1.105 0-2 .896-2 2H8c0-2.21 1.79-4 4-4s4 1.79 4 4c0 .88-.357 1.677-.934 2.254zM13 18.998h-2v-2h2m3.666-13H15v-2H9v2H7.332C6.596 3.998 6 4.595 6 5.332v15.333c0 .736.596 1.333 1.333 1.333h9.333c.736 0 1.333-.597 1.333-1.333V5.332c0-.737-.598-1.334-1.334-1.334z"/></svg>