<svg xmlns="http://www.w3.org/2000/svg" version="1.1" baseProfile="full" width="24" height="24" viewBox="0 0 24.00 24.00" xml:space="preserve"><path fill="#000" fill-opacity="1" stroke-linejoin="round" d="M15 18.542c2.134-.33 4.504-.542 7-.542v4H5c0-.648 3.195-2.136 8-3.103v-6.502c-.845.25-1.555.812-2 1.55-.613-1.015-1.727-1.695-3-1.695s-2.388.68-3 1.696c.035-3.58 3.522-6.518 8-6.903V7c0-.552.447-1 1-1 .552 0 1 .448 1 1v.043c4.477.385 7.965 3.324 8 6.903-.613-1.016-1.727-1.696-3-1.696s-2.388.68-3 1.696c-.446-.74-1.156-1.3-2-1.55v6.146zM7 2c0 2.76-2.24 5-5 5V2h5z"/></svg>