<svg xmlns="http://www.w3.org/2000/svg" version="1.1" baseProfile="full" width="24" height="24" viewBox="0 0 24.00 24.00" xml:space="preserve"><path fill="#000" fill-opacity="1" stroke-linejoin="round" d="M7 12c0 2.76 2.24 5 5 5s5-2.24 5-5-2.24-5-5-5c-1.126 0-2.164.372-3 1V2.458C9.947 2.16 10.955 2 12 2c5.523 0 10 4.477 10 10s-4.477 10-10 10S2 17.523 2 12c0-3.7 2.01-6.933 5-8.662V12zm7.5 0c0 .365-.196.684-.488.86l-1.902 1.433c-.17.13-.38.207-.61.207-.552 0-1-.448-1-1v-3c0-.552.448-1 1-1 .23 0 .44.077.61.207l1.902 1.434c.292.176.488.495.488.86z"/></svg>