<svg xmlns="http://www.w3.org/2000/svg" version="1.1" baseProfile="full" width="24" height="24" viewBox="0 0 24.00 24.00" xml:space="preserve"><path fill="#000" fill-opacity="1" stroke-width=".2" stroke-linejoin="round" d="M19.582 12.273c-.044-.62-.25-1.088-.623-1.408-.37-.322-.832-.483-1.383-.483-.6 0-1.062.172-1.39.51-.33.34-.538.8-.622 1.38m6.358-.23c.06.406.088.997.077 1.77h-6.49c.035.896.344 1.522.93 1.88.355.225.783.335 1.286.335.53 0 .96-.134 1.294-.41.18-.145.34-.35.478-.61h2.38c-.063.53-.35 1.066-.864 1.61-.798.867-1.916 1.302-3.353 1.302-1.185 0-2.23-.367-3.14-1.098-.904-.733-1.36-1.922-1.36-3.57 0-1.548.41-2.73 1.228-3.555.822-.826 1.882-1.237 3.19-1.237.774 0 1.473.14 2.095.417.622.28 1.135.718 1.54 1.32.365.53.6 1.145.71 1.844zM9.578 14.065c0-.647-.264-1.094-.792-1.334-.294-.136-.71-.205-1.244-.21h-2.67v3.316H7.5c.54 0 .957-.07 1.26-.218.543-.27.816-.788.816-1.554zM4.87 10.46h2.634c.54 0 .98-.102 1.316-.307.336-.206.504-.57.504-1.095 0-.58-.222-.963-.668-1.148-.384-.128-.874-.194-1.47-.194H4.872m6.846 4.705c.323.5.484 1.11.484 1.823 0 .74-.182 1.4-.553 1.986-.235.387-.528.714-.88.977-.396.305-.866.513-1.405.625-.54.112-1.126.168-1.757.168H2V5.554h6.01c1.516.025 2.59.464 3.224 1.326.38.53.57 1.163.57 1.9 0 .76-.192 1.37-.576 1.833-.214.26-.53.495-.948.708.634.233 1.114.598 1.436 1.1zm8.348-5.104h-5.012V6.07h5.012v1.246z"/></svg>