<svg xmlns="http://www.w3.org/2000/svg" version="1.1" baseProfile="full" width="24" height="24" viewBox="0 0 24.00 24.00" xml:space="preserve"><path fill="#000" fill-opacity="1" stroke-width=".2" stroke-linejoin="round" d="M10.01 21.01c0 1.1.89 1.987 1.992 1.987 1.098 0 1.987-.888 1.987-1.986m4.89-4.19V11c0-3.25-2.25-5.97-5.29-6.69v-.72c0-.88-.71-1.587-1.588-1.587-.883 0-1.592.707-1.592 1.586v.72C7.37 5.03 5.122 7.75 5.122 11v5.82l-2.124 2.12V20H21v-1.06m-5-5.933H13v3.004H11v-3.003H7.998v-2.006h3.004V7.998H13v3.004H16"/></svg>