<svg xmlns="http://www.w3.org/2000/svg" version="1.1" baseProfile="full" width="24" height="24" viewBox="0 0 24.00 24.00" xml:space="preserve"><path fill="#000" fill-opacity="1" stroke-width=".2" stroke-linejoin="round" d="M11.5 21.998c.137 0 .272-.014.402-.04.65-.134 1.187-.583 1.44-1.182.1-.24.157-.502.157-.778h-4c0 1.104.895 2 2 2zm6.5-11.5c0-3.073-2.136-5.64-5-6.32V3.5c0-.828-.673-1.5-1.5-1.5-.83 0-1.5.672-1.5 1.5v.68c-2.866.68-5 3.247-5 6.32v5.5l-2 2v1h17v-1l-2-2m1.974-6h2c-.152-3.204-1.732-6.026-4.126-7.85L16.42 3.577c2.036 1.45 3.4 3.772 3.554 6.422zM6.577 3.576L5.15 2.15C2.756 3.97 1.176 6.793 1.024 9.997h2c.155-2.65 1.518-4.972 3.553-6.422z"/></svg>