<svg xmlns="http://www.w3.org/2000/svg" version="1.1" baseProfile="full" width="24" height="24" viewBox="0 0 24.00 24.00" xml:space="preserve"><path fill="#000" fill-opacity="1" stroke-width=".2" stroke-linejoin="round" d="M16 16.998v-6.5c0-2.485-2.015-4.5-4.5-4.5S7 8.013 7 10.498v6.5h9zm2-1l2 2v1H3v-1l2-2v-5.5c0-3.073 2.135-5.64 5-6.32V3.5c0-.828.672-1.5 1.5-1.5s1.5.672 1.5 1.5v.68c2.865.68 5 3.247 5 6.32v5.5zm-6.5 6c-1.104 0-2-.896-2-2h4c0 1.104-.895 2-2 2zm8.474-12c-.155-2.65-1.518-4.972-3.553-6.422L17.85 2.15c2.394 1.822 3.974 4.644 4.126 7.848h-2zM6.577 3.576C4.542 5.026 3.18 7.348 3.024 9.998h-2c.152-3.204 1.732-6.026 4.126-7.85l1.427 1.428z"/></svg>