<svg xmlns="http://www.w3.org/2000/svg" version="1.1" baseProfile="full" width="24" height="24" viewBox="0 0 24.00 24.00" xml:space="preserve"><path fill="#000" fill-opacity="1" stroke-width=".2" stroke-linejoin="round" d="M14 20c0 1.105-.895 2-2 2s-2-.895-2-2h4zm5.738 1.566L17.172 19H3l3-3v-6c0-.654.105-1.284.298-1.873L3.474 5.303 4.89 3.89l2.397 2.397 13.865 13.865-1.414 1.414zM11 4.083V3c0-.552.448-1 1-1s1 .448 1 1v1.083c2.838.476 5 2.944 5 5.917v4.172l-9.23-9.23c.666-.425 1.42-.723 2.23-.86z"/></svg>