<svg xmlns="http://www.w3.org/2000/svg" version="1.1" baseProfile="full" width="24" height="24" viewBox="0 0 24.00 24.00" xml:space="preserve"><path fill="#000" fill-opacity="1" stroke-width="1.333" stroke-linejoin="round" d="M9.227 17.593v5.527H6.88V6.717c0-1.443.428-2.59 1.283-3.44C9.02 2.427 10.168 2 11.61 2c1.378 0 2.463.337 3.255 1.01.792.673 1.188 1.607 1.188 2.8 0 .822-.26 1.59-.78 2.302s-1.195 1.2-2.026 1.468v.043c1.26.194 2.22.65 2.88 1.367.662.718.993 1.633.993 2.747 0 1.326-.458 2.404-1.373 3.233-.916.83-2.12 1.243-3.614 1.243-1.062 0-2.03-.206-2.906-.62zm1.493-6.846v-1.92c.87-.105 1.584-.43 2.145-.972.56-.543.842-1.155.842-1.835 0-1.4-.703-2.1-2.107-2.1-.764 0-1.35.243-1.76.73-.41.487-.613 1.172-.613 2.057v8.783c.91.536 1.8.803 2.666.803.838 0 1.492-.22 1.962-.658.47-.44.705-1.053.705-1.842 0-1.795-1.28-2.81-3.84-3.046z"/></svg>