<svg xmlns="http://www.w3.org/2000/svg" version="1.1" baseProfile="full" width="24" height="24" viewBox="0 0 24.00 24.00" xml:space="preserve"><path fill="#000" fill-opacity="1" stroke-width=".2" stroke-linejoin="round" d="M5 20.498c-1.933 0-3.5-1.567-3.5-3.5s1.567-3.5 3.5-3.5 3.5 1.567 3.5 3.5-1.567 3.5-3.5 3.5zm0-8.5c-2.762 0-5 2.238-5 5 0 2.76 2.238 5 5 5 2.76 0 5-2.24 5-5 0-2.762-2.24-5-5-5zm9.8-2H19v-1.8h-3.202l-1.934-3.266c-.296-.5-.84-.834-1.464-.834-.47 0-.894.19-1.202.498L7.5 8.293c-.308.308-.5.734-.5 1.205 0 .63.334 1.16.85 1.472l3.35 2.028v5H13V11.52l-2.25-1.672 2.32-2.33M19 20.498c-1.933 0-3.5-1.567-3.5-3.5s1.567-3.5 3.5-3.5 3.5 1.567 3.5 3.5-1.567 3.5-3.5 3.5zm0-8.5c-2.762 0-5 2.238-5 5 0 2.76 2.238 5 5 5 2.76 0 5-2.24 5-5 0-2.762-2.24-5-5-5zm-3-7.2c.992 0 1.8-.807 1.8-1.8s-.808-1.8-1.8-1.8c-.995 0-1.8.807-1.8 1.8s.805 1.8 1.8 1.8z"/></svg>