<svg xmlns="http://www.w3.org/2000/svg" version="1.1" baseProfile="full" width="24" height="24" viewBox="0 0 24.00 24.00" xml:space="preserve"><path fill="#000" fill-opacity="1" stroke-linejoin="round" d="M11.998 5.762c3.065.005 5.55-.52 5.55-1.17 0-.653-2.482-1.186-5.546-1.19-3.064-.005-5.55.52-5.55 1.17 0 .653 2.482 1.185 5.546 1.19zM12 14.395c1.52 0 2.754-1.233 2.754-2.753S13.52 8.888 12 8.888c-1.52 0-2.754 1.233-2.754 2.754 0 1.52 1.233 2.753 2.754 2.753zM12 2c4.77 0 8.663 1.282 8.663 2.874 0 .42-1.04 6.432-1.453 8.816-.184 1.07-2.948 2.637-7.208 2.637v-.013l-.004.013c-4.26 0-7.023-1.568-7.208-2.637-.413-2.384-1.453-8.397-1.453-8.816C3.337 3.282 7.23 2 12 2zm6.226 14.08c.158 0 .307.105.307.338l-.007.074c-.33 1.772-.573 3.03-.616 3.22C17.62 21.017 15.07 22 12 22c-3.07 0-5.62-.984-5.91-2.287-.043-.192-.285-1.45-.616-3.22l-.007-.075c0-.233.15-.34.307-.34.13 0 .237.095.237.095s2.134 1.69 5.99 1.69c3.856 0 5.99-1.69 5.99-1.69s.105-.094.236-.094zm-4.85-4.44c0 .763-.617 1.38-1.38 1.38-.76 0-1.38-.617-1.38-1.38 0-.762.62-1.38 1.38-1.38.763 0 1.38.618 1.38 1.38z"/></svg>