<svg xmlns="http://www.w3.org/2000/svg" version="1.1" baseProfile="full" width="24" height="24" viewBox="0 0 24.00 24.00" xml:space="preserve"><path fill="#000" fill-opacity="1" stroke-width=".2" stroke-linejoin="round" d="M5.448 10.276c.952 0 2.07.772 2.07 1.724s-1.118 1.724-2.07 1.724H2l.69-3.448h2.758zm.69-5.517c.952 0 2.07.77 2.07 1.723 0 .952-1.118 1.724-2.07 1.724H2.69l.69-3.448h2.758zm6.896 0c.953 0 2.07.77 2.07 1.723 0 .952-1.117 1.724-2.07 1.724h-3.62l.69-3.448h2.93zm-.69 5.516c.953 0 2.07.772 2.07 1.724s-1.117 1.724-2.07 1.724h-3.62l.69-3.448h2.93zm-1.378 5.517c.952 0 2.07.772 2.07 1.724-.002.953-1.118 1.724-2.07 1.724h-3.45l.69-3.447h2.76zm7.586-2.07c.952 0 2.07.773 2.07 1.725 0 .953-1.118 1.724-2.07 1.724h-3.448l.69-3.448h2.758zm1.38-5.516c.95 0 2.068.772 2.068 1.724 0 .953-1.117 1.725-2.07 1.725h-3.447l.69-3.448h2.758z"/></svg>