<svg xmlns="http://www.w3.org/2000/svg" version="1.1" baseProfile="full" width="24" height="24" viewBox="0 0 24.00 24.00" xml:space="preserve"><path fill="#000" fill-opacity="1" stroke-width="1.333" stroke-linejoin="miter" d="M8 3c0 .34.17.685.487.876L12 6H2.5C1.67 6 1 6.67 1 7.5S1.67 9 2.5 9h5.906L2 13c-.837.523-1 1.22-1 2 0 .99.768 2 2 2 .69 0 1.39-.513 2-1l2-1.625C7.198 18.617 10.71 22 15 22c4.418 0 8-3.582 8-8 0-2.923-1.566-5.48-3.906-6.875-.032-.02-.06-.045-.094-.062 0 0-.083-.06-.14-.098-3.1-2.088-5.827-3.246-9.312-4.833C9.343 2.04 9.16 2 9 2c-.6 0-1 .463-1 1zm7 6c2.76 0 5 2.24 5 5s-2.24 5-5 5-5-2.24-5-5 2.24-5 5-5zm0 1.5c-1.933 0-3.5 1.567-3.5 3.5s1.567 3.5 3.5 3.5 3.5-1.567 3.5-3.5-1.567-3.5-3.5-3.5z"/></svg>