<svg xmlns="http://www.w3.org/2000/svg" version="1.1" baseProfile="full" width="24" height="24" viewBox="0 0 24.00 24.00" xml:space="preserve"><path fill="#000" fill-opacity="1" stroke-width=".2" stroke-linejoin="round" d="M3 2h18c.552 0 1 .448 1 1v2c0 .552-.448 1-1 1h-1v7c0 .552-.448 1-1 1h-6v2.17c1.165.412 2 1.524 2 2.83 0 1.657-1.343 3-3 3s-3-1.343-3-3c0-1.306.835-2.418 2-2.83V14H5c-.552 0-1-.448-1-1V6H3c-.552 0-1-.448-1-1V3c0-.552.448-1 1-1zm9 16c-.552 0-1 .448-1 1s.448 1 1 1 1-.448 1-1-.448-1-1-1z"/></svg>