<svg xmlns="http://www.w3.org/2000/svg" version="1.1" baseProfile="full" width="24" height="24" viewBox="0 0 24.00 24.00" xml:space="preserve"><path fill="#000" fill-opacity="1" stroke-width=".2" stroke-linejoin="round" d="M14 12.998H9.95c-.554 0-1 .447-1 1 0 .553.446 1 1 1H14c.552 0 1-.447 1-1 0-.553-.448-1-1-1zm-4.05-3h2.6c.55 0 1-.447 1-1 0-.553-.45-1-1-1h-2.6c-.554 0-1 .447-1 1 0 .553.446 1 1 1zm6.05-1v1c0 .553.447 1 1 1 .552 0 1 .447 1 1v3c0 1.656-1.344 3-3 3H9c-1.658 0-3-1.344-3-3v-7c0-1.656 1.342-3 3-3h4c1.656 0 3 1.344 3 3m4-6H4c-1.106 0-1.99.895-1.99 2l-.01 16c0 1.104.894 2 2 2h16c1.103 0 2-.896 2-2v-16c0-1.105-.897-2-2-2z"/></svg>