<svg xmlns="http://www.w3.org/2000/svg" version="1.1" baseProfile="full" width="24" height="24" viewBox="0 0 24.00 24.00" xml:space="preserve"><path fill="#000" fill-opacity="1" stroke-width=".2" stroke-linejoin="round" d="M12.878 16.29l-1.88 1.88v-3.758m0-8.586l1.88 1.88-1.88 1.878m4.708-1.88L10 2H9v7.586L4.412 4.998 3 6.412l5.585 5.586L3 17.584l1.413 1.414L9 14.412v7.586h1l5.706-5.707L11.413 12m8.115-5.287l-1.264 1.265c.626 1.206.985 2.57.985 4.023 0 1.452-.36 2.817-.986 4.023l1.2 1.2c.967-1.54 1.535-3.355 1.535-5.308 0-1.908-.545-3.684-1.472-5.2zm-5.287 5.3l2.32 2.318c.28-.724.44-1.508.44-2.33 0-.816-.158-1.594-.433-2.314L14.24 12.01z"/></svg>