<svg xmlns="http://www.w3.org/2000/svg" version="1.1" baseProfile="full" width="24" height="24" viewBox="0 0 24.00 24.00" xml:space="preserve"><path fill="#000" fill-opacity="1" stroke-width=".2" stroke-linejoin="round" d="M8 14c0 1.657-1.343 3-3 3s-3-1.343-3-3c0-.768.29-1.47.764-2C2.29 11.47 2 10.768 2 10c0-1.657 1.343-3 3-3s3 1.343 3 3c1.333.083 2.667.167 4 .167 1.333 0 2.667-.084 4-.167 0-1.657 1.343-3 3-3s3 1.343 3 3c0 .768-.29 1.47-.764 2 .475.53.764 1.232.764 2 0 1.657-1.343 3-3 3s-3-1.343-3-3c-1.333-.083-2.667-.167-4-.167-1.333 0-2.667.084-4 .167z"/></svg>