<svg xmlns="http://www.w3.org/2000/svg" version="1.1" baseProfile="full" width="24" height="24" viewBox="0 0 24.00 24.00" xml:space="preserve"><path fill="#000" fill-opacity="1" stroke-width="1.333" stroke-linejoin="miter" d="M7 5L5 7v1H3c-.554 0-1 .446-1 1v8c0 .554.446 1 1 1h18c.554 0 1-.446 1-1V9c0-.554-.446-1-1-1h-2V7l-2-2H7zm0 2h10v1H7V7zm4 2h2c.277 0 .5.223.5.5s-.223.5-.5.5h-2c-.277 0-.5-.223-.5-.5s.223-.5.5-.5zm-3.5 1.5c1.657 0 3 1.343 3 3s-1.343 3-3 3-3-1.343-3-3 1.343-3 3-3zm9 0c1.657 0 3 1.343 3 3s-1.343 3-3 3-3-1.343-3-3 1.343-3 3-3zm-9 1.5c-.828 0-1.5.672-1.5 1.5S6.672 15 7.5 15 9 14.328 9 13.5 8.328 12 7.5 12zm9 0c-.828 0-1.5.672-1.5 1.5s.672 1.5 1.5 1.5 1.5-.672 1.5-1.5-.672-1.5-1.5-1.5z"/></svg>