<svg xmlns="http://www.w3.org/2000/svg" version="1.1" baseProfile="full" width="24" height="24" viewBox="0 0 24.00 24.00" xml:space="preserve"><path fill="#000" fill-opacity="1" stroke-width=".2" stroke-linejoin="miter" d="M7.222 11.906c-.33.33-.513.744-.565 1.172l5.515 2.364 8.485-8.486c.783-.783.783-2.045 0-2.828l-1.414-1.414c-.784-.784-2.045-.784-2.83 0l-9.19 9.192zM5 16v5.75l5.813-5.22-5-2L5 16zM17.12 4.835c.392-.39 1.025-.39 1.416 0 .39.39.39 1.024 0 1.414-.39.39-1.024.39-1.415 0-.39-.39-.39-1.025 0-1.415z"/></svg>