<svg xmlns="http://www.w3.org/2000/svg" version="1.1" baseProfile="full" width="24" height="24" viewBox="0 0 24.00 24.00" xml:space="preserve"><path fill="#000" fill-opacity="1" stroke-linejoin="round" d="M15.387 14.037c0-1.416-1.147-2.563-2.562-2.563-1.415 0-2.562 1.147-2.563 2.562 0 1.415 1.148 2.563 2.563 2.563 1.415-.002 2.562-1.15 2.563-2.564zm1.71 0c0 2.36-1.913 4.272-4.272 4.272-1.636 0-3.056-.92-3.774-2.27-.717 1.35-2.138 2.27-3.773 2.27-2.336 0-4.233-1.876-4.27-4.203h-.003V7.02c.01-.465.39-.838.855-.838.465 0 .844.373.854.837v3.598c.714-.537 1.6-.854 2.563-.854 1.635 0 3.056.92 3.774 2.27.72-1.35 2.14-2.27 3.775-2.27 2.36 0 4.272 1.912 4.272 4.272zm-9.258 0c0-1.416-1.148-2.563-2.563-2.563-1.415 0-2.563 1.147-2.563 2.562 0 1.415 1.148 2.563 2.563 2.563 1.415-.002 2.562-1.15 2.562-2.564zm15.004 2.927c.11.155.163.334.16.51-.003.256-.12.507-.34.673-.155.116-.335.17-.513.17-.253 0-.504-.112-.673-.326l-1.888-2.523-1.89 2.524c-.168.215-.42.328-.674.328-.178 0-.358-.056-.512-.17-.225-.17-.343-.43-.34-.69 0-.172.052-.344.16-.494l2.187-2.925-2.187-2.925c-.11-.153-.16-.33-.16-.504 0-.257.12-.51.34-.678.374-.28.9-.21 1.187.156l1.89 2.524 1.887-2.524c.287-.365.813-.436 1.186-.156.227.17.345.43.34.695 0 .17-.053.34-.16.487l-2.187 2.925 2.188 2.924z"/></svg>