<svg xmlns="http://www.w3.org/2000/svg" version="1.1" baseProfile="full" width="24" height="24" viewBox="0 0 24.00 24.00" xml:space="preserve"><path fill="#000" fill-opacity="1" stroke-width="1.333" stroke-linejoin="miter" d="M7 14v-3.09c-.716-.333-1.386-.735-2-1.196V14h2zm-2 4H3v-2H1v-2h2V7h2v1.427C6.804 10.02 9.275 11 12 11c2.725 0 5.196-.98 7-2.573V7h2v7h2v2h-2v2h-2v-2H5v2zm12-7.09V14h2V9.714c-.614.46-1.284.863-2 1.196zM16 14v-2.682c-.64.227-1.31.402-2 .517V14h2zm-3 0v-2.04L12 12l-1-.04V14h2zm-3 0v-2.165c-.69-.115-1.36-.29-2-.517V14h2z"/></svg>