<svg xmlns="http://www.w3.org/2000/svg" version="1.1" baseProfile="full" width="24" height="24" viewBox="0 0 24.00 24.00" xml:space="preserve"><path fill="#000" fill-opacity="1" stroke-width="1.333" stroke-linejoin="miter" d="M12.6 2.864c2.675 1.24 5.393 2.522 8.064 3.77.143.067.33.112.33.314s-.187.247-.33.314c-2.68 1.254-5.363 2.507-8.047 3.757-.41.19-.828.187-1.238-.004-2.69-1.253-5.377-2.51-8.064-3.765-.138-.064-.312-.113-.307-.31.004-.184.17-.23.304-.294 2.698-1.26 5.424-2.54 8.126-3.794.285-.133.862-.124 1.16.012zm-.602 18.284c-.195 0-.34-.073-.618-.177-2.685-1.245-5.367-2.497-8.048-3.75-.143-.067-.327-.114-.326-.317.002-.202.187-.247.33-.315.444-.21.89-.418 1.338-.625.446-.207.89-.204 1.338.006 1.777.832 3.557 1.66 5.335 2.493.44.206.88.202 1.32-.005 1.783-.835 3.567-1.668 5.35-2.5.423-.198.85-.203 1.273-.01.476.214.948.438 1.42.66.07.033.142.07.2.12.127.106.13.25 0 .353-.078.064-.172.11-.264.153-2.66 1.243-5.32 2.486-7.982 3.72-.207.097-.472.195-.666.195zm-.01-4.98c-.088 0-.434-.094-.63-.185-2.675-1.242-5.345-2.49-8.015-3.74-.144-.067-.33-.11-.335-.31-.003-.212.192-.255.34-.325.45-.214.9-.426 1.353-.634.43-.197.86-.192 1.29.008 1.795.84 3.59 1.678 5.387 2.513.416.194.838.192 1.254 0 1.803-.84 3.604-1.682 5.405-2.522.417-.194.838-.194 1.255-.004.475.216.947.44 1.42.66.064.032.13.064.186.108.144.114.143.265-.003.38-.055.043-.122.075-.187.105-2.697 1.26-5.395 2.524-8.096 3.778-.185.087-.533.17-.62.17z"/></svg>