<svg xmlns="http://www.w3.org/2000/svg" version="1.1" baseProfile="full" width="24" height="24" viewBox="0 0 24.00 24.00" xml:space="preserve"><path fill="#000" fill-opacity="1" stroke-linejoin="round" d="M16 12v4c0 .552-.448 1-1 1-.167 0-.333 0-.944-.5-.612-.5-1.667-1.5-2.75-2-1-.46-2.023-.497-3.048-.5l1.208 3.318.034.182c0 .276-.224.5-.5.5H7c-.22 0-.407-.142-.474-.34L5.194 14H5c-.552 0-1-.448-1-1-1.105 0-2-.895-2-2s.895-2 2-2c0-.552.448-1 1-1h3c1.11 0 2.222 0 3.306-.5 1.083-.5 2.138-1.5 2.75-2 .61-.5.777-.5.944-.5.552 0 1 .448 1 1v4c.552 0 1 .448 1 1s-.448 1-1 1zm5-1c0 1.38-.56 2.63-1.465 3.536L18.12 13.12c.544-.542.88-1.292.88-2.12 0-.828-.336-1.578-.88-2.12l1.415-1.416C20.44 8.37 21 9.62 21 11z"/></svg>