<svg xmlns="http://www.w3.org/2000/svg" version="1.1" baseProfile="full" width="24" height="24" viewBox="0 0 24.00 24.00" xml:space="preserve"><path fill="#000" fill-opacity="1" stroke-width=".2" stroke-linejoin="round" d="M18 10.998H6v-5h12m-1.5 11c-.83 0-1.5-.672-1.5-1.5s.67-1.5 1.5-1.5c.828 0 1.5.672 1.5 1.5s-.672 1.5-1.5 1.5zm-9 0c-.83 0-1.5-.672-1.5-1.5s.67-1.5 1.5-1.5c.828 0 1.5.672 1.5 1.5s-.672 1.5-1.5 1.5zm-3.5-1c0 .885.39 1.672 1 2.22V20c0 .552.447 1 1 1h1c.552 0 1-.448 1-1v-1h8v1c0 .552.446 1 1 1h1c.55 0 1-.448 1-1v-1.78c.61-.548 1-1.335 1-2.22v-10c0-3.5-3.583-4-8-4-4.42 0-8 .5-8 4v10z"/></svg>