<svg xmlns="http://www.w3.org/2000/svg" version="1.1" baseProfile="full" width="24" height="24" viewBox="0 0 24.00 24.00" xml:space="preserve"><path fill="#000" fill-opacity="1" stroke-width=".2" stroke-linejoin="round" d="M19 7.997l-4 4.005h2.997c0 3.305-2.69 5.995-5.995 5.995-1.01 0-1.973-.248-2.803-.697l-1.46 1.46C8.97 19.54 10.43 20 12 20 16.422 20 20 16.42 20 12.002h2.997m-16.996 0c0-3.31 2.69-6 6.002-6 1.005 0 1.968.248 2.798.697l1.46-1.46C15.03 4.456 13.57 4 12.002 4 7.58 4 4 7.576 4 12H1l4 4 4-4"/></svg>