<svg xmlns="http://www.w3.org/2000/svg" version="1.1" baseProfile="full" width="24" height="24" viewBox="0 0 24.00 24.00" xml:space="preserve"><path fill="#000" fill-opacity="1" stroke-linejoin="round" d="M11.5.5c.5.25 1.5 1.895 1.5 3S12.328 5 11.5 5 10 4.855 10 3.75 11 2 11.5.5zm7 8.5c2.485 0 4.5 2.015 4.5 4.5 0 1.56-.794 2.935-2 3.742V23H3v-5.758c-1.206-.807-2-2.182-2-3.742C1 11.015 3.015 9 5.5 9H10V6h3v3h5.5zM12 16c1.38 0 2.5-1.12 2.5-2.5H16c0 1.38 1.12 2.5 2.5 2.5s2.5-1.12 2.5-2.5-1.12-2.5-2.5-2.5h-13C4.12 11 3 12.12 3 13.5S4.12 16 5.5 16 8 14.88 8 13.5h1.5c0 1.38 1.12 2.5 2.5 2.5z"/></svg>