<svg xmlns="http://www.w3.org/2000/svg" version="1.1" baseProfile="full" width="24" height="24" viewBox="0 0 24.00 24.00" xml:space="preserve"><path fill="#000" fill-opacity="1" stroke-width=".2" stroke-linejoin="round" d="M12.002 6C13.11 6 14 5.1 14 4c0-.38-.1-.73-.29-1.03L12.003 0l-1.715 2.97c-.19.3-.287.65-.287 1.03 0 1.098.9 2 2.002 2zm4.6 9.99l-1.07-1.07-1.083 1.07c-1.3 1.3-3.58 1.31-4.89 0l-1.07-1.07-1.088 1.07c-.655.65-1.523 1.013-2.44 1.013-.733 0-1.402-.236-1.964-.612V21c0 .547.454 1.003 1 1.003H20c.552 0 1-.456 1-1.002v-4.61c-.56.377-1.23.613-1.962.613-.918 0-1.787-.363-2.437-1.012zM17.996 9h-5V7.002h-1.996v1.996H6C4.34 9 3 10.34 3 12v1.538c0 1.08.883 1.958 1.963 1.958.52 0 1.02-.2 1.378-.567l2.143-2.133 2.13 2.134c.738.74 2.03.74 2.77 0l2.137-2.133 2.134 2.134c.367.367.86.568 1.38.568 1.082 0 1.96-.88 1.96-1.958v-1.537C21 10.34 19.66 8.998 18 8.998z"/></svg>