<svg xmlns="http://www.w3.org/2000/svg" version="1.1" baseProfile="full" width="24" height="24" viewBox="0 0 24.00 24.00" xml:space="preserve"><path fill="#000" fill-opacity="1" stroke-width=".2" stroke-linejoin="round" d="M15 13h1.5v2.823l2.438 1.408-.75 1.3L15 16.69V13zm4-5.002H5v11h4.673C9.24 18.088 9 17.073 9 16c0-3.866 3.134-7 7-7 1.073 0 2.09.242 3 .673V7.998zm-14 13c-1.107 0-2-.896-2-2l.01-14c0-1.105.883-2 1.99-2h1v-2h2v2h8v-2h2v2h1c1.102 0 2 .895 2 2V11.1c1.237 1.263 2 2.992 2 4.9 0 3.866-3.134 7-7 7-1.908 0-3.638-.764-4.9-2.002H5zm11-9.844c-2.677 0-4.846 2.17-4.846 4.846 0 2.677 2.17 4.846 4.846 4.846 2.677 0 4.846-2.17 4.846-4.846s-2.17-4.846-4.846-4.846z"/></svg>