<svg xmlns="http://www.w3.org/2000/svg" version="1.1" baseProfile="full" width="24" height="24" viewBox="0 0 24.00 24.00" xml:space="preserve"><path fill="#000" fill-opacity="1" stroke-width=".2" stroke-linejoin="round" d="M13.73 14.998l-3.9 6.757c.7.155 1.423.243 2.17.243 2.397 0 4.596-.846 6.32-2.253l-3.665-6.347m-12.197 1.6c.92 2.924 3.148 5.26 5.996 6.34l3.66-6.34m-3.58-3l-3.897-6.75C3.004 7.027 2 9.39 2 11.997c0 .685.07 1.354.2 2h7.49m12.108-4h-7.49l.29.5 4.763 8.25C20.995 16.97 22 14.605 22 12c0-.685-.07-1.354-.202-2zm-.258-1c-.92-2.924-3.148-5.26-5.995-6.34l-3.66 6.34m-2.484 1.5L14.17 2.24c-.7-.154-1.423-.242-2.17-.242-2.397 0-4.596.846-6.32 2.253L9.344 10.6l.058-.1z"/></svg>