<svg xmlns="http://www.w3.org/2000/svg" version="1.1" baseProfile="full" width="24" height="24" viewBox="0 0 24.00 24.00" xml:space="preserve"><path fill="#000" fill-opacity="1" stroke-width=".2" stroke-linejoin="round" d="M4.936 6.346c-.39-.39-.39-1.023 0-1.414.39-.39 1.024-.39 1.415 0l6.724 5.378.348.28c.78.78.78 2.046 0 2.827-.782.78-2.048.78-2.83 0l-.277-.348-5.38-6.724zM12 19.998c4.417 0 8-3.58 8-8 0-2.21-.895-4.208-2.342-5.656l1.414-1.414c1.81 1.81 2.927 4.31 2.927 7.07 0 5.523-4.478 10-10 10-5.523 0-10-4.476-10-9.998h2c0 4.418 3.582 7.998 8 7.998zM12 1c1.105 0 2 .895 2 2s-.895 2-2 2-2-.895-2-2 .895-2 2-2z"/></svg>