<svg xmlns="http://www.w3.org/2000/svg" version="1.1" baseProfile="full" width="24" height="24" viewBox="0 0 24.00 24.00" xml:space="preserve"><path fill="#000" fill-opacity="1" stroke-width=".2" stroke-linejoin="round" d="M1.2 4.468L2.477 3.2 20 20.723 18.732 22l-2-2H4c-1.105 0-2-.895-2-2V6c0-.22.036-.432.1-.63l-.9-.902zM7 4l2-2h6l2 2h3c1.105 0 2 .895 2 2v12c0 .597-.262 1.134-.677 1.5l-4.995-4.995C16.755 13.77 17 12.913 17 12c0-2.76-2.24-5-5-5-.913 0-1.77.245-2.505.672L5.823 4H7zm0 8c0 2.76 2.24 5 5 5 .523 0 1.028-.08 1.502-.23l-1.784-1.783c-1.432-.133-2.572-1.273-2.705-2.706L7.23 10.5c-.15.474-.23.98-.23 1.502zm5-3c1.657 0 3 1.343 3 3 0 .352-.06.69-.172 1.005l-3.833-3.833C11.31 9.062 11.648 9 12 9z"/></svg>