<svg xmlns="http://www.w3.org/2000/svg" version="1.1" baseProfile="full" width="24" height="24" viewBox="0 0 24.00 24.00" xml:space="preserve"><path fill="#000" fill-opacity="1" stroke-width=".2" stroke-linejoin="round" d="M9 2.998L7.167 5h-3.17C2.9 5 2.003 5.9 2.003 7.003v11.996c0 1.098.898 2 1.997 2h16c1.1 0 2.003-.902 2.003-2V7.002C22.003 5.9 21.099 5 20 5h-3.17L15 2.998m-2.998 15c-2.763 0-5-2.237-5-5 0-2.76 2.237-5 5-5 2.76 0 5 2.24 5 5 0 2.763-2.24 5-5 5zm0-.995l1.25-2.755 2.75-1.25-2.75-1.25-1.25-2.75-1.25 2.75-2.755 1.25 2.755 1.25"/></svg>