<svg xmlns="http://www.w3.org/2000/svg" version="1.1" baseProfile="full" width="24" height="24" viewBox="0 0 24.00 24.00" xml:space="preserve"><path fill="#000" fill-opacity="1" stroke-width=".2" stroke-linejoin="round" d="M12 16.998c-1.63 0-3.065-.792-3.98-2H12c1.656 0 3-1.343 3-3 0-.353-.073-.686-.185-1h2.083c.066.323.1.657.1 1 0 2.76-2.238 5-5 5zm0-10c1.63 0 3.063.792 3.977 2H12c-1.658 0-3 1.343-3 3 0 .353.07.686.183 1H7.1c-.066-.323-.1-.657-.1-1 0-2.76 2.238-5 5-5zm8-3h-3.173l-1.828-2H9l-1.83 2H4c-1.105 0-2 .895-2 2v12c0 1.104.895 2 2 2h16c1.103 0 2-.896 2-2v-12c0-1.105-.897-2-2-2z"/></svg>