<svg xmlns="http://www.w3.org/2000/svg" version="1.1" baseProfile="full" width="24" height="24" viewBox="0 0 24.00 24.00" xml:space="preserve"><path fill="#000" fill-opacity="1" stroke-width="1.333" stroke-linejoin="miter" d="M12.5 2c-1.657 0-3 3.343-3 5s1.343 3 3 3 3-1.343 3-3-1.343-5-3-5zm0 4.5c.552 0 1 .448 1 1s-.448 1-1 1-1-.448-1-1 .448-1 1-1zM10 11c-.554 0-1 .446-1 1v8H7c-.552 0-1-.448-1-1v-1c0-.554-.446-1-1-1s-1 .446-1 1v1c0 1.657 1.343 3 3 3h12c.554 0 1-.446 1-1s-.446-1-1-1h-3v-8c0-.554-.446-1-1-1h-5z"/></svg>