<svg xmlns="http://www.w3.org/2000/svg" version="1.1" baseProfile="full" width="24" height="24" viewBox="0 0 24.00 24.00" xml:space="preserve"><path fill="#000" fill-opacity="1" stroke-linejoin="round" d="M10 10c0 1.105-.895 2-2 2s-2-.895-2-2V8c0-.626.096-1.23.274-1.797L10 9.93V10zm2-8c.736 0 1.442.133 2.094.376L11.97 6c-.826.013-1.53.525-1.823 1.247L7.243 4.343C8.34 2.918 10.063 2 12 2zm5.76 4.312L14 10.072V8c0-.375-.103-.726-.283-1.026l2.108-3.597c.91.754 1.594 1.77 1.934 2.935zm.24 6.774l-4 4V12.9l4-4v4.186zM18 20c0 1.105-.895 2-2 2s-2-.895-2-2v-.086l4-4V20z"/></svg>