<svg xmlns="http://www.w3.org/2000/svg" version="1.1" baseProfile="full" width="24" height="24" viewBox="0 0 24.00 24.00" xml:space="preserve"><path fill="#000" fill-opacity="1" stroke-width=".2" stroke-linejoin="round" d="M5 12.998l1.5-4.5h11l1.5 4.5m-1.5 5c-.83 0-1.5-.672-1.5-1.5s.67-1.5 1.5-1.5c.828 0 1.5.672 1.5 1.5s-.672 1.5-1.5 1.5zm-11 0c-.83 0-1.5-.672-1.5-1.5s.67-1.5 1.5-1.5c.828 0 1.5.672 1.5 1.5s-.672 1.5-1.5 1.5zm12.418-9.99C18.715 7.42 18.156 7 17.498 7h-11c-.656 0-1.214.422-1.417 1.01L3 14v8c0 .552.447 1 1 1h1c.552 0 1-.448 1-1v-1h12v1c0 .552.447 1 1 1h1c.552 0 1-.448 1-1v-8m-14-9c.828 0 1.5-.67 1.5-1.5 0-1-1.5-2.7-1.5-2.7s-1.5 1.7-1.5 2.7c0 .83.67 1.5 1.5 1.5zm5 0c.828 0 1.5-.67 1.5-1.5 0-1-1.5-2.7-1.5-2.7s-1.5 1.7-1.5 2.7c0 .83.67 1.5 1.5 1.5zm5 0c.828 0 1.5-.67 1.5-1.5 0-1-1.5-2.7-1.5-2.7s-1.5 1.7-1.5 2.7c0 .83.67 1.5 1.5 1.5z"/></svg>