<svg xmlns="http://www.w3.org/2000/svg" version="1.1" baseProfile="full" width="24" height="24" viewBox="0 0 24.00 24.00" xml:space="preserve"><path fill="#000" fill-opacity="1" stroke-width=".2" stroke-linejoin="round" d="M5 14h14l-1.5-4.502h-11l-1.5 4.5zm12.5 5c.83 0 1.5-.675 1.5-1.5 0-.83-.67-1.504-1.5-1.504S16 16.67 16 17.5c0 .825.67 1.5 1.5 1.5zm-11 0c.83 0 1.497-.675 1.497-1.5 0-.83-.668-1.504-1.498-1.504-.826 0-1.5.674-1.5 1.504 0 .825.674 1.5 1.5 1.5zm12.416-9.99L21 15v7.997C21 23.55 20.553 24 20 24h-1c-.552 0-1.003-.45-1.003-1.003v-1H6v1C6 23.55 5.55 24 5 24H4c-.553 0-1.002-.45-1.002-1.003V15l2.084-5.99c.202-.592.763-1.013 1.417-1.013h11c.654 0 1.216.42 1.416 1.012zM12.002.02c2.114 0 4.146.84 5.644 2.334L16.23 3.77c-1.123-1.12-2.646-1.75-4.228-1.754-1.587 0-3.11.63-4.233 1.755L6.357 2.355C7.85.86 9.883.02 12.002.02zm0 4c1.054 0 2.066.42 2.817 1.16l-1.416 1.416c-.37-.37-.88-.576-1.402-.58-.527.004-1.03.21-1.406.58L9.18 5.18c.75-.74 1.763-1.16 2.822-1.16z"/></svg>