<svg xmlns="http://www.w3.org/2000/svg" version="1.1" baseProfile="full" width="24" height="24" viewBox="0 0 24.00 24.00" xml:space="preserve"><path fill="#000" fill-opacity="1" stroke-linejoin="round" d="M16 10l-.2 1h-2.3c-.276 0-.5.224-.5.5s.224.5.5.5h2.1l-1 5h-2.1c-.276 0-.5.224-.5.5s.224.5.5.5h1.9l-.4 2c0 1.105-.895 2-2 2s-2-.895-2-2l-1-5h1.5c.276 0 .5-.224.5-.5s-.224-.5-.5-.5H8.8L8 10c0-1.197.935-2.23 2.287-2.712L8.9 5.278c-.314-.456-.2-1.078.255-1.392.455-.314 1.078-.2 1.39.255L11 4.8V3c0-.552.448-1 1-1s1 .448 1 1v2.284l1.477-1.742c.357-.42.988-.473 1.41-.116.42.357.473.988.116 1.41l-2.13 2.512C15.137 7.852 16 8.85 16 10z"/></svg>