<svg xmlns="http://www.w3.org/2000/svg" version="1.1" baseProfile="full" width="24" height="24" viewBox="0 0 24.00 24.00" xml:space="preserve"><path fill="#000" fill-opacity="1" stroke-width=".2" stroke-linejoin="round" d="M17 17.998c1.103 0 2 .895 2 2s-.897 2-2 2c-1.106 0-1.99-.895-1.99-2s.884-2 1.99-2zm-16-16h3.265l.947 2H20c.55 0 1 .447 1 1 0 .175-.046.34-.125.482L17.3 11.97c-.343.613-.998 1.028-1.75 1.028H8.1l-.896 1.63-.032.12c0 .14.112.25.25.25H19v2H7c-1.106 0-2-.895-2-2 0-.348.088-.676.244-.96l1.352-2.453L3 3.998H1v-2zm6 16c1.103 0 2 .895 2 2s-.897 2-2 2c-1.106 0-1.99-.895-1.99-2s.884-2 1.99-2zM16 11l2.778-5H6.138L8.5 11H16z"/></svg>