<svg xmlns="http://www.w3.org/2000/svg" version="1.1" baseProfile="full" width="24" height="24" viewBox="0 0 24.00 24.00" xml:space="preserve"><path fill="#000" fill-opacity="1" stroke-width=".2" stroke-linejoin="round" d="M11 9H13V6H16V4H13V1H11v3H7.998v2h3.004M7.004 17.998c-1.104 0-1.993.904-1.993 2.003 0 1.1.89 2.003 1.993 2.003 1.097 0 1.996-.904 1.996-2.003 0-1.1-.9-2.003-1.997-2.003zm10 0c-1.104 0-1.993.904-1.993 2.003 0 1.1.89 2.003 1.993 2.003 1.097 0 1.996-.904 1.996-2.003 0-1.1-.9-2.003-1.997-2.003zM7.168 14.75l.034-.12.898-1.633h7.45c.75 0 1.407-.41 1.75-1.03l3.863-7.006L19.419 4h-.01l-1.1 2-2.76 5H8.53l-.13-.268-2.238-4.73-.952-2.003L4.268 2H1V4H3L6.6 11.59l-1.35 2.447c-.162.284-.25.612-.25.963 0 1.1.9 2.003 2.003 2.003h11.996V15H7.42c-.132 0-.254-.113-.254-.25z"/></svg>