<svg xmlns="http://www.w3.org/2000/svg" version="1.1" baseProfile="full" width="24" height="24" viewBox="0 0 24.00 24.00" xml:space="preserve"><path fill="#000" fill-opacity="1" stroke-width=".2" stroke-linejoin="round" d="M17 17.998c-1.106 0-1.99.895-1.99 2s.884 2 1.99 2c1.103 0 2-.895 2-2s-.897-2-2-2zm-16-16v2h2l3.596 7.587-1.352 2.452c-.156.285-.245.613-.245.96 0 1.106.894 2 2 2h12v-2H7.42c-.138 0-.25-.11-.25-.25 0-.043.012-.085.032-.12l.897-1.63h7.45c.752 0 1.407-.414 1.75-1.028l3.575-6.49c.08-.142.124-.307.124-.482 0-.553-.45-1-1-1H5.21l-.947-2m2.734 16c-1.106 0-1.99.895-1.99 2s.884 2 1.99 2c1.103 0 2-.895 2-2s-.897-2-2-2z"/></svg>