<svg xmlns="http://www.w3.org/2000/svg" version="1.1" baseProfile="full" width="24" height="24" viewBox="0 0 24.00 24.00" xml:space="preserve"><path fill="#000" fill-opacity="1" stroke-width=".2" stroke-linejoin="round" d="M2 5h20v15H2V5zm18 13V7H4v11h16zM17 8c0 1.105.895 2 2 2v5c-1.105 0-2 .895-2 2H7c0-1.105-.895-2-2-2v-5c1.105 0 2-.895 2-2h10zm0 5v-1c0-1.105-.672-2-1.5-2s-1.5.895-1.5 2v1c0 1.105.672 2 1.5 2s1.5-.895 1.5-2zm-1.5-2c.276 0 .5.224.5.5v2c0 .276-.224.5-.5.5s-.5-.224-.5-.5v-2c0-.276.224-.5.5-.5zM13 13v-1c0-1.105-.672-2-1.5-2s-1.5.895-1.5 2v1c0 1.105.672 2 1.5 2s1.5-.895 1.5-2zm-1.5-2c.276 0 .5.224.5.5v2c0 .276-.224.5-.5.5s-.5-.224-.5-.5v-2c0-.276.224-.5.5-.5zM8 15h1v-5H8l-1 .5v1l1-.5v4z"/></svg>