<svg xmlns="http://www.w3.org/2000/svg" version="1.1" baseProfile="full" width="24" height="24" viewBox="0 0 24.00 24.00" xml:space="preserve"><path fill="#000" fill-opacity="1" stroke-width=".2" stroke-linejoin="round" d="M21 2.998H3c-1.106 0-2 .896-2 2v3h2v-3h18v14h-7v2h7c1.103 0 2-.896 2-2v-14c0-1.104-.897-2-2-2zm-20 7v2c4.97 0 9 4.03 9 9h2c0-6.075-4.927-11-11-11zm18-3H5v1.634c3.96 1.28 7.085 4.406 8.365 8.366H19m-18-3v2c2.76 0 5 2.238 5 5h2c0-3.866-3.135-7-7-7zm0 4v3h3c0-1.656-1.344-3-3-3z"/></svg>