<svg xmlns="http://www.w3.org/2000/svg" version="1.1" baseProfile="full" width="24" height="24" viewBox="0 0 24.00 24.00" xml:space="preserve"><path fill="#000" fill-opacity="1" stroke-width=".2" stroke-linejoin="round" d="M12 8l-1.33.09C9.81 7.07 7.403 4.5 5 4.5c0 0-1.97 2.957-.043 6.914-.548.825-.884 1.257-.946 2.247l-1.944.29.212.98 1.765-.255.138.707-1.57.942.472.887 1.443-.888C5.675 18.765 8.588 20 12 20s6.324-1.235 7.475-3.678l1.443.89.473-.888-1.57-.942.137-.707 1.765.254.212-.98-1.945-.29c-.063-.99-.4-1.421-.947-2.246C20.97 7.457 19 4.5 19 4.5c-2.404 0-4.81 2.57-5.67 3.59L12 8zm-3 3c.552 0 1 .448 1 1s-.448 1-1 1-1-.448-1-1 .448-1 1-1zm6 0c.552 0 1 .448 1 1s-.448 1-1 1-1-.448-1-1 .448-1 1-1zm-4 3h2l-.697 1.395c.173.637.755 1.105 1.447 1.105.828 0 1.5-.672 1.5-1.5h.5c0 1.105-.895 2-2 2-.747 0-1.398-.41-1.742-1.016L12 16l-.008-.016C11.648 16.59 10.997 17 10.25 17c-1.105 0-2-.895-2-2h.5c0 .828.672 1.5 1.5 1.5.692 0 1.274-.468 1.447-1.105L11 14z"/></svg>