<svg xmlns="http://www.w3.org/2000/svg" version="1.1" baseProfile="full" width="24" height="24" viewBox="0 0 24.00 24.00" xml:space="preserve"><path fill="#000" fill-opacity="1" stroke-width="1.333" stroke-linejoin="miter" d="M15 2c-.554 0-1 .446-1 1v3h-4c-1.108 0-2 .892-2 2v12c0 1.108.892 2 2 2h5c1.108 0 2-.892 2-2V8c0-.74-.404-1.38-1-1.725V3c0-.554-.446-1-1-1zm-5 6h5v5h-5V8zm0 7h1v1h-1v-1zm2 0h1v1h-1v-1zm2 0h1v1h-1v-1zm-4 2h1v1h-1v-1zm2 0h1v1h-1v-1zm2 0h1v1h-1v-1zm-4 2h1v1h-1v-1zm2 0h1v1h-1v-1zm2 0h1v1h-1v-1z"/></svg>