<svg xmlns="http://www.w3.org/2000/svg" version="1.1" baseProfile="full" width="24" height="24" viewBox="0 0 24.00 24.00" xml:space="preserve"><path fill="#000" fill-opacity="1" stroke-width=".2" stroke-linejoin="round" d="M16.176 19.6l-2.007-3.477c.983-.726 1.66-1.844 1.803-3.123h4.012c-.16 2.76-1.635 5.165-3.81 6.6zM13 7.026V3.014c4.296.25 7.736 3.69 7.985 7.986h-4.012c-.23-2.086-1.887-3.742-3.973-3.973zM7 12.5c0 .64.134 1.252.376 1.804L3.9 16.31c-.576-1.146-.9-2.44-.9-3.81 0-4.527 3.538-8.227 8-8.486v4.013c-2.25.25-4 2.157-4 4.473zm4.5 8.5c-2.967 0-5.58-1.52-7.1-3.824l3.477-2.007C8.697 16.28 10.014 17 11.5 17c.64 0 1.25-.134 1.804-.376L15.31 20.1c-1.146.576-2.44.9-3.81.9z"/></svg>