<svg xmlns="http://www.w3.org/2000/svg" version="1.1" baseProfile="full" width="24" height="24" viewBox="0 0 24.00 24.00" xml:space="preserve"><path fill="#000" fill-opacity="1" stroke-width=".2" stroke-linejoin="round" d="M11 7.827C9.834 7.417 9 6.305 9 5 9 3.344 10.34 2.002 12 2.002 13.657 2.002 15 3.345 15 5c0 1.306-.836 2.417-2.002 2.828v2.814c-.316-.094-.65-.144-.995-.144-.348 0-.684.05-1.002.145V7.827zm7.296 13.277c-1.132-.65-1.677-1.93-1.45-3.145l-2.448-1.412c.487-.46.843-1.058 1.004-1.732l2.442 1.41c.938-.803 2.32-.97 3.45-.317 1.436.83 1.928 2.664 1.098 4.095-.83 1.435-2.666 1.93-4.096 1.1zM2.7 15.904c1.133-.652 2.512-.485 3.45.32l2.446-1.413c.16.674.514 1.272 1 1.732L7.15 17.954c.226 1.215-.32 2.495-1.45 3.15-1.438.825-3.27.336-4.1-1.1-.83-1.435-.335-3.27 1.1-4.1zM14 14c0 1.102-.895 2-1.998 2C10.894 16 10 15.103 10 14c0-1.105.894-1.998 2.002-1.998 1.103 0 1.997.893 1.997 1.997zm3.003 0l-.033.568-1.484-.856c-.087-1.07-.655-2.006-1.487-2.587v-1.71c1.766.77 3.003 2.534 3.003 4.584zm-2.037 4.026c-.83.612-1.855.973-2.963.973-1.113 0-2.14-.364-2.97-.977l1.48-.855c.45.213.956.332 1.49.332.528 0 1.03-.118 1.48-.33l1.483.856zm-7.933-3.47L7.003 14c0-2.05 1.232-3.812 2.997-4.584v1.71c-.83.58-1.397 1.51-1.486 2.577l-1.48.854z"/></svg>