<svg xmlns="http://www.w3.org/2000/svg" version="1.1" baseProfile="full" width="24" height="24" viewBox="0 0 24.00 24.00" xml:space="preserve"><path fill="#000" fill-opacity="1" stroke-linejoin="round" d="M15 15.5c0 1.38-1.12 2.5-2.5 2.5S10 16.88 10 15.5v-1.75c0-.414.336-.75.75-.75s.75.336.75.75v1.75c0 .552.448 1 1 1s1-.448 1-1v-3.614C12.626 11.612 12 10.87 12 10c0-1.105 1.007-2 2.25-2s2.25.895 2.25 2c0 .87-.626 1.612-1.5 1.886V15.5zM8.25 8c1.243 0 2.25.895 2.25 2 0 .87-.626 1.612-1.5 1.886v5.364c0 1.795 1.455 3.25 3.25 3.25s3.25-1.455 3.25-3.25v-3.5c0-.414.336-.75.75-.75s.75.336.75.75v3.5c0 2.623-2.127 4.75-4.75 4.75S7.5 19.873 7.5 17.25v-5.364C6.626 11.612 6 10.87 6 10c0-1.105 1.007-2 2.25-2zm1.806-1.872l-.425 1.46c-.405-.215-.877-.338-1.38-.338-.91 0-1.72.403-2.22 1.023l-1.2-.9c.634-.805 1.58-1.378 2.67-1.56V5.75C7.5 3.68 9.18 2 11.25 2 13.32 2 15 3.68 15 5.75v.062c1.09.183 2.036.756 2.67 1.56l-1.2.9c-.5-.62-1.31-1.022-2.22-1.022-.503 0-.975.123-1.38.337l-.426-1.46c.33-.145.685-.253 1.056-.315V5.75c0-1.243-1.007-2.25-2.25-2.25S9 4.507 9 5.75v.062c.37.062.725.17 1.056.316zM14.25 9.25c-.552 0-1 .336-1 .75s.448.75 1 .75 1-.336 1-.75-.448-.75-1-.75zm-6 0c-.552 0-1 .336-1 .75s.448.75 1 .75 1-.336 1-.75-.448-.75-1-.75z"/></svg>