<svg xmlns="http://www.w3.org/2000/svg" version="1.1" baseProfile="full" width="24" height="24" viewBox="0 0 24.00 24.00" xml:space="preserve"><path fill="#000" fill-opacity="1" stroke-width=".2" stroke-linejoin="round" d="M12.002 1C8.136 1 5 4.137 5 7.998 5 11.865 8.135 15 12.002 15 15.864 15 19 11.865 19 7.997 19 4.137 15.863 1 12 1zm-.005 2.154c2.675 0 4.85 2.168 4.85 4.848 0 2.677-2.175 4.85-4.85 4.85-2.68 0-4.848-2.173-4.848-4.85 0-2.68 2.166-4.848 4.848-4.848zM11.002 5v3.69l3.19 1.838.746-1.3L12.5 7.824V5M4 16v8h2v-3h11.997v3l4.006-4-4.006-4v3H6v-3"/></svg>