<svg xmlns="http://www.w3.org/2000/svg" version="1.1" baseProfile="full" width="24" height="24" viewBox="0 0 24.00 24.00" xml:space="preserve"><path fill="#000" fill-opacity="1" stroke-width=".2" stroke-linejoin="round" d="M2.208.79L.79 2.21l4.005 3.998-1.797 1.79h5V3L6.205 4.795m5.796 3.202C8.136 7.997 5 11.133 5 15s3.135 7.003 7.002 7.003C15.864 22.003 19 18.867 19 15S15.863 7.997 12 7.997zm-.005 2.154c2.675 0 4.85 2.174 4.85 4.85 0 2.68-2.175 4.854-4.85 4.854-2.68 0-4.848-2.173-4.848-4.854 0-2.676 2.166-4.85 4.848-4.85zm-.996 1.852v3.687l3.19 1.84.746-1.3-2.436-1.406v-2.822"/></svg>