<svg xmlns="http://www.w3.org/2000/svg" version="1.1" baseProfile="full" width="24" height="24" viewBox="0 0 24.00 24.00" xml:space="preserve"><path fill="#000" fill-opacity="1" stroke-width="1.333" stroke-linejoin="miter" d="M11.994 1.998C6.467 1.998 2 6.475 2 11.998s4.467 10 9.994 10c2.257 0 4.332-.756 6.006-2.016v-2.705c-1.466 1.665-3.607 2.72-6 2.72-4.42 0-8-3.58-8-8 0-4.417 3.58-8 8-8 3.358 0 6.227 2.072 7.414 5.003h2.127c-1.273-4.06-5.065-7.002-9.546-7.002zm-.994 5v6l5.246 3.15.754-1.23-4.5-2.67v-5.25H11zM20 11v7h2v-7h-2zm0 9v2h2v-2h-2z"/></svg>