<svg xmlns="http://www.w3.org/2000/svg" version="1.1" baseProfile="full" width="24" height="24" viewBox="0 0 24.00 24.00" xml:space="preserve"><path fill="#000" fill-opacity="1" stroke-width=".2" stroke-linejoin="round" d="M15 4c4.418 0 8 3.582 8 8s-3.582 8-8 8-8-3.582-8-8 3.582-8 8-8zm0 2c-3.314 0-6 2.686-6 6s2.686 6 6 6 6-2.686 6-6-2.686-6-6-6zm-1 2h1.5v3.782l2.33 2.33-1.06 1.062-2.77-2.77V8zM2 18c-.552 0-1-.448-1-1s.448-1 1-1h3.832c.312.714.705 1.384 1.167 2H2zm1-5c-.552 0-1-.448-1-1s.448-1 1-1h2.05L5 12l.05 1H3zm1-5c-.552 0-1-.448-1-1s.448-1 1-1h3c-.463.615-.856 1.286-1.168 2H4z"/></svg>