<svg xmlns="http://www.w3.org/2000/svg" version="1.1" baseProfile="full" width="24" height="24" viewBox="0 0 24.00 24.00" xml:space="preserve"><path fill="#000" fill-opacity="1" stroke-width=".2" stroke-linejoin="round" d="M14.585 6L12 8.585 9.415 6 8 7.414 10.586 10 8 12.585 9.414 14 12 11.414 14.586 14 16 12.585 13.414 10 16 7.414 14.585 6zM17 3c1.103 0 2 .896 2 2v10c0 1.104-.897 2-2 2h-4v2h1c.552 0 1 .448 1 1h7v2h-7c0 .552-.448 1-1 1h-4c-.552 0-1-.448-1-1H2v-2h7c0-.552.448-1 1-1h1v-2H7c-1.106 0-2-.896-2-2V5c0-1.104.894-2 2-2h10z"/></svg>