<svg xmlns="http://www.w3.org/2000/svg" version="1.1" baseProfile="full" width="24" height="24" viewBox="0 0 24.00 24.00" xml:space="preserve"><path fill="#000" fill-opacity="1" stroke-width=".2" stroke-linejoin="round" d="M18 10.998h-1.5v-.5h-2v3h2v-.5H18v1c0 .552-.448 1-1 1h-3c-.554 0-1-.448-1-1v-4c0-.552.446-1 1-1h3c.552 0 1 .448 1 1m-7 1H9.5v-.5h-2v3h2v-.5H11v1c0 .552-.448 1-1 1H7c-.554 0-1-.448-1-1v-4c0-.552.446-1 1-1h3c.552 0 1 .448 1 1m8-6H5c-1.106 0-2 .896-2 2v12c0 1.104.894 2 2 2h14c1.103 0 2-.896 2-2v-12c0-1.104-.897-2-2-2z"/></svg>