<svg xmlns="http://www.w3.org/2000/svg" version="1.1" baseProfile="full" width="24" height="24" viewBox="0 0 24.00 24.00" xml:space="preserve"><path fill="#000" fill-opacity="1" stroke-width=".2" stroke-linejoin="round" d="M7.727 9.998l8 8H6c-2.21 0-4-1.79-4-4s1.79-4 4-4M3 5.27l2.75 2.74C2.558 8.15 0 10.773 0 14c0 3.314 2.687 6 6 6h11.727l2 2L21 20.726 4.273 3.998m15.082 6.036c-.68-3.44-3.715-6.036-7.356-6.036-1.477 0-2.85.434-4.01 1.172l1.462 1.462c.76-.4 1.627-.634 2.547-.634 3.037 0 5.5 2.462 5.5 5.5v.5H19c1.657 0 3 1.343 3 3 0 1.133-.637 2.108-1.564 2.618l1.452 1.452c1.274-.906 2.11-2.387 2.11-4.07.002-2.64-2.05-4.78-4.643-4.964z"/></svg>