<svg xmlns="http://www.w3.org/2000/svg" version="1.1" baseProfile="full" width="24" height="24" viewBox="0 0 24.00 24.00" xml:space="preserve"><path fill="#000" fill-opacity="1" stroke-width=".2" stroke-linejoin="round" d="M19 17.998H6c-2.21 0-4-1.79-4-4s1.79-4 4-4h.712c.654-2.307 2.77-4 5.288-4 3.037 0 5.5 2.462 5.5 5.5v.5H19c1.657 0 3 1.343 3 3s-1.343 3-3 3zm.355-7.964c-.68-3.44-3.714-6.036-7.355-6.036-2.892 0-5.397 1.64-6.65 4.036C2.344 8.358 0 10.904 0 13.998c0 3.314 2.686 6 6 6h13c2.76 0 5-2.238 5-5 0-2.64-2.053-4.78-4.645-4.964z"/></svg>