<svg xmlns="http://www.w3.org/2000/svg" version="1.1" baseProfile="full" width="24" height="24" viewBox="0 0 24.00 24.00" xml:space="preserve"><path fill="#000" fill-opacity="1" stroke-width=".2" stroke-linejoin="round" d="M19 16c1.657 0 3-1.343 3-3s-1.343-3-3-3h-1.5v-.5C17.5 6.462 15.037 4 12 4 9.483 4 7.366 5.693 6.712 8H6c-2.21 0-4 1.79-4 4s1.79 4 4 4v-5h12v5h1zm.355-7.964C21.947 8.22 24 10.36 24 13c0 2.762-2.24 5-5 5h-1v4H6v-4c-3.314 0-6-2.686-6-6 0-3.095 2.343-5.64 5.35-5.964C6.604 3.64 9.11 2 12 2c3.64 0 6.674 2.595 7.355 6.036zM8 13v7h8v-7H8zm1 5h6v1H9v-1zm6-1H9v-1h6v1zm-6-3h6v1H9v-1z"/></svg>