<svg xmlns="http://www.w3.org/2000/svg" version="1.1" baseProfile="full" width="24" height="24" viewBox="0 0 24.00 24.00" xml:space="preserve"><path fill="#050708" fill-opacity="1" stroke-width=".2" stroke-linejoin="round" d="M3 5c0-1.104.894-2 2-2h14c1.104 0 2 .896 2 2v14c0 1.104-.896 2-2 2H5c-1.106 0-2-.896-2-2V5zm9.5 6h-1c-.828 0-1.5-.672-1.5-1.5S10.672 8 11.5 8h1c.828 0 1.5.672 1.5 1.5h2C16 7.567 14.433 6 12.5 6h-1C9.567 6 8 7.567 8 9.5S9.567 13 11.5 13h1c.828 0 1.5.67 1.5 1.5 0 .828-.672 1.5-1.5 1.5h-1c-.828 0-1.5-.672-1.5-1.5H8c0 1.933 1.567 3.5 3.5 3.5h1c1.933 0 3.5-1.567 3.5-3.5S14.433 11 12.5 11z"/></svg>