<svg xmlns="http://www.w3.org/2000/svg" version="1.1" baseProfile="full" width="24" height="24" viewBox="0 0 24.00 24.00" xml:space="preserve"><path fill="#000" fill-opacity="1" stroke-linejoin="round" d="M8 3c-1.105 0-2 .895-2 2v4c0 1.105-.895 2-2 2H3v2h1c1.105 0 2 .895 2 2v4c0 1.105.928 1.732 2 2h2v-2H8v-5c0-1.105-.895-2-2-2 1.105 0 2-.895 2-2V5h2V3m6 0c1.105 0 2 .895 2 2v4c0 1.105.895 2 2 2h1v2h-1c-1.105 0-2 .895-2 2v4c0 1.105-.928 1.732-2 2h-2v-2h2v-5c0-1.105.895-2 2-2-1.105 0-2-.895-2-2V5h-2V3h2z"/></svg>