<svg xmlns="http://www.w3.org/2000/svg" version="1.1" baseProfile="full" width="24" height="24" viewBox="0 0 24.00 24.00" xml:space="preserve"><path fill="#000" fill-opacity="1" stroke-linejoin="round" d="M19.453 13.294L17.518 12l1.935-1.294m-6.68 8.075v-3.607l3.354-2.242 2.707 1.81M12 13.83L9.264 12 12 10.17 14.736 12m-3.51 6.78l-6.06-4.04 2.707-1.81 3.353 2.243m-6.68-4.467L6.483 12l-1.935 1.294m6.68-8.075v3.606L7.872 11.07 5.166 9.26m7.607-4.04l6.06 4.04-2.706 1.81-3.353-2.244m8.22.33l-.007-.033c-.004-.022-.008-.043-.014-.065l-.012-.037c-.005-.018-.01-.037-.02-.055-.004-.013-.01-.026-.016-.038-.008-.018-.017-.035-.026-.05-.007-.014-.015-.026-.022-.037-.01-.016-.02-.032-.033-.047l-.026-.034c-.013-.015-.026-.03-.04-.043l-.03-.03-.044-.037c-.01-.01-.023-.018-.035-.026l-.012-.01-8.227-5.484c-.26-.173-.6-.173-.86 0L3.345 8.614l-.012.01-.035.026-.044.037-.03.03-.04.042c-.01.01-.018.02-.026.033l-.033.047-.022.036c-.01.016-.018.033-.026.05l-.017.04c-.01.017-.015.036-.02.055-.005.013-.01.026-.013.038-.006.022-.01.043-.014.065l-.006.034c-.004.033-.007.067-.007.1v5.485c0 .034.003.068.007.1l.006.034c.004.022.008.044.014.065.003.014.008.026.012.04.005.018.01.037.02.056.004.012.01.025.016.037l.026.05.022.037c.01.016.022.032.033.047.008.012.017.023.027.034.012.015.025.03.038.042l.03.03c.015.013.03.026.045.037l.035.026.012.01 8.227 5.484c.13.086.28.13.43.13.15 0 .3-.044.43-.13l8.226-5.485c.004-.002.008-.006.012-.01l.035-.026.044-.038.03-.03.04-.04.026-.035c.012-.015.022-.03.033-.047l.022-.036c.01-.017.018-.034.026-.05l.017-.038c.01-.02.015-.038.02-.057.005-.014.01-.026.013-.04.006-.02.01-.042.014-.064l.006-.033c.004-.033.007-.067.007-.1V9.257c0-.034-.003-.068-.007-.1z"/></svg>