<svg xmlns="http://www.w3.org/2000/svg" version="1.1" baseProfile="full" width="24" height="24" viewBox="0 0 24.00 24.00" xml:space="preserve"><path fill="#000" fill-opacity="1" stroke-linejoin="round" d="M17.617 2.998c1.51 2.274 2.38 5.55 2.383 8.998-.002 3.447-.87 6.726-2.38 9.002l-1.605-1.037c1.25-1.887 1.983-4.834 1.985-7.964-.003-3.13-.738-6.076-1.987-7.963l1.604-1.035zm-11.238 0l1.604 1.037C6.736 5.923 6.002 8.87 6 12c.003 3.13.738 6.076 1.986 7.963L6.383 21C4.87 18.726 4.003 15.447 4 12c.002-3.447.87-6.726 2.38-9.002z"/></svg>