<svg xmlns="http://www.w3.org/2000/svg" version="1.1" baseProfile="full" width="24" height="24" viewBox="0 0 24.00 24.00" xml:space="preserve"><path fill="#000" fill-opacity="1" stroke-width=".2" stroke-linejoin="round" d="M9 22c-.552 0-1-.448-1-1v-3H4c-1.105 0-2-.895-2-2l.01-12.002c0-1.105.885-2 1.99-2h16c1.103 0 2 .895 2 2v12c0 1.104-.897 2-2 2L13.903 18l-3.706 3.706c-.193.192-.444.29-.697.293H9zm7-8v-1c0-1.332-2.667-2-4-2-1.333 0-4 .668-4 2v1h8zm-4-8c-1.104 0-2 .896-2 2 0 1.103.896 2 2 2s2-.897 2-2c0-1.104-.896-2-2-2z"/></svg>