<svg xmlns="http://www.w3.org/2000/svg" version="1.1" baseProfile="full" width="24" height="24" viewBox="0 0 24.00 24.00" xml:space="preserve"><path fill="#000" fill-opacity="1" stroke-width=".2" stroke-linejoin="miter" d="M4 1.998c-1.104 0-1.99.895-1.99 2L2 16c0 1.105.895 2 2 2h4v3c0 .552.448 1 1 1h.5l.002-.002c.252-.003.503-.1.695-.293L13.904 18 20 17.998c1.104 0 2-.896 2-2v-12c0-1.105-.896-2-2-2H4zM4 4h16v12h-6.924L10 19.076V16H4V4zm8.185 1.498c-.882 0-1.595.182-2.136.545-.538.36-.828.94-.78 1.65h1.966c.008-.28.103-.49.282-.632.178-.14.4-.212.667-.212.33 0 .585.087.764.26.178.172.267.404.267.695 0 .28-.078.528-.233.742-.15.214-.36.394-.627.54-.516.314-.87.59-1.066.833-.194.242-.294.605-.298 1.086h2.016c0-.287.043-.514.13-.68.092-.17.266-.327.52-.472.458-.208.833-.493 1.127-.856.298-.363.447-.76.447-1.193 0-.706-.27-1.267-.816-1.682-.54-.414-1.284-.622-2.23-.622zM11 12v2h2v-2h-2z"/></svg>