<svg xmlns="http://www.w3.org/2000/svg" version="1.1" baseProfile="full" width="24" height="24" viewBox="0 0 24.00 24.00" xml:space="preserve"><path fill="#000" fill-opacity="1" stroke-width=".2" stroke-linejoin="round" d="M21 7.997v-.994l-3.003 1.996L15 7.002v.994L17.997 10m4.006-7.002h-20C.9 2.998 0 3.9 0 5v14c0 1.098.9 2 2.002 2h20c1.098 0 1.987-.902 1.987-2L24 5c0-1.1-.9-2.002-1.997-2.002zM7.997 6C9.66 6 11 7.34 11 9S9.66 12 7.998 12C6.337 12.002 5 10.66 5 9c0-1.66 1.338-3 2.997-3zM14 17.998H2v-.994c0-2.003 4-3.102 5.995-3.102C10 13.9 14 15 14 17.004m8.003-5H14V6h8.003"/></svg>