<svg xmlns="http://www.w3.org/2000/svg" version="1.1" baseProfile="full" width="24" height="24" viewBox="0 0 24.00 24.00" xml:space="preserve"><path fill="#000" fill-opacity="1" stroke-width=".2" stroke-linejoin="round" stroke="#FFF" stroke-opacity="1" d="M12 6.06c1.726 0 6.686-4.315 9.274.862C23.864 12.098 23.216 19 21.49 19c-4.313 0-1.725-4.314-9.49-4.314C4.235 14.686 6.824 19 2.51 19c-1.726 0-2.373-6.902.215-12.078 2.59-5.177 7.55-.863 9.275-.863zm0 1.44c-.828 0-1.5.672-1.5 1.5s.672 1.5 1.5 1.5 1.5-.672 1.5-1.5-.672-1.5-1.5-1.5z"/></svg>