<svg xmlns="http://www.w3.org/2000/svg" version="1.1" baseProfile="full" width="24" height="24" viewBox="0 0 24.00 24.00" xml:space="preserve"><path fill="#000" fill-opacity="1" stroke-width="1.333" stroke-linejoin="miter" d="M12 3c-4.97 0-9 4.03-9 9s4.03 9 9 9 9-4.03 9-9c0-.51-.043-1.018-.13-1.52-.267-.473-.87-.48-.87-.48h-2V9c0-1-1-1-1-1h-2V7c0-1-1-1-1-1h-1V4c0-1-1-1-1-1zM9.5 6c.828 0 1.5.672 1.5 1.5S10.328 9 9.5 9 8 8.328 8 7.5 8.672 6 9.5 6zm-3 4c.828 0 1.5.672 1.5 1.5S7.328 13 6.5 13 5 12.328 5 11.5 5.672 10 6.5 10zm5 1c.828 0 1.5.672 1.5 1.5s-.672 1.5-1.5 1.5-1.5-.672-1.5-1.5.672-1.5 1.5-1.5zm5 2c.828 0 1.5.672 1.5 1.5s-.672 1.5-1.5 1.5-1.5-.672-1.5-1.5.672-1.5 1.5-1.5zM11 16c.828 0 1.5.672 1.5 1.5S11.828 19 11 19s-1.5-.672-1.5-1.5.672-1.5 1.5-1.5z"/></svg>