<svg xmlns="http://www.w3.org/2000/svg" version="1.1" baseProfile="full" width="24" height="24" viewBox="0 0 24.00 24.00" xml:space="preserve"><path fill="#000" fill-opacity="1" stroke-linejoin="round" d="M4 4h16c1.105 0 2 .895 2 2v12c0 1.105-.895 2-2 2H4c-1.105 0-2-.895-2-2V6c0-1.105.895-2 2-2zm0 2v12h7V6H4zm16 12V6h-1.243c.24.543.193 1.075.188 1.127-.062.67-.53 1.375-.703 1.625l-2.328 2.546 3.313-.015.015 1.203-5.203-.016-.032-1s3.047-3.234 3.187-3.515c.14-.282.72-1.97-.672-1.938-1.25.028-1.11 1.28-1.11 1.28l-1.546.017s.013-.667.38-1.314H13v12h2.583l-.013-.858.97-.015s.905-.157.92-1.047c.018-1-.812-1-.952-1-.14 0-1.078.046-1.078.875h-1.516s.03-2.063 2.61-2.063c2.578 0 2.437 2.016 2.437 2.016s.048 1.25-1.108 1.72l.52.372H20zM8.922 16H7.417v-5.802l-1.797.557V9.532l3.14-1.125h.162V16z"/></svg>