<svg xmlns="http://www.w3.org/2000/svg" version="1.1" baseProfile="full" width="24" height="24" viewBox="0 0 24.00 24.00" xml:space="preserve"><path fill="#000" fill-opacity="1" stroke-linejoin="round" d="M10.5 18c.276 0 .5.224.5.5s-.224.5-.5.5-.5-.224-.5-.5.224-.5.5-.5zm3 0c.276 0 .5.224.5.5s-.224.5-.5.5-.5-.224-.5-.5.224-.5.5-.5zM10 11c.552 0 1 .448 1 1s-.448 1-1 1-1-.448-1-1 .448-1 1-1zm4 0c.552 0 1 .448 1 1s-.448 1-1 1-1-.448-1-1 .448-1 1-1zm4 7c0 2.21-2.686 4-6 4s-6-1.79-6-4c0-.9.446-1.732 1.2-2.4C6.446 14.597 6 13.35 6 12l.123-1.216c-.54.147-1.196.147-1.724-.005-1.018-.292-2.56-1.433-2.33-2.23.227-.796 2.138-.946 3.156-.655.594.17 1.224.59 1.6 1.067l.568-.807C6.79 7.053 7 4 10 3l-.092.138-.002.004c-.273.438-.993 1.833-.237 3.328C10.385 6.167 11.172 6 12 6c.827 0 1.614.167 2.33.47.758-1.495.037-2.89-.236-3.328L14 3c3 1 3.21 4.053 2.606 5.155l.57.807c.374-.478 1.004-.896 1.598-1.066 1.017-.292 2.93-.142 3.157.655.23.797-1.312 1.938-2.33 2.23-.527.15-1.183.15-1.723.004L18 12c0 1.35-.446 2.597-1.2 3.6.754.668 1.2 1.5 1.2 2.4zm-6-2c-2.21 0-4 .895-4 2s1.79 2 4 2 4-.895 4-2-1.79-2-4-2zm0-2c1.122 0 2.173.205 3.07.563.58-.694.93-1.588.93-2.563 0-2.21-1.79-4-4-4s-4 1.79-4 4c0 .975.35 1.87.93 2.563C9.826 14.205 10.877 14 12 14zm2.095-10.858l-.003-.004z"/></svg>