<svg xmlns="http://www.w3.org/2000/svg" version="1.1" baseProfile="full" width="24" height="24" viewBox="0 0 24.00 24.00" xml:space="preserve"><path fill="#000" fill-opacity="1" stroke-width=".2" stroke-linejoin="round" d="M.933 4.202l1.277-1.27L20 20.723 18.732 22l-2.002-2.002H4c-1.106 0-2-.894-2-2l.01-12c0-.217.034-.427.097-.623L.933 4.202zM20 7.998v-2H7.82l-2-2H20c1.104 0 2 .894 2 2v12c0 .598-.263 1.135-.678 1.5l-1.5-1.5h.177v-6h-6.18l-4-4H20zm-16 0h.73L4 7.268v.73zm0 4v6h10.73l-6-6H4z"/></svg>