<svg xmlns="http://www.w3.org/2000/svg" version="1.1" baseProfile="full" width="24" height="24" viewBox="0 0 24.00 24.00" xml:space="preserve"><path fill="#000" fill-opacity="1" stroke-width=".2" stroke-linejoin="round" d="M12 8c2.21 0 4 1.79 4 4s-1.79 4-4 4-4-1.79-4-4 1.79-4 4-4zm-8.945 5H1v-2h2.055C3.515 6.828 6.828 3.516 11 3.055V1h2v2.055c4.172.46 7.484 3.773 7.945 7.945H23v2h-2.055c-.46 4.172-3.773 7.484-7.945 7.945V23h-2v-2.055c-4.172-.46-7.484-3.773-7.945-7.945zM12 5c-3.866 0-7 3.134-7 7s3.134 7 7 7 7-3.134 7-7-3.134-7-7-7z"/></svg>