<svg xmlns="http://www.w3.org/2000/svg" version="1.1" baseProfile="full" width="24" height="24" viewBox="0 0 24.00 24.00" xml:space="preserve"><path fill="#000" fill-opacity="1" stroke-width=".2" stroke-linejoin="round" d="M7.07 11L7 12l.07 1h10.276l-.846 2H7.674c1.123 2.365 3.534 4 6.326 4 2.23 0 4.218-1.044 5.5-2.67v2.795C17.98 20.3 16.07 21 14 21c-3.92 0-7.252-2.504-8.488-6H2l1-2h2.055L5 12l.055-1H2l1-2h2.512C6.748 5.504 10.082 3 14 3c2.52 0 4.8 1.036 6.432 2.705l-.866 2.05C18.286 6.08 16.27 5 14 5c-2.792 0-5.203 1.635-6.326 4h11.364l-.846 2H7.072z"/></svg>