<svg xmlns="http://www.w3.org/2000/svg" version="1.1" baseProfile="full" width="24" height="24" viewBox="0 0 24.00 24.00" xml:space="preserve"><path fill="#000" fill-opacity="1" stroke-linejoin="round" d="M6.5 21v-1.25c.936-.463 1.74-1.182 2.307-2.052.568-.87.86-1.852.875-2.944l-.027-.984-.082-.77H7v-2h2.4c-.15-.827-.238-1.694-.267-2.752.026-1.637.51-2.917 1.45-3.84S12.768 3.016 14.317 3c.713.006 1.32.072 1.816.198.497.125.89.276 1.178.45l-.55 1.742c-.246-.143-.57-.27-.975-.378-.404-.11-.894-.166-1.47-.172-1.063.022-1.834.35-2.313.986-.48.636-.716 1.453-.708 2.45l.103 1.496.204 1.228H15.5v2h-3.71c.095 1.01.05 1.998-.136 2.96-.307 1.204-.914 2.218-1.82 3.04H18v2H6.5z"/></svg>