<svg xmlns="http://www.w3.org/2000/svg" version="1.1" baseProfile="full" width="24" height="24" viewBox="0 0 24.00 24.00" xml:space="preserve"><path fill="#000" fill-opacity="1" stroke-width=".2" stroke-linejoin="miter" d="M15 17h8v2h-8v-2zM9 3c4.418 0 8 1.79 8 4s-3.582 4-8 4-8-1.79-8-4 3.582-4 8-4zM1 9c0 2.21 3.582 4 8 4s8-1.79 8-4v3c0 1.195-1.047 2.267-2.708 3H13v.465c-1.177.34-2.543.535-4 .535-4.418 0-8-1.79-8-4V9zm0 5c0 2.21 3.582 4 8 4 1.457 0 2.823-.195 4-.535v3c-1.177.34-2.543.535-4 .535-4.418 0-8-1.79-8-4v-3zm16 0v1h-.252c.165-.32.252-.655.252-1z"/></svg>