<svg xmlns="http://www.w3.org/2000/svg" version="1.1" baseProfile="full" width="24" height="24" viewBox="0 0 24.00 24.00" xml:space="preserve"><path fill="#000" fill-opacity="1" stroke-width="1.333" stroke-linejoin="miter" d="M13 2v3.03c3.392.486 6 3.394 6 6.92 0 .895-.175 1.748-.482 2.536l2.6 1.534c.558-1.245.882-2.618.882-4.07 0-5.184-3.946-9.446-9-9.95m-2 0c-5.058.5-9 4.762-9 9.95 0 5.523 4.47 10 9.995 10 3.31 0 6.237-1.613 8.057-4.09l-2.596-1.53c-1.282 1.596-3.248 2.62-5.456 2.62-3.867 0-7-3.135-7-7 0-3.526 2.608-6.434 6-6.92V2"/></svg>