<svg xmlns="http://www.w3.org/2000/svg" version="1.1" baseProfile="full" width="24" height="24" viewBox="0 0 24.00 24.00" xml:space="preserve"><path fill="#000" fill-opacity="1" stroke-width=".2" stroke-linejoin="round" d="M21 16.5c0 .38-.213.712-.527.88l-7.907 4.444c-.16.11-.356.176-.566.176-.21 0-.405-.065-.566-.176L3.527 17.38c-.314-.167-.527-.5-.527-.88v-9c0-.38.213-.713.527-.88l7.907-4.444c.16-.11.356-.176.566-.176.21 0 .405.065.566.176l7.907 4.443c.314.167.527.5.527.88v9zM5.5 14.316c-.552-.313-1-.118-1 .434s.448 1.253 1 1.566c.552.313 1 .118 1-.434s-.448-1.253-1-1.566zm0-4c-.552-.313-1-.118-1 .434s.448 1.253 1 1.566c.552.313 1 .118 1-.434s-.448-1.253-1-1.566zm4 6.264c-.552-.313-1-.118-1 .434s.448 1.253 1 1.566c.552.312 1 .118 1-.434 0-.553-.448-1.254-1-1.566zm-2-3.132c-.552-.313-1-.118-1 .434s.448 1.253 1 1.566c.552.312 1 .118 1-.434 0-.553-.448-1.254-1-1.566zm2-.868c-.552-.313-1-.12-1 .434 0 .552.448 1.253 1 1.566.552.312 1 .118 1-.434 0-.553-.448-1.254-1-1.566zm9 1.736c-.552.313-1 1.014-1 1.566s.448.746 1 .434c.552-.313 1-1.014 1-1.566s-.448-.747-1-.434zm0-4c-.552.313-1 1.014-1 1.566s.448.747 1 .434 1-1.014 1-1.566-.448-.747-1-.434zm-4 6.264c-.552.312-1 1.014-1 1.566s.448.746 1 .434c.552-.313 1-1.014 1-1.566s-.448-.747-1-.434zm0-4c-.552.312-1 1.014-1 1.566s.448.746 1 .434c.552-.313 1-1.014 1-1.566s-.448-.747-1-.434zm1.992-4.81c.547-.32.602-.806.124-1.082s-1.31-.24-1.856.083c-.547.323-.602.808-.124 1.084s1.31.24 1.856-.083zm-7.425.333c.547-.322.603-.807.124-1.083-.477-.276-1.308-.24-1.855.083-.547.322-.602.807-.124 1.083.48.276 1.31.24 1.857-.083zm3.713-.166c.546-.322.602-.807.124-1.083-.48-.276-1.31-.24-1.857.083-.546.322-.602.807-.124 1.083.48.276 1.31.24 1.857-.083z"/></svg>