<svg xmlns="http://www.w3.org/2000/svg" version="1.1" baseProfile="full" width="24" height="24" viewBox="0 0 24.00 24.00" xml:space="preserve"><path fill="#000" fill-opacity=".882" stroke-width=".2" stroke-linejoin="round" d="M5 3h14c1.105 0 2 .895 2 2v14c0 1.105-.895 2-2 2H5c-1.105 0-2-.895-2-2V5c0-1.105.895-2 2-2zm0 2v14h14V5H5zm8.393 4.53c-2.5-.03-2.53 2-2.53 2s.546-.655 1.67-.655c.657 0 1.957.575 2.017 2.53C14.611 15.47 12.768 16 12.768 16s-3.5.86-3.47-3.344c.037-4.72 4.095-4.328 4.095-4.328V9.53zM11.95 12.1c-.744-.1-1.12.68-1.12.68l.02.72c0 .773.543 1.328 1.15 1.328.607 0 1.05-.555 1.05-1.328s-.493-1.4-1.1-1.4z"/></svg>