<svg xmlns="http://www.w3.org/2000/svg" version="1.1" baseProfile="full" width="24" height="24" viewBox="0 0 24.00 24.00" xml:space="preserve"><path fill="#060605" fill-opacity="1" stroke-width=".2" stroke-linejoin="miter" d="M13.428 15.145h.86v1.215h-.86V18h-1.505v-1.64H8.815l-.068-.948 3.16-4.995h1.52v4.728zm-3.18 0h1.675v-2.677l-1.676 2.677zM22 21H2c-.36 0-.693-.194-.87-.51-.178-.314-.172-.7.015-1.008l10-16.5c.363-.6 1.348-.6 1.71 0l10 16.5c.188.308.193.694.016 1.01-.176.314-.51.508-.87.508zM3.776 19h16.45L12 5.43 3.777 19z"/></svg>