<svg xmlns="http://www.w3.org/2000/svg" version="1.1" baseProfile="full" width="24" height="24" viewBox="0 0 24.00 24.00" xml:space="preserve"><path fill="#000" fill-opacity="1" stroke-width=".2" stroke-linejoin="miter" d="M12 23c-.326 0-.632-.16-.82-.427l-7-10c-.24-.344-.24-.802 0-1.147l7-10c.375-.533 1.265-.533 1.64 0l7 10c.24.345.24.803 0 1.148l-7 10c-.188.267-.494.426-.82.426zM6.22 12L12 20.257 17.78 12 12 3.743 6.22 12zM12 8.25c1.312 0 2.375.95 2.375 2.125 0 .69-.368 1.303-.937 1.692.7.394 1.162 1.068 1.162 1.833 0 1.215-1.164 2.2-2.6 2.2-1.436 0-2.6-.985-2.6-2.2 0-.765.462-1.44 1.162-1.833-.57-.39-.937-1.002-.937-1.692C9.625 9.2 10.688 8.25 12 8.25zm0 4.4c-.607 0-1.1.492-1.1 1.1 0 .607.492 1.1 1.1 1.1.607 0 1.1-.492 1.1-1.1 0-.607-.492-1.1-1.1-1.1zm0-3.15c-.497 0-.9.448-.9 1s.403 1 .9 1 .9-.448.9-1-.403-1-.9-1z"/></svg>