<svg xmlns="http://www.w3.org/2000/svg" version="1.1" baseProfile="full" width="24" height="24" viewBox="0 0 24.00 24.00" xml:space="preserve"><path fill="#000" fill-opacity="1" stroke-width=".2" stroke-linejoin="round" d="M21 16.5c0 .38-.213.712-.527.88l-7.907 4.444c-.16.11-.356.176-.566.176-.21 0-.405-.065-.566-.176L3.527 17.38c-.314-.167-.527-.5-.527-.88v-9c0-.38.213-.713.527-.88l7.907-4.444c.16-.11.356-.176.566-.176.21 0 .405.065.566.176l7.907 4.443c.314.167.527.5.527.88v9zM12 4.15L5 8.086v7.83l7 3.934 7-3.935v-7.83L12 4.15zm2.932 4.118c1.42 0 2.57 1.15 2.57 2.57v2.64c0 1.42-1.15 2.57-2.57 2.57-1.42.002-2.57-1.15-2.57-2.57v-2.64c0-1.42 1.15-2.57 2.57-2.57zm-.008 1.438c-.586 0-1.062.475-1.062 1.062v2.766c0 .587.476 1.062 1.063 1.062.586 0 1.062-.475 1.062-1.062v-2.766c0-.587-.476-1.062-1.063-1.062zm-3.473 5.052v1.203l-5.14-.03v-1.016s3.432-3.333 3.437-4.344c.007-1.236-1.015-1.11-1.015-1.11s-.985.048-1.094 1.25l-1.5.048s.047-2.5 2.688-2.5c2.374 0 2.406 1.78 2.406 2.22 0 1.702-3.078 4.295-3.078 4.295l3.296-.015z"/></svg>