<svg xmlns="http://www.w3.org/2000/svg" version="1.1" baseProfile="full" width="24" height="24" viewBox="0 0 24.00 24.00" xml:space="preserve"><path fill="#000" fill-opacity="1" stroke-width=".2" stroke-linejoin="round" d="M12.08 22c-2.45 0-4.686-.894-6.415-2.373l-4.258.58 1.645-4.06c-.573-1.263-.894-2.666-.894-4.147 0-5.522 4.44-10 9.92-10C17.56 2 22 6.478 22 12c0 5.524-4.442 10-9.92 10zm5.416-10.03v-.027C17.496 9.059 15.46 7 11.952 7h-3.79v10h3.734c3.536 0 5.6-2.143 5.6-5.03zm-5.502 2.573h-1.108V9.458h1.108c1.628 0 2.71.928 2.71 2.53v.026c0 1.615-1.082 2.53-2.71 2.53z"/></svg>