<svg xmlns="http://www.w3.org/2000/svg" version="1.1" baseProfile="full" width="24" height="24" viewBox="0 0 24.00 24.00" xml:space="preserve"><path fill="#000" fill-opacity="1" stroke-width=".2" stroke-linejoin="round" d="M5 3h14c1.105 0 2 .895 2 2v14c0 1.105-.895 2-2 2H5c-1.105 0-2-.895-2-2V5c0-1.105.895-2 2-2zm10.09 13.492c-.276-1.356-.624-2.58-1.007-3.67l1.12-.08h.014c.653 0 1.37.08 2.145.258-.27 1.444-1.104 2.688-2.27 3.492zm-3.09.97c-1.215 0-2.336-.402-3.245-1.077.193-.318.608-.93 1.268-1.56.678-.65 1.615-1.32 2.837-1.717.416 1.165.792 2.497 1.078 3.996-.603.23-1.255.358-1.938.358zM6.538 12l.004-.08.595.012h.002c1.097-.007 3.014-.1 4.956-.712l.315.723c-1.297.434-2.32 1.125-3.075 1.813-.726.663-1.218 1.32-1.505 1.758-.803-.952-1.292-2.175-1.292-3.514zm3.05-4.892c.38.448 1.138 1.433 1.948 2.97-1.648.49-3.308.606-4.313.606H7.136l-.435-.007c.392-1.568 1.465-2.866 2.885-3.57zM12 6.538c1.288 0 2.47.45 3.405 1.2-.715.858-1.66 1.48-2.682 1.917-.717-1.387-1.41-2.38-1.883-2.986.374-.084.762-.13 1.16-.13zm4.29 2.09c.682.868 1.11 1.942 1.164 3.115-.79-.167-1.537-.25-2.234-.25h-.005c-.56 0-1.085.05-1.582.14l-.365-.85c1.104-.485 2.164-1.175 3.02-2.154zM12 5c-3.867 0-7 3.134-7 7s3.133 7 7 7c3.866 0 7-3.134 7-7s-3.134-7-7-7z"/></svg>