<svg xmlns="http://www.w3.org/2000/svg" version="1.1" baseProfile="full" width="24" height="24" viewBox="0 0 24.00 24.00" xml:space="preserve"><path fill="#000" fill-opacity="1" stroke-width=".2" stroke-linejoin="round" d="M16.416 18.417c-.396-1.937-.894-3.684-1.44-5.243.506-.072 1.037-.113 1.6-.113h.022c.93 0 1.953.117 3.062.368-.384 2.063-1.578 3.84-3.244 4.99zM12 19.802c-1.736 0-3.338-.574-4.636-1.537.276-.455.87-1.327 1.812-2.23.97-.928 2.306-1.884 4.053-2.453.592 1.665 1.13 3.568 1.54 5.71-.863.328-1.794.51-2.77.51zm-7.802-7.8c0-.038.002-.076.004-.114.222.008.507.015.85.015h.004c1.568-.01 4.306-.14 7.082-1.017.15.33.3.675.45 1.033-1.855.62-3.315 1.606-4.395 2.59-1.037.946-1.74 1.883-2.15 2.51-1.147-1.36-1.845-3.107-1.845-5.02zm4.355-6.99c.543.64 1.627 2.046 2.785 4.243-2.356.7-4.727.865-6.162.865h-.123c-.242 0-.45-.004-.622-.01.56-2.24 2.094-4.094 4.123-5.098zM12 4.198c1.84 0 3.53.644 4.864 1.715-1.022 1.224-2.373 2.11-3.83 2.737-1.025-1.98-2.016-3.4-2.692-4.266.536-.118 1.09-.186 1.658-.186zm6.127 2.987c.975 1.24 1.586 2.773 1.664 4.448-1.128-.24-2.194-.356-3.19-.356h-.007c-.8 0-1.55.072-2.26.198-.173-.422-.346-.827-.522-1.215 1.58-.692 3.092-1.676 4.317-3.075zM12 2C6.476 2 2 6.477 2 12s4.476 10 10 10c5.522 0 10-4.477 10-10S17.522 2 12 2z"/></svg>