<svg xmlns="http://www.w3.org/2000/svg" version="1.1" baseProfile="full" width="24" height="24" viewBox="0 0 24.00 24.00" xml:space="preserve"><path fill="#000" fill-opacity="1" stroke-linejoin="round" d="M22 11h-1l-1-2h-6.25L16 12.5h-2L10.75 9H4c-.552 0-2-.448-2-1s1.5-2.5 3.5-2.5S7.667 6.5 9 7h12c.552 0 1 .448 1 1v3zM10.75 6.5L14 3h2l-2.25 3.5h-3zM18 11V9.5h1.75L19 11h-1zM3 19c-.552 0-1-.448-1-1s.448-1 1-1c2.21 0 4 1.79 4 4 0 .552-.448 1-1 1s-1-.448-1-1c0-1.105-.895-2-2-2zm8 2c0 .552-.448 1-1 1s-1-.448-1-1c0-3.314-2.686-6-6-6-.552 0-1-.448-1-1s.448-1 1-1c4.418 0 8 3.582 8 8z"/></svg>