<svg xmlns="http://www.w3.org/2000/svg" version="1.1" baseProfile="full" width="24" height="24" viewBox="0 0 24.00 24.00" xml:space="preserve"><path fill="#000" fill-opacity="1" stroke-linejoin="round" d="M20.468 14.65c0 .64-.214 1.705-.64 2.45-.426.746-.745.96-1.384.96-.746-.107-2.13-2.237-3.09-2.344-1.17 0-3.62 2.45-5.644 2.45-1.172 0-1.598-.213-1.917-.426-.64-.426-.852-1.065-.852-1.917 0-1.598 1.492-2.983 3.303-2.983 2.343 0 3.94 2.343 5.112 2.237.96 0 2.876-1.917 3.834-1.917.958-.213 1.277.852 1.277 1.49zM16.633 5.28c-1.065-.64-2.023-.958-3.09-1.598-.638-.426-1.49-1.384-2.235-2.236-.32 1.384-.533 1.917-1.065 2.343-1.065.746-1.598 1.065-2.557 1.49C6.94 5.705 3 8.048 3 13.16 3 18.272 7.367 22 12.053 22 16.846 22 21 18.485 21 13.266c.213-5.22-3.728-7.562-4.367-7.988z"/></svg>