<svg xmlns="http://www.w3.org/2000/svg" version="1.1" baseProfile="full" width="24" height="24" viewBox="0 0 24.00 24.00" xml:space="preserve"><path fill="#000" fill-opacity="1" stroke-linejoin="round" d="M4.222 14.12l-.707-.706c-.78-.78-.78-2.047 0-2.828.78-.78 2.047-.78 2.828 0l2.58 2.578 4.24-4.242-2.577-2.58c-.78-.78-.78-2.046 0-2.827.78-.78 2.047-.78 2.828 0l.707.707L19.78 9.88l.707.706c.78.78.78 2.047 0 2.828-.78.78-2.047.78-2.828 0l-2.58-2.578-4.24 4.242 2.577 2.58c.78.78.78 2.046 0 2.827-.78.78-2.047.78-2.828 0l-.707-.707L4.22 14.12zm-1.06 5.305l1.06-1.06-1.414-1.415c-.39-.39-.39-1.024 0-1.414.39-.39 1.023-.39 1.414 0l4.242 4.242c.39.39.39 1.024 0 1.414-.39.39-1.023.39-1.414 0l-1.414-1.414-1.06 1.06-1.415-1.413zM19.424 3.16l1.414 1.415-1.062 1.06 1.414 1.415c.39.39.39 1.024 0 1.414-.39.39-1.023.39-1.414 0l-4.242-4.242c-.39-.39-.39-1.024 0-1.414.39-.39 1.023-.39 1.414 0l1.414 1.414 1.06-1.06z"/></svg>