<svg xmlns="http://www.w3.org/2000/svg" version="1.1" baseProfile="full" width="24" height="24" viewBox="0 0 24.00 24.00" xml:space="preserve"><path fill="#000" fill-opacity="1" stroke-width=".2" stroke-linejoin="round" d="M17.896 17.392C17.638 16.586 16.89 16 16 16h-1v-3c0-.554-.448-1-1-1H8v-2h2c.552 0 1-.45 1-1V7h2c1.104 0 2-.897 2-2v-.414c2.93 1.187 5 4.056 5 7.413 0 2.08-.8 3.97-2.104 5.392zM11 19.93c-3.945-.494-7-3.853-7-7.93 0-.618.076-1.216.208-1.793L9 15v1c0 1.103.895 2 2 2m1-16C6.477 2 2 6.475 2 12c0 5.52 4.477 10 10 10s10-4.48 10-10c0-5.524-4.477-10-10-10z"/></svg>