<svg xmlns="http://www.w3.org/2000/svg" version="1.1" baseProfile="full" width="24" height="24" viewBox="0 0 24.00 24.00" xml:space="preserve"><path fill="#000" fill-opacity="1" stroke-width=".2" stroke-linejoin="round" d="M22 5.268l-1.485 1.485C21.455 8.278 22 10.075 22 12c0 5.52-4.477 10-10 10-1.924 0-3.72-.545-5.246-1.486L5.268 22 4 20.723 20.723 4 22 5.268zm-4.104 12.124C19.2 15.97 20 14.08 20 12c0-1.37-.344-2.657-.95-3.782l-4.22 4.222c.107.16.17.35.17.56v3h1c.89 0 1.638.586 1.896 1.392zM11 19.93V18c-.484 0-.927-.173-1.273-.46l-1.504 1.505c.846.453 1.783.76 2.777.884zm4-15.344V5c0 1.103-.896 2-2 2h-2v2c0 .55-.448 1-1 1H8v2h2.18l-2.09 2.088-3.882-3.88C4.076 10.783 4 11.38 4 11.997c0 1.745.56 3.358 1.508 4.672l-1.43 1.43C2.773 16.413 2 14.297 2 12 2 6.475 6.477 2 12 2c2.297 0 4.413.773 6.102 2.076L16.67 5.508c-.515-.37-1.075-.68-1.67-.922z"/></svg>