<svg xmlns="http://www.w3.org/2000/svg" version="1.1" baseProfile="full" width="24" height="24" viewBox="0 0 24.00 24.00" xml:space="preserve"><path fill="#000" fill-opacity="1" stroke-linejoin="round" d="M3.805 10.507c-.816 0-1.643.517-1.643 1.422h3.205c0-.854-.633-1.423-1.562-1.423zm.04-.74c2.06 0 2.66 1.35 2.684 2.264V7.843h1.12v2.765s.476-.826 2.006-.826c1.634 0 2.602 1.155 2.602 2.59 0 .176-.013.345-.04.508.264-.742 1.18-1.11 2.684-1.11h1.363v-.24c0-.675-.595-1.026-1.363-1.026-1.18 0-1.24.746-1.24.746h-1.163c0-.204.148-1.482 2.483-1.482.795 0 1.665.166 2.108.82l-.33-.62h1.308l1.876 3.76 1.872-3.76H23l-3.41 6.69-1.24.002.982-1.866-2.09-3.92c.093.224.145.492.145.81V14.1c0 .28.04.716.04.716h-1.033s-.028-.352-.028-.71c0 0-.524.9-2.15.9-1.195 0-2.078-.576-2.078-1.632 0-.06.003-.117.01-.173-.31 1.085-1.24 1.79-2.494 1.79-1.473 0-2.015-.848-2.015-.848 0 .32-.04.672-.04.672H6.504s.025-.49.025-.837V12.67H2.136c0 .924.702 1.583 1.678 1.583 1.198 0 1.445-.84 1.445-.84h1.15s-.153 1.56-2.525 1.56C1.87 14.974 1 13.984 1 12.41c0-1.986 1.293-2.644 2.845-2.644zm5.528.773c-1.178 0-1.723.934-1.723 1.84 0 .973.607 1.85 1.73 1.85.943 0 1.716-.735 1.716-1.86 0-1.05-.67-1.83-1.723-1.83zm6.892 1.95c-1.764 0-2.965.006-2.965.882 0 .48.356.896 1.188.896 1.52 0 1.777-1.04 1.777-1.457v-.32z"/></svg>