<svg xmlns="http://www.w3.org/2000/svg" version="1.1" baseProfile="full" width="24" height="24" viewBox="0 0 24.00 24.00" xml:space="preserve"><path fill="#000" fill-opacity="1" stroke-linejoin="round" d="M20.5 0C21.88 0 23 1.12 23 2.5V3c.55 0 1 .45 1 1v4c0 .55-.45 1-1 1h-5c-.55 0-1-.45-1-1V4c0-.55.45-1 1-1v-.5C18 1.12 19.12 0 20.5 0zM12 11L4 6v2l8 5 4.182-2.613c.504.385 1.134.613 1.818.613h4v7c0 1.1-.9 2-2 2H4c-1.1 0-2-.9-2-2l.01-12c0-1.1.89-2 1.99-2h11v4c0 .356.062.698.176 1.015L12 11zm8.5-10c-.828 0-1.5.672-1.5 1.5V3h3v-.5c0-.828-.672-1.5-1.5-1.5z"/></svg>