<svg xmlns="http://www.w3.org/2000/svg" version="1.1" baseProfile="full" width="24" height="24" viewBox="0 0 24.00 24.00" xml:space="preserve"><path fill="#000" fill-opacity="1" stroke-linejoin="round" d="M8.5 10.998c-.83 0-1.5-.672-1.5-1.5s.67-1.5 1.5-1.5c.828 0 1.5.672 1.5 1.5s-.672 1.5-1.5 1.5zm7 0c-.83 0-1.5-.672-1.5-1.5s.67-1.5 1.5-1.5c.828 0 1.5.672 1.5 1.5s-.672 1.5-1.5 1.5zm-3.5 9c4.42 0 8-3.582 8-8s-3.58-8-8-8-8 3.582-8 8 3.58 8 8 8zm-.006-18c5.526 0 10.005 4.477 10.005 10s-4.48 10-10.006 10c-5.527 0-9.995-4.477-9.995-10s4.467-10 9.994-10zM9 14h6c.552 0 1 .448 1 1s-.448 1-1 1H9c-.552 0-1-.448-1-1s.448-1 1-1z"/></svg>