<svg xmlns="http://www.w3.org/2000/svg" version="1.1" baseProfile="full" width="24" height="24" viewBox="0 0 24.00 24.00" xml:space="preserve"><path fill="#000" fill-opacity="1" stroke-width=".2" stroke-linejoin="round" d="M9 8c1.105 0 2 .895 2 2 0 .364-.097.706-.268 1-.345-.598-.992-1-1.732-1s-1.387.402-1.732 1c-.17-.294-.268-.636-.268-1 0-1.105.895-2 2-2zm6 0c1.105 0 2 .895 2 2 0 .364-.097.706-.268 1-.345-.598-.992-1-1.732-1s-1.387.402-1.732 1c-.17-.294-.268-.636-.268-1 0-1.105.895-2 2-2zm-3 11.998c4.42 0 8-3.582 8-8s-3.58-8-8-8-8 3.582-8 8 3.58 8 8 8zm-.006-18c5.526 0 10.005 4.477 10.005 10s-4.48 10-10.006 10c-5.527 0-9.995-4.477-9.995-10s4.467-10 9.994-10zM9 13h6c.552 0 1 .448 1 1s-.448 1-1 1c0 2-.895 3-2 3s-2-1-2-3H9c-.552 0-1-.448-1-1s.448-1 1-1z"/></svg>