<svg xmlns="http://www.w3.org/2000/svg" version="1.1" baseProfile="full" width="24" height="24" viewBox="0 0 24.00 24.00" xml:space="preserve"><path fill="#000" fill-opacity="1" stroke-width=".2" stroke-linejoin="round" d="M12 17.498c2.33 0 4.304-1.456 5.106-3.5H6.892c.802 2.044 2.777 3.5 5.107 3.5zm-3.5-6.5c.828 0 1.5-.672 1.5-1.5s-.672-1.5-1.5-1.5c-.83 0-1.5.672-1.5 1.5s.67 1.5 1.5 1.5zm7 0c.828 0 1.5-.672 1.5-1.5s-.672-1.5-1.5-1.5c-.83 0-1.5.672-1.5 1.5s.67 1.5 1.5 1.5zm-3.5 9c-4.42 0-8-3.582-8-8s3.58-8 8-8 8 3.582 8 8-3.58 8-8 8zm-.006-18C6.467 1.998 2 6.475 2 11.998s4.467 10 9.994 10c5.526 0 10.005-4.477 10.005-10s-4.48-10-10.006-10z"/></svg>