<svg xmlns="http://www.w3.org/2000/svg" version="1.1" baseProfile="full" width="24" height="24" viewBox="0 0 24.00 24.00" xml:space="preserve"><path fill="#000" fill-opacity="1" stroke-width=".2" stroke-linejoin="round" d="M6.716 20.78c1.517-.065 3.36 0 5.154 0 1.854 0 3.752-.122 5.246 0 .604.05 1.16.412 1.657.092.385-.494.1-1.16.185-1.824.16-1.263 1.326-2.778-.37-3.1-.72.657-.234 1.282-.643 2.097-.495.987-2.27 1.328-3.958 1.46-1.45.11-3.99.257-4.51-.73-.44-.834-.184-2.126-.184-3.192 0-1.207-.13-2.36.184-3.284 1.84.134 4.223-.614 5.523.182.87.533.375 1.575 1.38 1.915.693-.186.323-1.08.276-1.915-.03-.538-.027-1.294 0-1.916.037-.838.36-1.81-.552-1.823-.717.557-.178 1.486-.92 2.006-.238.165-.753.236-1.104.273-1.38.145-3.543.027-4.695-.183-.16-1.68-.145-3.97 0-5.654.625-.62 2.063-.642 3.037-.64 1.708.008 4.37.15 4.88 1.004.275.465.056 1.438.55 1.55.997.228.513-1.55.553-2.37.03-.616.303-1.013.184-1.46-.323-.44-.803-.22-1.105-.182-3.132.387-7.89.182-11.23.182-.398 0-1.095-.2-1.38.274-.192 1.054 1.246.618 1.75 1.186.163.184.405 1 .46 1.55.145 1.462 0 3.694 0 5.837 0 2.264.17 4.548 0 5.928-.06.482-.35 1.258-.46 1.368-.628.627-2.286-.067-2.118 1.277.582.392 1.426.125 2.21.09z"/></svg>