<svg xmlns="http://www.w3.org/2000/svg" version="1.1" baseProfile="full" width="24" height="24" viewBox="0 0 24.00 24.00" xml:space="preserve"><path fill="#000" fill-opacity="1" fill-rule="evenodd" stroke-width=".2" stroke-linejoin="round" d="M15.086 11.63s.19-1.277.932-1.277c.74 0 1.758 1.706 1.758 1.706s-2.32-.43-2.69-.43zm3.9-6.943c-.346-.596-2.154-1.282-3.092-1.282h-2.418S12.7 2 10.876 2C9.048 2 9.17 2.814 9.17 3.51v2.81l-.828.873H4.52s-1.076.712-1.076 2.252c0 1.54.478 6.904 3.686 7.4 3.796.588 4.446-1.176 4.446-1.388 0-.893.022-2.247.022-2.247s1.112 2.124 2.79 2.124c1.68 0 2.655.964 2.655 1.957v1.838s-.063 1.15-1.05 1.15h-2.106s-.69-.538-.69-1.283c0-.744.337-.947.732-.947.393 0 .717.046.717.046v-1.566s-3.18-.02-3.18 2.413c0 2.435 1.664 3.06 2.997 3.06h2.17s3.922-.504 3.922-8.25c0-7.747-1.225-8.467-1.57-9.063zM7.5 6.31l-3.24-.004L8.32 2.22l.002 3.296-.82.794z"/></svg>