<svg xmlns="http://www.w3.org/2000/svg" version="1.1" baseProfile="full" width="24" height="24" viewBox="0 0 24.00 24.00" xml:space="preserve"><path fill="#050708" fill-opacity="1" stroke-width=".2" stroke-linejoin="round" d="M11.834 9.015l3.148 3.148c.003-.056.017-.108.017-.165 0-1.657-1.344-3-3-3-.058 0-.11.014-.166.017zM7.528 9.8l1.547 1.547c-.047.21-.076.427-.076.65 0 1.658 1.342 3 3 3 .224 0 .44-.028.65-.074l1.547 1.546c-.666.327-1.406.528-2.198.528-2.762 0-5-2.238-5-5 0-.792.2-1.53.528-2.197zm-5.53-5.53l2.28 2.28.455.456C3.083 8.298 1.78 10.016 1 11.998c1.727 4.39 5.997 7.5 11 7.5 1.55 0 3.028-.3 4.383-.842l.424.423 2.92 2.92 1.272-1.274L3.27 3M12 6.997c2.76 0 5 2.24 5 5 0 .646-.133 1.26-.356 1.826l2.922 2.922c1.508-1.26 2.7-2.888 3.433-4.748-1.73-4.39-5.998-7.5-11-7.5-1.4 0-2.74.25-3.985.698l2.158 2.158c.567-.223 1.18-.356 1.826-.356z"/></svg>