<svg xmlns="http://www.w3.org/2000/svg" version="1.1" baseProfile="full" width="24" height="24" viewBox="0 0 24.00 24.00" xml:space="preserve"><path fill="#000" fill-opacity="1" stroke-linejoin="round" d="M12 11c-.552 0-1 .448-1 1s.448 1 1 1 1-.448 1-1-.448-1-1-1zm.5-9c4.5 0 4.61 3.57 2.25 4.75-.99.495-1.428 1.54-1.62 2.47.482.197.9.514 1.22.915 3.698-2.002 7.676-1.22 7.676 2.35 0 4.5-3.57 4.61-4.75 2.25-.498-.997-1.554-1.435-2.49-1.623-.19.482-.505.903-.903 1.224 1.986 3.692 1.2 7.654-2.362 7.654-4.5 0-4.61-3.57-2.25-4.75.984-.492 1.424-1.528 1.616-2.453-.488-.196-.913-.516-1.235-.92-3.692 1.986-7.655 1.2-7.655-2.362 0-4.5 3.57-4.61 4.75-2.25.495.99 1.542 1.43 2.473 1.62.196-.484.515-.906.918-1.226C8.153 5.96 8.94 2 12.5 2z"/></svg>