<svg xmlns="http://www.w3.org/2000/svg" version="1.1" baseProfile="full" width="24" height="24" viewBox="0 0 24.00 24.00" xml:space="preserve"><path fill="#000" fill-opacity="1" stroke-width="1.333" stroke-linejoin="miter" d="M6 2c-.552 0-1 .448-1 1v4h1V5h2V4H6V3h2V2H6zm5 0c-.552 0-1 .448-1 1v4h1V5h1v2h1V3c0-.552-.448-1-1-1h-1zm3.98 0l1.442 2.5L14.978 7h1.157L17 5.5l.865 1.5h1.157l-1.444-2.5L19.022 2h-1.157L17 3.5 16.135 2h-1.157zm-3.98 1h1v1h-1V3zM5 9c-1.66 0-3 1.34-3 3v6h4v4h12v-4h4v-6c0-1.66-1.34-3-3-3H5zm14 2c.55 0 1 .45 1 1s-.45 1-1 1-1-.45-1-1 .45-1 1-1zM8 15h8v5H8v-5z"/></svg>