<svg xmlns="http://www.w3.org/2000/svg" version="1.1" baseProfile="full" width="24" height="24" viewBox="0 0 24.00 24.00" xml:space="preserve"><path fill="#000" fill-opacity="1" stroke-width=".2" stroke-linejoin="round" d="M6 5.998h12v3.965l-6-1.965-6 1.965m-2.056 9.035H4c1.6 0 3.02-.882 4-2 .976 1.118 2.396 2 4 2 1.6 0 3.02-.882 4-2 .976 1.118 2.396 2 4 2h.054l1.894-6.684c.085-.256.063-.537-.06-.777-.126-.24-.342-.42-.602-.497L20 10.618v-4.62c0-1.105-.897-2-2-2h-3v-3H9v3H6c-1.105 0-2 .895-2 2v4.62l-1.288.422c-.26.078-.476.257-.6.497-.125.24-.147.52-.062.777M20 20.998c-1.392 0-2.782-.47-4-1.324-2.44 1.71-5.564 1.71-8 0-1.22.854-2.61 1.324-4 1.324H2v2h2c1.374 0 2.74-.347 4-.994 2.518 1.295 5.48 1.295 8 0 1.26.647 2.624.994 4 .994h2v-2h-2z"/></svg>