<svg xmlns="http://www.w3.org/2000/svg" version="1.1" baseProfile="full" width="24" height="24" viewBox="0 0 24.00 24.00" xml:space="preserve"><path fill="#000" fill-opacity="1" stroke-width=".2" stroke-linejoin="round" d="M13 8.998h5.5l-5.5-5.5v5.5zm-7-7h8l6 6v12c0 1.104-.897 2-2 2H5.99c-1.105 0-1.99-.896-1.99-2l.01-16c0-1.104.884-2 1.99-2zm9.678 13.02C15.338 13.298 13.82 12 12 12c-1.446 0-2.698.82-3.325 2.018C7.17 14.18 6 15.454 6 17c0 1.657 1.343 3 3 3h6.5c1.38 0 2.5-1.12 2.5-2.5 0-1.32-1.026-2.39-2.322-2.482z"/></svg>