<svg xmlns="http://www.w3.org/2000/svg" version="1.1" baseProfile="full" width="24" height="24" viewBox="0 0 24.00 24.00" xml:space="preserve"><path fill="#000" fill-opacity="1" stroke-width=".2" stroke-linejoin="round" d="M14 9h5.5L14 3.5V9zM7 2h8l6 6v12c0 1.104-.896 2-2 2H6.99C5.886 22 5 21.104 5 20l.01-16c0-1.104.885-2 1.99-2zm4.932 10.435c.41.905.932 1.645 1.524 2.154l.418.323c-.873.155-2.072.435-3.341.925l-.11.04.493-1.035c.45-.87.784-1.66 1.016-2.408zm6.475 3.813c.18-.18.276-.408.284-.662.027-.195-.016-.386-.122-.55-.293-.464-1.038-.688-2.277-.688l-1.297.074-.863-.585c-.637-.522-1.202-1.43-1.596-2.557l.035-.14c.335-1.33.636-2.937-.023-3.596-.162-.16-.373-.244-.607-.244l-.236-.002c-.377 0-.686.39-.795.776-.37 1.326-.15 2.054.22 3.265l.002.01c-.257.88-.575 1.9-1.087 2.925l-.952 1.805-.89.49c-1.228.753-1.776 1.59-1.882 2.118-.04.194-.025.366.054.54l.023.05.48.316.44.104c.812 0 1.73-.947 2.973-3.07l.184-.07c1.016-.33 2.303-.57 4.05-.75 1.006.51 2.217.74 2.983.74.43 0 .737-.106.9-.3zm-.395-.706l.075.106c-.01.098-.042.113-.09.13l-.034.006-.195.014c-.455 0-1.164-.19-1.902-.512.09-.1.16-.1.23-.1 1.395 0 1.805.25 1.916.356zM8.83 16.996c-.65 1.195-1.238 1.85-1.692 2.008.055-.388.5-1.044 1.215-1.693l.476-.314zm3.015-6.905c-.228-.9-.234-1.635-.067-2.05l.067-.118.148.05c.18.242.194.554.098 1.095l-.03.163-.16.823-.055.038z"/></svg>