<svg xmlns="http://www.w3.org/2000/svg" version="1.1" baseProfile="full" width="24" height="24" viewBox="0 0 24.00 24.00" xml:space="preserve"><path fill="#000" fill-opacity="1" stroke-width=".2" stroke-linejoin="round" d="M13 8.998h5.5l-5.5-5.5v5.5zm-7-7h8l6 6v12c0 1.104-.897 2-2 2H5.99c-1.105 0-1.99-.896-1.99-2l.01-16c0-1.104.884-2 1.99-2zM6.12 15.5l3.742 3.743 1.414-1.415L8.95 15.5l2.328-2.328-1.414-1.415L6.122 15.5zm11.156 0l-3.742-3.743-1.414 1.415L14.45 15.5l-2.328 2.328 1.414 1.415 3.742-3.743z"/></svg>