<svg xmlns="http://www.w3.org/2000/svg" version="1.1" baseProfile="full" width="24" height="24" viewBox="0 0 24.00 24.00" xml:space="preserve"><path fill="#000" fill-opacity="1" stroke-width=".2" stroke-linejoin="round" d="M11.432 10.935c-.232.747-.565 1.54-1.016 2.408-.197.38-.39.735-.493 1.036l.11-.043c1.27-.49 2.47-.77 3.34-.924-.15-.107-.292-.216-.417-.324-.59-.51-1.114-1.25-1.524-2.155zm6.475 3.813c-.163.194-.47.3-.9.3-.766 0-1.978-.23-2.985-.74-1.745.18-3.03.42-4.048.75l-.184.07c-1.243 2.123-2.16 3.07-2.973 3.07-.154 0-.3-.035-.44-.104l-.48-.315-.023-.053c-.08-.173-.093-.345-.052-.54.105-.528.653-1.364 1.88-2.117.19-.14.486-.303.89-.49.297-.522.617-1.128.954-1.805.51-1.025.83-2.044 1.087-2.924l-.004-.01c-.37-1.212-.59-1.94-.22-3.266.108-.386.418-.776.794-.776l.236.002c.235 0 .446.084.607.244.66.66.357 2.267.022 3.595l-.036.14c.394 1.128.96 2.035 1.596 2.557.255.202.545.4.862.585.456-.05.892-.074 1.298-.074 1.24 0 1.986.224 2.28.687.104.165.148.356.122.55-.01.255-.105.483-.285.663zM19 2.998H5c-1.106 0-2 .895-2 2v14c0 1.104.894 2 2 2h14c1.104 0 2-.896 2-2v-14c0-1.105-.896-2-2-2zm-1.488 11.044c-.11-.107-.52-.356-1.917-.356-.07 0-.14 0-.23.1.74.32 1.45.512 1.903.512.07 0 .136-.005.195-.014l.034-.007c.05-.016.08-.03.09-.13-.014-.024-.038-.063-.075-.105zM8.33 15.496c-.213.124-.377.232-.477.315-.716.65-1.16 1.306-1.215 1.694.455-.157 1.043-.813 1.69-2.008zm3.015-6.905l.054-.037c.072-.324.12-.6.16-.823l.03-.163c.098-.54.085-.853-.097-1.095l-.148-.05c-.02.03-.048.072-.067.118-.167.415-.16 1.15.067 2.05z"/></svg>