<svg xmlns="http://www.w3.org/2000/svg" version="1.1" baseProfile="full" width="24" height="24" viewBox="0 0 24.00 24.00" xml:space="preserve"><path fill="#000" fill-opacity="1" stroke-linejoin="round" d="M19 11.5s-2 2.167-2 3.5c0 1.104.896 2 2 2s2-.896 2-2c0-1.333-2-3.5-2-3.5zm-4.28-1.52L5.206 10 10 5.208l4.72 4.77zm1.84-1.04L7.62 0 6.208 1.414l2.38 2.38-5.148 5.145c-.586.585-.586 1.535 0 2.12l5.5 5.5c.292.294.676.44 1.06.44s.768-.146 1.06-.44l5.5-5.5c.586-.585.586-1.535 0-2.12zM0 20h24v4H0z"/></svg>