<svg xmlns="http://www.w3.org/2000/svg" version="1.1" baseProfile="full" width="24" height="24" viewBox="0 0 24.00 24.00" xml:space="preserve"><path fill="#000" fill-opacity="1" stroke-width="1.333" stroke-linejoin="miter" d="M11.83 1.728c-3.404.06-5.598 1.594-5.598 1.594-.284.196-.356.585-.16.87.196.284.585.356.89.146 0 0 4.31-3.192 10.493.045.3.17.682.067.853-.233.17-.3.067-.682-.275-.875-1.677-.877-3.253-1.312-4.674-1.472-.533-.06-1.044-.083-1.53-.075zm.387 2.614c-5.952-.077-8.81 4.705-8.81 4.705-.19.288-.11.676.178.866.288.19.676.11.895-.23 0 0 2.437-4.16 7.72-4.09 5.304.067 7.622 4.053 7.622 4.053.176.298.56.396.857.22.296-.176.394-.56.218-.856 0 0-2.747-4.592-8.68-4.668zm-.71 2.478C9.82 6.94 8.214 7.55 7 8.56c-2.377 1.97-3.904 5.585-2.23 10.444.114.326.47.5.796.387.327-.112.5-.468.387-.794-1.54-4.47-.174-7.4 1.846-9.075 1.966-1.63 5.446-2.044 8.038-.416 1.274.8 2.26 2.173 2.766 3.535.505 1.36.478 2.675.07 3.297-.427.65-1.275.897-2.026.706-.75-.192-1.362-.73-1.384-1.877-.033-1.702-1.378-2.77-2.742-2.928-1.365-.16-2.908.557-3.315 2.143-.754 2.94 1.15 7.093 5.576 8.467.33.103.68-.082.783-.412.103-.33-.082-.68-.412-.783-3.834-1.19-5.286-4.818-4.736-6.96.245-.957 1.087-1.315 1.96-1.214.87.1 1.615.626 1.636 1.713.03 1.643 1.106 2.752 2.326 3.064 1.22.31 2.626-.085 3.38-1.23.77-1.175.648-2.823.055-4.42-.592-1.595-1.706-3.176-3.27-4.16-1.544-.968-3.313-1.343-5-1.224zm.35 2.434v.002c-1.778.063-3.555.983-4.582 2.924-1.318 2.493-.72 5.033.168 6.865.888 1.832 2.092 3.058 2.092 3.058.242.247.638.252.885.01.247-.24.25-.637.01-.884 0-.002-1.074-1.1-1.864-2.73s-1.268-3.686-.185-5.734c1.108-2.095 3.1-2.608 4.882-2.092 1.78.515 3.266 2.067 3.218 4.36-.025.343.234.643.578.668.344.026.644-.233.67-.645.06-2.855-1.854-4.93-4.12-5.586-.565-.163-1.158-.237-1.75-.216zm.22 4.998c-.343.01-.615.296-.606.64 0 0 .005 1.482.842 2.91.838 1.43 2.62 2.79 5.717 2.5.344-.022.607-.318.586-.663-.02-.345-.317-.608-.702-.583-2.72.255-3.876-.78-4.523-1.885-.647-1.105-.67-2.293-.67-2.293.002-.346-.277-.627-.642-.628z"/></svg>