<svg xmlns="http://www.w3.org/2000/svg" version="1.1" baseProfile="full" width="24" height="24" viewBox="0 0 24.00 24.00" xml:space="preserve"><path fill="#000" fill-opacity="1" stroke-width=".2" stroke-linejoin="round" d="M11.712 18.998c-1.78 0-3.224-1.405-3.224-3.138 0-1.623 1.045-2.763 2.813-3.12 1.768-.358 3.6-1.207 4.617-2.577.39 1.29.595 2.648.595 4.035 0 2.647-2.153 4.8-4.8 4.8zM13.5.668s.74 2.647.74 4.797c0 2.062-1.352 3.733-3.413 3.733-2.063 0-3.627-1.67-3.627-3.733l.027-.36C5.213 7.51 4 10.612 4 13.997c0 4.418 3.582 8 8 8s8-3.582 8-8c0-5.394-2.593-10.203-6.5-13.33z"/></svg>