<svg xmlns="http://www.w3.org/2000/svg" version="1.1" baseProfile="full" width="24" height="24" viewBox="0 0 24.00 24.00" xml:space="preserve"><path fill="#000" fill-opacity="1" stroke-width=".2" stroke-linejoin="round" d="M6 3c.552 0 1 .448 1 1v.875C8.063 4.437 9.5 4 11 4c3 0 3 2 5 2 3 0 4-2 4-2v8s-1 2-4 2-3-2-5-2c-3 0-4 2-4 2v7H5V4c0-.552.448-1 1-1zm5 5.75c1.22 0 2.07.652 3 1.16v1.416c.594.37 1.22.674 2 .674 2 0 2-.5 2-.5v-1.25s-1 .25-2 .25c-.78 0-1.406-.265-2-.59V8.576c.594.37 1.22.674 2 .674 2 0 2-.25 2-.25V7.5S17 8 16 8c-.78 0-1.406-.303-2-.674v1.25c-.93-.58-1.78-1.326-3-1.326V6C9 6 7 7.25 7 7.25V8.5s2-1.25 4-1.25v1.5C9 8.75 7 10 7 10v1.5S9 10 11 10V8.75z"/></svg>