<svg xmlns="http://www.w3.org/2000/svg" version="1.1" baseProfile="full" width="24" height="24" viewBox="0 0 24.00 24.00" xml:space="preserve"><path fill="#000" fill-opacity="1" stroke-width=".2" stroke-linejoin="round" d="M3 12.998c0 4.97 4.028 9 9 9 0-4.97-4.03-9-9-9zm9-7.5c1.38 0 2.5 1.12 2.5 2.5s-1.12 2.5-2.5 2.5c-1.382 0-2.5-1.12-2.5-2.5s1.118-2.5 2.5-2.5zM5.6 10.248c0 1.38 1.12 2.5 2.5 2.5.526 0 1.014-.165 1.416-.442-.004.064-.02.126-.02.192 0 1.38 1.12 2.5 2.5 2.5 1.382 0 2.5-1.12 2.5-2.5 0-.066-.014-.128-.02-.192.404.277.892.442 1.418.442 1.382 0 2.5-1.12 2.5-2.5 0-.996-.586-1.848-1.428-2.25.842-.402 1.428-1.254 1.428-2.25 0-1.38-1.118-2.5-2.5-2.5-.526 0-1.014.165-1.417.442.004-.064.02-.126.02-.192 0-1.38-1.12-2.5-2.5-2.5-1.382 0-2.5 1.12-2.5 2.5 0 .066.014.128.018.192-.402-.277-.89-.442-1.416-.442-1.38 0-2.5 1.12-2.5 2.5 0 .996.586 1.848 1.428 2.25-.842.402-1.428 1.254-1.428 2.25zM12 21.998c4.97 0 9-4.03 9-9-4.972 0-9 4.03-9 9z"/></svg>