<svg xmlns="http://www.w3.org/2000/svg" version="1.1" baseProfile="full" width="24" height="24" viewBox="0 0 24.00 24.00" xml:space="preserve"><path fill="#000" fill-opacity="1" stroke-width="1.333" stroke-linejoin="miter" d="M3 3c-.554 0-1 .446-1 1v5.5c0 1.686 1.03 3.13 2.5 3.72v6.28c0 .83.67 1.5 1.5 1.5s1.5-.67 1.5-1.5v-6.28c1.47-.59 2.5-2.034 2.5-3.72V4c0-.554-.446-1-1-1s-1 .446-1 1v4c0 .277-.223.5-.5.5S7 8.277 7 8V4c0-.554-.446-1-1-1s-1 .446-1 1v4c0 .277-.223.5-.5.5S4 8.277 4 8V4c0-.554-.446-1-1-1zm16.875 0c-.13.018-.256.085-.375.156L16 5.25V9h-4v2h1l1 10h6l1-10h1V9h-4V6.344l2.5-1.5c.476-.285.628-.87.344-1.344-.213-.357-.583-.554-.97-.5z"/></svg>