<svg xmlns="http://www.w3.org/2000/svg" version="1.1" baseProfile="full" width="24" height="24" viewBox="0 0 24.00 24.00" xml:space="preserve"><path fill="#000" fill-opacity="1" fill-rule="evenodd" stroke-width=".2" stroke-linejoin="round" d="M2 5.268L3.277 4 21 21.723 19.732 23l-2-2H15.5l-.29-2.523-2.24-2.237c-.106.436-.5.76-.97.76H3c-.552 0-1-.448-1-1s.448-1 1-1h5l1.5 1.5L11 15h.732l-1-1H2c0-1.657 1.343-3 3-3h2.732L2 5.268zM14 8h2.234l-1.137-4.538 1.746-.438L18.09 8H22l-1.26 10.918-6.195-6.196L14 8zm-1 10c0 1.657-1.343 3-3 3H5c-1.657 0-3-1.343-3-3h11z"/></svg>