<svg xmlns="http://www.w3.org/2000/svg" version="1.1" baseProfile="full" width="24" height="24" viewBox="0 0 24.00 24.00" xml:space="preserve"><path fill="#000" fill-opacity="1" stroke-linejoin="round" d="M13.5 12c-.828 0-1.5.672-1.5 1.5s.672 1.5 1.5 1.5 1.5-.672 1.5-1.5-.672-1.5-1.5-1.5zm0-9c4.694 0 8.5 3.582 8.5 8 0 1.62 0 3-.907 5C17 16 16 20 12.5 20c-2.177 0-3.226-1.718-3.452-4H8.24l-1.284 4.3c-.146.488-.63.78-1.12.7H3c-.552 0-1-.448-1-1s.448-1 1-1v-3c-.552 0-1-.448-1-1s.448-1 1-1h3.75l.48-1.608C6.72 12.142 6.13 12 5.5 12l-.427.022L5 11c0-4.418 3.806-8 8.5-8zM5 16v3h.257l.896-3H5z"/></svg>