<svg xmlns="http://www.w3.org/2000/svg" version="1.1" baseProfile="full" width="24" height="24" viewBox="0 0 24.00 24.00" xml:space="preserve"><path fill="#000" fill-opacity="1" stroke-width=".2" stroke-linejoin="round" d="M7.522 7.522c1.65-1.65 3.77-2.83 5.853-3.34C18 3 21 6 19.82 10.63c-.513 2.08-1.692 4.2-3.342 5.85-1.65 1.65-3.77 2.83-5.85 3.343C6 21 3 18 4.183 13.376c.51-2.082 1.69-4.203 3.34-5.853zm3.094 3.74l-.353.354 2.12 2.12.354-.352-2.12-2.12zm1-1l-.353.354 2.12 2.12.354-.352-2.12-2.12zm-2 2l-.353.354 2.12 2.12.354-.352-2.12-2.12zm3.013-2.987l-.355.354 2.12 2.12.355-.354-2.12-2.12zm-4 4l-.355.354 2.12 2.12.355-.354-2.12-2.12zm5-5l-.355.354 2.12 2.12.355-.354-2.12-2.12z"/></svg>