<svg xmlns="http://www.w3.org/2000/svg" version="1.1" baseProfile="full" width="24" height="24" viewBox="0 0 24.00 24.00" xml:space="preserve"><path fill="#000" fill-opacity="1" stroke-width=".2" stroke-linejoin="round" d="M7.522 7.522c1.65-1.65 3.77-2.83 5.853-3.34 2.082-.51 4.125-.353 5.228-.193 1.103.16 1.267.323 1.424 1.423.157 1.1.308 3.137-.206 5.215-.513 2.08-1.692 4.2-3.342 5.85-1.65 1.65-3.77 2.83-5.85 3.343-2.078.515-4.115.364-5.215.207-1.1-.157-1.263-.32-1.424-1.424-.16-1.103-.318-3.146.193-5.228.51-2.082 1.69-4.203 3.34-5.853zM7.3 15.786l.914.914 1.208-1.207L10.63 16.7l.913-.914-1.207-1.208L12 12.914l1.207 1.207.914-.913L12.915 12l1.664-1.664 1.208 1.207.914-.914-1.207-1.208L16.7 8.214l-.914-.914-1.208 1.207L13.37 7.3l-.913.914 1.207 1.208L12 11.086 10.793 9.88l-.914.913L11.085 12l-1.664 1.664-1.208-1.207-.914.914 1.207 1.208L7.3 15.786z"/></svg>