<svg xmlns="http://www.w3.org/2000/svg" version="1.1" baseProfile="full" width="24" height="24" viewBox="0 0 24.00 24.00" xml:space="preserve"><path fill="#000" fill-opacity="1" stroke-width=".2" stroke-linejoin="round" d="M19 11.5s-2 2.166-2 3.5c0 1.103.895 2 2 2 1.103 0 2-.897 2-2 0-1.334-2-3.5-2-3.5zM5.205 10L10 5.206 14.79 10m1.768-1.062L7.62-.002 6.206 1.414l2.38 2.38-5.148 5.145c-.585.586-.585 1.536 0 2.122l5.5 5.5c.293.293.677.44 1.06.44.385 0 .77-.147 1.062-.44l5.5-5.5c.585-.586.585-1.536 0-2.122z"/></svg>