<svg xmlns="http://www.w3.org/2000/svg" version="1.1" baseProfile="full" width="24" height="24" viewBox="0 0 24.00 24.00" xml:space="preserve"><path fill="#000" fill-opacity="1" stroke-linejoin="round" d="M16 7.41L11.41 12 16 16.59 14.59 18 10 13.41 5.41 18 4 16.59 8.59 12 4 7.41 5.41 6 10 10.59 14.59 6 16 7.41zm5.848 1.573h-4.883v-.996l.896-.804c.757-.647 1.323-1.19 1.697-1.63.375-.442.567-.854.576-1.236.003-.282-.087-.515-.27-.7-.183-.185-.473-.28-.87-.287-.3.006-.578.066-.83.18l-.654.38-.46-1.17c.265-.21.592-.386.98-.526.39-.14.82-.212 1.293-.217.778.013 1.372.224 1.78.633.41.41.614.933.617 1.572-.014.562-.192 1.08-.536 1.55-.343.474-.768.926-1.275 1.358l-.64.52v.02h2.578v1.353z"/></svg>