<svg xmlns="http://www.w3.org/2000/svg" version="1.1" baseProfile="full" width="24" height="24" viewBox="0 0 24.00 24.00" xml:space="preserve"><path fill="#000" fill-opacity="1" stroke-width=".2" stroke-linejoin="round" d="M7 5h14v2H7V5zm0 8v-2h14v2H7zM4 4.5c.83 0 1.5.67 1.5 1.5S4.83 7.5 4 7.5 2.5 6.83 2.5 6 3.17 4.5 4 4.5zm0 6c.83 0 1.5.67 1.5 1.5s-.67 1.5-1.5 1.5-1.5-.67-1.5-1.5.67-1.5 1.5-1.5zM7 19v-2h14v2H7zm-3-2.5c.83 0 1.5.67 1.5 1.5s-.67 1.5-1.5 1.5-1.5-.67-1.5-1.5.67-1.5 1.5-1.5z"/></svg>