<svg xmlns="http://www.w3.org/2000/svg" version="1.1" baseProfile="full" width="24" height="24" viewBox="0 0 24.00 24.00" xml:space="preserve"><path fill="#000" fill-opacity="1" stroke-width=".2" stroke-linejoin="round" d="M16 7.41L11.41 12 16 16.59 14.59 18 10 13.41 5.41 18 4 16.59 8.59 12 4 7.41 5.41 6 10 10.59 14.59 6 16 7.41zm5.848 13.62h-4.883v-.996l.897-.804c.756-.647 1.32-1.19 1.696-1.632.374-.44.566-.852.576-1.234.002-.282-.088-.516-.27-.7-.184-.185-.474-.28-.872-.287-.3.006-.577.066-.83.18l-.652.38-.46-1.17c.265-.21.592-.386.98-.526.39-.14.82-.21 1.293-.217.78.014 1.372.225 1.78.634.41.408.614.932.617 1.572-.014.56-.192 1.078-.535 1.55s-.768.924-1.275 1.357l-.64.52v.02h2.578v1.353z"/></svg>