<svg xmlns="http://www.w3.org/2000/svg" version="1.1" baseProfile="full" width="24" height="24" viewBox="0 0 24.00 24.00" xml:space="preserve"><path fill="#000" fill-opacity="1" stroke-width=".2" stroke-linejoin="miter" d="M23 12v2h-4.393c1.005 2.14.957 7.99-6.224 8.016-8.328.03-8.016-6.5-8.016-6.5l3.97.03c.03 3.376 3.14 3.376 3.78 3.33.64-.048 3.03-.032 3.22-2.376.086-1.088-1.013-1.92-2.215-2.5H1v-2h22zm-3.586-4.11l-3.984-.03s.172-2.766-3.282-2.782c-3.453-.015-3.17 2.203-3.14 2.484.03.282.328 1.657 3 2.313H5.71s-3.487-6.728 5.032-7.89c8.703-1.188 8.688 5.92 8.672 5.906z"/></svg>