<svg xmlns="http://www.w3.org/2000/svg" version="1.1" baseProfile="full" width="24" height="24" viewBox="0 0 24.00 24.00" xml:space="preserve"><path fill="#000" fill-opacity="1" stroke-linejoin="round" d="M17 5l-.427 2.482c-.054.253-.37.518-.666.518H12c-.468 0-1.053.32-1.053.786l-.002.415c0 .47.587.8 1.055.8h3.277c.33 0 .654.362.583.715-.072.353-.915 2.568-.956 2.761-.04.194-.26.524-.654.524h-2.88c-.523 0-.682.07-1.032.504-.35.437-3.07 3.593-3.07 3.593C7.236 18.134 7 18.04 7 18V5c0-.298.61-1 1-1h8.5c.315 0 .58.613.5 1zm-.008 9.448c.12-.482 1.785-7.73 2.23-9.9M17.577 2H6.906C5.433 2 5 3.107 5 3.805V20.76c0 .784.422 1.076.66 1.172.237.096.89.177 1.284-.276 0 0 4.708-5.44 4.794-5.525.13-.13.13-.13.262-.13h3.26c1.37 0 1.59-.977 1.732-1.552.12-.482 1.785-7.73 2.23-9.9C19.565 2.894 19.143 2 17.577 2z"/></svg>