<svg xmlns="http://www.w3.org/2000/svg" version="1.1" baseProfile="full" width="24" height="24" viewBox="0 0 24.00 24.00" xml:space="preserve"><path fill="#000" fill-opacity="1" stroke-width="1.333" stroke-linejoin="round" d="M15.6 5.288c-1.102-.096-2.072.718-2.168 1.818L13.18 10H16v2h-2.996l-.444 5.068c-.192 2.2-2.132 3.83-4.333 3.636-1.306-.114-2.41-.844-3.052-1.88L6.67 17.33c.24.744.904 1.31 1.73 1.382 1.102.096 2.072-.718 2.168-1.818L10.996 12H8v-2h3.17l.27-3.068c.192-2.2 2.132-3.83 4.333-3.636 1.306.114 2.41.844 3.052 1.88L17.33 6.67c-.24-.744-.904-1.31-1.73-1.382z"/></svg>