<svg xmlns="http://www.w3.org/2000/svg" version="1.1" baseProfile="full" width="24" height="24" viewBox="0 0 24.00 24.00" xml:space="preserve"><path fill="#000" fill-opacity="1" stroke-linejoin="round" d="M7 6h10c3.314 0 6 2.686 6 6s-2.686 6-6 6c-1.777 0-3.374-.773-4.472-2h-1.056C10.374 17.227 8.777 18 7 18c-3.314 0-6-2.686-6-6s2.686-6 6-6zM6 9v2H4v2h2v2h2v-2h2v-2H8V9H6zm9.5 3c-.828 0-1.5.672-1.5 1.5s.672 1.5 1.5 1.5 1.5-.672 1.5-1.5-.672-1.5-1.5-1.5zm3-3c-.828 0-1.5.672-1.5 1.5s.672 1.5 1.5 1.5 1.5-.672 1.5-1.5S19.328 9 18.5 9z"/></svg>