<svg xmlns="http://www.w3.org/2000/svg" version="1.1" baseProfile="full" width="24" height="24" viewBox="0 0 24.00 24.00" xml:space="preserve"><path fill="#000" fill-opacity="1" stroke-width=".2" stroke-linejoin="round" d="M18 9.998c-.553 0-1-.448-1-1s.447-1 1-1c.55 0 1 .448 1 1s-.45 1-1 1zm-6 0H6v-5h6m7.767 2.232l.012-.012-3.72-3.72L15 4.558l2.11 2.11c-.94.36-1.61 1.264-1.61 2.33 0 1.38 1.118 2.5 2.5 2.5.355 0 .692-.077 1-.21v7.21c0 .552-.45 1-1 1-.553 0-1-.448-1-1v-4.5c0-1.105-.897-2-2-2h-1v-7c0-1.105-.897-2-2-2H6c-1.106 0-2 .895-2 2v16h10v-7.5h1.5v5c0 1.38 1.118 2.5 2.5 2.5 1.38 0 2.5-1.12 2.5-2.5v-9.5c0-.69-.28-1.315-.733-1.768z"/></svg>