<svg xmlns="http://www.w3.org/2000/svg" version="1.1" baseProfile="full" width="24" height="24" viewBox="0 0 24.00 24.00" xml:space="preserve"><path fill="#000" fill-opacity="1" stroke-linejoin="round" d="M2.297 20.282l9.607-9.606-1.414-1.414-.708.707c-.39.39-1.023.39-1.414 0L7.66 9.26c-.39-.39-.39-1.024 0-1.415L13.32 2.19c.39-.39 1.024-.39 1.414 0l.707.708c.39.39.39 1.023 0 1.414l-.708.707 1.414 1.413c.39-.39 1.024-.39 1.415 0 .39.39.39 1.024 0 1.414l1.415 1.415.707-.707c.39-.39 1.024-.39 1.414 0l.707.707c.39.39.39 1.023 0 1.414l-5.657 5.657c-.39.39-1.023.39-1.414 0l-.707-.707c-.39-.39-.39-1.024 0-1.415l.707-.706-1.414-1.414-9.607 9.607c-.39.39-1.022.39-1.413 0-.39-.39-.39-1.024 0-1.415zM20 19c1.105 0 2 .895 2 2v1H12v-1c0-1.105.895-2 2-2h6z"/></svg>