<svg xmlns="http://www.w3.org/2000/svg" version="1.1" baseProfile="full" width="24" height="24" viewBox="0 0 24.00 24.00" xml:space="preserve"><path fill="#000" fill-opacity="1" stroke-width=".2" stroke-linejoin="round" d="M19.581 3H15V1h8v8h-2V4.41l-4.83 4.83c.524.79.83 1.74.83 2.76 0 2.42-1.718 4.437-4 4.9V19h2v2h-2v2h-2v-2H9v-2h2v-2.1c-2.282-.463-4-2.48-4-4.9 0-1.013.3-1.956.82-2.743L6.636 8.07 5.24 9.46 3.827 8.045l1.398-1.39L3 4.418V8H1V1h7v2H4.41l2.234 2.243 1.438-1.43 1.41 1.417-1.437 1.43L9.23 7.838C10.02 7.308 10.974 7 12 7c1.018 0 1.965.304 2.755.827L19.58 3zM12 9c-1.657 0-3 1.343-3 3s1.343 3 3 3 3-1.343 3-3-1.343-3-3-3z"/></svg>