<svg xmlns="http://www.w3.org/2000/svg" version="1.1" baseProfile="full" width="24" height="24" viewBox="0 0 24.00 24.00" xml:space="preserve"><path fill="#000" fill-opacity="1" stroke-width=".2" stroke-linejoin="round" d="M22 12v8c0 1.105-.895 2-2 2H4c-1.105 0-2-.895-2-2v-8c-.552 0-1-.448-1-1V8c0-1.105.895-2 2-2h3.17C6.06 5.687 6 5.35 6 5c0-1.657 1.343-3 3-3 1 0 1.883.488 2.428 1.238l.006-.004.566.78.566-.78.005.004C13.12 2.488 14.002 2 15.002 2c1.657 0 3 1.343 3 3 0 .35-.06.687-.17 1H21c1.105 0 2 .895 2 2v3c0 .552-.448 1-1 1zM4 20h7v-8H4v8zm16 0v-8h-7v8h7zM9 4c-.552 0-1 .448-1 1s.448 1 1 1 1-.448 1-1-.448-1-1-1zm6 0c-.552 0-1 .448-1 1s.448 1 1 1 1-.448 1-1-.448-1-1-1zM3 8v2h8V8H3zm10 0v2h8V8h-8z"/></svg>