<svg xmlns="http://www.w3.org/2000/svg" version="1.1" baseProfile="full" width="24" height="24" viewBox="0 0 24.00 24.00" xml:space="preserve"><path fill="#000" fill-opacity="1" stroke-linejoin="round" d="M2.595 10.586l5.79-5.788 1.683 1.684c-.235.87.148 1.8.932 2.25v5.536c-.598.345-1 .992-1 1.732 0 1.105.895 2 2 2s2-.895 2-2c0-.74-.402-1.387-1-1.732V9.414l2.068 2.068c-.044.165-.068.34-.068.518 0 1.105.895 2 2 2s2-.895 2-2-.895-2-2-2c-.18 0-.353.024-.518.068l-2.55-2.55c.255-.95-.22-1.964-1.15-2.36-.428-.18-.883-.202-1.3-.09L9.798 3.384l.788-.79c.78-.78 2.047-.78 2.828 0l7.99 7.992c.782.78.782 2.047 0 2.828l-7.99 7.99c-.78.782-2.047.782-2.828 0l-7.99-7.99c-.782-.78-.782-2.047 0-2.828z"/></svg>