<svg xmlns="http://www.w3.org/2000/svg" version="1.1" baseProfile="full" width="24" height="24" viewBox="0 0 24.00 24.00" xml:space="preserve"><path fill="#000" fill-opacity="1" fill-rule="evenodd" stroke-width=".2" stroke-linejoin="round" d="M4 2h16c1.105 0 2 .895 2 2v16c0 1.105-.895 2-2 2h-5.153c-.357-.08-.368-.756-.368-.993l.01-2.743c.002-.933-.318-1.543-.677-1.852 2.227-.248 4.566-1.093 4.566-4.935 0-1.09-.388-1.984-1.03-2.683.103-.253.447-1.27-.1-2.647 0 0-.837-.268-2.746 1.026-.8-.222-1.654-.333-2.504-.337-.85.004-1.706.115-2.503.337-1.91-1.294-2.75-1.026-2.75-1.026-.544 1.377-.2 2.394-.098 2.647-.64.7-1.03 1.592-1.03 2.683 0 3.832 2.334 4.69 4.555 4.943-.286.25-.544.69-.635 1.336-.57.256-2.02.698-2.91-.83 0 0-.53-.96-1.532-1.03 0 0-.977-.014-.07.607 0 0 .657.307 1.11 1.463 0 0 .588 1.944 3.37 1.34l.013 1.7c0 .238-.015.917-.376.994H4c-1.105 0-2-.895-2-2V4c0-1.105.895-2 2-2z"/></svg>