<svg xmlns="http://www.w3.org/2000/svg" version="1.1" baseProfile="full" width="24" height="24" viewBox="0 0 24.00 24.00" xml:space="preserve"><path fill="#000" fill-opacity="1" stroke-width=".2" stroke-linejoin="round" d="M2.997 10c-.24 0-.45.087-.59.245-.14.157-.2.376-.17.615l.498 2.992c.08.63.667 1.148 1.262 1.148h3c.638 0 1.36-.563 1.515-1.183l1.05-3.19c.033-.14.01-.322-.083-.44-.094-.12-.265-.187-.483-.187h-6zm4 7h-3c-1.617 0-3.04-1.257-3.24-2.86L.26 11.148C.15 10.303.39 9.506.907 8.92 1.425 8.337 2.186 8 2.998 8h6c.834 0 1.584.348 2.058.955.12.152.217.318.296.492.425-.09.866-.09 1.292 0 .078-.175.176-.34.295-.492.473-.607 1.223-.955 2.057-.955h6c.812 0 1.572.336 2.09.92.516.587.755 1.384.654 2.19l-.51 3.07C23.037 15.744 21.614 17 20 17h-3c-1.562 0-3.08-1.186-3.456-2.7l-.9-2.713c-.384-.278-.91-.277-1.293 0l-.918 2.786C10.074 15.815 8.556 17 6.997 17zm8-7c-.217 0-.388.066-.48.185-.095.12-.117.302-.065.513l1.01 3.048c.175.69.897 1.254 1.536 1.254h3c.595 0 1.18-.518 1.255-1.108l.51-3.07c.024-.2-.037-.42-.176-.577-.14-.158-.35-.245-.59-.245h-6z"/></svg>