<svg xmlns="http://www.w3.org/2000/svg" version="1.1" baseProfile="full" width="24" height="24" viewBox="0 0 24.00 24.00" xml:space="preserve"><path fill="#000" fill-opacity="1" stroke-width=".2" stroke-linejoin="round" d="M8 2h8c-.333 3-.667 6-1.25 7.833-.583 1.834-1.417 2.5-1.833 4.25-.417 1.75-.417 4.584.166 5.917.584 1.333 1.75 1.167 2.334 1.25.583.083.583.417.583.75H8c0-.333 0-.667.583-.75.584-.083 1.75.083 2.334-1.25.583-1.333.583-4.167.166-5.917-.416-1.75-1.25-2.416-1.833-4.25C8.667 8 8.333 5 8 2zm2 2c.074 1.034.148 2.068.236 3h3.528c.088-.932.162-1.966.236-3h-4z"/></svg>