<svg xmlns="http://www.w3.org/2000/svg" version="1.1" baseProfile="full" width="24" height="24" viewBox="0 0 24.00 24.00" xml:space="preserve"><path fill="#000" fill-opacity="1" stroke-width=".2" stroke-linejoin="round" d="M8 2h8c-.333.667-.667 1.333-.417 3 .25 1.667 1.084 4.333.667 5.736-.417 1.403-2.083 1.542-2.917 3.125-.833 1.584-.833 4.612-.25 6.043.584 1.43 1.75 1.264 2.334 1.347.583.083.583.417.583.75H8c0-.333 0-.667.583-.75.584-.083 1.75.083 2.334-1.347.583-1.43.583-4.46-.25-6.042-.834-1.582-2.5-1.72-2.917-3.124-.417-1.403.417-4.07.667-5.736.25-1.667-.084-2.333-.417-3zm2 2c0 1.19-.17 2.172-.356 3h4.625c-.14-.828-.27-1.81-.27-3h-4z"/></svg>