<svg xmlns="http://www.w3.org/2000/svg" version="1.1" baseProfile="full" width="24" height="24" viewBox="0 0 24.00 24.00" xml:space="preserve"><path fill="#000" fill-opacity="1" stroke-width="1.333" stroke-linejoin="miter" d="M18.419 2c-4.162 0-4.943 5.926-2.602 5.926 2.34 0 6.76-5.926 2.6-5.926zm-6.43.726c-.066 0-.136.004-.21.014-2.34.304-1.517 4.376-.27 4.452 1.207.074 2.528-4.46.48-4.466zm-4.057 1.61c-.124.004-.26.033-.406.094-1.882.777-.286 3.982.77 3.767.97-.198 1.096-3.892-.364-3.86zm-3 2.514c-.162-.006-.34.05-.528.18-1.506 1.04.507 3.554 1.393 3.164.776-.34.282-3.306-.864-3.344zm8.36 1.923c-3.196.03-7.264 1.648-7.972 4.82C4.535 17.116 8.56 22 12.76 22c2.067 0 4.45-1.866 4.897-4.23.34-1.803-4.008-1.08-3.852.113.188 1.43-1.048 2.135-2.26 1.214-3.853-2.934 6.382-4.398 5.707-8.407-.22-1.3-1.91-1.935-3.96-1.917z"/></svg>