<svg xmlns="http://www.w3.org/2000/svg" version="1.1" baseProfile="full" width="24" height="24" viewBox="0 0 24.00 24.00" xml:space="preserve"><path fill="#000" fill-opacity="1" fill-rule="evenodd" stroke-width=".2" stroke-linejoin="round" d="M20.742 6H3.204c-.65 0-1.202.567-1.202 1.27v10.46c0 .703.552 1.27 1.23 1.27h4.79c.513 0 .953-.324 1.138-.788l1.39-3.47c.24-.587.797-.997 1.452-.997.65 0 1.21.41 1.445.996l1.392 3.472c.185.464.624.787 1.113.787h4.79c.707 0 1.26-.567 1.26-1.27V7.27c0-.702-.553-1.27-1.26-1.27zm-13.52 8.575C5.995 14.575 5 13.55 5 12.285 5 11.02 5.996 10 7.22 10c1.223 0 2.214 1.02 2.214 2.285 0 1.265-.99 2.29-2.213 2.29zm9.56 0c-1.226 0-2.217-1.025-2.217-2.29 0-1.26.99-2.285 2.217-2.285C18.008 10 19 11.025 19 12.285c0 1.265-.992 2.29-2.218 2.29z"/></svg>