<svg xmlns="http://www.w3.org/2000/svg" version="1.1" baseProfile="full" width="24" height="24" viewBox="0 0 24.00 24.00" xml:space="preserve"><path fill="#000" fill-opacity="1" stroke-width="1.333" stroke-linejoin="miter" d="M12 1.5c4.97 0 9 4.03 9 9 0 2.613-1.113 4.965-2.89 6.61l-1.063-1.063c1.507-1.37 2.453-3.35 2.453-5.547C19.5 6.358 16.142 3 12 3c-4.142 0-7.5 3.358-7.5 7.5 0 2.2.946 4.177 2.454 5.548L5.892 17.11C4.114 15.466 3 13.113 3 10.5c0-4.97 4.03-9 9-9zm0 3c3.314 0 6 2.686 6 6 0 1.784-.78 3.386-2.015 4.485l-1.063-1.063c.966-.825 1.578-2.052 1.578-3.422C16.5 8.015 14.485 6 12 6s-4.5 2.015-4.5 4.5c0 1.37.612 2.597 1.578 3.423l-1.063 1.063C6.78 13.886 6 12.284 6 10.5c0-3.314 2.686-6 6-6zM8.11 17.646l3.183-3.182c.39-.39 1.024-.39 1.414 0l3.182 3.182c.39.39.39 1.024 0 1.415l-3.183 3.183c-.39.39-1.024.39-1.414 0L8.11 19.06c-.39-.39-.39-1.023 0-1.413z"/></svg>