<svg xmlns="http://www.w3.org/2000/svg" version="1.1" baseProfile="full" width="24" height="24" viewBox="0 0 24.00 24.00" xml:space="preserve"><path fill="#000" fill-opacity="1" stroke-linejoin="round" d="M9.894 11.08c-.134-1.172-.5-2.307-1.12-3.31-.298-.475-.317-1.07-.147-1.523.083-.227.204-.443.404-.654.205-.216.432-.332.64-.415.206-.085.353-.118.64-.118.346 0 .686.108.97.294l.44.41.11.156c1.11 1.836 1.697 3.944 1.697 6.1l-.025.77c-.122 1.89-.698 3.722-1.68 5.341-.326.54-.9.862-1.53.862l-.516-.08-.41-.18c-.502-.304-.798-.82-.85-1.363-.03-.322.026-.652.176-.956l.074-.14c.778-1.275 1.188-2.75 1.188-4.255l-.06-.94zm10.484-3.195c.307 1.336.466 2.74.466 4.134 0 1.413-.16 2.795-.466 4.137l-.273 1.056c-.33 1.19-.708 2.11-1.08 2.813-.328.596-.964.974-1.646.974-.282 0-.55-.06-.804-.18-.554-.266-.902-.75-1.023-1.28l-.048-.435c0-.404.164-.752.177-.783.935-1.977 1.408-4.096 1.408-6.303 0-2.205-.47-4.328-1.423-6.337-.443-.932-.047-2.057.888-2.5.255-.12.525-.183.803-.183.72 0 1.388.42 1.697 1.07.58 1.216 1.025 2.498 1.323 3.815zm-4.256 1.608c.143.83.214 1.67.214 2.526 0 1.984-.383 3.897-1.14 5.7-.086-1.51-.445-2.957-1.04-4.28l.068-.71.026-.77c0-2.076-.544-4.107-1.576-5.894 1.328.97 2.506 2.14 3.448 3.427zm-12.145.984c-.824-.443-1.135-1.47-.694-2.296.298-.553.87-.896 1.5-.896.276 0 .55.07.8.2 1.284.69 2.45 1.615 3.39 2.677l.15.894.06.94c0 1.437-.374 2.844-1.084 4.078-.496-2.412-1.982-4.45-4.123-5.595z"/></svg>