<svg xmlns="http://www.w3.org/2000/svg" version="1.1" baseProfile="full" width="24" height="24" viewBox="0 0 24.00 24.00" xml:space="preserve"><path fill="#000" fill-opacity="1" stroke-width=".2" stroke-linejoin="round" d="M12 19.998l3.464-6-.015-.01c.34-.587.55-1.26.55-1.99 0-1.202-.54-2.267-1.38-3h4.793c.375.927.587 1.938.587 3 0 4.418-3.582 8-8 8zm-8-8c0-1.457.395-2.818 1.075-3.994L8.537 14l.013-.01C9.243 15.186 10.52 16 12 16c.454 0 .882-.092 1.29-.23l-2.395 4.145C7 19.373 4 16.04 4 11.998zm11 0c0 1.656-1.344 3-3 3-1.657 0-3-1.344-3-3s1.343-3 3-3c1.656 0 3 1.344 3 3zm-3-8c2.96 0 5.537 1.61 6.92 4H12c-1.94 0-3.554 1.38-3.92 3.21L5.696 7.083C7.16 5.208 9.437 3.998 12 3.998zm0-2c-5.524 0-10 4.477-10 10s4.476 10 10 10c5.523 0 10-4.477 10-10s-4.477-10-10-10z"/></svg>