<svg xmlns="http://www.w3.org/2000/svg" version="1.1" baseProfile="full" width="24" height="24" viewBox="0 0 24.00 24.00" xml:space="preserve"><path fill="#000" fill-opacity="1" stroke-linejoin="round" d="M2 5.268L3.277 4 20 20.723 18.732 22l-6-6H7.975l-2.988 2.987c-.316.317-.754.513-1.237.513-.966 0-1.75-.784-1.75-1.75l.02-.263.996-7.37c.086-1.023.515-1.95 1.17-2.662L2 5.268zM5 10v1h2v2h1v-1.732L6.732 10H5zm11.5-4c2.356 0 4.29 1.81 4.484 4.117l.996 7.37.02.263c0 .657-.362 1.23-.898 1.53L7.822 6H16.5zm0 2c-.414 0-.75.336-.75.75s.336.75.75.75.75-.336.75-.75S16.914 8 16.5 8zm-1.75 1.75c-.414 0-.75.336-.75.75s.336.75.75.75.75-.336.75-.75-.336-.75-.75-.75zm3.5 0c-.414 0-.75.336-.75.75s.336.75.75.75.75-.336.75-.75-.336-.75-.75-.75zM16.5 11.5c-.414 0-.75.336-.75.75s.336.75.75.75.75-.336.75-.75-.336-.75-.75-.75z"/></svg>