<svg xmlns="http://www.w3.org/2000/svg" version="1.1" baseProfile="full" width="24" height="24" viewBox="0 0 24.00 24.00" xml:space="preserve"><path fill="#000" fill-opacity="1" stroke-width="1.333" stroke-linejoin="miter" d="M4.2 3c-.626 0-1.146.482-1.196 1.106C2.994 8.663 3 13.236 3 17.8c0 .663.537 1.2 1.2 1.2.112 0 .225-.017.333-.05 3.96-2.114 8.03-4.57 11.986-6.866.42-.198.687-.62.687-1.084 0-.432-.232-.83-.607-1.043-4.097-2.394-8.39-4.887-12.07-6.91C4.425 3.017 4.31 3 4.2 3zm15.673 3c-.112 0-.222.016-.33.047-.946.52-2.01 1.133-3.02 1.705.332.195.67.388 1 .582.956.543 1.55 1.567 1.55 2.666v.002c0 1.182-.69 2.267-1.757 2.77-1.393.822-4.4 2.586-5.998 3.513 2.748 1.61 5.507 3.216 8.22 4.666.11.033.222.05.335.05.662 0 1.2-.537 1.2-1.2 0-4.563.006-9.136-.005-13.695-.05-.623-.57-1.105-1.195-1.105z"/></svg>