<svg xmlns="http://www.w3.org/2000/svg" version="1.1" baseProfile="full" width="24" height="24" viewBox="0 0 24.00 24.00" xml:space="preserve"><path fill="#000" fill-opacity="1" stroke-width="1.333" stroke-linejoin="miter" d="M5 4c-1.104 0-2 .896-2 2v10.293l8.184-8.184c-.128-.52-.2-1.045-.2-1.58 0-.91.22-1.77.607-2.53h-6.59zm13 17c1.105 0 2-.895 2-2v-7.137c-.758 1.14-1.692 2.35-2.712 3.657l-.784 1.005-.79-1c-1.324-1.68-2.493-3.202-3.325-4.616-.338-.576-.63-1.152-.86-1.732L7.457 13.25l7.75 7.75H18zM3 19c0 1.105.896 2 2 2h8.793L6.75 13.957 3 17.707V19zm13.5-4c2.605-3.37 4.5-5.9 4.5-8.426S18.985 2 16.5 2C14.014 2 12 4.048 12 6.574 12 9.1 13.865 11.63 16.5 15zm2-8.5c0 1.104-.895 2-2 2-1.104 0-2-.896-2-2s.896-2 2-2c1.105 0 2 .896 2 2z"/></svg>