<svg xmlns="http://www.w3.org/2000/svg" version="1.1" baseProfile="full" width="24" height="24" viewBox="0 0 24.00 24.00" xml:space="preserve"><path fill="#000" fill-opacity="1" stroke-width=".2" stroke-linejoin="round" d="M16.657 14.98L17 15c1.012 0 1.978-.196 2.87-.54-.7 4.275-4.4 7.54-8.87 7.54-4.97 0-9-4.03-9-9 0-4.472 3.265-8.172 7.54-8.87-.344.89-.54 1.857-.54 2.87l.016.343C6.678 8.16 5 10.38 5 13c0 3.314 2.686 6 6 6 2.617 0 4.837-1.68 5.657-4.017zM17 10c1.656 0 3-1.343 3-3s-1.344-3-3-3c-1.658 0-3 1.343-3 3s1.342 3 3 3zm0-9c3.312 0 6 2.686 6 6s-2.688 6-6 6c-3.315 0-6-2.686-6-6s2.685-6 6-6z"/></svg>