<svg xmlns="http://www.w3.org/2000/svg" version="1.1" baseProfile="full" width="24" height="24" viewBox="0 0 24.00 24.00" xml:space="preserve"><path fill="#000" fill-opacity="1" stroke-width="1.333" stroke-linejoin="miter" d="M21.354 11.104H12.18v2.722h6.506c-.32 3.817-3.497 5.445-6.495 5.445-3.835 0-7.18-3.017-7.18-7.246 0-4.12 3.19-7.294 7.19-7.294 3.086 0 4.904 1.967 4.904 1.967l1.907-1.973S16.564 2 12.102 2C6.422 2 2.025 6.795 2.025 11.975 2.025 17.05 6.16 22 12.247 22c5.354 0 9.273-3.668 9.273-9.09 0-1.145-.166-1.806-.166-1.806z"/></svg>