<svg xmlns="http://www.w3.org/2000/svg" version="1.1" baseProfile="full" width="24" height="24" viewBox="0 0 24.00 24.00" xml:space="preserve"><path fill="#000" fill-opacity="1" stroke-width=".2" stroke-linejoin="round" d="M20 1.998c1.103 0 2 .895 2 2v16c0 1.104-.897 2-2 2H4c-1.105 0-2-.896-2-2l.01-16c0-1.105.885-2 1.99-2h16zM20 12h-2v-2h-1v2h-2v1h2v2h1v-2h2v-1zm-11-.714V13h2.857c-.143.714-.857 2.143-2.857 2.143-1.714 0-3.07-1.43-3.07-3.143 0-1.714 1.356-3.143 3.07-3.143 1 0 1.643.43 2 .786l1.357-1.286C11.5 7.5 10.357 7 9 7c-2.786 0-5 2.214-5 5s2.214 5 5 5c2.857 0 4.786-2 4.786-4.857 0-.357 0-.572-.072-.857H9z"/></svg>