<svg xmlns="http://www.w3.org/2000/svg" version="1.1" baseProfile="full" width="24" height="24" viewBox="0 0 24.00 24.00" xml:space="preserve"><path fill="#000" fill-opacity="1" stroke-linejoin="round" d="M7.975 16l-2.988 2.987c-.316.317-.754.513-1.237.513-.966 0-1.75-.784-1.75-1.75l.02-.263.996-7.37C3.21 7.81 5.144 6 7.5 6h9c2.356 0 4.29 1.81 4.484 4.117l.996 7.37.02.263c0 .966-.784 1.75-1.75 1.75-.483 0-.92-.196-1.237-.513L16.025 16h-8.05zM7 8v2H5v1h2v2h1v-2h2v-1H8V8H7zm9.5 0c-.414 0-.75.336-.75.75s.336.75.75.75.75-.336.75-.75S16.914 8 16.5 8zm-1.75 1.75c-.414 0-.75.336-.75.75s.336.75.75.75.75-.336.75-.75-.336-.75-.75-.75zm3.5 0c-.414 0-.75.336-.75.75s.336.75.75.75.75-.336.75-.75-.336-.75-.75-.75zM16.5 11.5c-.414 0-.75.336-.75.75s.336.75.75.75.75-.336.75-.75-.336-.75-.75-.75z"/></svg>