<svg xmlns="http://www.w3.org/2000/svg" version="1.1" baseProfile="full" width="24" height="24" viewBox="0 0 24.00 24.00" xml:space="preserve"><path fill="#000" fill-opacity="1" stroke-width=".2" stroke-linejoin="round" d="M18 18.998c-1.106 0-2-.895-2-2s.894-2 2-2c1.104 0 2 .895 2 2s-.896 2-2 2zm0-6c-2.21 0-4 1.79-4 4s1.79 4 4 4c2.208 0 4-1.79 4-4s-1.792-4-4-4zm-6-1.9c-1.05 0-1.9.85-1.9 1.9 0 1.05.85 1.9 1.9 1.9 1.048 0 1.9-.85 1.9-1.9 0-1.05-.852-1.9-1.9-1.9zm-6 7.9c-1.106 0-2-.895-2-2s.894-2 2-2c1.104 0 2 .895 2 2s-.896 2-2 2zm0-6c-2.21 0-4 1.79-4 4s1.79 4 4 4c2.208 0 4-1.79 4-4s-1.792-4-4-4zm6-9c1.104 0 2 .895 2 2s-.896 2-2 2c-1.106 0-2-.895-2-2s.894-2 2-2zm0 6c2.208 0 4-1.79 4-4s-1.792-4-4-4c-2.21 0-4 1.79-4 4s1.79 4 4 4z"/></svg>