<svg xmlns="http://www.w3.org/2000/svg" version="1.1" baseProfile="full" width="24" height="24" viewBox="0 0 24.00 24.00" xml:space="preserve"><path fill="#000" fill-opacity="1" stroke-width=".2" stroke-linejoin="round" d="M12.396 7.557C9.596 4.912 7.303 5.65 6.314 6.1c.746-.72 1.626-1.3 2.603-1.697 2.783-.103 5.915.435 7.648 2.91 0 0 2.423 4.182 3.29 2.34.222.744.346 1.53.346 2.345 0 .298-.018.592-.048.882-2.035-.234-4.826-2.555-7.756-5.323zm6.7 8.54c-.94.37-2.11 1-3.955 1-1.883 0-3.53-.75-5.58-1.398-1.862-.592-2.55-1.5-3.84-1.5-.657 0-.985.658-1.168 1.214-.477-1.04-.752-2.195-.752-3.416 0-.804.12-1.58.337-2.313 1.263-1.588 3.194-2.563 5.957-.43 0 0 6.23 4.666 9.79 4.976-.186.66-.452 1.285-.788 1.866zM12 20.198c-1.123 0-2.193-.23-3.168-.637-.623-1.483-.613-2.645 1.12-2.065 0 0 3.917 1.52 8.04.085-1.496 1.606-3.624 2.616-5.99 2.616zm0-18.202c-5.522 0-10 4.477-10 10 0 5.524 4.478 10 10 10 5.523 0 10-4.476 10-10 0-5.523-4.477-10-10-10z"/></svg>