<svg xmlns="http://www.w3.org/2000/svg" version="1.1" baseProfile="full" width="24" height="24" viewBox="0 0 24.00 24.00" xml:space="preserve"><path fill="#000" fill-opacity="1" stroke-width=".2" stroke-linejoin="round" d="M5 10c-1.105 0-2 .895-2 2s.895 2 2 2 2-.895 2-2-.895-2-2-2zm0 6c-2.21 0-4-1.79-4-4s1.79-4 4-4 4 1.79 4 4-1.79 4-4 4zm5.5-5H14V8l4 4-4 4v-3h-3.5v-2zM5 6c-.45 0-.89.05-1.314.144C5.634 3.054 9.076 1 13 1c6.075 0 11 4.925 11 11s-4.925 11-11 11c-3.923 0-7.366-2.053-9.314-5.144C4.11 17.95 4.55 18 5 18c.796 0 1.556-.155 2.25-.437C8.707 19.066 10.745 20 13 20c4.418 0 8-3.582 8-8s-3.582-8-8-8c-2.256 0-4.294.934-5.75 2.437C6.557 6.155 5.797 6 5 6z"/></svg>