<svg xmlns="http://www.w3.org/2000/svg" version="1.1" baseProfile="full" width="24" height="24" viewBox="0 0 24.00 24.00" xml:space="preserve"><path fill="#161616" fill-opacity="1" stroke-width="1.333" stroke-linejoin="miter" d="M3 1c-1.108 0-2 .892-2 2v14c0 1.108.892 2 2 2h12L9 1H3zm9.344 4L13 7h8v14h-8.625l.656 2H21c1.108 0 2-.892 2-2V7c0-1.108-.892-2-2-2h-8.656zm-5.28.906c1.098 0 2.023.4 2.717 1.094L8.657 8.03c-.29-.288-.784-.624-1.594-.624-1.388 0-2.5 1.143-2.5 2.532 0 1.388 1.112 2.562 2.5 2.562 1.62 0 2.197-1.171 2.313-1.75H7.062V9.375h3.813c.058.23.063.398.063.688 0 2.314-1.56 3.937-3.876 3.937C4.806 14 3 12.194 3 9.937c0-2.256 1.806-4.03 4.063-4.03zM15.998 10v1h-1.656l.312 1H18c-.267.612-.372 1.173-1.188 2.125-.402-.466-.724-.877-.812-1.125h-1c.118.428.617 1.1 1.22 1.78-.135.132-.31.296-.47.44l.28.842c.254-.224.504-.453.75-.687 1.02 1.078 2.095 2.063 2.095 2.063l.563-.594s-1.068-1.06-2.032-2.094c.63-.702 1.19-1.55 1.594-2.75h1v-1h-3v-1h-1z"/></svg>