<svg xmlns="http://www.w3.org/2000/svg" version="1.1" baseProfile="full" width="24" height="24" viewBox="0 0 24.00 24.00" xml:space="preserve"><path fill="#000" fill-opacity="1" stroke-width=".2" stroke-linejoin="round" d="M0 2.768L1.277 1.5 22.5 22.723 21.232 24l-2-2H4.021c-1.103 0-2-.895-2-2l-.02-15.23L0 2.77zM10 4v3.677l-2-2V4H6.323l-2-2H20c1.105 0 2 .895 2 2l.023 15.7-2.003-2.003L20.018 16h-1.695l-2-2h3.692l-.006-4H16v3.677l-2-2V10h-1.677l-2-2H14V4h-4zm6 0v4h4.006L20 4h-4zm0 16h1.232L16 18.768V20zM4.006 8h1.226L4.004 6.773 4.006 8zM10 14h1.232L10 12.768V14zm4 6v-3.232L13.232 16H10v4h4zm-6 0v-4H4.018l.005 4H8zm0-6v-3.232L7.232 10H4.01l.005 4H8z"/></svg>