<svg xmlns="http://www.w3.org/2000/svg" version="1.1" baseProfile="full" width="24" height="24" viewBox="0 0 24.00 24.00" xml:space="preserve"><path fill="#000" fill-opacity="1" stroke-width=".2" stroke-linejoin="round" d="M10 4v4h4V4h-4zm6 0v4h4.006L20 4h-4zm0 6v4h4.015l-.006-4H16zm0 6v4h4.023l-.005-4H16zm-2 4v-4h-4v4h4zm-6 0v-4H4.018l.005 4H8zm0-6v-4H4.01l.005 4H8zm0-6V4H4l.006 4H8zm2 6h4v-4h-4v4zM4 2h16c1.105 0 2 .895 2 2l.023 16c0 1.105-.895 2-2 2h-16c-1.104 0-2-.895-2-2L2 4c0-1.105.895-2 2-2z"/></svg>