<svg xmlns="http://www.w3.org/2000/svg" version="1.1" baseProfile="full" width="24" height="24" viewBox="0 0 24.00 24.00" xml:space="preserve"><path fill="#000" fill-opacity="1" fill-rule="evenodd" stroke-linejoin="round" d="M20.755 16.336C21.5 16.77 22 17.577 22 18.5c0 1.38-1.12 2.5-2.5 2.5h-15C3.12 21 2 19.88 2 18.5c0-.923.5-1.73 1.245-2.163L11 11.858S11 11 12 10c1 0 2-.895 2-2s-.895-2-2-2-2 .895-2 2H8c0-2.21 1.79-4 4-4s4 1.79 4 4c0 1.857-1.266 3.42-2.982 3.87l7.737 4.466zM4.5 19h15c.173 0 .34-.09.433-.25.138-.24.056-.545-.183-.683L12 13.592l-7.75 4.475c-.24.138-.32.444-.183.683.092.16.26.25.433.25z"/><path fill="#000" fill-opacity="1" fill-rule="evenodd" stroke-linejoin="round" d="M11 11.86L12 10c1.105 0 2-.895 2-2"/><path fill="#000" fill-opacity="1" fill-rule="evenodd" stroke-linejoin="round" d="M11 11.86L12 10c1.105 0 2-.895 2-2"/></svg>