<svg xmlns="http://www.w3.org/2000/svg" version="1.1" baseProfile="full" width="24" height="24" viewBox="0 0 24.00 24.00" xml:space="preserve"><path fill="#000" fill-opacity="1" stroke-linejoin="round" d="M6 2h12c1.105 0 2 .895 2 2v16c0 1.105-.895 2-2 2H6c-1.105 0-2-.895-2-2V4c0-1.105.895-2 2-2zm6 2c-3.314 0-6 2.686-6 6s2.686 6 6.102 6l-.88-2.233c-.276-.478-.112-1.09.366-1.366l.866-.5c.478-.275 1.09-.11 1.366.367l1.925 2.42C17.12 13.59 18 11.898 18 10c0-3.314-2.686-6-6-6zm0 5c.552 0 1 .448 1 1s-.448 1-1 1-1-.448-1-1 .448-1 1-1zm-5 9c-.552 0-1 .448-1 1s.448 1 1 1 1-.448 1-1-.448-1-1-1zm5.088-4.733l2.488 6.31 2.598-1.5-4.22-5.31-.866.5z"/></svg>