<svg xmlns="http://www.w3.org/2000/svg" version="1.1" baseProfile="full" width="24" height="24" viewBox="0 0 24.00 24.00" xml:space="preserve"><path fill="#000" fill-opacity="1" stroke-width=".2" stroke-linejoin="round" d="M22.5 4.768l-2.07 2.07c.368.984.57 2.048.57 3.16v10c0 1.657-1.344 3-3 3h-6v-2h7v-1h-4v-7.73l-6 6V20H7.27L4.768 22.5 3.5 21.223 21.223 3.5 22.5 4.768zM12 .998c2.53 0 4.818 1.045 6.453 2.726L17.038 5.14c-1.273-1.32-3.06-2.142-5.04-2.142-3.865 0-7 3.134-7 7v2h4v1.18L3.51 18.67c-.32-.478-.51-1.053-.51-1.672v-7c0-4.97 4.03-9 9-9zm7 11v-2c0-.535-.06-1.055-.174-1.555l-3.556 3.555H19z"/></svg>