<svg xmlns="http://www.w3.org/2000/svg" version="1.1" baseProfile="full" width="24" height="24" viewBox="0 0 24.00 24.00" xml:space="preserve"><path fill="#000" fill-opacity="1" stroke-width=".2" stroke-linejoin="round" d="M12.104 18.552l-.105.095-.106-.095C7.14 14.237 4 11.387 4 8.498c0-1.995 1.504-3.5 3.5-3.5 1.537 0 3.038.992 3.566 2.36h1.866C13.46 5.99 14.962 5 16.5 5c1.994 0 3.5 1.505 3.5 3.5 0 2.89-3.142 5.74-7.896 10.054zM16.5 2.998c-1.742 0-3.41.807-4.5 2.086-1.092-1.28-2.76-2.086-4.5-2.086-3.085 0-5.5 2.416-5.5 5.5 0 3.775 3.4 6.862 8.55 11.535L12 21.35l1.448-1.317c5.15-4.673 8.55-7.76 8.55-11.535 0-3.084-2.415-5.5-5.5-5.5z"/></svg>