<svg xmlns="http://www.w3.org/2000/svg" version="1.1" baseProfile="full" width="24" height="24" viewBox="0 0 24.00 24.00" xml:space="preserve"><path fill="#000" fill-opacity="1" stroke-width="1.333" stroke-linejoin="miter" d="M7.5 4C4.462 4 2 6.462 2 9.5c0 .52.088 1.02.22 1.5H6.3l1.27-3.367c.305-.807 1.484-.883 1.864 0L11.5 13l.588-1.424c.133-.322.485-.58.912-.58h8.78c.132-.48.22-.98.22-1.5 0-3.038-2.462-5.5-5.5-5.5-1.86 0-3.504.932-4.5 2.344-.996-1.412-2.64-2.344-4.5-2.344V4zM3 12.5c-.554 0-1 .446-1 1s.446 1 1 1h2.438L11 20c1 .898 1 .898 2 0l5.563-5.5H21c.554 0 1-.446 1-1s-.446-1-1-1h-7.6l-.926 2.3c-.406 1.01-1.552.87-1.92.026L8.5 9.5l-.958 2.328c-.156.377-.492.672-.942.672H3z"/></svg>