<svg xmlns="http://www.w3.org/2000/svg" version="1.1" baseProfile="full" width="24" height="24" viewBox="0 0 24.00 24.00" xml:space="preserve"><path fill="#000" fill-opacity="1" stroke-width=".2" stroke-linejoin="round" d="M5 3h14c1.105 0 2 .895 2 2v14c0 1.105-.895 2-2 2H5c-1.105 0-2-.895-2-2V5c0-1.105.895-2 2-2zm7 14l.725-.66C15.299 14.006 17 12.463 17 10.575c0-1.542-1.208-2.75-2.75-2.75-.87 0-1.704.404-2.25 1.043-.546-.64-1.38-1.043-2.25-1.043-1.542 0-2.75 1.208-2.75 2.75 0 1.888 1.7 3.43 4.275 5.768L12 17z"/></svg>