<svg xmlns="http://www.w3.org/2000/svg" version="1.1" baseProfile="full" width="24" height="24" viewBox="0 0 24.00 24.00" xml:space="preserve"><path fill="#000" fill-opacity="1" stroke-width=".2" stroke-linejoin="round" d="M15.066 11.252l-.895.918c-.723.724-1.17 1.328-1.17 2.828h-2v-.5c0-1.104.447-2.104 1.17-2.828l1.244-1.258c.36-.362.585-.862.585-1.414 0-1.104-.896-2-2-2-1.105 0-2 .896-2 2H8c0-2.21 1.79-4 4-4s4 1.79 4 4c0 .88-.357 1.677-.934 2.254zM13 18.998h-2v-2h2m-1-15c-5.524 0-10 4.477-10 10 0 5.524 4.476 10 10 10 5.523 0 10-4.476 10-10 0-5.523-4.477-10-10-10z"/></svg>