<svg xmlns="http://www.w3.org/2000/svg" version="1.1" baseProfile="full" width="24" height="24" viewBox="0 0 24.00 24.00" xml:space="preserve"><path fill="#000" fill-opacity=".902" stroke-width=".2" stroke-linejoin="round" d="M11 6.998v5.114l4.714 2.792.77-1.285-3.985-2.372v-4.25m-.006-5c-3.526 0-6.59 1.922-8.224 4.772L2 4.498v6.5h6.5L5.746 8.246c1.21-2.513 3.775-4.248 6.752-4.248 4.143 0 7.5 3.358 7.5 7.5 0 4.142-3.357 7.5-7.5 7.5-3.266 0-6.035-2.09-7.065-5H3.342c1.097 4.032 4.77 7 9.152 7 5.25 0 9.505-4.253 9.505-9.5s-4.256-9.5-9.506-9.5z"/></svg>