<svg xmlns="http://www.w3.org/2000/svg" version="1.1" baseProfile="full" width="24" height="24" viewBox="0 0 24.00 24.00" xml:space="preserve"><path fill="#000" fill-opacity="1" stroke-width=".2" stroke-linejoin="round" d="M5 15H2.998v4c0 1.098.903 2 2.002 2h4v-2H5M5 5h4V2.998H5C3.9 2.998 2.998 3.9 2.998 5v4H5m14-6.002h-4V5h4v4h2V5c0-1.1-.902-2.002-2-2.002zm0 16h-4v2.003h4c1.098 0 2-.902 2-2v-4h-2M12 7.997c-2.212 0-4.005 1.793-4.005 4.005 0 2.207 1.793 4 4.005 4 2.207 0 4-1.793 4-4 0-2.212-1.793-4.005-4-4.005zm0 6.002C10.9 14 10 13.1 10 12 10 10.9 10.9 10 12.002 10 13.1 10 14 10.9 14 12.002 14 13.1 13.1 14 12 14z"/></svg>