<svg xmlns="http://www.w3.org/2000/svg" version="1.1" baseProfile="full" width="24" height="24" viewBox="0 0 24.00 24.00" xml:space="preserve"><path fill="#000" fill-opacity="1" stroke-width="1.333" stroke-linejoin="miter" d="M12 3c-2.692.003-4.594 1.22-4.594 1.22L6 9h12l-1.406-4.78S14.692 3.002 12 3zm0 8c-2.728 0-6.612.536-6.875.594-1.033.277-1.88.56-2.53.812C1.574 12.754 1 13 1 13h22s-.576-.246-1.594-.594c-.66-.254-1.515-.532-2.562-.812 0 0-4.02-.594-6.844-.594zm-4.5 3C5.567 14 4 15.567 4 17.5S5.567 21 7.5 21s3.5-1.567 3.5-3.5c0-.157-.01-.317-.03-.47.318-.07.663-.125 1.03-.124.367.002.712.055 1.03.125-.02.153-.03.313-.03.47 0 1.933 1.567 3.5 3.5 3.5s3.5-1.567 3.5-3.5-1.567-3.5-3.5-3.5c-1.474 0-2.734.898-3.25 2.188-.32-.097-.7-.188-1.25-.188s-.93.09-1.25.188C10.234 14.898 8.974 14 7.5 14zm0 1c1.38 0 2.5 1.12 2.5 2.5S8.88 20 7.5 20 5 18.88 5 17.5 6.12 15 7.5 15zm9 0c1.38 0 2.5 1.12 2.5 2.5S17.88 20 16.5 20 14 18.88 14 17.5s1.12-2.5 2.5-2.5z"/></svg>