<svg xmlns="http://www.w3.org/2000/svg" version="1.1" baseProfile="full" width="24" height="24" viewBox="0 0 24.00 24.00" xml:space="preserve"><path fill="#000" fill-opacity="1" stroke-width=".2" stroke-linejoin="round" d="M20 6.498c0 .276-.225.5-.5.5h-2c-.277 0-.5-.224-.5-.5v-2c0-.276.223-.5.5-.5h2c.275 0 .5.224.5.5m-15.5 15.5c-.277 0-.5-.224-.5-.5v-8.5h2.09c-.056.326-.09.658-.09 1 0 3.313 2.685 6 6 6 3.312 0 6-2.687 6-6 0-.342-.036-.674-.09-1H20v8.5c0 .276-.225.5-.5.5m-7.5-12c2.208 0 4 1.79 4 4s-1.792 4-4 4c-2.21 0-4-1.79-4-4s1.79-4 4-4zm8-6H4c-1.106 0-1.99.895-1.99 2l-.01 16c0 1.104.894 2 2 2h16c1.103 0 2-.896 2-2v-16c0-1.105-.897-2-2-2z"/></svg>