<svg xmlns="http://www.w3.org/2000/svg" version="1.1" baseProfile="full" width="24" height="24" viewBox="0 0 24.00 24.00" xml:space="preserve"><path fill="#000" fill-opacity="1" stroke-width=".2" stroke-linejoin="round" d="M13 3l1.02.057c2.778-1.27 5.21-1.42 6.47-.14 1 1.016 1.09 2.755.43 4.806C21.61 8.995 22 10.453 22 12l-.055 1H9.08c.37 2.282 1.985 4 3.92 4 1.31 0 2.47-.786 3.2-2h5.288c-1.236 3.496-4.57 6-8.488 6-1.278 0-2.493-.266-3.594-.746-2.926 1.426-5.517 1.644-6.832.31C1 18.963 1.68 15.569 4 11.994c.933-1.45 2.136-2.934 3.565-4.342l.817-.772c-1.176.688-2.67 1.742-4.196 3.29C5.032 6.075 8.656 3 13 3zm0 4c-1.79 0-3.307 1.47-3.817 3.5h7.634C16.307 8.47 14.79 7 13 7zm7.06-2.938c-.657-.668-1.844-.715-3.317-.25 1.48.68 2.746 1.747 3.664 3.074.325-1.237.235-2.234-.346-2.824zM3.888 19.99c.833.845 2.514.695 4.55-.23-1.846-1.09-3.27-2.818-3.967-4.883-1.2 2.273-1.492 4.19-.583 5.113z"/></svg>