<svg xmlns="http://www.w3.org/2000/svg" version="1.1" baseProfile="full" width="24" height="24" viewBox="0 0 24.00 24.00" xml:space="preserve"><path fill="#000" fill-opacity="1" stroke-width="1.333" stroke-linejoin="miter" d="M19 13V7h1V4H4v3h1v6H2c0 .93.5 1.705 1.5 1.93V20c0 .55.448 1 1 1h1c.552 0 1-.45 1-1v-1h11v1c0 .55.447 1 1 1h1c.55 0 1-.45 1-1v-5.07c1-.225 1.5-1 1.5-1.93h-3zM8 15c-.83 0-1.5-.672-1.5-1.5 0-.83.67-1.5 1.5-1.5s1.5.67 1.5 1.5c0 .828-.67 1.5-1.5 1.5zm8 0c-.827 0-1.5-.672-1.5-1.5 0-.83.673-1.5 1.5-1.5.83 0 1.5.67 1.5 1.5 0 .828-.672 1.5-1.5 1.5zm1.5-4.505C15.922 10.18 14.03 10 12 10c-2.033 0-4 .184-5.5.495V7h11v3.495z"/></svg>