<svg xmlns="http://www.w3.org/2000/svg" version="1.1" baseProfile="full" width="24" height="24" viewBox="0 0 24.00 24.00" xml:space="preserve"><path fill="#000" fill-opacity="1" stroke-width=".2" stroke-linejoin="round" d="M12 2c.872 0 1.58.707 1.58 1.58 0 .87-.708 1.578-1.58 1.578-.872 0-1.58-.707-1.58-1.58C10.42 2.71 11.13 2 12 2zM7.79 3.053c.872 0 1.578.707 1.578 1.58 0 .87-.706 1.578-1.58 1.578-.87 0-1.577-.706-1.577-1.578 0-.872.707-1.58 1.58-1.58zm8.42 0c.873 0 1.58.707 1.58 1.58 0 .87-.707 1.578-1.58 1.578-.872 0-1.578-.706-1.578-1.578 0-.872.707-1.58 1.579-1.58zm-4.407 7.894c-2.106-2.105-1.58-3.158-1.58-3.158h3.685c0 1.578-2.105 3.157-2.105 3.157zm2.105 10.527s0-2.106-4.21-6.316-4.737-5.263-5.264-8.42c0 0 .395-.527.92 0 .528.525 1.712.92 2.764.92 0 0 1.053 3.29 3.948 5.395 0 0 3.816-3.948 3.816-5.527 0 0 1.184.263 2.63-.79 0 0 .988-.52 1.054 0 .13 1.053-.92 4.738-5.263 8.422 0 0 2.763 3.158 2.5 6.316h-2.895zM9.17 16.21l2.238 2.5C10.355 19.764 10.224 22 10.224 22H7.066c.526-4.21 2.105-5.79 2.105-5.79z"/></svg>