<svg xmlns="http://www.w3.org/2000/svg" version="1.1" baseProfile="full" width="24" height="24" viewBox="0 0 24.00 24.00" xml:space="preserve"><path fill="#050708" fill-opacity="1" fill-rule="evenodd" stroke-linejoin="round" d="M20.33 10.794c1.568.643 2.67 2.163 2.67 3.94C23 17.09 21.06 19 18.667 19H5.4C2.983 18.963 1 17.012 1 14.623c0-1.597.874-2.99 2.174-3.75-.09-.28-.137-.578-.137-.887 0-1.642 1.352-2.973 3.02-2.973.695 0 1.335.235 1.845.624 1.053-2.17 3.297-3.675 5.904-3.675 3.614 0 6.545 2.886 6.545 6.445 0 .13-.01.258-.02.387zm-11.115.06c-1.77 0-3.202 1.263-3.202 2.82s1.433 2.82 3.202 2.82c1.037 0 1.96-.434 2.544-1.107l-1.01-1.138c-.33.434-.977.74-1.535.74-.79-.002-1.428-.59-1.428-1.316 0-.726.64-1.314 1.428-1.314.47 0 .91.235 1.348.52.44.283 1.166 1.295 1.743 1.943 1.47 1.465 2.222 1.594 3.092 1.594 1.768 0 3.202-1.262 3.202-2.82 0-1.557-1.434-2.82-3.203-2.82-1.037 0-1.958.435-2.544 1.108l1.01 1.138c.33-.435.977-.74 1.535-.74.788 0 1.428.588 1.428 1.315 0 .725-.64 1.314-1.428 1.314-.47 0-.91-.235-1.348-.52-.44-.284-1.166-1.295-1.744-1.943-1.468-1.467-2.22-1.596-3.09-1.596z"/></svg>