<svg xmlns="http://www.w3.org/2000/svg" version="1.1" baseProfile="full" width="24" height="24" viewBox="0 0 24.00 24.00" xml:space="preserve"><path fill="#000" fill-opacity="1" stroke-width="1.333" stroke-linejoin="miter" d="M5 3h2v2H5v5c0 1.105-.895 2-2 2 1.105 0 2 .895 2 2v5h2v2H5c-1.072-.268-2-.895-2-2v-4c0-1.105-.895-2-2-2H0v-2h1c1.105 0 2-.895 2-2V5c0-1.105.895-2 2-2zm14 0c1.105 0 2 .895 2 2v4c0 1.105.895 2 2 2h1v2h-1c-1.105 0-2 .895-2 2v4c0 1.105-.928 1.732-2 2h-2v-2h2v-5c0-1.105.895-2 2-2-1.105 0-2-.895-2-2V5h-2V3h2zm-7 12c.552 0 1 .448 1 1s-.448 1-1 1-1-.448-1-1 .448-1 1-1zm-4 0c.552 0 1 .448 1 1s-.448 1-1 1-1-.448-1-1 .448-1 1-1zm8 0c.552 0 1 .448 1 1s-.448 1-1 1-1-.448-1-1 .448-1 1-1z"/></svg>