<svg xmlns="http://www.w3.org/2000/svg" version="1.1" baseProfile="full" width="24" height="24" viewBox="0 0 24.00 24.00" xml:space="preserve"><path fill="#000" fill-opacity="1" stroke-width="1.333" stroke-linejoin="miter" d="M12.5 3C7.806 3 4 5.686 4 9c.003 1.185.503 2.343 1.438 3.328C4.53 13.52 4 14.956 4 16.5c.01 1.14 0 2.33 0 3.5 0 1.108.892 2 2 2h13c1.108 0 2-.892 2-2-.004-1.15 0-2.39 0-3.5-.002-1.223-.342-2.427-.992-3.508L22 11l-3-3-2.096 2.096C15.577 9.382 14.054 9.003 12.5 9c-1.847 0-3.55.525-4.945 1.408-.362-.44-.55-.92-.555-1.408 0-1.795 2.462-3.25 5.5-3.25 1.43.002 2.803.332 3.828.922L18.35 4.65C16.77 3.592 14.677 3 12.5 3zm0 8c.34 0 .673.035 1 .086C10.386 11.568 8 14.25 8 17.5V20H6v-2.5c0-3.59 2.91-6.5 6.5-6.5z"/></svg>