<svg xmlns="http://www.w3.org/2000/svg" version="1.1" baseProfile="full" width="24" height="24" viewBox="0 0 24.00 24.00" xml:space="preserve"><path fill="#000" fill-opacity="1" stroke-linejoin="round" d="M6.5 2c1.96 0 3.626 1.252 4.244 3H22v3h-4v3h-3V8h-4.256c-.618 1.748-2.285 3-4.244 3C4.015 11 2 8.985 2 6.5S4.015 2 6.5 2zm0 3C5.672 5 5 5.672 5 6.5S5.672 8 6.5 8 8 7.328 8 6.5 7.328 5 6.5 5zm0 8c1.96 0 3.626 1.252 4.244 3H22v3h-2v3h-2v-3h-2v3h-3v-3h-2.256c-.618 1.748-2.285 3-4.244 3C4.015 22 2 19.985 2 17.5S4.015 13 6.5 13zm0 3c-.828 0-1.5.672-1.5 1.5S5.672 19 6.5 19 8 18.328 8 17.5 7.328 16 6.5 16z"/></svg>