<svg xmlns="http://www.w3.org/2000/svg" version="1.1" baseProfile="full" width="24" height="24" viewBox="0 0 24.00 24.00" xml:space="preserve"><path fill="#000" fill-opacity="1" stroke-width=".2" stroke-linejoin="round" d="M6.5 3c1.96 0 3.626 1.252 4.244 3H22v3h-4v3h-3V9h-4.256c-.618 1.748-2.285 3-4.244 3C4.015 12 2 9.985 2 7.5S4.015 3 6.5 3zm0 3C5.672 6 5 6.672 5 7.5S5.672 9 6.5 9 8 8.328 8 7.5 7.328 6 6.5 6zm8.09 8L16 15.41 13.41 18 16 20.59 14.59 22 12 19.41 9.41 22 8 20.59 10.59 18 8 15.41 9.41 14 12 16.59 14.59 14z"/></svg>