<svg xmlns="http://www.w3.org/2000/svg" version="1.1" baseProfile="full" width="24" height="24" viewBox="0 0 24.00 24.00" xml:space="preserve"><path fill="#000" fill-opacity="1" stroke-width=".2" stroke-linejoin="round" d="M1 4.268L2.277 3 20 20.723 18.732 22l-3.002-3.002H4c-1.106 0-2-.896-2-2l.01-10c0-.482.168-.924.45-1.27L1 4.268zm18 5.73v-2h-2v2h2zm0 3v-2h-2v2h2zm-3-3v-2h-2v2h2zm0 3v-2h-2v1.18l-2.18-2.18H13v-2h-2v1.18l-1.18-1.18-3-3H20c1.103 0 2 .896 2 2v10c0 .86-.543 1.592-1.304 1.875l-5.875-5.875H16zm-8 2v2h5.73l-2-2H8zm-3-5h1.73L5 8.268v1.73zm2 3v-2H5v2h2zm1 0h1.73L8 11.268v1.73z"/></svg>