<svg xmlns="http://www.w3.org/2000/svg" version="1.1" baseProfile="full" width="24" height="24" viewBox="0 0 24.00 24.00" xml:space="preserve"><path fill="#000" fill-opacity="1" stroke-width="1.333" stroke-linejoin="miter" d="M12.03 1c-.205 0-.425.113-.624.313-.845.848-1.686 1.682-2.53 2.53-.215.216-.273.334-.5.532-.284.246-.413.534-.407.906C7.987 6.57 8 7.84 8 9.126c0 1.338-.002 2.694 0 4.03 0 .102.006.187.03.283.082.31.28.38.5.156 1.202-1.206 2.27-2.294 3.47-3.5C13.36 8.728 14.735 7.366 16.094 6c.394-.397.395-.853 0-1.25-1.15-1.154-2.32-2.283-3.47-3.438-.197-.2-.386-.312-.593-.312zm6.626 6.656c-.204 0-.405.093-.593.282-1.156 1.16-2.314 2.307-3.47 3.468-.392.394-.39.826 0 1.22 1.15 1.154 2.29 2.313 3.438 3.468.404.405.82.403 1.22 0 1.114-1.12 2.228-2.228 3.344-3.344.166-.166.335-.33.406-.563v-.312c-.07-.23-.24-.396-.406-.563-1.123-1.123-2.224-2.25-3.344-3.374-.188-.19-.39-.282-.594-.282zM4.78 8.094c-.128-.05-.204.048-.28.125-1.15 1.165-2.163 2.207-3.313 3.374-.257.26-.258.646 0 .906.625.628 1.25 1.247 1.875 1.875.54.543.96.958 1.5 1.5.155.155.297.142.375-.063.04-.104.063-.23.063-.343.004-1.182 0-2.1 0-3.283V8.626c0-.078-.02-.173-.03-.25-.02-.124-.065-.234-.19-.28zm7.314 6.156c-.205 0-.434.09-.625.28-1.154 1.16-2.286 2.344-3.44 3.5-.396.4-.397.82 0 1.22 1.115 1.12 2.234 2.223 3.345 3.344.165.167.333.333.563.406h.28c.224-.063.403-.213.563-.375 1.122-1.13 2.253-2.246 3.376-3.375.394-.396.365-.852-.03-1.25-1.153-1.158-2.286-2.31-3.44-3.47-.19-.19-.387-.28-.592-.28z"/></svg>