<svg xmlns="http://www.w3.org/2000/svg" version="1.1" baseProfile="full" width="24" height="24" viewBox="0 0 24.00 24.00" xml:space="preserve"><path fill="#000" fill-opacity="1" stroke-width="1.333" stroke-linejoin="miter" d="M4 1c-1.108 0-2 .892-2 2v4c0 1.108.892 2 2 2H1v2h12V9h-3c1.108 0 2-.892 2-2V3c0-1.108-.892-2-2-2H4zm0 2h6v4H4V3zm10 10c-1.108 0-2 .892-2 2v4c0 1.108.892 2 2 2h-3v2h12v-2h-3c1.108 0 2-.892 2-2v-4c0-1.108-.892-2-2-2h-6zm-10.12.465L2.464 14.88 4.585 17l-2.12 2.12 1.414 1.415L6 18.415l2.12 2.12 1.415-1.414L7.415 17l2.12-2.12-1.414-1.415L6 15.585l-2.12-2.12zM14 15h6v4h-6v-4z"/></svg>