<svg xmlns="http://www.w3.org/2000/svg" version="1.1" baseProfile="full" width="24" height="24" viewBox="0 0 24.00 24.00" xml:space="preserve"><path fill="#000" fill-opacity="1" stroke-width="1.333" stroke-linejoin="miter" d="M12 18.08c-6.627 0-12-2.72-12-6.08s5.373-6.08 12-6.08S24 8.64 24 12s-5.373 6.08-12 6.08zm-5.193-7.946c.545 0 .908.1 1.09.302.18.2.224.546.13 1.036-.1.51-.29.873-.574 1.09-.283.22-.714.328-1.292.328h-.87l.535-2.756h.982zM3.313 15.68h1.434l.34-1.752h1.23c.54 0 .986-.057 1.336-.17.35-.114.67-.305.955-.573.24-.22.435-.465.584-.73.148-.267.254-.56.316-.883.152-.78.038-1.388-.343-1.823-.38-.437-.985-.655-1.815-.655H4.592l-1.28 6.584zm7.25-8.335l-1.28 6.583h1.422l.733-3.77h1.137c.364 0 .602.06.714.18.11.12.134.346.07.678l-.566 2.912h1.445l.595-3.063c.12-.623.03-1.074-.273-1.352-.303-.278-.853-.418-1.65-.418h-1.268l.34-1.75h-1.422zM18 10.135c.545 0 .908.1 1.09.3.18.202.224.547.13 1.037-.1.51-.29.873-.574 1.09-.283.22-.713.328-1.29.328h-.874l.536-2.756H18zm-3.494 5.544h1.434l.34-1.752h1.23c.54 0 .986-.057 1.337-.17.35-.114.668-.305.954-.573.24-.22.436-.465.585-.73.148-.267.254-.56.317-.883.15-.78.037-1.388-.344-1.823-.38-.437-.985-.655-1.815-.655h-2.757l-1.28 6.584z"/></svg>