<svg xmlns="http://www.w3.org/2000/svg" version="1.1" baseProfile="full" width="24" height="24" viewBox="0 0 24.00 24.00" xml:space="preserve"><path fill="#000" fill-opacity="1" stroke-width="1.333" stroke-linejoin="miter" d="M3 3h18v18H3V3zm4.733 15.042c.4.846 1.184 1.546 2.537 1.546 1.498 0 2.526-.797 2.526-2.55v-5.774h-1.692v5.75c0 .847-.35 1.064-.906 1.064-.58 0-.822-.398-1.088-.87l-1.377.834zm5.98-.18c.497.978 1.512 1.727 3.082 1.727 1.607 0 2.803-.835 2.803-2.357 0-1.414-.81-2.042-2.247-2.66l-.422-.18c-.725-.314-1.04-.52-1.04-1.027 0-.41.315-.725.81-.725.484 0 .798.207 1.088.726l1.317-.846c-.556-.978-1.33-1.353-2.404-1.353-1.512 0-2.478.967-2.478 2.235 0 1.378.81 2.03 2.03 2.55l.422.18c.774.34 1.233.545 1.233 1.125 0 .483-.447.833-1.148.833-.835 0-1.306-.434-1.668-1.027l-1.378.798z"/></svg>