<svg xmlns="http://www.w3.org/2000/svg" version="1.1" baseProfile="full" width="24" height="24" viewBox="0 0 24.00 24.00" xml:space="preserve"><path fill="#000" fill-opacity="1" stroke-width=".2" stroke-linejoin="round" d="M11.496 15.973l.416 2.436c-.263.14-.678.27-1.244.394-.566.123-1.237.188-2.01.196-2.205-.044-3.865-.698-4.98-1.962C2.56 15.775 2 14.165 2 12.208c.048-2.305.722-4.08 2.023-5.322C5.323 5.643 6.963 5.014 8.94 5c.754.007 1.4.07 1.94.19s.94.254 1.202.402l-.605 2.493-1.034-.347c-.405-.097-.868-.148-1.39-.152-1.16-.002-2.12.365-2.875 1.1-.756.736-1.147 1.85-1.174 3.343.01 1.358.37 2.425 1.077 3.2.708.773 1.706 1.167 2.993 1.182l1.325-.122c.43-.08.796-.185 1.098-.317zM13.89 19l.635-4h-1.5l.317-2h1.5l.316-2h-1.5l.317-2h1.5l.634-4h2l-.635 4h1l.634-4h2l-.635 4h1.5l-.317 2h-1.5l-.316 2h1.5l-.317 2h-1.5l-.634 4h-2l.635-4h-1l-.634 4h-2zm2.952-6h1l.316-2h-1l-.316 2z"/></svg>