<svg xmlns="http://www.w3.org/2000/svg" version="1.1" baseProfile="full" width="24" height="24" viewBox="0 0 24.00 24.00" xml:space="preserve"><path fill="#000" fill-opacity="1" stroke-width=".2" stroke-linejoin="round" d="M2 5.69c6.923-4.616 9.095 1.322 9.276 4.58.18 3.258-2.986 7.365-6.968 4.65v5.385L2 18.765V5.69zm2.217 1.706v5.385c3.62 2.173 4.864.386 4.864-2.69 0-4.345-2.51-4.503-4.863-2.694zm10.86-3.245s-.18 3.485 0 6.924c.362 3.44 4.615.77 4.615.77V4.92L22 5.202v9.242c0 6.154-6.154 5.86-6.154 5.86l-.77-2.307c5.385 0 4.707-3.564 4.707-3.564-6.516 2.534-7.014-1.82-7.014-1.82V5.69l2.307-1.54z"/></svg>