<svg xmlns="http://www.w3.org/2000/svg" version="1.1" baseProfile="full" width="24" height="24" viewBox="0 0 24.00 24.00" xml:space="preserve"><path fill="#000" fill-opacity="1" stroke-width=".2" stroke-linejoin="round" d="M19.143 7.5C20.72 7.5 22 8.78 22 10.357v3.786C22 15.72 20.72 17 19.143 17H12c0 .395.32.964.714.964H17v1.68c0 1.577-1.28 2.856-2.857 2.856H9.857C8.28 22.5 7 21.22 7 19.643v-3.75c0-1.578 1.28-2.857 2.857-2.857h5.25c1.578 0 2.857-1.28 2.857-2.857v-2.68h1.18zm-4.286 11.786c-.394 0-.714.3-.714.892 0 .592.32.715.714.715.395 0 .714-.123.714-.715 0-.59-.318-.892-.713-.892zm-10-1.786C3.28 17.5 2 16.22 2 14.643v-3.786C2 9.28 3.28 8 4.857 8H12c0-.395-.32-.964-.714-.964H7v-1.68C7 3.78 8.28 2.5 9.857 2.5h4.286C15.72 2.5 17 3.78 17 5.357v3.75c0 1.578-1.28 2.857-2.857 2.857h-5.25c-1.578 0-2.857 1.28-2.857 2.857v2.68h-1.18zM9.143 5.714c.394 0 .714-.3.714-.893 0-.59-.32-.713-.714-.713-.395 0-.714.123-.714.714 0 .593.318.894.713.894z"/></svg>