<svg xmlns="http://www.w3.org/2000/svg" version="1.1" baseProfile="full" width="24" height="24" viewBox="0 0 24.00 24.00" xml:space="preserve"><path fill="#000" fill-opacity="1" stroke-width=".2" stroke-linejoin="round" d="M18.007 17.93c-2.083-.007-3.194-1.033-3.965-2.84l-.22-.493-1.902-4.366c-.63-1.544-2.196-2.588-3.962-2.588-2.39 0-4.327 1.952-4.327 4.36 0 2.406 1.94 4.358 4.328 4.358 1.666 0 3.118-.95 3.84-2.34l.77 1.786C11.477 17.146 9.817 18 7.96 18 4.668 18 2 15.316 2 12 2 8.69 4.67 6 7.958 6c2.484 0 4.49 1.335 5.51 3.702.076.183 1.076 2.538 1.95 4.542.54 1.24 1 2.063 2.493 2.114 1.47.05 2.477-.85 2.477-1.986 0-1.11-.767-1.378-2.065-1.812-2.33-.774-3.535-1.55-3.535-3.412 0-1.816 1.226-3.027 3.22-3.027 1.3 0 2.237.583 2.886 1.743l-1.273.655c-.482-.676-1.01-.943-1.684-.943-.936 0-1.603.655-1.603 1.527 0 1.237 1.098 1.424 2.636 1.932 2.068.678 3.03 1.453 3.03 3.39 0 2.03-1.73 3.51-3.993 3.507z"/></svg>