<svg xmlns="http://www.w3.org/2000/svg" version="1.1" baseProfile="full" width="24" height="24" viewBox="0 0 24.00 24.00" xml:space="preserve"><path fill="#000" fill-opacity="1" stroke-width=".2" stroke-linejoin="round" d="M12 1.998c3.865 0 7 3.134 7 7 0 2.378-1.19 4.475-3 5.74v2.26c0 .552-.45 1-1 1H9c-.553 0-1-.448-1-1v-2.26c-1.813-1.265-3-3.362-3-5.74 0-3.866 3.133-7 7-7zm-3 19v-1h6v1c0 .552-.45 1-1 1h-4c-.553 0-1-.448-1-1zM12 4C9.24 4 7 6.24 7 9c0 2.05 1.234 3.812 3 4.584V16h4v-2.416c1.766-.772 3-2.534 3-4.584 0-2.76-2.24-5-5-5z"/></svg>