<svg xmlns="http://www.w3.org/2000/svg" version="1.1" baseProfile="full" width="24" height="24" viewBox="0 0 24.00 24.00" xml:space="preserve"><path fill="#000" fill-opacity="1" stroke-linejoin="round" d="M10.586 13.414c.39.39.39 1.024 0 1.414-.39.39-1.024.39-1.414 0-1.953-1.952-1.953-5.118 0-7.07l3.535-3.536c1.953-1.953 5.12-1.953 7.07 0 1.954 1.953 1.954 5.118 0 7.07l-1.485 1.486c.01-.82-.126-1.64-.404-2.423l.476-.476c1.17-1.173 1.17-3.072 0-4.244-1.172-1.172-3.07-1.172-4.243 0l-3.534 3.536c-1.172 1.17-1.172 3.07 0 4.242zm2.828-4.242c.39-.39 1.024-.39 1.414 0 1.953 1.952 1.953 5.118 0 7.07l-3.535 3.536c-1.953 1.953-5.12 1.953-7.07 0-1.954-1.952-1.954-5.118 0-7.07l1.484-1.486c-.008.82.127 1.64.405 2.423l-.476.476c-1.172 1.173-1.172 3.072 0 4.244 1.172 1.17 3.07 1.17 4.243 0l3.534-3.536c1.172-1.17 1.172-3.07 0-4.242-.39-.39-.39-1.024 0-1.414z"/></svg>