<svg xmlns="http://www.w3.org/2000/svg" version="1.1" baseProfile="full" width="24" height="24" viewBox="0 0 24.00 24.00" xml:space="preserve"><path fill="#000" fill-opacity="1" stroke-width=".2" stroke-linejoin="round" d="M2 5.268L3.277 4 20 20.723 18.732 22l-4.83-4.83-2.61 2.608c-1.952 1.953-5.118 1.953-7.07 0-1.953-1.952-1.953-5.118 0-7.07l1.485-1.486c-.008.82.127 1.64.405 2.423l-.476.476c-1.172 1.173-1.172 3.072 0 4.244 1.172 1.17 3.07 1.17 4.243 0l2.607-2.61-1.61-1.607c-.005.247-.103.493-.29.68-.392.392-1.025.392-1.415 0-1.055-1.053-1.54-2.462-1.455-3.842L2 5.268zm10.707-1.046c1.953-1.953 5.12-1.953 7.07 0 1.954 1.953 1.954 5.118 0 7.07l-1.485 1.486c.01-.82-.126-1.64-.404-2.423l.476-.476c1.17-1.173 1.17-3.072 0-4.244-1.172-1.172-3.07-1.172-4.243 0l-3.33 3.33-1.414-1.413 3.33-3.33zm.707 4.95c.39-.39 1.024-.39 1.414 0 1.37 1.37 1.78 3.335 1.227 5.06l-1.772-1.772c-.056-.683-.346-1.35-.87-1.874-.39-.39-.39-1.024 0-1.414z"/></svg>