<svg xmlns="http://www.w3.org/2000/svg" version="1.1" baseProfile="full" width="24" height="24" viewBox="0 0 24.00 24.00" xml:space="preserve"><path fill="#000" fill-opacity="1" stroke-width=".2" stroke-linejoin="round" d="M19 18.998h-3v-5.3c0-.828-.673-1.5-1.5-1.5-.83 0-1.5.672-1.5 1.5v5.3h-3v-9h3v1.2c.517-.838 1.585-1.4 2.5-1.4 1.932 0 3.5 1.567 3.5 3.5M6.5 8.31c-1.002 0-1.814-.81-1.814-1.812S5.498 4.685 6.5 4.685c1 0 1.81.81 1.81 1.813C8.31 7.5 7.5 8.31 6.5 8.31zM8 18.998H5v-9h3m12-8H4c-1.106 0-1.99.895-1.99 2l-.01 16c0 1.104.894 2 2 2h16c1.103 0 2-.896 2-2v-16c0-1.105-.897-2-2-2z"/></svg>