<svg xmlns="http://www.w3.org/2000/svg" version="1.1" baseProfile="full" width="24" height="24" viewBox="0 0 24.00 24.00" xml:space="preserve"><path fill="#000" fill-opacity="1" stroke-width=".2" stroke-linejoin="round" d="M2 5.268L3.277 4 20 20.723 18.732 22l-4.002-4.002H13v-1.73l-3.27-3.27H8v-1.73l-2.511-2.51c-.968.75-1.59 1.922-1.59 3.24 0 2.264 1.836 4.1 4.1 4.1h3v1.9H8c-3.314 0-6-2.686-6-6 0-1.843.83-3.49 2.138-4.592L2 5.268zm14 .73c3.314 0 6 2.686 6 6 0 2.216-1.2 4.152-2.988 5.19l-1.414-1.413c1.47-.623 2.502-2.08 2.502-3.777 0-2.264-1.837-4.1-4.1-4.1h-3v-1.9h3zm-8 0h3v1.9H9.72L7.824 6 8 6zm8 5v2h-1.18l-2-2H16z"/></svg>