<svg xmlns="http://www.w3.org/2000/svg" version="1.1" baseProfile="full" width="24" height="24" viewBox="0 0 24.00 24.00" xml:space="preserve"><path fill="#000" fill-opacity="1" stroke-linejoin="round" d="M7.11 19.125l2.257 2.396-.386-2.637-2.41-2.37.54 2.612zM9.54 22l-.02-.002-.023-.006-.017-.01-.026-.02-2.54-2.697c-.016-.016-.027-.036-.03-.058l-.63-3.034v-.038c0-.016.006-.03.013-.044.01-.017.025-.032.043-.043l.674-.413-1.018-.96c-.018-.015-.03-.037-.035-.06l-.81-3.92v-.038c0-.016.006-.032.013-.045.01-.016.025-.03.043-.042l.01-.006 1.058-.503L4.78 8.92c-.022-.02-.037-.044-.043-.07L3.66 3.642l-.002-.04.006-.026c.01-.022.024-.042.044-.056l.033-.016L8.57 2c.03-.01.06-.007.09.007l3.54 1.708.014.008c.032.02.052.056.054.095l.22 5.163c.002.048-.023.09-.064.113l-1.314.684 1.404.943.007.005c.03.023.048.06.047.097l.058 1.364 1.35-.825c.04-.023.09-.022.128.003l.938.62.026-1.224c0-.042.022-.08.057-.1l2.305-1.41c.037-.023.083-.024.12-.003l2.732 1.513.004.003c.034.02.056.056.058.095v.023l-.38 2.806c-.004.03-.02.06-.044.078l-2.137 1.704-.023.014c-.016.008-.034.012-.053.012-.012 0-.025-.003-.038-.007l-.017-.007-.018-.012-.79-.55-.08 1.31c-.003.034-.02.066-.046.087L14.1 18.4l-.027.02c-.016.007-.034.01-.05.01-.02 0-.037-.003-.053-.01l-.026-.018-1.09-.92.075 1.79c0 .037-.016.074-.046.098l-3.268 2.604-.023.014c-.016.008-.034.012-.052.012zm7.345-8.8c.014.01.025.022.034.035.01.02.018.04.02.063l-.002.01-.08 1.33.747.52.225-2.608-2.53-1.575-.022 1.164 1.607 1.06zm-3.008 2.18l-1.153-.882.01.207c0 .04-.02.08-.054.104l-.87.585.946.772.027.03c.01.018.016.038.017.058l.04.903 1.06.893-.023-2.67zm-7.72-.853l2.536 2.387-.535-3.654-2.734-2.277.734 3.544zm-1.194-5.77l2.863 2.23-.76-5.18-3.115-1.94 1.013 4.89zm13.108 3.796l-.22 2.553 1.88-1.5.336-2.482-1.995 1.43zm-3.93 5.51l2.385-1.902.16-2.616-2.568 1.836.022 2.683zm-1.453 1.158l-.117-2.734-3.347 2.395.407 2.776 3.057-2.435zM7.31 5.81l.772 5.272 4.164-2.167-.21-4.92L7.31 5.81zm1.09 7.45l.552 3.772 3.538-2.384-.154-3.627L8.4 13.26z"/></svg>