<svg xmlns="http://www.w3.org/2000/svg" version="1.1" baseProfile="full" width="24" height="24" viewBox="0 0 24.00 24.00" xml:space="preserve"><path fill="#000" fill-opacity="1" stroke-linejoin="round" d="M13.18 14.5c-.652.76-1.708.76-2.36 0l-3.376-3.977C7.16 11.278 7 12.117 7 13c0 1.67.568 3.178 1.484 4.266 1.538.1 2.807.692 3.298 1.728.072.004.145.006.44 0 .487-1.005 1.73-1.558 3.239-1.663C16.41 16.24 17 14.703 17 13c0-.883-.16-1.722-.445-2.477L13.18 14.5zM20 20.75c0 .552-.698 1.25-1.25 1.25h-5.5c-.552 0-1.25-.698-1.25-1.25 0 .552-.698 1.25-1.25 1.25h-5.5C4.698 22 4 21.302 4 20.75c0-1.302.942-2.438 2.302-3.1C5.482 16.34 5 14.733 5 13c-1 2-2.303 2.56-2.913 2-.61-.56-.294-2.17 1.014-3.592.74-.803 1.887-1.786 2.715-2.157.32-.687.725-1.315 1.2-1.866L7 7c0-2.76 2.24-5 5-5s5 2.24 5 5l-.015.384c.475.55.88 1.18 1.2 1.867.828.372 1.975 1.355 2.714 2.158 1.307 1.423 1.623 3.03 1.013 3.592-.61.56-1.913 0-2.913-2 0 1.75-.492 3.37-1.327 4.688C19.047 18.328 20 19.44 20 20.75zM9.88 9c-.416.483-.416 1.267 0 1.75l1.25 1.5c.413.483 1.084.483 1.5 0l1.25-1.5c.413-.483.413-1.267 0-1.75h-4zM10 5.25c-.552 0-1 .645-1 1.75s.448 1.75 1 1.75 1-.645 1-1.75-.448-1.75-1-1.75zm4 0c-.552 0-1 .645-1 1.75s.448 1.75 1 1.75 1-.645 1-1.75-.448-1.75-1-1.75z"/></svg>