<svg xmlns="http://www.w3.org/2000/svg" version="1.1" baseProfile="full" width="24" height="24" viewBox="0 0 24.00 24.00" xml:space="preserve"><path fill="#000" fill-opacity="1" stroke-width=".2" stroke-linejoin="round" d="M12 16.998c-1.106 0-2-.896-2-2s.894-2 2-2c1.103 0 2 .896 2 2s-.897 2-2 2zm6 3v-10H6v10h12zm0-12c1.103 0 2 .896 2 2v10c0 1.104-.897 2-2 2H6c-1.106 0-2-.896-2-2v-10c0-1.104.894-2 2-2h1v-2c0-2.76 2.238-5 5-5 2.76 0 5 2.24 5 5v2h1zM12 3c-1.657 0-3 1.343-3 3v2h6V6c0-1.657-1.343-3-3-3z"/></svg>