<svg xmlns="http://www.w3.org/2000/svg" version="1.1" baseProfile="full" width="24" height="24" viewBox="0 0 24.00 24.00" xml:space="preserve"><path fill="#000" fill-opacity="1" fill-rule="evenodd" stroke-linejoin="round" d="M15.455 11.912C15.34 9.7 13.7 8.37 11.717 8.37h-.074c-2.288 0-3.557 1.8-3.557 3.843 0 2.288 1.535 3.733 3.548 3.733 2.244 0 3.72-1.643 3.826-3.587M11.654 6.39c1.528 0 2.965.675 4.02 1.733v.004c0-.51.342-.89.817-.89l.12-.002c.743 0 .896.702.896.925l.003 7.897c-.053.517.533.783.858.452 1.268-1.303 2.785-6.7-.788-9.825-3.33-2.915-7.8-2.435-10.175-.797-2.527 1.742-4.143 5.598-2.573 9.22 1.712 3.95 6.61 5.128 9.52 3.954 1.475-.595 2.156 1.398.625 2.05-2.313.984-8.752.885-11.76-4.325-2.032-3.52-1.923-9.71 3.466-12.917 4.123-2.453 9.56-1.774 12.837 1.65 3.426 3.578 3.226 10.28-.116 12.886-1.514 1.182-3.763.03-3.75-1.695l-.014-.564c-1.055 1.047-2.458 1.658-3.986 1.658-3.02 0-5.678-2.658-5.678-5.677 0-3.05 2.658-5.738 5.678-5.738z"/></svg>