<svg xmlns="http://www.w3.org/2000/svg" version="1.1" baseProfile="full" width="24" height="24" viewBox="0 0 24.00 24.00" xml:space="preserve"><path fill="#000" fill-opacity="1" stroke-width=".2" stroke-linejoin="round" d="M16.373 16.1l-4.627-4.627-.11-.11L3.27 2.998 2 4.27 5.176 7.45C5.064 7.948 5 8.465 5 8.998c0 5.25 7 13 7 13s1.667-1.85 3.374-4.35l3.352 3.35L20 19.725M12 6.498c1.38 0 2.5 1.12 2.5 2.5 0 .737-.326 1.393-.833 1.85L17.3 14.48c.976-1.86 1.7-3.798 1.7-5.482 0-3.866-3.136-7-7-7-1.98 0-3.764.825-5.037 2.146L10.15 7.33c.456-.507 1.113-.832 1.85-.832z"/></svg>