<svg xmlns="http://www.w3.org/2000/svg" version="1.1" baseProfile="full" width="24" height="24" viewBox="0 0 24.00 24.00" xml:space="preserve"><path fill="#000" fill-opacity="1" stroke-width="3" stroke-linejoin="round" d="M14 11.5c1.38 0 2.5-1.12 2.5-2.5S15.38 6.5 14 6.5 11.5 7.62 11.5 9s1.12 2.5 2.5 2.5zM14 2c3.865 0 7 3.134 7 7 0 5.25-7 13-7 13S7 14.25 7 9c0-3.866 3.135-7 7-7zM5 9c-.016 4.477 5.078 10.664 6.006 11.814L10 22S3 14.25 3 9c0-3.172 2.11-5.85 5.003-6.71C6.16 3.936 5 6.332 5 9z"/></svg>