<svg xmlns="http://www.w3.org/2000/svg" version="1.1" baseProfile="full" width="24" height="24" viewBox="0 0 24.00 24.00" xml:space="preserve"><path fill="#000" fill-opacity="1" stroke-width=".2" stroke-linejoin="round" d="M12 19.998c-4.42 0-8-3.582-8-8s3.58-8 8-8c4.417 0 8 3.582 8 8s-3.583 8-8 8zm0-18c-5.524 0-10 4.477-10 10s4.476 10 10 10c5.522 0 10-4.477 10-10s-4.478-10-10-10zm0 10.5c-.83 0-1.5-.672-1.5-1.5 0-.83.67-1.5 1.5-1.5.828 0 1.5.67 1.5 1.5 0 .828-.672 1.5-1.5 1.5zm0-5.3c-2.1 0-3.8 1.7-3.8 3.8 0 3 3.8 6.5 3.8 6.5s3.8-3.5 3.8-6.5c0-2.1-1.703-3.8-3.8-3.8z"/></svg>