<svg xmlns="http://www.w3.org/2000/svg" version="1.1" baseProfile="full" width="24" height="24" viewBox="0 0 24.00 24.00" xml:space="preserve"><path fill="#000" fill-opacity="1" stroke-linejoin="round" d="M21.93 6.616l-6.04 9.856-4.318-7.046L15.01 3.84c.157-.256.485-.374.77-.29l6.15 3.066zM22 19.782c0 .57-.496.784-1.108.478l-4.708-2.355L22 8.415V19.78zm-13.012.155c0 .568-.415.825-.923.57l-5.51-2.75C2.248 17.605 2 17.202 2 16.86V4.14c0-.455.332-.66.738-.457L8.705 6.66l.283.464v12.813zm6.298-2.48L10 14.814v-6l5.286 8.643z"/></svg>