<svg xmlns="http://www.w3.org/2000/svg" version="1.1" baseProfile="full" width="24" height="24" viewBox="0 0 24.00 24.00" xml:space="preserve"><path fill="#000" fill-opacity="1" stroke-width="1.333" stroke-linejoin="miter" d="M2.8 3.008l16.874 15.815s.317.443-.095.887c-.413.444-.953.063-.953.063L2.8 3.008zm5.01 1.585l13.1 12.043s.318.444-.094.887c-.412.444-.952.064-.952.064L7.81 4.593zm-3.52 3.39l13.1 12.044s.318.444-.095.887c-.412.444-.95.064-.95.064L4.29 7.984zm7.758-2.027L21.2 14.37s.222.31-.066.62c-.29.31-.665.044-.665.044l-8.422-9.078zM5.45 11.914l9.153 8.414s.22.31-.067.62c-.288.31-.665.044-.665.044l-8.42-9.078zM16.376 7.92l4.18 3.816s.108.146-.034.29c-.142.146-.328.02-.328.02l-3.817-4.125zm-8.817 8.177l4.178 3.816s.11.145-.033.29c-.142.146-.33.02-.33.02L7.56 16.098z"/></svg>