<svg xmlns="http://www.w3.org/2000/svg" version="1.1" baseProfile="full" width="24" height="24" viewBox="0 0 24.00 24.00" xml:space="preserve"><path fill="#000" fill-opacity="1" stroke-width=".2" stroke-linejoin="round" d="M9 3c2.21 0 4 1.79 4 4H5c0-2.21 1.79-4 4-4zm2.84 6.818L11 18h-1v1c0 1.105.895 2 2 2s2-.895 2-2v-5c0-2.21 1.79-4 4-4h2l-1 1 1 1h-2c-1.105 0-2 .895-2 2v5c0 2.21-1.79 4-4 4s-4-1.79-4-4v-1H7l-.84-8.182C5.67 9.322 5.307 8.698 5.127 8h7.748c-.18.698-.543 1.322-1.035 1.818zM9 11c-.552 0-1 .448-1 1s.448 1 1 1 1-.448 1-1-.448-1-1-1z"/></svg>