<svg xmlns="http://www.w3.org/2000/svg" version="1.1" baseProfile="full" width="24" height="24" viewBox="0 0 24.00 24.00" xml:space="preserve"><path fill="#000" fill-opacity="1" stroke-width=".2" stroke-linejoin="round" d="M19 11c0 1.19-.336 2.305-.905 3.277l-1.23-1.23c.278-.615.435-1.304.435-2.048H19zm-4.017.165L9.002 5.183 9.004 5c0-1.658 1.34-3 2.998-3 1.655 0 3 1.342 3 3v6l-.017.165zM4.273 3L21 19.727 19.727 21l-4.186-4.187c-.774.454-1.634.77-2.54.904V21h-2v-3.283C7.72 17.233 5 14.414 5 11h1.7c0 3 2.538 5.1 5.3 5.1.81 0 1.598-.186 2.31-.517l-1.66-1.66L12 14c-1.656 0-2.99-1.344-2.99-3v-.72L3 4.274 4.273 3z"/></svg>