<svg xmlns="http://www.w3.org/2000/svg" version="1.1" baseProfile="full" width="24" height="24" viewBox="0 0 24.00 24.00" xml:space="preserve"><path fill="#000" fill-opacity="1" stroke-width=".2" stroke-linejoin="round" d="M2 5.268L3.277 4 20 20.723 18.732 22l-2.74-2.74C15.858 21.348 14.122 23 12 23c-2.21 0-4-1.79-4-4v-1H7l-.84-8.182c-.345-.35-.627-.76-.826-1.216L2 5.268zM9 3c2.21 0 4 1.79 4 4H8.823l-2.74-2.738C6.814 3.485 7.85 3 9 3zm2.84 6.818l-.02.18L9.824 8h3.05c-.18.698-.542 1.322-1.034 1.818zM11 18h-1v1c0 1.105.895 2 2 2s2-.895 2-2v-1.732l-2.653-2.652L11 18zm7-8h2l-1 1 1 1h-2c-1.105 0-2 .895-2 2v.177l-1.7-1.7C14.9 11.023 16.33 10 18 10zM8 12c0 .552.448 1 1 1 .208 0 .4-.063.56-.17l-1.39-1.39c-.107.16-.17.353-.17.56z"/></svg>