<svg xmlns="http://www.w3.org/2000/svg" version="1.1" baseProfile="full" width="24" height="24" viewBox="0 0 24.00 24.00" xml:space="preserve"><path fill="#000" fill-opacity="1" stroke-width=".2" stroke-linejoin="round" d="M19 9.998h-1.702c0 3-2.537 5.1-5.3 5.1-2.76 0-5.3-2.1-5.3-5.1H5c0 3.415 2.72 6.233 6 6.718v3.282h2v-3.282c3.28-.485 6-3.303 6-6.718zm-4 14h2v-2h-2m-4 2h2v-2h-2m1-9c1.656 0 2.99-1.344 2.99-3l.008-6c0-1.658-1.342-3-3-3-1.655 0-3 1.342-3 3v6c0 1.656 1.345 3 3 3zm-5 11h2v-2H7v2z"/></svg>