<svg xmlns="http://www.w3.org/2000/svg" version="1.1" baseProfile="full" width="24" height="24" viewBox="0 0 24.00 24.00" xml:space="preserve"><path fill="#000" fill-opacity="1" stroke-width=".2" stroke-linejoin="round" d="M2 5.268L3.277 4 20 20.723 18.732 22l-1.212-1.212c-1.436 1.37-3.38 2.21-5.52 2.21-4.42 0-8-3.582-8-8v-4h3.73l-2-2H4c0-.54.053-1.066.155-1.575L2 5.268zm9-4.2v7.93h-.18L5.787 3.963C7.056 2.403 8.9 1.33 11 1.067zm9 9.93v4c0 .95-.166 1.863-.47 2.71l-6.71-6.71H20zm-7-9.93c3.944.492 7 3.85 7 7.93h-7v-7.93z"/></svg>