<svg xmlns="http://www.w3.org/2000/svg" version="1.1" baseProfile="full" width="24" height="24" viewBox="0 0 24.00 24.00" xml:space="preserve"><path fill="#000" fill-opacity="1" stroke-width=".2" stroke-linejoin="round" d="M2 5.268L3.277 4 20 20.723 18.732 22l-1.438-1.437C16.42 22.023 14.824 23 13 23c-2.76 0-5-2.24-5-5v-1.1c-2.282-.463-4-2.48-4-4.9V9h1.732L2 5.268zM14 7h-4V2.1c2.282.463 4 2.48 4 4.9zM8 2.1v4.077L5.377 3.554C6.07 2.827 6.977 2.308 8 2.1zm6 9.9l-.003.174L10.823 9H14v3zm-4 4.9V18c0 1.657 1.343 3 3 3 1.28 0 2.372-.8 2.803-1.928L12.4 15.667c-.66.612-1.485 1.047-2.4 1.233zm6-3.9c0-2.21 1.79-4 4-4h2l-1 1 1 1h-2c-1.105 0-2 .895-2 2v3.177l-2-2V13z"/></svg>