<svg xmlns="http://www.w3.org/2000/svg" version="1.1" baseProfile="full" width="24" height="24" viewBox="0 0 24.00 24.00" xml:space="preserve"><path fill="#000" fill-opacity="1" stroke-width="1.333" stroke-linejoin="miter" d="M10 3v9.264c-.48-.173-.99-.262-1.5-.264C6.015 12 4 14.015 4 16.5S6.015 21 8.5 21s4.5-2.015 4.5-4.5V6h4V3h-7zm10 4v3.79L17.71 8.5l-.71.71L19.79 12 17 14.79l.71.71L20 13.21V17h.5l2.85-2.85L21.21 12l2.15-2.15L20.5 7H20zm1 1.91l.94.94-.94.94V8.91zm0 4.3l.94.94-.94.94v-1.88z"/></svg>