<svg xmlns="http://www.w3.org/2000/svg" version="1.1" baseProfile="full" width="24" height="24" viewBox="0 0 24.00 24.00" xml:space="preserve"><path fill="#000" fill-opacity="1" stroke-width=".2" stroke-linejoin="round" d="M11.146 15.182l-1.414-1.414 1.414-1.414 1.415 1.414 1.415-1.414-1.414-1.415 1.415-1.415 1.414 1.414 1.413-1.415-2.828-2.828-7.07 7.07 2.827 2.83 1.414-1.415zm-8.07 3.828l3.12-3.12-2.12-2.122 9.9-9.9 2.12 2.122 1.414-1.415-1.414-1.414 1.414-1.413 4.243 4.243-1.414 1.414-1.415-1.414-1.415 1.414 2.122 2.12-9.9 9.9-2.12-2.12-4.537 4.535v-2.83z"/></svg>