<svg xmlns="http://www.w3.org/2000/svg" version="1.1" baseProfile="full" width="24" height="24" viewBox="0 0 24.00 24.00" xml:space="preserve"><path fill="#000" fill-opacity="1" stroke-width=".2" stroke-linejoin="round" d="M16.95 16.948l-2.122-2.12c.724-.725 1.17-1.725 1.17-2.83 0-.74-.213-1.425-.565-2.02L17.6 7.812c.875 1.168 1.4 2.614 1.4 4.186 0 1.933-.784 3.683-2.05 4.95zM12 4.998c1.572 0 3.017.525 4.186 1.4L14.02 8.564c-.595-.35-1.28-.566-2.02-.566-2.21 0-4 1.79-4 4 0 1.105.447 2.105 1.17 2.83l-2.12 2.12C5.783 15.68 5 13.93 5 11.998c0-3.866 3.133-7 7-7zm0-3c-5.524 0-10 4.477-10 10s4.476 10 10 10c5.522 0 10-4.477 10-10s-4.478-10-10-10z"/></svg>