<svg xmlns="http://www.w3.org/2000/svg" version="1.1" baseProfile="full" width="24" height="24" viewBox="0 0 24.00 24.00" xml:space="preserve"><path fill="#000" fill-opacity="1" stroke-width=".2" stroke-linejoin="round" d="M18.004 5.998h-5c-1.105 0-2 .896-2 2v2.277c-.595.347-1 .985-1 1.723 0 1.104.895 2 2 2 1.104 0 2-.896 2-2 0-.738-.405-1.376-1-1.723V7.998h3v8h-8v-8h2v-2h-4v12h12m2 2h-16v-16h16m0-2h-16c-1.105 0-2 .896-2 2v16c0 1.104.895 2 2 2h16c1.104 0 2-.896 2-2v-16c0-1.104-.896-2-2-2z"/></svg>