<svg xmlns="http://www.w3.org/2000/svg" version="1.1" baseProfile="full" width="24" height="24" viewBox="0 0 24.00 24.00" xml:space="preserve"><path fill="#000" fill-opacity="1" stroke-width=".2" stroke-linejoin="round" d="M10.59 7.662s.597-.27.976.162c.38.434 1.355 2.114 1.355 3.794 0 1.68-.433 3.47-.866 4.065-.434.596-.867.596-1.193.38-.324-.218-5.364-4.065-5.635-4.174-.27-.11-.38.162-.108 1.625.27 1.463-.163 1.897-.542 1.95-.38.055-1.518-.27-1.572-3.305-.054-3.035.76-3.523 1.138-3.523.714 0 6.127 4.887 6.505 4.824.325-.054.487-2.113-.163-3.74-.704-1.76.108-2.058.108-2.058zm8.712-3.035c1.82 3.615 1.71 7.033 1.695 7.394.015.315.126 3.738-1.695 7.353 0 0-.474.542-1.178.217-.705-.325-.46-1.192-.46-1.192s1.474-2.848 1.435-6.346v-.054c.038-3.5-1.437-6.396-1.437-6.396s-.244-.867.46-1.192c.705-.325 1.18.217 1.18.217zm-3.53 1.626c1.484 2.71 1.384 5.407 1.37 5.768.014.315.114 2.904-1.368 5.833 0 0-.475.542-1.18.217-.704-.325-.46-1.192-.46-1.192s.954-1.358 1.11-4.826v-.054c-.1-3.47-1.112-4.77-1.112-4.77s-.244-.867.46-1.192c.705-.325 1.18.217 1.18.217z"/></svg>