<svg xmlns="http://www.w3.org/2000/svg" version="1.1" baseProfile="full" width="24" height="24" viewBox="0 0 24.00 24.00" xml:space="preserve"><path fill="#000" fill-opacity="1" stroke-width=".2" stroke-linejoin="round" d="M12.002 1.85c-.273 0-.552.07-.786.202L3.78 6.348c-.484.278-.782.8-.782 1.357v8.584c0 .556.298 1.08.78 1.356l1.95 1.124c.947.464 1.283.47 1.713.47 1.402 0 2.21-.85 2.21-2.326V8.437c0-.117-.104-.214-.22-.214h-.944c-.117 0-.215.097-.215.214v8.477c0 .655-.677 1.303-1.78.752L4.453 16.49c-.074-.04-.118-.117-.118-.2V7.704c0-.083.044-.16.118-.205l7.43-4.287c.07-.044.162-.044.23 0L19.55 7.5c.07.044.113.122.113.205v8.584c0 .082-.044.16-.112.204l-7.436 4.292c-.063.04-.16.04-.234 0l-1.905-1.132c-.057-.035-.13-.05-.185-.015-.527.296-.63.335-1.122.506-.123.044-.304.118.067.328l2.48 1.47c.24.136.51.205.783.205.277 0 .546-.07.78-.206l7.442-4.298c.478-.277.78-.8.78-1.357V7.704c0-.556-.302-1.074-.78-1.357l-7.44-4.296c-.23-.133-.505-.202-.777-.202zm1.992 6.147c-2.12 0-3.384.894-3.384 2.393 0 1.63 1.26 2.08 3.296 2.28 2.43.24 2.623.596 2.623 1.075 0 .83-.67 1.186-2.233 1.186-1.973 0-2.402-.49-2.55-1.473-.013-.102-.106-.18-.213-.18h-.963c-.116 0-.214.092-.214.214 0 1.25.684 2.745 3.94 2.745 2.354 0 3.707-.928 3.707-2.55 0-1.605-1.084-2.03-3.374-2.333-2.31-.307-2.545-.463-2.545-1.006 0-.448.2-1.045 1.91-1.045 1.528 0 2.094.334 2.324 1.364.017.097.106.166.21.166h.965c.06 0 .117-.024.156-.07.04-.043.065-.1.055-.164-.146-1.772-1.324-2.6-3.71-2.6z"/></svg>