<svg xmlns="http://www.w3.org/2000/svg" version="1.1" baseProfile="full" width="24" height="24" viewBox="0 0 24.00 24.00" xml:space="preserve"><path fill="#000" fill-opacity="1" stroke-width=".2" stroke-linejoin="round" d="M22 12.5s2 2.167 2 3.5c0 1.104-.896 2-2 2s-2-.896-2-2c0-1.333 2-3.5 2-3.5zM6 6h4c.552 0 1 .448 1 1s-.448 1-1 1H9v2h2c.74 0 1.386.402 1.732 1l6.505-3.756L22.5 9.13c.48.275.643.886.367 1.365-.276.478-.887.642-1.366.366l-2.1-1.213-3.65 6.32C15.41 16.583 14.755 17 14 17H5c-1.105 0-2-.895-2-2v-3c0-1.105.895-2 2-2h2V8H6c-.552 0-1-.448-1-1s.448-1 1-1zm-1 6v3h9l2.062-3.572-3.464 2-.91-1.428H5zM.38 9.207L2.085 7.5c.39-.39 1.023-.39 1.414 0 .39.39.39 1.024 0 1.414L1.793 10.62c-.39.392-1.024.392-1.414 0-.392-.39-.392-1.022 0-1.413z"/></svg>