<svg xmlns="http://www.w3.org/2000/svg" version="1.1" baseProfile="full" width="24" height="24" viewBox="0 0 24.00 24.00" xml:space="preserve"><path fill="#000" fill-opacity="1" stroke-linejoin="round" d="M20.077 13.64c1.09.17 1.923 1.112 1.923 2.25 0 .888-.51 1.657-1.25 2.032l-.172.078H9.162c-1.45-.01-2.622-1.187-2.622-2.64 0-1.456 1.18-2.637 2.64-2.637l.216.01-.007-.203c0-1.824 1.478-3.302 3.302-3.302 1.28 0 2.39.73 2.94 1.797.452-.297.993-.47 1.575-.47 1.59 0 2.878 1.288 2.878 2.877l-.008.208zM8.823 12.158c-1.61.178-2.867 1.547-2.867 3.203 0 .676.21 1.304.568 1.823H4.732C3.222 17.183 2 15.96 2 14.45c0-1.442 1.118-2.623 2.534-2.724l-.073-.665c0-1.698 1.38-3.076 3.078-3.076.637 0 1.23.194 1.72.525.697-1.398 2.14-2.36 3.807-2.36 2.204 0 4.016 1.676 4.232 3.822l-.09-.002c-.474 0-.938.096-1.367.28-.724-1.003-1.885-1.606-3.148-1.606-2.018 0-3.68 1.545-3.87 3.514z"/></svg>