<svg xmlns="http://www.w3.org/2000/svg" version="1.1" baseProfile="full" width="24" height="24" viewBox="0 0 24.00 24.00" xml:space="preserve"><path fill="#000" fill-opacity="1" stroke-width="1.333" stroke-linejoin="miter" d="M17.326 3.572C15.86 2.56 14.048 2 12.003 2c-1.87 0-3.546.467-4.94 1.322-2.685 1.628-4.338 4.676-4.338 8.583C2.725 17.188 6.435 22 12 22c5.566 0 9.275-4.812 9.275-10.095 0-3.714-1.494-6.653-3.95-8.333zm-5.323.195c2.985 0 3.592 4.166 3.592 7.95 0 3.503-.337 8.195-3.556 8.195-3.22 0-3.635-4.738-3.635-8.242 0-3.782.612-7.903 3.598-7.903z"/></svg>