<svg xmlns="http://www.w3.org/2000/svg" version="1.1" baseProfile="full" width="24" height="24" viewBox="0 0 24.00 24.00" xml:space="preserve"><path fill="#000" fill-opacity="1" stroke-width=".2" stroke-linejoin="round" d="M12 1c1.657 0 3 1.343 3 3v1c.552 0 1 .448 1 1v1.07c2.39 1.383 4 3.97 4 6.93 0 4.418-3.582 8-8 8s-8-3.582-8-8c0-2.96 1.61-5.546 4-6.93V6c0-.552.448-1 1-1V4c0-1.657 1.343-3 3-3zm0 2c-.552 0-1 .448-1 1v1h2V4c0-.552-.448-1-1-1zm0 5c-1.777 0-3.374.773-4.472 2h8.944C15.374 8.773 13.777 8 12 8zm-5.66 8h1.246l-1.57-1.57c.038.546.15 1.073.325 1.57zm6.246 0l-4-4H6.414l4 4h2.172zm5.073-4h-1.246l1.57 1.57c-.038-.546-.15-1.073-.325-1.57zm-6.246 0l4 4h2.172l-4-4h-2.172zM12 20c1.777 0 3.374-.773 4.472-2H7.528c1.098 1.227 2.695 2 4.472 2z"/></svg>