<svg xmlns="http://www.w3.org/2000/svg" version="1.1" baseProfile="full" width="24" height="24" viewBox="0 0 24.00 24.00" xml:space="preserve"><path fill="#000" fill-opacity="1" stroke-width=".2" stroke-linejoin="round" d="M12 1c1.657 0 3 1.343 3 3v1c.552 0 1 .448 1 1v1.07c2.39 1.383 4 3.97 4 6.93 0 4.418-3.582 8-8 8s-8-3.582-8-8c0-2.96 1.61-5.546 4-6.93V6c0-.552.448-1 1-1V4c0-1.657 1.343-3 3-3zm0 2c-.552 0-1 .448-1 1v1h2V4c0-.552-.448-1-1-1zm0 5c-1.777 0-3.374.773-4.472 2h8.944C15.374 8.773 13.777 8 12 8zm0 12c1.777 0 3.374-.773 4.472-2H7.528c1.098 1.227 2.695 2 4.472 2zm0-8c-1.105 0-2 .895-2 2s.895 2 2 2 2-.895 2-2-.895-2-2-2zm6 2c0-.69-.117-1.355-.332-1.973C16.72 12.187 16 13.01 16 14c0 .992.72 1.815 1.668 1.973.215-.618.332-1.282.332-1.973zM6 14c0 .69.117 1.355.332 1.973C7.278 15.813 8 14.99 8 14c0-.992-.722-1.815-1.668-1.973C6.117 12.645 6 13.31 6 14z"/></svg>