<svg xmlns="http://www.w3.org/2000/svg" version="1.1" baseProfile="full" width="24" height="24" viewBox="0 0 24.00 24.00" xml:space="preserve"><path fill="#0D0E0E" fill-opacity="1" stroke-linejoin="round" d="M12 16.006c.555.837 1.31 1.52 2.2 1.99l-2.2 2.2-2.2-2.2c.89-.47 1.645-1.153 2.2-1.99zm5-4.81c-1.105 0-2 .895-2 2 0 1.104.895 2 2 2s2-.896 2-2c0-1.105-.895-2-2-2zm-10 0c-1.105 0-2 .895-2 2 0 1.104.895 2 2 2s2-.896 2-2c0-1.105-.895-2-2-2zm10-2.5c2.21 0 4 1.79 4 4s-1.79 4-4 4-4-1.792-4-4c0-2.21 1.79-4 4-4zm-10 0c2.21 0 4 1.79 4 4s-1.79 4-4 4-4-1.792-4-4c0-2.21 1.79-4 4-4zM2.244.975c1.756 3.72.485 6.483-.69 9.22-.362.783-.55 1.636-.554 2.5 0 3.313 2.686 6 6 6 .21-.002.42-.018.63-.042l2.956 2.955L12 23.022l1.414-1.414 2.955-2.956c.21.024.42.04.63.04 3.314 0 6.002-2.685 6-6 0-.862-.192-1.715-.555-2.5C21.27 7.46 20 4.695 21.755.978 19.12 3.055 15.36 4.69 12 4.695 8.64 4.69 4.882 3.055 2.244.977z"/></svg>