<svg xmlns="http://www.w3.org/2000/svg" version="1.1" baseProfile="full" width="24" height="24" viewBox="0 0 24.00 24.00" xml:space="preserve"><path fill="#000" fill-opacity="1" stroke-width=".2" stroke-linejoin="round" d="M1.997 10.96c-.478-.277-.642-.89-.366-1.367l1.5-2.598c.114-.195.282-.337.474-.42l7.83-4.4c.16-.11.356-.175.566-.175.21 0 .405.065.566.176l7.907 4.443c.19.1.342.262.434.457l1.455 2.52c.276.48.112 1.09-.366 1.367L21 11.54v4.96c0 .38-.213.712-.527.88l-7.907 4.444c-.16.11-.356.176-.566.176-.21 0-.405-.065-.566-.176L3.527 17.38c-.314-.167-.527-.5-.527-.88v-5.542c-.3.174-.68.187-1.003 0zM12 4.15v6.7l5.96-3.35L12 4.15zM5 15.916l6 3.372V12.58L5 9.21v6.705zm14 0v-3.222l-5.015 2.896c-.315.18-.688.172-.985.007v3.69l6-3.372zm-5.15-2.558l6.28-3.625-.584-1.01-6.28 3.624.585 1.01z"/></svg>