<svg xmlns="http://www.w3.org/2000/svg" version="1.1" baseProfile="full" width="24" height="24" viewBox="0 0 24.00 24.00" xml:space="preserve"><path fill="#000" fill-opacity="1" stroke-width=".2" stroke-linejoin="round" d="M21 16.5c0 .38-.213.712-.527.88l-7.907 4.444c-.16.11-.356.176-.566.176-.21 0-.405-.065-.566-.176L3.527 17.38c-.314-.167-.527-.5-.527-.88v-9c0-.38.213-.713.527-.88l7.907-4.444c.16-.11.356-.176.566-.176.21 0 .405.065.566.176l7.907 4.443c.314.167.527.5.527.88v9zM12 4.15l-1.894 1.066 5.88 3.394 1.973-1.11L12 4.15zM6.04 7.5L12 10.85l1.958-1.1-5.88-3.395L6.042 7.5zM5 15.915l6 3.372V12.58L5 9.21v6.705zm14 0V9.21l-6 3.37v6.708l6-3.373z"/></svg>