<svg xmlns="http://www.w3.org/2000/svg" version="1.1" baseProfile="full" width="24" height="24" viewBox="0 0 24.00 24.00" xml:space="preserve"><path fill="#000" fill-opacity="1" stroke-linejoin="round" d="M12 3c1.74 0 3.363.493 4.74 1.348C17.38 3.528 18.38 3 19.5 3 21.433 3 23 4.567 23 6.5c0 1.502-.947 2.784-2.276 3.28.18.71.276 1.454.276 2.22 0 4.97-4.03 9-9 9s-9-4.03-9-9c0-.766.096-1.51.276-2.22C1.946 9.284 1 8.002 1 6.5 1 4.567 2.567 3 4.5 3c1.12 0 2.12.527 2.76 1.348C8.637 3.493 10.26 3 12 3zm0 2c-3.866 0-7 3.134-7 7s3.134 7 7 7 7-3.134 7-7-3.134-7-7-7zm4.19 5.297c.358 1.334-.11 2.618-1.043 2.868-.934.25-1.98-.628-2.337-1.962-.358-1.334.11-2.618 1.043-2.868.934-.25 1.98.628 2.337 1.962zm-8.38 0c.357-1.334 1.403-2.212 2.337-1.962.934.25 1.4 1.534 1.043 2.868-.357 1.334-1.403 2.212-2.337 1.962-.934-.25-1.4-1.534-1.043-2.868zM12 14c.595 0 1.13.195 1.496.504l-.996.998c0 .413.336.748.75.748s.75-.336.75-.75c0-.276.224-.5.5-.5s.5.224.5.5c0 .966-.784 1.75-1.75 1.75-.49 0-.932-.2-1.25-.525-.318.324-.76.525-1.25.525-.966 0-1.75-.784-1.75-1.75 0-.276.224-.5.5-.5s.5.224.5.5c0 .414.336.75.75.75s.75-.336.75-.75l-.996-.996c.367-.31.9-.504 1.496-.504z"/></svg>