<svg xmlns="http://www.w3.org/2000/svg" version="1.1" baseProfile="full" width="24" height="24" viewBox="0 0 24.00 24.00" xml:space="preserve"><path fill="#000" fill-opacity="1" stroke-linejoin="round" d="M11.434 3.234l.566.78.566-.78.005.004C13.12 2.488 14.002 2 15.002 2c1.657 0 3 1.343 3 3 0 .35-.06.687-.17 1H20c1.105 0 2 .895 2 2v12c0 1.105-.895 2-2 2H4c-1.105 0-2-.895-2-2V8c0-1.105.895-2 2-2h2.17C6.06 5.687 6 5.35 6 5c0-1.657 1.343-3 3-3 1 0 1.883.488 2.428 1.238l.006-.004zM4 8v12h7c0-.552.448-1 1-1s1 .448 1 1h7V8h-5.104l2.122 2.92-1.618 1.176L12.424 8h-.848L8.6 12.096 6.982 10.92 9.104 8H4zm5-4c-.552 0-1 .448-1 1s.448 1 1 1 1-.448 1-1-.448-1-1-1zm6 0c-.552 0-1 .448-1 1s.448 1 1 1 1-.448 1-1-.448-1-1-1zm-3 12c.552 0 1 .448 1 1s-.448 1-1 1-1-.448-1-1 .448-1 1-1zm0-3c.552 0 1 .448 1 1s-.448 1-1 1-1-.448-1-1 .448-1 1-1zm0-3c.552 0 1 .448 1 1s-.448 1-1 1-1-.448-1-1 .448-1 1-1z"/></svg>