<svg xmlns="http://www.w3.org/2000/svg" version="1.1" baseProfile="full" width="24" height="24" viewBox="0 0 24.00 24.00" xml:space="preserve"><path fill="#000" fill-opacity="1" stroke-linejoin="round" d="M8.35 3.01c1.178-.178 2.43 1.115 2.792 2.887.365 1.773-.296 3.354-1.475 3.533-1.18.18-2.428-1.114-2.793-2.886C6.51 4.772 7.172 3.19 8.35 3.01zm7.16 0c1.18.18 1.84 1.762 1.477 3.533-.365 1.773-1.614 3.065-2.793 2.887-1.18-.18-1.84-1.76-1.476-3.533.364-1.773 1.614-3.065 2.793-2.886zM3.02 7.596c1.124-.488 2.67.39 3.457 1.96.785 1.57.51 3.24-.61 3.727-1.125.488-2.67-.39-3.457-1.96-.785-1.57-.51-3.238.61-3.727zm17.96 0c1.122.49 1.395 2.157.61 3.728-.786 1.57-2.332 2.447-3.456 1.96-1.122-.49-1.396-2.158-.61-3.728.785-1.57 2.332-2.448 3.455-1.96zM19.33 18.38c.042.94-.68 1.983-1.54 2.37-1.813.82-3.914-.882-5.904-.882-1.99 0-4.126 1.775-5.906.883-.97-.486-1.67-1.79-1.54-2.867.182-1.498 1.97-2.29 3.03-3.364 1.407-1.427 2.412-4.08 4.416-4.08 2.004 0 3.058 2.605 4.417 4.08 1.108 1.2 2.954 2.226 3.027 3.86z"/></svg>