<svg xmlns="http://www.w3.org/2000/svg" version="1.1" baseProfile="full" width="24" height="24" viewBox="0 0 24.00 24.00" xml:space="preserve"><path fill="#000" fill-opacity="1" stroke-width=".2" stroke-linejoin="round" d="M20.706 7.04c-.334.335-.668.67-.675.997-.006.328.314.648.635.97.47.47.943.94.924 1.43-.02.49-.527 1-1.036 1.508l-4.132 4.132-1.414-1.415 4.243-4.242-.96-.962-1.416 1.416-3.75-3.75 3.832-3.833c.39-.39 1.024-.39 1.414 0l2.336 2.337c.39.39.39 1.023 0 1.414zM3 17.25l9.563-9.564 3.75 3.75-9.564 9.564H3v-3.75z"/></svg>