<svg xmlns="http://www.w3.org/2000/svg" version="1.1" baseProfile="full" width="24" height="24" viewBox="0 0 24.00 24.00" xml:space="preserve"><path fill="#000" fill-opacity="1" stroke-width=".2" stroke-linejoin="miter" d="M5.5 2C4.12 2 3 3.12 3 4.5V5c-.55 0-1 .45-1 1v4c0 .55.45 1 1 1h5c.55 0 1-.45 1-1V6c0-.55-.45-1-1-1v-.5C8 3.12 6.88 2 5.5 2zm0 1C6.328 3 7 3.672 7 4.5V5H4v-.5C4 3.672 4.672 3 5.5 3zm14.156 0c-.256 0-.492.086-.687.28l-1.845 1.845 3.75 3.75L22.72 7.03c.39-.39.39-1.015 0-1.405L20.374 3.28c-.195-.194-.463-.28-.72-.28zm-3.593 3.188L5 17.25V21h3.75L19.813 9.937l-3.75-3.75z"/></svg>