<svg xmlns="http://www.w3.org/2000/svg" version="1.1" baseProfile="full" width="24" height="24" viewBox="0 0 24.00 24.00" xml:space="preserve"><path fill="#000" fill-opacity="1" stroke-width=".2" stroke-linejoin="round" d="M19 19V5H5v14h14zm0-16c1.104 0 2 .896 2 2v14c0 1.105-.896 2-2 2H5c-1.104 0-2-.895-2-2V5c0-1.104.896-2 2-2h14zm-2.297 6.35L15.7 10.355 13.646 8.3l1.003-1.004c.213-.214.56-.214.774 0l1.28 1.28c.214.214.214.56 0 .775zm-9.7 5.592l6.062-6.06 2.054 2.053-6.062 6.062H7.003v-2.055z"/></svg>