<svg xmlns="http://www.w3.org/2000/svg" version="1.1" baseProfile="full" width="24" height="24" viewBox="0 0 24.00 24.00" xml:space="preserve"><path fill="#000" fill-opacity="1" stroke-width="1.333" stroke-linejoin="miter" d="M18.656 2c-.256 0-.492.086-.687.28l-1.845 1.845 3.75 3.75L21.72 6.03c.39-.39.39-1.015 0-1.405L19.374 2.28c-.195-.194-.463-.28-.72-.28zM3.28 4L2 5.28l6.5 6.47-4.5 4.5V20h3.75l4.5-4.5 6.47 6.5L20 20.72l-6.5-6.47-3.75-3.75L3.28 4zm11.783 1.188l-4.032 4.03 3.75 3.75 4.033-4.03-3.75-3.75z"/></svg>