<svg xmlns="http://www.w3.org/2000/svg" version="1.1" baseProfile="full" width="24" height="24" viewBox="0 0 24.00 24.00" xml:space="preserve"><path fill="#000" fill-opacity="1" stroke-width=".2" stroke-linejoin="round" d="M23.706 16.67c-3.048-2.897-7.17-4.672-11.706-4.672S3.342 13.774.294 16.67c-.182.18-.294.43-.294.707 0 .277.11.527.293.707l2.476 2.48c.18.18.43.29.707.29.272.002.518-.107.7-.282.79-.738 1.687-1.363 2.664-1.854.332-.162.56-.503.56-.898v-3.104C8.85 14.25 10.395 14 12 14c1.604-.002 3.15.25 4.6.716v3.104c0 .395.228.736.56.898.976.49 1.872 1.116 2.664 1.854.18.175.427.284.698.284.277 0 .527-.113.708-.294l2.477-2.478c.182-.18.293-.43.293-.706 0-.276-.112-.527-.294-.71zM6.5 5.497l5.5 5.5 7-7-1-1-6 6-4.5-4.5H11v-1.5H5v6h1.5v-3.5z"/></svg>