<svg xmlns="http://www.w3.org/2000/svg" version="1.1" baseProfile="full" width="24" height="24" viewBox="0 0 24.00 24.00" xml:space="preserve"><path fill="#000" fill-opacity="1" stroke-width=".2" stroke-linejoin="round" d="M12 8.998c-1.604 0-3.15.252-4.6.718v3.105c0 .395-.228.736-.56.9-.976.49-1.872 1.115-2.665 1.85-.18.177-.426.285-.698.285-.276 0-.526-.112-.707-.293L.293 13.084c-.18-.18-.293-.43-.293-.706 0-.277.112-.528.294-.71C3.342 8.775 7.464 7 12 7s8.658 1.776 11.706 4.67c.182.182.294.433.294.71 0 .276-.112.526-.293.706l-2.477 2.478c-.18.18-.43.293-.707.293-.272 0-.518-.108-.698-.284-.793-.735-1.69-1.36-2.665-1.85-.332-.164-.56-.505-.56-.9V9.717c-1.45-.466-2.997-.718-4.6-.718z"/></svg>