<svg xmlns="http://www.w3.org/2000/svg" version="1.1" baseProfile="full" width="24" height="24" viewBox="0 0 24.00 24.00" xml:space="preserve"><path fill="#000" fill-opacity="1" stroke-width=".2" stroke-linejoin="round" d="M19.2 3.998h-3.4V3.5c0-.94.76-1.702 1.7-1.702.938 0 1.7.762 1.7 1.702m.8.498V3.5C20 2.118 18.88.998 17.498.998 16.118.998 15 2.118 15 3.5v.498c-.553 0-1 .448-1 1v4c0 .552.447 1 1 1h5c.552 0 1-.448 1-1v-4c0-.552-.448-1-1-1zm0 11.5c-1.247 0-2.448-.2-3.573-.568-.345-.112-.74-.03-1.015.245l-2.2 2.203c-2.833-1.44-5.147-3.754-6.59-6.585l2.2-2.208c.275-.274.357-.67.246-1.015C8.7 6.445 8.5 5.245 8.5 3.998c0-.553-.448-1-1-1H4c-.552 0-1 .447-1 1 0 9.39 7.61 17 17 17 .552 0 1-.447 1-1v-3.5c0-.553-.448-1-1-1z"/></svg>