<svg xmlns="http://www.w3.org/2000/svg" version="1.1" baseProfile="full" width="24" height="24" viewBox="0 0 24.00 24.00" xml:space="preserve"><path fill="#000" fill-opacity="1" stroke-width=".2" stroke-linejoin="round" d="M20 15.498c-1.248 0-2.448-.2-3.573-.568-.346-.112-.74-.03-1.016.245l-2.2 2.203c-2.832-1.44-5.147-3.754-6.588-6.585l2.2-2.208c.275-.274.357-.67.244-1.015C8.7 6.446 8.5 5.245 8.5 3.998c0-.553-.448-1-1-1H4c-.554 0-1 .447-1 1 0 9.39 7.61 17 17 17 .552 0 1-.447 1-1v-3.5c0-.553-.448-1-1-1zm-2-8.293l.938.94-.94.94m0-6.173l.94.94-.94.94m-3.292 4.706L17 7.205v3.793h.5l2.852-2.854-2.146-2.146 2.146-2.146L17.5.998H17V4.79L14.705 2.5 14 3.205l2.792 2.793L14 8.79l.706.708z"/></svg>