<svg xmlns="http://www.w3.org/2000/svg" version="1.1" baseProfile="full" width="24" height="24" viewBox="0 0 24.00 24.00" xml:space="preserve"><path fill="#000" fill-opacity="1" stroke-width=".2" stroke-linejoin="round" d="M15 11.998h2c0-2.762-2.24-5-5-5v2c1.655 0 3 1.344 3 3zm4 0h2c0-4.97-4.03-9-9-9v2c3.864 0 7 3.134 7 7zm1 3.5c-1.248 0-2.448-.2-3.573-.568-.346-.112-.74-.03-1.016.245l-2.2 2.203c-2.832-1.44-5.147-3.754-6.588-6.585l2.2-2.208c.275-.275.357-.67.244-1.015C8.7 6.446 8.5 5.245 8.5 3.998c0-.553-.448-1-1-1H4c-.554 0-1 .447-1 1 0 9.39 7.61 17 17 17 .552 0 1-.447 1-1v-3.5c0-.553-.448-1-1-1z"/></svg>