<svg xmlns="http://www.w3.org/2000/svg" version="1.1" baseProfile="full" width="24" height="24" viewBox="0 0 24.00 24.00" xml:space="preserve"><path fill="#000" fill-opacity="1" stroke-width="1.333" stroke-linejoin="miter" d="M11.994 3.002C7.456 3.002 3.338 4.782.29 7.67c-.18.18-.29.43-.29.71 0 .28.11.53.29.71l2.48 2.478c.18.18.43.29.71.29.268 0 .518-.11.698-.28.79-.74 1.69-1.36 2.66-1.85.33-.16.558-.498.558-.898v-3.1c1.45-.48 3-.728 4.598-.728 1.6 0 3.15.25 4.6.72V8.82c0 .39.23.74.558.9.98.49 1.87 1.12 2.67 1.848.18.18.43.28.7.28.28 0 .53-.11.71-.29l2.48-2.478c.18-.18.288-.43.288-.71 0-.28-.12-.52-.3-.7-3.05-2.89-7.168-4.668-11.706-4.668zM9 7v3s-6 5-6 8v4h18v-4c0-3-6-8-6-8V7h-2v2h-2V7H9zm3 5c2.21 0 4 1.79 4 4s-1.79 4-4 4-4-1.79-4-4 1.79-4 4-4zm0 1.5c-1.38 0-2.5 1.12-2.5 2.5s1.12 2.5 2.5 2.5 2.5-1.12 2.5-2.5-1.12-2.5-2.5-2.5z"/></svg>