<svg xmlns="http://www.w3.org/2000/svg" version="1.1" baseProfile="full" width="24" height="24" viewBox="0 0 24.00 24.00" xml:space="preserve"><path fill="#000" fill-opacity="1" fill-rule="evenodd" stroke-width=".2" stroke-linejoin="round" d="M20 15.498c.552 0 1 .447 1 1v3.5c0 .553-.448 1-1 1-9.39 0-17-7.61-17-17 0-.553.446-1 1-1h3.5c.552 0 1 .447 1 1 0 1.247.2 2.448.566 3.572.113.346.03.74-.244 1.015l-2.2 2.208c1.44 2.83 3.756 5.144 6.59 6.585l2.2-2.203c.274-.275.67-.357 1.015-.245 1.125.367 2.325.568 3.572.568zM12 2h2v2h-2V2zm4 0h6v2h-6V2zm-4 4h2v2h-2V6zm4 0h6v2h-6V6zm-4 4h2v2h-2v-2zm4 0h6v2h-6v-2z"/></svg>