<svg xmlns="http://www.w3.org/2000/svg" version="1.1" baseProfile="full" width="24" height="24" viewBox="0 0 24.00 24.00" xml:space="preserve"><path fill="#000" fill-opacity="1" stroke-width=".2" stroke-linejoin="round" d="M6.623 10.793c1.44 2.83 3.756 5.145 6.59 6.585l2.2-2.203c.274-.275.67-.356 1.015-.245 1.124.367 2.325.568 3.572.568.552 0 1 .447 1 1v3.5c0 .553-.448 1-1 1-9.39 0-17-7.61-17-17 0-.553.447-1 1-1h3.5c.552 0 1 .447 1 1 0 1.247.2 2.448.567 3.572.112.346.03.74-.244 1.015l-2.2 2.208z"/></svg>