<svg xmlns="http://www.w3.org/2000/svg" version="1.1" baseProfile="full" width="24" height="24" viewBox="0 0 24.00 24.00" xml:space="preserve"><path fill="#000" fill-opacity="1" stroke-width="1.333" stroke-linejoin="miter" d="M13 17v2h1c.552 0 1 .448 1 1h7v2h-7c0 .552-.448 1-1 1h-4c-.552 0-1-.448-1-1H2v-2h7c0-.552.448-1 1-1h1v-2h2zm10.7-9.33c.18.18.3.42.3.7 0 .28-.11.53-.29.71l-2.48 2.478c-.18.18-.43.29-.71.29-.268 0-.518-.1-.698-.28-.8-.73-1.69-1.36-2.67-1.85-.33-.16-.56-.51-.56-.9V5.722C15.145 5.25 13.595 5 11.996 5c-1.6 0-3.15.25-4.598.73v3.1c0 .4-.23.74-.56.9-.97.49-1.87 1.11-2.66 1.848-.18.17-.43.28-.698.28-.28 0-.53-.11-.71-.29L.29 9.088C.11 8.91 0 8.66 0 8.38c0-.28.11-.53.29-.71 3.05-2.89 7.167-4.668 11.705-4.668S20.65 4.782 23.7 7.67zM11 10v5h-1v-5h1zm1 0h3v3h-2v2h-1v-5zm2 2v-1h-1v1h1z"/></svg>