<svg xmlns="http://www.w3.org/2000/svg" version="1.1" baseProfile="full" width="24" height="24" viewBox="0 0 24.00 24.00" xml:space="preserve"><path fill="#000" fill-opacity="1" stroke-width=".2" stroke-linejoin="round" d="M5 2.998c-1.11 0-2.002.898-2.002 2.002v14c0 1.102.893 1.996 2.002 1.996h14c1.102 0 2-.893 2-1.997V5c0-1.104-.898-2.002-2-2.002M6 7.003h11.003v1.996H15v5c0 .55.45 1 1 1 .552 0 1.003-.45 1.003-1h1.996c0 1.66-1.344 3.003-3 3.003C14.34 17.003 13 15.66 13 14V9H10v8.003H7.997V9H6.002"/></svg>