<svg xmlns="http://www.w3.org/2000/svg" version="1.1" baseProfile="full" width="24" height="24" viewBox="0 0 24.00 24.00" xml:space="preserve"><path fill="#000" fill-opacity="1" stroke-linejoin="round" d="M9.5 9C8.672 9 8 9.672 8 10.5S8.672 12 9.5 12s1.5-.672 1.5-1.5S10.328 9 9.5 9zm5 0c-.828 0-1.5.672-1.5 1.5s.672 1.5 1.5 1.5 1.5-.672 1.5-1.5S15.328 9 14.5 9zM12 4l.683.026c.94-.785 2.136-1.43 3.04-1.674 1.868-.5 5.16-.126 5.59 1.474.31 1.154-.713 2.628-2.286 3.55C20.262 8.916 21 10.872 21 13c0 4.97-4.03 9-9 9s-9-4.03-9-9c0-2.128.738-4.083 1.973-5.624C3.4 6.454 2.378 4.98 2.687 3.826c.43-1.6 3.722-1.974 5.59-1.474.904.243 2.1.89 3.04 1.674L12 4zm-2 12c.552 0 1 .448 1 1s-.448 1-1 1-1-.448-1-1 .448-1 1-1zm4 0c.552 0 1 .448 1 1s-.448 1-1 1-1-.448-1-1 .448-1 1-1zm-2-3c-2.76 0-5 2.343-5 4s2.24 3 5 3 5-1.343 5-3-2.24-4-5-4zM7.76 4.284c-.446-.12-3.175.07-3.175.07S6.797 6.096 7.24 6.215c.446.12 2.532.215 2.675-.32.143-.532-1.712-1.493-2.156-1.612zm8.48 0c-.443.12-2.298 1.08-2.155 1.613.143.534 2.23.438 2.674.32.443-.12 2.655-1.864 2.655-1.864s-2.73-.188-3.174-.07z"/></svg>