<svg xmlns="http://www.w3.org/2000/svg" version="1.1" baseProfile="full" width="24" height="24" viewBox="0 0 24.00 24.00" xml:space="preserve"><path fill="#000" fill-opacity="1" stroke-width=".2" stroke-linejoin="round" d="M4.222 11.293l7.07-7.07c2.344-2.344 6.143-2.344 8.486 0 2.343 2.342 2.343 6.14 0 8.484l-7.07 7.07c-2.344 2.344-6.143 2.344-8.486 0-2.343-2.342-2.343-6.14 0-8.484zm1.414 1.414C4.59 13.754 4.244 15.237 4.6 16.57l5.986-5.984 4.242 4.242 3.536-3.535c1.562-1.562 1.562-4.095 0-5.657-1.562-1.562-4.095-1.562-5.657 0l-7.07 7.07z"/></svg>