<svg xmlns="http://www.w3.org/2000/svg" version="1.1" baseProfile="full" width="24" height="24" viewBox="0 0 24.00 24.00" xml:space="preserve"><path fill="#000" fill-opacity="1" stroke-width=".2" stroke-linejoin="round" d="M13 16.198c-.803 0-1.57-.34-2.117-.92l-.952 3.2-.067.207-.032-.01c-.195.323-.543.523-.93.523-.607 0-1.1-.493-1.1-1.1 0-.052.005-.1.013-.146l-.017-.007.054-.178 1.85-5.562s-.2-.613-.2-1.473c0-1.72.92-2.234 1.663-2.234.742 0 1.417.265 1.417 1.312 0 1.344-.89 2.032-.89 3.003 0 .74.604 1.342 1.345 1.342 2.333 0 3.164-1.76 3.164-3.407 0-2.178-1.885-3.95-4.2-3.95-2.317 0-4.2 1.772-4.2 3.95 0 .674.187 1.344.54 1.935.094.156.143.332.143.515 0 .552-.448 1-1 1-.356 0-.69-.19-.867-.495-.534-.896-.817-1.918-.817-2.955 0-3.28 2.78-5.95 6.2-5.95 3.418 0 6.2 2.67 6.2 5.95 0 2.625-1.63 5.45-5.2 5.45zm7-14.2H4c-1.106 0-1.99.895-1.99 2l-.01 16c0 1.104.894 2 2 2h16c1.103 0 2-.896 2-2v-16c0-1.105-.897-2-2-2z"/></svg>