<svg xmlns="http://www.w3.org/2000/svg" version="1.1" baseProfile="full" width="24" height="24" viewBox="0 0 24.00 24.00" xml:space="preserve"><path fill="#000" fill-opacity="1" stroke-width=".2" stroke-linejoin="round" d="M13.25 17.248c-1.003 0-1.96-.424-2.646-1.15l-1.19 4-.085.26-.04-.015c-.246.405-.68.655-1.166.655-.757 0-1.375-.616-1.375-1.376 0-.064.007-.124.017-.18l-.02-.01.066-.223 2.31-6.953s-.25-.766-.25-1.84c0-2.15 1.154-2.794 2.08-2.794.93 0 1.773.332 1.773 1.64 0 1.68-1.112 2.54-1.112 3.754 0 .925.754 1.678 1.68 1.678 2.917 0 3.955-2.2 3.955-4.26C17.25 7.714 14.893 5.5 12 5.5c-2.896 0-5.25 2.215-5.25 4.938 0 .842.234 1.68.677 2.418.116.196.177.416.177.644 0 .69-.56 1.25-1.25 1.25-.445 0-.86-.237-1.083-.618-.667-1.12-1.02-2.398-1.02-3.694 0-4.1 3.476-7.438 7.75-7.438 4.273 0 7.75 3.337 7.75 7.438 0 3.28-2.036 6.812-6.5 6.812z"/></svg>