<svg xmlns="http://www.w3.org/2000/svg" version="1.1" baseProfile="full" width="24" height="24" viewBox="0 0 24.00 24.00" xml:space="preserve"><path fill="#000" fill-opacity="1" stroke-linejoin="round" d="M9.492 4.27c1.386.258 3.408.867 4.494 1.233 2.765.95 3.7 2.128 3.7 4.788 0 2.596-1.6 3.578-3.633 2.596v-4.83c0-.567-.104-1.09-.638-1.238-.405-.13-.66.248-.66.813v12.1l-3.263-1.036V4.27zm3.882 13.35l5.25-1.87c.593-.213.685-.514.203-.672-.485-.16-1.36-.113-1.956.1l-3.496 1.23v-1.96l.202-.067s1.01-.357 2.432-.514c1.42-.156 3.16.02 4.525.538 1.54.488 1.714 1.204 1.323 1.698-.392.493-1.35.846-1.35.846l-7.132 2.56V17.62zm-9.868-.197c-1.58-.445-1.844-1.37-1.125-1.905.67-.494 1.8-.866 1.8-.866l4.68-1.663v1.893L5.492 16.09c-.597.214-.687.515-.205.673.485.16 1.36.114 1.956-.1l1.615-.586v1.696l-.324.054c-1.616.265-3.335.155-5.03-.404z"/></svg>