<svg xmlns="http://www.w3.org/2000/svg" version="1.1" baseProfile="full" width="24" height="24" viewBox="0 0 24.00 24.00" xml:space="preserve"><path fill="#000" fill-opacity="1" stroke-linejoin="round" d="M22 12c0 5.523-4.477 10-10 10S2 17.523 2 12V4.5C2 3.12 3.12 2 4.5 2h15C20.88 2 22 3.12 22 4.5V12zm-6.116-3.755l-3.88 3.88L8.118 8.24c-.585-.587-1.535-.587-2.12 0-.587.585-.587 1.535 0 2.12l4.936 4.956c.586.586 1.536.586 2.122 0l4.95-4.95c.585-.585.585-1.535 0-2.12-.586-.586-1.536-.586-2.122 0z"/></svg>