<svg xmlns="http://www.w3.org/2000/svg" version="1.1" baseProfile="full" width="24" height="24" viewBox="0 0 24.00 24.00" xml:space="preserve"><path fill="#000" fill-opacity="1" stroke-width=".2" stroke-linejoin="round" d="M12 2c5.523 0 10 4.477 10 10s-4.477 10-10 10S2 17.523 2 12 6.477 2 12 2zm0 2c-4.08 0-7.446 3.054-7.938 7h4.064C8.57 9.275 10.136 8 12 8c1.864 0 3.43 1.275 3.874 3h4.064C19.446 7.054 16.08 4 12 4zm0 16c4.08 0 7.446-3.054 7.938-7h-4.064c-.444 1.725-2.01 3-3.874 3-1.864 0-3.43-1.275-3.874-3H4.062c.492 3.946 3.858 7 7.938 7zm0-10c-1.105 0-2 .895-2 2s.895 2 2 2 2-.895 2-2-.895-2-2-2z"/></svg>