<svg xmlns="http://www.w3.org/2000/svg" version="1.1" baseProfile="full" width="24" height="24" viewBox="0 0 24.00 24.00" xml:space="preserve"><path fill="#000" fill-opacity="1" stroke-width=".2" stroke-linejoin="round" d="M2 15c1.667-.75 3.333-1.5 5-1.828V5c0-1.657 1.343-3 3-3 1.306 0 2.418.835 2.83 2H10c-.552 0-1 .448-1 1v1h5V5c0-1.657 1.343-3 3-3 1.306 0 2.418.835 2.83 2H17c-.552 0-1 .448-1 1v9.944C18 14.62 20 13 22 13v2c-2.222 0-4.445 2-6.667 2-2.222 0-4.444-2-6.666-2C6.444 15 4.222 16 2 17v-2zm12-7H9v2h5V8zm0 4H9v1.014c1.667.143 3.333 1.298 5 1.778V12zM2 19c2.222-1 4.444-2 6.667-2 2.222 0 4.444 2 6.666 2 2.223 0 4.445-2 6.667-2v2c-2.222 0-4.444 2-6.667 2-2.222 0-4.444-2-6.666-2C6.444 19 4.222 20 2 21v-2z"/></svg>