<svg xmlns="http://www.w3.org/2000/svg" version="1.1" baseProfile="full" width="24" height="24" viewBox="0 0 24.00 24.00" xml:space="preserve"><path fill="#000" fill-opacity="1" stroke-width=".2" stroke-linejoin="round" d="M2 3h8c0-1.105.895-2 2-2s2 .895 2 2h8v2h-1v11h-5.75L17 22h-2l-1.75-6h-2.5L9 22H7l1.75-6H3V5H2V3zm3 2v9h14V5H5zm6.854 6.854c-.09.09-.216.146-.354.146-.276 0-.5-.224-.5-.5v-4c0-.276.224-.5.5-.5.138 0 .263.056.354.146l1.396 1.397c.32.32.638.638.638.957 0 .32-.32.638-.638.957l-1.396 1.397z"/></svg>