<svg xmlns="http://www.w3.org/2000/svg" version="1.1" baseProfile="full" width="24" height="24" viewBox="0 0 24.00 24.00" xml:space="preserve"><path fill="#000" fill-opacity="1" stroke-width=".2" stroke-linejoin="round" d="M19 6c.553 0 1-.447 1-1 0-.553-.447-1-1-1-.553 0-1 .447-1 1 0 .553.447 1 1 1zm0-4c1.657 0 3 1.343 3 3v6h-4V7.002H6V11H2V5c0-1.656 1.344-3 3-3h14zm-1 16.25c0 .38-.214.712-.528.88l-4.906 2.694c-.16.11-.356.176-.567.176-.21 0-.406-.065-.567-.176L6.527 19.13c-.314-.167-.528-.5-.528-.88V13c0-.38.213-.713.527-.88l4.906-2.444c.16-.11.356-.176.566-.176.21 0 .405.065.566.176l4.906 2.443c.314.168.527.5.527.88v5.25zm-6-6.6L9.04 13 12 14.6l2.96-1.6-2.96-1.35zm-4 6.015l3 1.622V16.33l-3-1.62v2.955zm8 0V14.71l-3 1.62v2.958l3-1.623z"/></svg>