<svg xmlns="http://www.w3.org/2000/svg" version="1.1" baseProfile="full" width="24" height="24" viewBox="0 0 24.00 24.00" xml:space="preserve"><path fill="#000" fill-opacity="1" stroke-width=".2" stroke-linejoin="round" d="M21 16.5c0 .38-.213.712-.527.88l-7.907 4.444c-.16.11-.356.176-.566.176-.21 0-.405-.065-.566-.176L3.527 17.38c-.314-.167-.527-.5-.527-.88v-9c0-.38.213-.713.527-.88l7.907-4.444c.16-.11.356-.176.566-.176.21 0 .405.065.566.176l7.907 4.443c.314.167.527.5.527.88v9zM5 9v6h1.25v-2H7c1.105 0 2-.895 2-2s-.895-2-2-2H5zm1.25 3v-2h.5c.552 0 1 .448 1 1s-.448 1-1 1h-.5zm3.5-3v6H11v-2h.75l.664 2h1.317l-.793-2.39c.493-.365.813-.95.813-1.61 0-1.105-.895-2-2-2h-2zM11 12v-2h.5c.552 0 1 .448 1 1s-.448 1-1 1H11zm6-3c-1.38 0-2.5 1.343-2.5 3s1.12 3 2.5 3 2.5-1.343 2.5-3-1.12-3-2.5-3zm0 1.25c.76 0 1.375.784 1.375 1.75S17.76 13.75 17 13.75c-.76 0-1.375-.784-1.375-1.75s.616-1.75 1.375-1.75z"/></svg>