<svg xmlns="http://www.w3.org/2000/svg" version="1.1" baseProfile="full" width="24" height="24" viewBox="0 0 24.00 24.00" xml:space="preserve"><path fill="#000" fill-opacity="1" stroke-width="1.333" stroke-linejoin="miter" d="M16 6c-1.13 0-2.232.35-3.156 1H4c-1.108 0-2 .892-2 2v6c0 1.108.892 2 2 2h1v1c0 .554.446 1 1 1h2c.554 0 1-.446 1-1v-1h6v1c0 .554.446 1 1 1h2c.554 0 1-.446 1-1v-1h1c1.108 0 2-.892 2-2V9c0-1.108-.892-2-2-2h-.85c-.922-.65-2.022-.998-3.15-1zm0 1.5c1.933 0 3.5 1.567 3.5 3.5s-1.567 3.5-3.5 3.5-3.5-1.567-3.5-3.5 1.567-3.5 3.5-3.5zM4 9h4v1H4V9zm12 0c-1.105 0-2 .895-2 2s.895 2 2 2 2-.895 2-2-.895-2-2-2zM4 11h4v1H4v-1zm0 2h4v1H4v-1z"/></svg>