<svg xmlns="http://www.w3.org/2000/svg" version="1.1" baseProfile="full" width="24" height="24" viewBox="0 0 24.00 24.00" xml:space="preserve"><path fill="#000" fill-opacity="1" stroke-width=".2" stroke-linejoin="round" d="M20.5 10.998H19v-4c0-1.104-.897-2-2-2h-4v-1.5c0-1.38-1.12-2.5-2.5-2.5-1.382 0-2.5 1.12-2.5 2.5v1.5H4c-1.105 0-1.99.896-1.99 2l-.004 3.8H3.5c1.49 0 2.7 1.21 2.7 2.7 0 1.49-1.21 2.7-2.7 2.7H2L2 19.998c0 1.104.895 2 2 2h3.8v-1.5c0-1.49 1.208-2.7 2.7-2.7 1.49 0 2.7 1.21 2.7 2.7v1.5H17c1.103 0 2-.896 2-2v-4h1.5c1.38 0 2.5-1.12 2.5-2.5s-1.12-2.5-2.5-2.5z"/></svg>