<svg xmlns="http://www.w3.org/2000/svg" version="1.1" baseProfile="full" width="24" height="24" viewBox="0 0 24.00 24.00" xml:space="preserve"><path fill="#000" fill-opacity="1" stroke-width="1.333" stroke-linejoin="miter" d="M3.18 13.545c.584-1.383 1.385-2.402 1.99-2.627-.012-.8.138-1.294.388-1.696 0-.03-.07-.364.157-.77C5.868 4.854 8.21 2 12 2c3.79 0 6.132 2.854 6.285 6.452.226.407.157.74.157.77.25.402.4.895.39 1.696.603.225 1.404 1.244 1.988 2.627.75 1.76.87 3.442.27 3.753-.413.22-1.062-.274-1.67-1.178-.24.984-.836 1.876-1.687 2.59.892.33 1.474.868 1.474 1.48 0 1-1.576 1.81-3.522 1.81-1.754 0-3.206-.66-3.475-1.523h-.42C11.52 21.34 10.07 22 8.315 22c-1.946 0-3.522-.812-3.522-1.812 0-.61.582-1.147 1.474-1.477-.85-.714-1.446-1.607-1.688-2.59-.608.903-1.256 1.396-1.67 1.178-.6-.31-.48-1.993.27-3.753z"/></svg>