<svg xmlns="http://www.w3.org/2000/svg" version="1.1" baseProfile="full" width="24" height="24" viewBox="0 0 24.00 24.00" xml:space="preserve"><path fill="#000" fill-opacity="1" stroke-linejoin="round" d="M5.5 1C7.985 1 10 3.015 10 5.5c0 .88-.253 1.702-.69 2.396L9.414 8h5.172l.104-.104C14.253 7.202 14 6.38 14 5.5 14 3.015 16.015 1 18.5 1S23 3.015 23 5.5 20.985 10 18.5 10c-.88 0-1.702-.253-2.396-.69L15 10.414v3.172l1.104 1.104c.694-.437 1.515-.69 2.396-.69 2.485 0 4.5 2.015 4.5 4.5S20.985 23 18.5 23 14 20.985 14 18.5c0-.88.253-1.702.69-2.396L14.586 16H9.414l-.104.104c.437.694.69 1.515.69 2.396 0 2.485-2.015 4.5-4.5 4.5S1 20.985 1 18.5 3.015 14 5.5 14c.88 0 1.702.253 2.396.69L9 13.586v-3.172L7.896 9.31C7.202 9.747 6.38 10 5.5 10 3.015 10 1 7.985 1 5.5S3.015 1 5.5 1zm0 2C4.12 3 3 4.12 3 5.5S4.12 8 5.5 8 8 6.88 8 5.5 6.88 3 5.5 3zm0 13C4.12 16 3 17.12 3 18.5S4.12 21 5.5 21 8 19.88 8 18.5 6.88 16 5.5 16zm13-13C17.12 3 16 4.12 16 5.5S17.12 8 18.5 8 21 6.88 21 5.5 19.88 3 18.5 3zm0 13c-1.38 0-2.5 1.12-2.5 2.5s1.12 2.5 2.5 2.5 2.5-1.12 2.5-2.5-1.12-2.5-2.5-2.5zM3.91 17.253l1.132.653c.127-.098.286-.156.458-.156.414 0 .75.336.75.75l-.007.1 1.132.653-.286.494-1.132-.653c-.127.098-.286.156-.458.156-.414 0-.75-.336-.75-.75l.007-.1-1.132-.653.286-.494zm-.285-11L4.757 5.6l-.007-.1c0-.414.336-.75.75-.75.172 0 .33.058.458.156l1.13-.653.287.494-1.132.654.007.1c0 .414-.336.75-.75.75-.172 0-.33-.058-.458-.156l-1.13.653-.287-.494zm13.286-2l1.132.653c.127-.098.286-.156.458-.156.414 0 .75.336.75.75l-.006.1 1.13.653-.285.494-1.132-.653c-.127.098-.286.156-.458.156-.414 0-.75-.336-.75-.75l.006-.1-1.13-.653.285-.494zm-.285 15l1.125-.753c0-.414.336-.75.75-.75.172 0 .33.058.458.156l1.13-.653.287.494-1.125.753c0 .414-.336.75-.75.75-.172 0-.33-.058-.458-.156l-1.13.653-.287-.494z"/></svg>