<svg xmlns="http://www.w3.org/2000/svg" version="1.1" baseProfile="full" width="24" height="24" viewBox="0 0 24.00 24.00" xml:space="preserve"><path fill="#060605" fill-opacity="1" stroke-width="1.333" stroke-linejoin="miter" d="M12 2C6.477 2 2 6.477 2 12s4.477 10 10 10 10-4.477 10-10S17.523 2 12 2zm1 17h-2v-2h2v2zm2.067-7.746l-.895.918C13.448 12.895 13 13.5 13 15h-2v-.5c0-1.104.448-2.104 1.17-2.828l1.244-1.258C13.776 10.052 14 9.552 14 9c0-1.105-.896-2-2-2s-2 .895-2 2H8c0-2.21 1.79-4 4-4s4 1.79 4 4c0 .88-.357 1.677-.933 2.254z"/></svg>