<svg xmlns="http://www.w3.org/2000/svg" version="1.1" baseProfile="full" width="24" height="24" viewBox="0 0 24.00 24.00" xml:space="preserve"><path fill="#000" fill-opacity="1" stroke-width=".2" stroke-linejoin="round" d="M12 3c4.97 0 9 4.03 9 9 0 1.76-.505 3.402-1.378 4.79L21 18.166V20c0 .552-.448 1-1 1h-1.824l-1.382-1.382C15.406 20.494 13.762 21 12 21c-4.97 0-9-4.03-9-9s4.03-9 9-9zm0 4c-2.76 0-5 2.24-5 5s2.24 5 5 5c.646 0 1.264-.122 1.83-.346l-2.883-2.883c-.78-.78-.78-2.047 0-2.828.78-.78 2.047-.78 2.828 0l2.882 2.882c.22-.565.343-1.18.343-1.824 0-2.76-2.24-5-5-5z"/></svg>