<svg xmlns="http://www.w3.org/2000/svg" version="1.1" baseProfile="full" width="24" height="24" viewBox="0 0 24.00 24.00" xml:space="preserve"><path fill="#000" fill-opacity="1" stroke-linejoin="round" d="M22 17.5c0 .828-.672 1.5-1.5 1.5-.578 0-1.08-.327-1.33-.806-.447.976-.528 2.01-.382 2.74C19 22 18 22 18 22h-8c-1 0-2 0-2.167-.5-.166-.5.5-1.5 2.167-2l.878-.205C5.822 15.765 12 14 12 14c-2-1-4 .25-4 1.25 0 2 .456 2.712.25 3C7 20 6 22 6 22H3.5C3 19 6 21 6 19c0-1 1.313-2.144.5-3.5-.86-1.434-.57-2.704-.164-3.526-.943-.062-2.633-.27-3.336-.974-1-1 2-5 4-5 .684 0 1.134.117 1.51.35l1.176-3.394c.18-.522.75-.798 1.273-.618.52.18.797.75.616 1.273l-.757 2.185 2.007-1.16c.478-.275 1.09-.11 1.366.367.276.48.112 1.09-.366 1.366l-3.44 1.986L11 9c2 2 4.64.01 6.5 1.25 3.86 2.574 3.788 4.63 3.245 5.77.712.117 1.255.735 1.255 1.48zM5.73 7.936c-.457.31-.786.82-.477 1.278.31.458 1.138.44 1.596.13.457-.31.37-.79.06-1.248-.307-.458-.722-.47-1.18-.16z"/></svg>