<svg xmlns="http://www.w3.org/2000/svg" version="1.1" baseProfile="full" width="24" height="24" viewBox="0 0 24.00 24.00" xml:space="preserve"><path fill="#000" fill-opacity="1" stroke-linejoin="round" d="M12 10c1.105 0 2 .895 2 2 0 .49-.177.94-.47 1.288L16.7 22h-2.127L12 14.932 9.427 22H7.3l3.17-8.712C10.177 12.94 10 12.49 10 12c0-1.105.895-2 2-2zm0-2c-2.21 0-4 1.79-4 4 0 .516.098 1.01.275 1.462l-.87 2.395C6.527 14.814 6 13.47 6 12c0-3.314 2.686-6 6-6s6 2.686 6 6c0 1.47-.528 2.814-1.404 3.857l-.87-2.395c.176-.453.274-.946.274-1.462 0-2.21-1.79-4-4-4zm0-4c-4.418 0-8 3.582-8 8 0 2.36 1.02 4.48 2.644 5.943l-.726 1.995C3.536 18.111 2 15.236 2 12 2 6.477 6.477 2 12 2s10 4.477 10 10c0 3.235-1.536 6.11-3.918 7.94l-.726-1.997C18.98 16.48 20 14.36 20 12c0-4.418-3.582-8-8-8z"/></svg>