<svg xmlns="http://www.w3.org/2000/svg" version="1.1" baseProfile="full" width="24" height="24" viewBox="0 0 24.00 24.00" xml:space="preserve"><path fill="#000" fill-opacity="1" stroke-width=".2" stroke-linejoin="round" d="M12 10c1.105 0 2 .895 2 2s-.895 2-2 2-2-.895-2-2 .895-2 2-2zm0 12c-1.953 0-3.775-.56-5.315-1.528l3.332-4.997C10.6 15.81 11.277 16 12 16c.722 0 1.4-.19 1.983-.525l3.332 4.997C15.775 21.44 13.953 22 12 22zM2 12c0-4.144 2.52-7.7 6.113-9.217l2.23 5.575C8.96 8.988 8 10.382 8 12H2zm14 0c0-1.618-.96-3.012-2.343-3.642l2.23-5.575C19.48 4.3 22 7.856 22 12h-6z"/></svg>