<svg xmlns="http://www.w3.org/2000/svg" version="1.1" baseProfile="full" width="24" height="24" viewBox="0 0 24.00 24.00" xml:space="preserve"><path fill="#000" fill-opacity="1" stroke-width=".2" stroke-linejoin="round" d="M7.95 2.99L6.53 5.192l1.42 2.205-.005.003-1.997 3.095L4.216 9.6 5.64 7.394l-1.42-2.2 2-3.1 1.73.895zm6-.095L12.53 5.1l1.42 2.204-.005.003-1.997 3.094-1.732-.894L11.64 7.3l-1.42-2.2 2-3.1 1.73.895zm6.034 0L18.56 5.1l1.424 2.204-.007.003L17.98 10.4l-1.73-.894L17.67 7.3l-1.42-2.2 2-3.1 1.732.895zM2 22v-8c0-1.105.895-2 2-2h16c1.105 0 2 .895 2 2v8h-2v-2H4v2H2zm4-8c-.552 0-1 .448-1 1v2c0 .552.448 1 1 1s1-.448 1-1v-2c0-.552-.448-1-1-1zm4 0c-.552 0-1 .448-1 1v2c0 .552.448 1 1 1s1-.448 1-1v-2c0-.552-.448-1-1-1zm4 0c-.552 0-1 .448-1 1v2c0 .552.448 1 1 1s1-.448 1-1v-2c0-.552-.448-1-1-1zm4 0c-.552 0-1 .448-1 1v2c0 .552.448 1 1 1s1-.448 1-1v-2c0-.552-.448-1-1-1z"/></svg>