<svg xmlns="http://www.w3.org/2000/svg" version="1.1" baseProfile="full" width="24" height="24" viewBox="0 0 24.00 24.00" xml:space="preserve"><path fill="#000" fill-opacity="1" stroke-width=".2" stroke-linejoin="round" d="M19.292 10.844c.055.38.084.764.084 1.156 0 4.61-3.894 8.35-8.7 8.35-4.802 0-8.696-3.74-8.696-8.35 0-4.61 3.894-8.35 8.697-8.35.943 0 1.85.145 2.7.412v5.046s-2.59-1.42-4.908.247c-2.32 1.663-1.883 3.41-1.883 3.41s.11 2.755 3.38 2.755c3.656 0 4.69-3.329 4.69-3.329V4.58c.707.346 1.362.782 1.992 1.274 1.554.962 3.17 1.58 5.016 1.535 0 0 .354-.077.354.626 0 .38-.136.818-.518 1.23 0 0-.727 1.084-2.21 1.598z"/></svg>