<svg xmlns="http://www.w3.org/2000/svg" version="1.1" baseProfile="full" width="24" height="24" viewBox="0 0 24.00 24.00" xml:space="preserve"><path fill="#000" fill-opacity="1" stroke-width=".2" stroke-linejoin="round" d="M12.5 5C8.36 5 5 8.36 5 12.5c0 4.14 3.36 7.5 7.5 7.5 4.14 0 7.5-3.36 7.5-7.5C20 8.36 16.64 5 12.5 5zm-5.497 5h1.996c.55 0 1 .45 1 1v1.002c0 .503-.376.898-.86.972L10.308 15H9.155l-1.157-2.002V15h-.995m5-5h1.996v1H12v1.002H14v.995H12V14H14v1H12c-.557 0-1-.45-1-1v-3c0-.55.443-1 1-1zM16 10h1.997v1h-1.996v3h1.997v1h-1.996c-.55 0-1-.45-1-1v-3c0-.55.45-1 1-1zm-8.003 1v1.002H9v-1"/></svg>