<svg xmlns="http://www.w3.org/2000/svg" version="1.1" baseProfile="full" width="24" height="24" viewBox="0 0 24.00 24.00" xml:space="preserve"><path fill="#000" fill-opacity="1" stroke-linejoin="round" d="M21.824 15.424l-2.5 4.33c-.49.85-1.406 1.304-2.324 1.246h-2v2l-2.5-4.5L15 14v2h2.82l-2.222-3.847 4.33-2.5 1.8 3.12c.52.767.59 1.795.096 2.65zM9.21 3.064h5c.982 0 1.832.566 2.24 1.39l1 1.732 1.733-1L16.535 9.6l-5.147.086 1.732-1-1.41-2.442-2.22 3.847-4.33-2.5 1.8-3.118c.405-.834 1.26-1.408 2.25-1.408zM5.054 19.756l-2.5-4.33c-.49-.85-.426-1.87.083-2.636l1-1.732-1.732-1 5.147.085L9.7 14.558l-1.733-1L6.557 16H11v5H7.4c-.926.066-1.85-.387-2.346-1.244z"/></svg>