<svg xmlns="http://www.w3.org/2000/svg" version="1.1" baseProfile="full" width="24" height="24" viewBox="0 0 24.00 24.00" xml:space="preserve"><path fill="#000" fill-opacity="1" stroke-width=".2" stroke-linejoin="round" d="M18.992 11.996h3.323l-4.95 4.95-4.95-4.95h4.554c.007-1.534-.552-3.068-1.726-4.242-2.34-2.34-6.145-2.34-8.485 0-2.342 2.34-2.342 6.145 0 8.485 1.844 1.845 4.595 2.234 6.822 1.166l1.47 1.47c-3.068 1.81-7.07 1.415-9.707-1.223-3.126-3.125-3.12-8.18.007-11.306 3.125-3.126 8.18-3.133 11.306-.007 1.563 1.562 2.334 3.606 2.334 5.656z"/></svg>