<svg xmlns="http://www.w3.org/2000/svg" version="1.1" baseProfile="full" width="24" height="24" viewBox="0 0 24.00 24.00" xml:space="preserve"><path fill="#000" fill-opacity="1" stroke-width=".2" stroke-linejoin="round" d="M12.725 13.154l.894-.895c-.023-1.246.693-2.815 2-4.124 1.954-1.953 4.487-2.586 5.658-1.414 1.172 1.17.54 3.704-1.414 5.657-1.31 1.307-2.878 2.023-4.123 2l-.894.895c-.337.337-.855.383-1.242.138-.843.302-1.62.67-2.048 1.385-.53.884-.53 2.298-1.09 3.153s-1.68 1.15-2.86 1.15C6.43 21.1 5 21 3.955 19.51l2.475.41c.57.08 2.06-.53 2.62-1.384.56-.854.56-2.268 1.09-3.152.47-.784 1.36-1.15 2.293-1.47-.014-.274.083-.55.292-.76zM7 2c2.76 0 5 2.24 5 5s-2.24 5-5 5-5-2.24-5-5 2.24-5 5-5zm0 2C5.343 4 4 5.343 4 7s1.343 3 3 3 3-1.343 3-3-1.343-3-3-3z"/></svg>