<svg xmlns="http://www.w3.org/2000/svg" version="1.1" baseProfile="full" width="24" height="24" viewBox="0 0 24.00 24.00" xml:space="preserve"><path fill="#000" fill-opacity="1" stroke-width=".2" stroke-linejoin="round" d="M4 6v10l5 .002v-4c0-1.105.896-2 2-2h5c1.105 0 2 .895 2 2V16h2V6H4zM0 20v-2h4c-1.105 0-2-.896-2-2V6c0-1.104.895-2 2-2h16c1.104 0 2 .896 2 2l-.01 10c0 1.104-.886 2-1.99 2h4v2h-6v.002c0 1.105-.895 2-2 2h-5c-1.104 0-2-.895-2-2L0 20zm11.5.002c-.276 0-.5.224-.5.5s.224.5.5.5.5-.224.5-.5-.224-.5-.5-.5zm4 0c-.276 0-.5.224-.5.5s.224.5.5.5.5-.224.5-.5-.224-.5-.5-.5zm-2.5 0v1h1v-1h-1zm-2-8v7h5v-7h-5z"/></svg>