<svg xmlns="http://www.w3.org/2000/svg" version="1.1" baseProfile="full" width="24" height="24" viewBox="0 0 24.00 24.00" xml:space="preserve"><path fill="#000" fill-opacity="1" stroke-width=".2" stroke-linejoin="round" d="M13.414 19.311l3.17 3.172L18 21.068l-3.172-3.17m.707-6.365l-3.536 3.535-3.535-3.534c-.906-.906-1.466-2.156-1.466-3.536 0-2.762 2.238-5 5-5 2.76 0 5 2.238 5 5 0 1.38-.56 2.63-1.465 3.535zM16.898 13c1.297-1.273 2.1-3.044 2.1-5.002 0-3.866-3.133-7-7-7-3.865 0-7 3.134-7 7 0 1.958.808 3.728 2.104 4.997L7.1 13l3.485 3.483L6 21.069l1.413 1.414L16.898 13z"/></svg>