<svg xmlns="http://www.w3.org/2000/svg" version="1.1" baseProfile="full" width="24" height="24" viewBox="0 0 24.00 24.00" xml:space="preserve"><path fill="#000" fill-opacity="1" stroke-linejoin="round" d="M2.808 14.12l2.828-2.827 2.537-.507c3.217-4.376 9.38-6.564 11.605-6.564 0 2.225-2.188 8.388-6.563 11.605l-.508 2.537-2.828 2.828-.708-3.535c-1.415 0-1.415 0-2.122-.707-.707-.707-.707-.707-.707-2.122l-3.535-.707zm2.828 2.83l1.414 1.414-2.664 2.664H2.972v-1.414l2.664-2.664zm-1.414-1.414l1.237.176-2.445 2.445v-1.414l1.207-1.207zm4.066 3.005l.176 1.238-1.207 1.207H5.843l2.445-2.444zM13 9.5c-.828 0-1.5.672-1.5 1.5s.672 1.5 1.5 1.5 1.5-.672 1.5-1.5-.672-1.5-1.5-1.5z"/></svg>