<svg xmlns="http://www.w3.org/2000/svg" version="1.1" baseProfile="full" width="24" height="24" viewBox="0 0 24.00 24.00" xml:space="preserve"><path fill="#000" fill-opacity="1" stroke-width=".2" stroke-linejoin="miter" d="M4 13h16c.552 0 1 .448 1 1v4c0 .552-.448 1-1 1H4c-.552 0-1-.448-1-1v-4c0-.552.448-1 1-1zm5 4h1v-2H9v2zm-4-2v2h2v-2H5zm14-8.066l-1.404 1.404C16.15 6.892 14.148 6 11.934 6c-2.216 0-4.216.892-5.663 2.338L4.868 6.934C6.677 5.122 9.177 4 11.934 4 14.69 4 17.19 5.122 19 6.934zm-2.828 2.828l-1.406 1.406C14.043 10.446 13.044 10 11.934 10c-1.11 0-2.11.446-2.832 1.168L7.695 9.762C8.783 8.674 10.283 8 11.935 8c1.65 0 3.15.674 4.237 1.762z"/></svg>