<svg xmlns="http://www.w3.org/2000/svg" version="1.1" baseProfile="full" width="24" height="24" viewBox="0 0 24.00 24.00" xml:space="preserve"><path fill="#000" fill-opacity="1" stroke-width=".2" stroke-linejoin="round" d="M5 3h14c1.105 0 2 .895 2 2v14c0 1.105-.895 2-2 2H5c-1.105 0-2-.895-2-2V5c0-1.105.895-2 2-2zm2.5 12c-.828 0-1.5.672-1.5 1.5S6.672 18 7.5 18 9 17.328 9 16.5 8.328 15 7.5 15zM6 10v2c3.314 0 6 2.686 6 6h2c0-4.418-3.582-8-8-8zm0-4v2c5.523 0 10 4.477 10 10h2c0-6.627-5.373-12-12-12z"/></svg>