<svg xmlns="http://www.w3.org/2000/svg" version="1.1" baseProfile="full" width="24" height="24" viewBox="0 0 24.00 24.00" xml:space="preserve"><path fill="#000" fill-opacity="1" stroke-width=".2" stroke-linejoin="round" d="M1.393 18.364l1.768-1.768 1.415 1.414 1.06-1.06-1.413-1.414 1.414-1.415 2.475 2.476 1.062-1.06-2.475-2.475 1.414-1.414 1.415 1.415 1.06-1.06-1.413-1.414 1.414-1.414 2.475 2.474 1.06-1.06-2.474-2.475 1.415-1.413 1.415 1.414 1.06-1.06-1.414-1.414 1.416-1.414 2.474 2.475 1.06-1.06-2.474-2.476 1.768-1.767 4.243 4.243-16.97 16.97-4.244-4.242z"/></svg>