<svg xmlns="http://www.w3.org/2000/svg" version="1.1" baseProfile="full" width="24" height="24" viewBox="0 0 24.00 24.00" xml:space="preserve"><path fill="#000" fill-opacity="1" stroke-width=".2" stroke-linejoin="round" d="M17.117 9.998l-1.074-1.814-.733 2.868 2.49 4.54v6.406H16v-5l-2.332-3.108-1.596 4.51-4.822 2.1L6.2 19l4.194-2.473 2.512-9.853-2.107.657V11H9v-5.2l5.424-1.692.49-.072c.623 0 1.167.334 1.463.833l2 3.33H22v1.8h-4.883zM17 3.798c-.996 0-1.8-.807-1.8-1.8 0-.995.804-1.8 1.8-1.8.99 0 1.8.805 1.8 1.8 0 .993-.81 1.8-1.8 1.8zM7 9v2H4c-.552 0-1-.448-1-1s.448-1 1-1h3zm2.25 4l-.5 2H5c-.552 0-1-.448-1-1s.448-1 1-1h4.25zM7 5v2H3c-.552 0-1-.448-1-1s.448-1 1-1h4z"/></svg>