<svg xmlns="http://www.w3.org/2000/svg" version="1.1" baseProfile="full" width="24" height="24" viewBox="0 0 24.00 24.00" xml:space="preserve"><path fill="#000" fill-opacity="1" stroke-width=".2" stroke-linejoin="round" d="M18.65 2.847l.613 3.865 3.505 1.786-1.777 3.487 1.787 3.505-3.54 1.804-.61 3.86-3.886-.617-2.766 2.768-2.782-2.782-3.866.612-.615-3.885-3.486-1.777 1.786-3.505L1.233 8.48l3.51-1.788.607-3.828 3.866.612 2.782-2.78 2.767 2.766 3.885-.615zM9.5 7C8.672 7 8 7.672 8 8.5S8.672 10 9.5 10 11 9.328 11 8.5 10.328 7 9.5 7zm5 7c-.828 0-1.5.672-1.5 1.5s.672 1.5 1.5 1.5 1.5-.672 1.5-1.5-.672-1.5-1.5-1.5zm-6.086 3L17 8.414 15.586 7 7 15.586 8.414 17z"/></svg>