<svg xmlns="http://www.w3.org/2000/svg" version="1.1" baseProfile="full" width="24" height="24" viewBox="0 0 24.00 24.00" xml:space="preserve"><path fill="#000" fill-opacity="1" stroke-width="3" stroke-linejoin="round" d="M11.62 1.015l5.658 5.657-2.12 2.12-2.122-2.12-1.415 1.414 2.33 2.328-1.164 1.164.46.46c.925-.433 2.06-.267 2.825.498l-3.534 3.535c-.765-.763-.93-1.9-.498-2.825l-.46-.46-1.164 1.165-2.328-2.33-1.414 1.416 2.12 2.12-2.12 2.122-5.657-5.657 2.12-2.12 2.122 2.12 1.415-1.413-2.83-2.828c-.78-.782-.78-2.05 0-2.83l.708-.707c.78-.78 2.048-.78 2.83 0l2.827 2.83 1.414-1.416-2.12-2.12 2.12-2.122zM18 14c0 2.21-1.79 4-4 4v-2c1.105 0 2-.895 2-2h2zm4 0c0 4.418-3.582 8-8 8v-2c3.314 0 6-2.686 6-6h2z"/></svg>