<svg xmlns="http://www.w3.org/2000/svg" version="1.1" baseProfile="full" width="24" height="24" viewBox="0 0 24.00 24.00" xml:space="preserve"><path fill="#000" fill-opacity="1" stroke-width="1.333" stroke-linejoin="miter" d="M4 2c-.552 0-1 .448-1 1s.448 1 1 1c1.657 0 3 1.343 3 3v8.5c0 3.6 2.9 6.5 6.5 6.5s6.5-2.9 6.5-6.5V13c.554 0 1-.446 1-1s-.446-1-1-1h-6c-.554 0-1 .446-1 1s.446 1 1 1v2c0 .554-.446 1-1 1s-1-.446-1-1v-4c.552 0 1-.448 1-1s-.448-1-1-1V8c.552 0 1-.448 1-1s-.448-1-1-1v-.5C12 3.567 10.433 2 8.5 2H4z"/></svg>