<svg xmlns="http://www.w3.org/2000/svg" version="1.1" baseProfile="full" width="24" height="24" viewBox="0 0 24.00 24.00" xml:space="preserve"><path fill="#000" fill-opacity="1" stroke-width=".2" stroke-linejoin="round" d="M8.46 15.058l-1.413 1.414-1.37-1.372c-.86 1.106-1.433 2.442-1.615 3.9H6v2H2v-1c0-4.838 3.436-8.873 8-9.8v-2L2 5V3h20v2l-8 3.2v2c4.564.927 8 4.962 8 9.8v1h-4v-2h1.938c-.182-1.458-.756-2.794-1.614-3.9l-1.37 1.372-1.415-1.414 1.372-1.373c-1.108-.863-2.45-1.44-3.912-1.623V14h-2v-1.938c-1.463.182-2.804.76-3.91 1.623l1.37 1.373zM12 18c1.105 0 2 .895 2 2s-.895 2-2 2c-.317 0-.617-.074-.884-.205L7.268 20l3.85-1.795c.265-.13.565-.205.882-.205z"/></svg>