<svg xmlns="http://www.w3.org/2000/svg" version="1.1" baseProfile="full" width="24" height="24" viewBox="0 0 24.00 24.00" xml:space="preserve"><path fill="#000" fill-opacity="1" stroke-width="1.333" stroke-linejoin="miter" d="M12 3c-1.27.002-2.4.803-2.824 2H3v2h1.945L2 14c-.472 2 1 3 3.5 3s4.06-1 3.5-3L6.055 7h3.12c.3.853.972 1.524 1.825 1.826V20H2v2h20v-2h-9V8.824c.852-.302 1.522-.972 1.824-1.824h3.12L15 14c-.472 2 1 3 3.5 3s4.06-1 3.5-3l-2.945-7H21V5h-6.174C14.403 3.802 13.27 3 12 3zm0 2c.552 0 1 .448 1 1s-.448 1-1 1-1-.448-1-1 .448-1 1-1zm-6.5 5.25L7 14H4l1.5-3.75zm13 0L20 14h-3l1.5-3.75z"/></svg>