<svg xmlns="http://www.w3.org/2000/svg" version="1.1" baseProfile="full" width="24" height="24" viewBox="0 0 24.00 24.00" xml:space="preserve"><path fill="#000" fill-opacity="1" stroke-width="1.333" stroke-linejoin="miter" d="M20.394 19.37l-4.01-1.38L15 22l-3.077-6L9 22l-1.382-4.013-4.012 1.38 2.926-5.997C5.572 12.173 5 10.653 5 9c0-3.866 3.134-7 7-7s7 3.134 7 7c0 1.653-.573 3.173-1.532 4.37l2.926 6zM7 9l2.686 1.343-.18 2.993 2.506-1.655 2.502 1.653-.18-2.997 2.682-1.34-2.693-1.347.18-2.977-2.487 1.64L9.494 4.65l.18 3.015L7 9z"/></svg>