<svg xmlns="http://www.w3.org/2000/svg" version="1.1" baseProfile="full" width="24" height="24" viewBox="0 0 24.00 24.00" xml:space="preserve"><path fill="#000" fill-opacity="1" stroke-width=".2" stroke-linejoin="round" d="M7.588 5.41c-.777-.78-.777-2.05 0-2.833.78-.776 2.05-.776 2.832 0 .78.782.78 2.052 0 2.833-.79.79-2.05.79-2.832 0zM6 16V7.004H4V16c0 2.76 2.24 5 5 5h6v-2H9c-1.66 0-3-1.34-3-3zm14 4.07L14.93 15H11.5v-3.68c1.4 1.15 3.598 2.16 5.503 2.16v-2.16c-1.662.018-3.614-.87-4.674-2.037L10.927 7.73c-.186-.21-.43-.38-.69-.5-.287-.14-.62-.228-.955-.228h-.035c-1.24 0-2.245 1.006-2.245 2.246V15c0 1.66 1.337 2.997 2.997 2.997h5.07l3.5 3.502"/></svg>