<svg xmlns="http://www.w3.org/2000/svg" version="1.1" baseProfile="full" width="24" height="24" viewBox="0 0 24.00 24.00" xml:space="preserve"><path fill="#000" fill-opacity="1" stroke-width=".2" stroke-linejoin="round" d="M5.35 5.64c-.9-.64-1.12-1.88-.49-2.79.63-.9 1.88-1.12 2.79-.49.9.638 1.12 1.88.49 2.79-.64.9-1.88 1.12-2.79.49zM16 19H8.93c-1.48 0-2.74-1.08-2.96-2.54L4 7.003H2l1.987 9.755C4.37 19.198 6.47 21 8.94 21H16m.23-6h-4.883l-1.024-4.1c1.577.893 3.276 1.54 5.146 1.22V9.99c-1.633.307-3.44-.27-4.69-1.25L9.14 7.47c-.23-.18-.488-.302-.76-.38-.32-.087-.66-.122-.993-.06H7.37C6.137 7.25 5.32 8.42 5.53 9.64l1.348 5.92c.28 1.423 1.51 2.437 2.95 2.437h6.85l3.817 3.004 1.506-1.497"/></svg>