<svg xmlns="http://www.w3.org/2000/svg" version="1.1" baseProfile="full" width="24" height="24" viewBox="0 0 24.00 24.00" xml:space="preserve"><path fill="#000" fill-opacity="1" stroke-width=".2" stroke-linejoin="round" d="M4 3h1v2H3V4c0-.552.448-1 1-1zm16 0c.552 0 1 .448 1 1v1h-2V3h1zm-5 2V3h2v2h-2zm-4 0V3h2v2h-2zM7 5V3h2v2H7zm14 15c0 .552-.448 1-1 1h-1v-2h2v1zm-6 1v-2h2v2h-2zm-4 0v-2h2v2h-2zm-4 0v-2h2v2H7zm-3 0c-.552 0-1-.448-1-1v-1h2v2H4zm-1-6h2v2H3v-2zm18 0v2h-2v-2h2zM3 11h2v2H3v-2zm18 0v2h-2v-2h2zM3 7h2v2H3V7zm18 0v2h-2V7h2z"/></svg>