<svg xmlns="http://www.w3.org/2000/svg" version="1.1" baseProfile="full" width="24" height="24" viewBox="0 0 24.00 24.00" xml:space="preserve"><path fill="#000" fill-opacity="1" stroke-width=".2" stroke-linejoin="round" d="M13 18h1c.552 0 1 .448 1 1h.732L13 16.268V18zm9 1v1.177L20.823 19H22zm-1 2.723L19.732 23l-2-2H15c0 .552-.448 1-1 1h-4c-.552 0-1-.448-1-1H2v-2h7c0-.552.448-1 1-1h1v-2H4c-.552 0-1-.448-1-1v-4c0-.552.448-1 1-1h2.732l-2-2H4c-.552 0-1-.448-1-1v-.732l-2-2L2.277 3 21 21.723zM4 2h16c.552 0 1 .448 1 1v4c0 .552-.448 1-1 1H9.823L7 5.177V4H5.823L3.836 2.013C3.89 2.005 3.944 2 4 2zm16 8c.552 0 1 .448 1 1v4c0 .552-.448 1-1 1h-2.177l-6-6H20zM9 6h1V4H9v2zm0 8h1v-.732l-1-1V14zm-4-2v2h2v-2H5z"/></svg>