<svg xmlns="http://www.w3.org/2000/svg" version="1.1" baseProfile="full" width="24" height="24" viewBox="0 0 24.00 24.00" xml:space="preserve"><path fill="#000" fill-opacity="1" stroke-width=".2" stroke-linejoin="round" d="M4 1h16c.552 0 1 .448 1 1v4c0 .552-.448 1-1 1H8.823l-2-2H7V3H5v.177l-1.79-1.79C3.393 1.152 3.68 1 4 1zm18 21.723L20.732 24l-1-1H4c-.552 0-1-.448-1-1v-4c0-.552.448-1 1-1h9.732l-2-2H4c-.552 0-1-.448-1-1v-4c0-.552.448-1 1-1h1.732L3.68 6.947c-.295-.1-.528-.332-.627-.626L1 4.27 2.277 3 22 22.723zM20 9c.552 0 1 .448 1 1v4c0 .552-.448 1-1 1h-3.177l-6-6H20zm0 8c.552 0 1 .448 1 1v1.177L18.823 17H20zM9 5h1V3H9v2zm0 8h.732L9 12.268V13zm0 8h1v-2H9v2zM5 11v2h2v-2H5zm0 8v2h2v-2H5z"/></svg>