<svg xmlns="http://www.w3.org/2000/svg" version="1.1" baseProfile="full" width="24" height="24" viewBox="0 0 24.00 24.00" xml:space="preserve"><path fill="#000" fill-opacity="1" stroke-width=".2" stroke-linejoin="round" d="M3 1h16c.552 0 1 .448 1 1v4c0 .552-.448 1-1 1H3c-.552 0-1-.448-1-1V2c0-.552.448-1 1-1zm0 8h16c.552 0 1 .448 1 1v.667l-2.5-1.11-6.5 2.887V15H3c-.552 0-1-.448-1-1v-4c0-.552.448-1 1-1zm0 8h8.003c.057 2.252.982 4.405 2.452 6H3c-.552 0-1-.448-1-1v-4c0-.552.448-1 1-1zM8 5h1V3H8v2zm0 8h1v-2H8v2zm0 8h1v-2H8v2zM4 3v2h2V3H4zm0 8v2h2v-2H4zm0 8v2h2v-2H4zm13.5-7l4.5 2v3c0 2.776-1.92 5.368-4.5 6-2.582-.632-4.5-3.224-4.5-6v-3l4.5-2zm0 1.944l-2.5 1.11v2.668c0 1.543 1.066 2.982 2.5 3.333v-7.11z"/></svg>