<svg xmlns="http://www.w3.org/2000/svg" version="1.1" baseProfile="full" width="24" height="24" viewBox="0 0 24.00 24.00" xml:space="preserve"><path fill="#000" fill-opacity="1" stroke-width=".2" stroke-linejoin="round" d="M17.25 11.998c0 .232-.022.46-.05.683l1.48 1.16c.13.105.17.294.08.446l-1.4 2.424c-.086.152-.27.213-.427.153l-1.744-.703c-.36.277-.756.51-1.183.688l-.262 1.855c-.027.167-.172.295-.346.295h-2.8c-.175 0-.32-.128-.347-.295l-.262-1.855c-.426-.176-.82-.41-1.182-.688l-1.743.703c-.158.06-.34 0-.428-.153l-1.4-2.424c-.088-.152-.05-.34.082-.447l1.478-1.16c-.03-.223-.05-.45-.05-.682 0-.232.02-.46.05-.683l-1.48-1.158c-.13-.106-.17-.295-.08-.447l1.4-2.424c.087-.152.27-.213.427-.153l1.743.703c.36-.278.756-.512 1.183-.69l.263-1.853c.026-.167.172-.295.346-.295h2.8c.173 0 .318.128.345.295l.262 1.854c.427.177.822.412 1.183.69l1.743-.704c.158-.06.34 0 .428.153l1.4 2.424c.09.152.05.34-.08.447l-1.48 1.158c.028.224.05.45.05.683zm1.75-9H5c-1.106 0-2 .896-2 2v14c0 1.104.894 2 2 2h14c1.104 0 2-.896 2-2v-14c0-1.104-.896-2-2-2zm-7 7c-1.106 0-2 .896-2 2s.894 2 2 2c1.103 0 2-.896 2-2s-.897-2-2-2z"/></svg>