<svg xmlns="http://www.w3.org/2000/svg" version="1.1" baseProfile="full" width="24" height="24" viewBox="0 0 24.00 24.00" xml:space="preserve"><path fill="#000" fill-opacity="1" stroke-width=".2" stroke-linejoin="round" d="M12 15.498c-1.934 0-3.5-1.567-3.5-3.5s1.566-3.5 3.5-3.5c1.932 0 3.5 1.567 3.5 3.5s-1.568 3.5-3.5 3.5zm7.428-2.524c.042-.32.07-.645.07-.976 0-.33-.028-.655-.07-.976l2.113-1.654c.19-.152.244-.422.12-.638l-2-3.464c-.125-.216-.387-.304-.613-.217l-2.49 1.002c-.515-.396-1.08-.73-1.69-.983l-.374-2.65c-.038-.24-.245-.422-.494-.422h-4c-.25 0-.457.183-.495.42L9.13 5.07c-.61.253-1.175.588-1.69.984L4.95 5.05c-.225-.088-.487 0-.61.216l-2 3.464c-.126.216-.07.486.117.638l2.112 1.654c-.043.32-.07.645-.07.976 0 .33.027.656.07.976l-2.113 1.653c-.188.153-.243.423-.118.64l2 3.463c.123.216.385.304.61.217l2.49-1.003c.516.396 1.08.73 1.69.983l.375 2.65c.038.238.244.42.494.42h4c.248 0 .455-.182.493-.42l.375-2.65c.608-.253 1.173-.587 1.69-.984l2.49 1.004c.225.087.487 0 .61-.217l2-3.464c.126-.216.07-.486-.117-.64l-2.112-1.652z"/></svg>