<svg xmlns="http://www.w3.org/2000/svg" version="1.1" baseProfile="full" width="24" height="24" viewBox="0 0 24.00 24.00" xml:space="preserve"><path fill="#000" fill-opacity="1" stroke-width=".2" stroke-linejoin="round" d="M18 16.082c-.76 0-1.444.297-1.964.772L8.91 12.696C8.962 12.47 9 12.24 9 12c0-.243-.037-.474-.09-.7l7.05-4.112c.536.5 1.25.81 2.04.81 1.655 0 3-1.343 3-3 0-1.656-1.345-3-3-3-1.657 0-3 1.344-3 3 0 .242.035.473.09.698L8.037 9.81c-.536-.5-1.25-.81-2.04-.81-1.655 0-3 1.342-3 3 0 1.655 1.345 3 3 3 .79 0 1.504-.313 2.04-.812l7.124 4.156c-.048.21-.08.428-.08.655 0 1.61 1.307 2.915 2.917 2.915 1.61 0 2.916-1.306 2.916-2.916 0-1.612-1.307-2.918-2.917-2.918z"/></svg>