<svg xmlns="http://www.w3.org/2000/svg" version="1.1" baseProfile="full" width="24" height="24" viewBox="0 0 24.00 24.00" xml:space="preserve"><path fill="#000" fill-opacity="1" stroke-width=".2" stroke-linejoin="round" d="M12 12.998c-2.762 0-5-2.24-5-5h2c0 1.657 1.342 3 3 3 1.656 0 3-1.343 3-3h2c0 2.76-2.24 5-5 5zm0-10c1.656 0 3 1.343 3 3H9c0-1.657 1.342-3 3-3zm7 3h-2c0-2.76-2.24-5-5-5-2.762 0-5 2.24-5 5H5c-1.106 0-1.99.895-1.99 2l-.01 12c0 1.105.894 2 2 2h14c1.103 0 2-.895 2-2v-12c0-1.105-.897-2-2-2z"/></svg>