<svg xmlns="http://www.w3.org/2000/svg" version="1.1" baseProfile="full" width="24" height="24" viewBox="0 0 24.00 24.00" xml:space="preserve"><path fill="#000" fill-opacity="1" stroke-linejoin="round" d="M8.1 13.34L3.913 9.156c-1.562-1.563-1.562-4.095 0-5.657l7.015 7.014-2.828 2.83zM13.414 13l6.878 6.88-1.414 1.413-6.88-6.878-6.877 6.88-1.413-1.415 9.656-9.656-.206-.205c-.78-.78-.78-2.048 0-2.83l4.364-4.363.915.915-3.243 3.242.957.956 3.242-3.242.914.914-3.242 3.243.957.958 3.243-3.243.915.914-4.364 4.363c-.78.78-2.048.78-2.83 0l-.207-.208-1.363 1.363z"/></svg>