<svg xmlns="http://www.w3.org/2000/svg" version="1.1" baseProfile="full" width="24" height="24" viewBox="0 0 24.00 24.00" xml:space="preserve"><path fill="#000" fill-opacity="1" stroke-width=".2" stroke-linejoin="miter" d="M12.034 16.534c-2.666 0-3.86-1.31-3.86-2.293 0-.503.373-.856.886-.856 1.14 0 .846 1.638 2.974 1.638 1.09 0 1.692-.59 1.692-1.197 0-.365-.18-.768-.897-.945l-2.373-.592c-1.91-.48-2.256-1.51-2.256-2.482 0-2.015 1.898-2.772 3.68-2.772 1.64 0 3.576.907 3.576 2.116 0 .518-.45.82-.96.82-.975 0-.796-1.348-2.757-1.348-.974 0-1.514.44-1.514 1.07 0 .63.77.832 1.436.984l1.756.39c1.923.428 2.41 1.55 2.41 2.608 0 1.637-1.257 2.86-3.794 2.86zM18.01 5.99c2.056 2.055 2.838 4.9 2.35 7.558.407.725.64 1.56.64 2.452 0 2.76-2.24 5-5 5-.89 0-1.727-.233-2.452-.64-2.657.488-5.503-.294-7.558-2.35-2.056-2.055-2.838-4.9-2.35-7.558C3.234 9.727 3 8.892 3 8c0-2.76 2.24-5 5-5 .89 0 1.727.233 2.452.64 2.657-.488 5.503.294 7.558 2.35zM8 5C6.343 5 5 6.343 5 8c0 .788.304 1.505.8 2.04-.704 2.238-.17 4.782 1.604 6.556s4.318 2.308 6.555 1.603c.535.496 1.252.8 2.04.8 1.657 0 3-1.343 3-3 0-.788-.304-1.505-.8-2.04.704-2.238.17-4.782-1.604-6.556S12.278 5.096 10.04 5.8C9.506 5.305 8.79 5 8 5z"/></svg>