<svg xmlns="http://www.w3.org/2000/svg" version="1.1" baseProfile="full" width="24" height="24" viewBox="0 0 24.00 24.00" xml:space="preserve"><path fill="#000" fill-opacity="1" stroke-width="1.333" stroke-linejoin="miter" d="M18.01 5.99c2.056 2.055 2.838 4.9 2.35 7.558.407.725.64 1.56.64 2.452 0 2.76-2.24 5-5 5-.89 0-1.727-.233-2.452-.64-2.657.488-5.503-.294-7.558-2.35-2.056-2.055-2.838-4.9-2.35-7.558C3.234 9.727 3 8.892 3 8c0-2.76 2.24-5 5-5 .89 0 1.727.233 2.452.64 2.657-.488 5.503.294 7.558 2.35zm-5.97 11.174c2.872 0 4.296-1.385 4.296-3.24 0-1.197-.553-2.47-2.73-2.954l-1.99-.44c-.754-.174-1.625-.4-1.625-1.114 0-.714.612-1.213 1.714-1.213 2.222 0 2.02 1.526 3.122 1.526.58 0 1.088-.342 1.088-.93 0-1.368-2.19-2.396-4.05-2.396-2.018 0-4.167.857-4.167 3.14 0 1.1.392 2.268 2.556 2.81l2.685.672c.813.2 1.017.657 1.017 1.07 0 .685-.682 1.355-1.916 1.355-2.412 0-2.078-1.854-3.37-1.854-.58 0-1.002.4-1.002.97 0 1.114 1.35 2.598 4.37 2.598z"/></svg>