<svg xmlns="http://www.w3.org/2000/svg" version="1.1" baseProfile="full" width="24" height="24" viewBox="0 0 24.00 24.00" xml:space="preserve"><path fill="#000" fill-opacity="1" stroke-linejoin="round" d="M10.233 11.16l2.673-.894.86 2.573-2.672.894-.86-2.573zm7.456 2.553c.542-.182.835-.77.653-1.313-.182-.543-.77-.836-1.313-.654l-1.296.434-.862-2.573 1.296-.434c.544-.182.836-.77.654-1.312-.18-.542-.77-.835-1.312-.653l-1.296.434-.45-1.34c-.18-.544-.77-.836-1.312-.655-.543.182-.836.77-.654 1.313l.45 1.34-2.674.897-.45-1.342c-.18-.543-.77-.836-1.312-.654-.543.18-.836.77-.654 1.312l.45 1.34-1.297.435c-.542.182-.835.77-.653 1.313.143.425.533.697.957.707l.356-.053 1.296-.434.862 2.573-1.296.434c-.544.182-.836.77-.654 1.313.142.424.533.696.956.707l.356-.053 1.296-.435.45 1.34c.142.425.533.697.956.708l.356-.053c.543-.182.836-.77.654-1.313l-.45-1.34 2.674-.896.45 1.34c.142.426.532.697.956.708l.356-.053c.543-.18.836-.77.654-1.312l-.45-1.34 1.297-.435zm3.476-4.463c2.062 6.874.458 9.853-6.416 11.916-6.874 2.062-9.853.458-11.916-6.416C.772 7.876 2.376 4.897 9.25 2.834c6.874-2.062 9.853-.458 11.916 6.416z"/></svg>