<svg xmlns="http://www.w3.org/2000/svg" version="1.1" baseProfile="full" width="24" height="24" viewBox="0 0 24.00 24.00" xml:space="preserve"><path fill="#000" fill-opacity="1" stroke-linejoin="round" d="M12 20.447c-1.185.003-1.902-.504-2.534-.95-.454-.322-.88-.624-1.382-.707-1.153-.062-1.49.004-2.118.107-.105 0-.233-.023-.287-.206-.176-.752-.23-.957-.355-.976-1.345-.208-2.14-.513-2.297-.883-.034-.226.044-.323.153-.34 1.068-.177 2.017-.74 2.822-1.68.623-.725.93-1.418.962-1.495.16-.325.19-.597.097-.818-.172-.41-.746-.59-1.38-.797-.337-.133-.89-.414-.816-.802.053-.282.427-.48.95-.435.34.16.65.24.913.24.328 0 .487-.124.525-.16-.11-1.764-.206-3.29.185-4.166C8.605 3.757 11.084 3.554 12 3.552c.916.002 3.395.205 4.563 2.825.39.876.294 2.402.185 4.166.038.036.197.16.525.16.264 0 .572-.08.913-.24.523-.044.896.153.95.435.074.388-.48.67-.816.802-.634.206-1.208.388-1.38.797-.095.22-.064.493.096.818.033.077.34.77.962 1.496.805.94 1.754 1.503 2.822 1.68.108.017.186.114.152.34-.158.37-.952.676-2.297.884-.125.02-.18.224-.354.977-.053.184-.18.207-.286.207-.628-.103-.965-.17-2.118-.107-.5.083-.928.385-1.382.706-.632.447-1.35.954-2.534.95z"/></svg>