<svg xmlns="http://www.w3.org/2000/svg" version="1.1" baseProfile="full" width="24" height="24" viewBox="0 0 24.00 24.00" xml:space="preserve"><path fill="#000" fill-opacity="1" stroke-linejoin="round" d="M17 17c0 2.76-2.24 5-5 5s-5-2.24-5-5c0-1.493.655-2.834 1.692-3.75C8.255 12.61 8 11.834 8 11c0-.137.007-.272.02-.406L5.037 8.872l-.207-.16-2.544.683-.26-.966 2.216-.595L2.256 6.69l.5-.867L4.742 6.97l-.594-2.215.966-.26.682 2.545.24.1 2.695 1.555c.382-.54.895-.982 1.49-1.28C9.48 6.87 9 5.992 9 5c0-1.657 1.343-3 3-3s3 1.343 3 3c0 .99-.48 1.87-1.22 2.416.596.297 1.108.74 1.49 1.28l2.693-1.556.24-.1.683-2.544.966.26-.594 2.213 1.986-1.147.5.866-1.986 1.145 2.215.594-.26.965-2.543-.682-.207.16-2.983 1.72L16 11c0 .834-.255 1.61-.693 2.25C16.345 14.166 17 15.507 17 17z"/></svg>