<svg xmlns="http://www.w3.org/2000/svg" version="1.1" baseProfile="full" width="24" height="24" viewBox="0 0 24.00 24.00" xml:space="preserve"><path fill="#000" fill-opacity="1" stroke-width="1.333" stroke-linejoin="miter" d="M12 2C6.477 2 2 6.477 2 12s4.477 10 10 10 10-4.477 10-10S17.523 2 12 2zm0 1c1.762 0 3.396.527 4.78 1.406L16.5 5H12l-1.72-.844.345-1.03C11.075 3.055 11.53 3 12 3zm-2.47.375l-.342 1.03-2.563 1.282-1.25.25C6.48 4.73 7.917 3.842 9.53 3.376zM13 6h3l2.688 3.594-1.25 2.562-2.625.625L11.53 8.94 13 6zm-6.844.656L7 10l-1.22 3.063-2.56.874C3.08 13.313 3 12.668 3 12c0-1.895.593-3.643 1.594-5.094l1.562-.25zM20.563 9.22c.286.87.437 1.81.437 2.78 0 1.443-.365 2.79-.97 4H19l-.844-3.344 1.5-3 .907-.437zM8 10h3l2.813 3.28L12 16l-3.156.78-2.313-3.093L8 10zm4 7l3 2-.875 1.72c-.683.164-1.39.28-2.125.28-1.75 0-3.37-.512-4.75-1.375l1.156-1.72L12 17zm7 0h.5c-1.008 1.508-2.48 2.666-4.188 3.344L16 19l3-2z"/></svg>