<svg xmlns="http://www.w3.org/2000/svg" version="1.1" baseProfile="full" width="24" height="24" viewBox="0 0 24.00 24.00" xml:space="preserve"><path fill="#000" fill-opacity="1" stroke-linejoin="round" d="M7.783 7.007c1.295.036 2.224.522 2.786 1.456.562.934.836 2.098.823 3.49.003 1.552-.3 2.775-.905 3.67-.606.895-1.533 1.352-2.783 1.37-1.252-.032-2.168-.51-2.745-1.437-.578-.926-.866-2.106-.865-3.54-.005-1.464.294-2.657.896-3.58.603-.923 1.534-1.4 2.793-1.43zm-.03 1.624c-.44-.002-.79.274-1.05.83-.258.555-.388 1.407-.387 2.555-.003 1.134.123 1.977.38 2.53.254.552.61.827 1.07.824.925 0 1.393-1.13 1.406-3.385C9.17 9.77 8.696 8.65 7.752 8.63zm5.58 8.363V15.22l.423.022.543-.022 1.035-.193c.342-.104.65-.252.927-.442.326-.235.597-.508.81-.82.215-.314.37-.642.463-.984l-.047-.012c-.44.418-1.112.632-2.018.64-.85-.004-1.558-.256-2.126-.757-.57-.5-.864-1.22-.887-2.155.017-.987.356-1.808 1.017-2.465.662-.657 1.544-.998 2.648-1.023 1.246.03 2.164.44 2.755 1.23.59.787.884 1.773.88 2.955-.006.96-.15 1.816-.436 2.565-.285.748-.685 1.375-1.198 1.88-.46.418-1.01.74-1.652.97-.64.227-1.35.356-2.128.386h-1.008zM16.06 8.63c-.41.008-.744.167-1 .478-.253.31-.38.728-.38 1.25-.002.438.116.806.352 1.107.236.3.594.457 1.075.47.32-.006.59-.07.81-.196.22-.125.384-.277.494-.457.08-.116.122-.308.125-.576.005-.544-.107-1.02-.336-1.43-.23-.41-.61-.625-1.14-.646zM9.25 5l3.25-3.25L15.75 5h-6.5zm6.5 14l-3.25 3.25L9.25 19h6.5z"/></svg>