<svg xmlns="http://www.w3.org/2000/svg" version="1.1" baseProfile="full" width="24" height="24" viewBox="0 0 24.00 24.00" xml:space="preserve"><path fill="#000" fill-opacity="1" stroke-linejoin="round" d="M9.25 5l3.25-3.25L15.75 5h-6.5zm6.5 14l-3.25 3.25L9.25 19h6.5zm-6.86-4.697H6l-.72 2.688H2.915L6 7.005h2.996l3.13 9.987H9.67l-.78-2.687zM6.33 12.68h2.23l-.628-2.123-.266-.965-.243-.964h-.03l-.227.973-.237.982-.6 2.097zm6.725 4.297v-1.233L17.8 8.97v-.057h-4.302V7.018h7.23V8.34l-4.643 6.684v.058H20.8v1.895h-7.745z"/></svg>