<svg xmlns="http://www.w3.org/2000/svg" version="1.1" baseProfile="full" width="24" height="24" viewBox="0 0 24.00 24.00" xml:space="preserve"><path fill="#000" fill-opacity="1" stroke-width=".2" stroke-linejoin="round" d="M11.56 8.875V17h8.763v-.01C22.168 16.873 23 15.727 23 14.33c0-1.476-1.115-2.67-2.616-2.67-.386 0-.703.08-1.038.224-.24-2.342-2.227-4.173-4.674-4.173-1.196 0-2.284.44-3.113 1.165zm-.877 1.017c-.3-.18-.625-.318-.97-.414V17h1.384V9.337c-.15.173-.29.36-.414.555zm-2.354-.54V17h.922V9.38c-.19-.03-.384-.04-.582-.04-.115 0-.23.004-.34.01zm-1.845.645V17h.922V9.544c-.33.11-.64.264-.922.453zm-1.653 2.525c-.063-.04-.125-.078-.192-.113V17h.922v-6.138c-.367.48-.623 1.044-.73 1.66zm-2.037-.303v4.687c.218.06.448.093.684.093h.237v-4.864c-.08-.008-.158-.013-.24-.013-.236 0-.465.035-.682.096zM1 14.562c0 .743.34 1.408.872 1.858v-3.715C1.34 13.152 1 13.82 1 14.563z"/></svg>