<svg xmlns="http://www.w3.org/2000/svg" version="1.1" baseProfile="full" width="24" height="24" viewBox="0 0 24.00 24.00" xml:space="preserve"><path fill="#000" fill-opacity="1" stroke-width="1.333" stroke-linejoin="round" d="M6 2c2.21 0 4 1.79 4 4 0 1.864-1.275 3.43-3 3.874v4.252c1.725.444 3 2.01 3 3.874 0 2.21-1.79 4-4 4s-4-1.79-4-4c0-1.864 1.275-3.43 3-3.874V9.874C3.275 9.43 2 7.864 2 6c0-2.21 1.79-4 4-4zm0 2c-1.105 0-2 .895-2 2s.895 2 2 2 2-.895 2-2-.895-2-2-2zm0 12c-1.105 0-2 .895-2 2s.895 2 2 2 2-.895 2-2-.895-2-2-2zm16 2c0 2.21-1.79 4-4 4s-4-1.79-4-4c0-1.864 1.275-3.43 3-3.874V7h-2v3.25L10.75 6 15 1.75V5h2c1.105 0 2 .895 2 2v7.126c1.725.444 3 2.01 3 3.874zm-4-2c-1.105 0-2 .895-2 2s.895 2 2 2 2-.895 2-2-.895-2-2-2z"/></svg>