<svg xmlns="http://www.w3.org/2000/svg" version="1.1" baseProfile="full" width="24" height="24" viewBox="0 0 24.00 24.00" xml:space="preserve"><path fill="#000" fill-opacity="1" stroke-width=".2" stroke-linejoin="round" d="M13 14c-3.356 0-4.46 1.35-4.822 2.24C9.248 16.698 10 17.76 10 19c0 1.657-1.343 3-3 3s-3-1.343-3-3c0-1.306.835-2.418 2-2.83V7.83C4.835 7.416 4 6.305 4 5c0-1.657 1.343-3 3-3s3 1.343 3 3c0 1.306-.835 2.417-2 2.83v5.292C8.884 12.47 10.16 12 12 12c2.67 0 3.56-1.338 3.853-2.227C14.765 9.323 14 8.25 14 7c0-1.657 1.343-3 3-3s3 1.343 3 3c0 1.34-.88 2.475-2.092 2.86C17.652 11.29 16.68 14 13 14zm-6 4c-.552 0-1 .448-1 1s.448 1 1 1 1-.448 1-1-.448-1-1-1zM7 4c-.552 0-1 .448-1 1s.448 1 1 1 1-.448 1-1-.448-1-1-1zm10 2c-.552 0-1 .448-1 1s.448 1 1 1 1-.448 1-1-.448-1-1-1z"/></svg>