<svg xmlns="http://www.w3.org/2000/svg" version="1.1" baseProfile="full" width="24" height="24" viewBox="0 0 24.00 24.00" xml:space="preserve"><path fill="#000" fill-opacity="1" stroke-width="1.333" stroke-linejoin="round" d="M16 19c0 2.21-1.79 4-4 4s-4-1.79-4-4c0-1.864 1.275-3.43 3-3.874 0-.654 0-1.308-.715-2.345-.715-1.035-2.144-2.455-3.574-3.874-.68.127-1.4.08-2.098-.175-2.076-.755-3.146-3.05-2.39-5.126.755-2.076 3.05-3.146 5.126-2.39 2.076.755 3.147 3.05 2.39 5.126-.253.697-.68 1.28-1.214 1.72C8.928 9.438 12 12 12 12.5c0-.5 3.072-3.062 3.476-4.44-.534-.44-.96-1.023-1.215-1.72-.755-2.076.316-4.37 2.392-5.127 2.076-.755 4.37.315 5.127 2.39.754 2.077-.316 4.372-2.392 5.128-.697.255-1.42.303-2.1.176-1.43 1.42-2.858 2.84-3.573 3.875C13 13.82 13 14.473 13 15.127c1.725.444 3 2.01 3 3.874zm-4-2c-1.105 0-2 .895-2 2s.895 2 2 2 2-.895 2-2-.895-2-2-2zM6.664 3.093C5.626 2.715 4.48 3.25 4.1 4.288c-.377 1.038.158 2.186 1.196 2.564 1.038.377 2.186-.158 2.564-1.196.377-1.038-.158-2.185-1.196-2.563zm10.672 0c-1.038.378-1.573 1.525-1.195 2.563.378 1.038 1.526 1.573 2.564 1.196 1.038-.378 1.573-1.526 1.195-2.564-.378-1.038-1.526-1.573-2.564-1.195z"/></svg>