<svg xmlns="http://www.w3.org/2000/svg" version="1.1" baseProfile="full" width="24" height="24" viewBox="0 0 24.00 24.00" xml:space="preserve"><path fill="#000" fill-opacity="1" stroke-width=".2" stroke-linejoin="round" d="M2 5.27L3.277 4 21 21.723 19.732 23l-1.46-1.46c-.346.286-.79.458-1.273.458l-10-.01c-1.106 0-2-.886-2-1.99V8.268l-3-3zm10 12.728c-1.657 0-3-1.344-3-3 0-.76.282-1.453.748-1.982L8.332 11.6C7.505 12.492 7 13.686 7 14.998c0 2.762 2.24 5 5 5 1.31 0 2.505-.505 3.398-1.332L13.98 17.25c-.527.465-1.22.748-1.98.748zm5-3c0-2.762-2.24-5-5-5l-.176.003-6.7-6.7C5.407 2.54 6.14 2 7 2h10c1.103 0 2 .896 2 2v13.18l-2.004-2.004.003-.176zm-5-11c-1.107 0-2 .896-2 2s.893 2 2 2c1.102 0 2-.896 2-2s-.898-2-2-2z"/></svg>