<svg xmlns="http://www.w3.org/2000/svg" version="1.1" baseProfile="full" width="24" height="24" viewBox="0 0 24.00 24.00" xml:space="preserve"><path fill="#000" fill-opacity="1" stroke-width=".2" stroke-linejoin="round" d="M12 11.998c-1.657 0-3 1.344-3 3s1.343 3 3 3c1.655 0 3-1.344 3-3s-1.345-3-3-3zm0 8c-2.76 0-5-2.238-5-5s2.24-5 5-5 5 2.238 5 5-2.24 5-5 5zm0-16c1.102 0 2 .896 2 2s-.898 2-2 2c-1.107 0-2-.896-2-2s.893-2 2-2zm5-2H7c-1.106 0-2 .896-2 2v16c0 1.104.894 1.99 2 1.99l10 .01c1.103 0 2-.896 2-2v-16c0-1.104-.897-2-2-2z"/></svg>