<svg xmlns="http://www.w3.org/2000/svg" version="1.1" baseProfile="full" width="24" height="24" viewBox="0 0 24.00 24.00" xml:space="preserve"><path fill="#000" fill-opacity="1" stroke-width="1.333" stroke-linejoin="round" d="M12 16c-1.657 0-3-1.343-3-3 0-1.12.613-2.095 1.52-2.61l9.688-5.615-5.53 9.576c-.493.98-1.507 1.65-2.678 1.65zm0-13c1.808 0 3.504.48 4.967 1.32L14.87 5.53C13.98 5.188 13.01 5 12 5c-4.418 0-8 3.582-8 8 0 2.208.895 4.207 2.34 5.655l.006-.006c.39.39.39 1.023 0 1.414-.39.39-1.02.39-1.412.002l-.005.005C3.12 18.26 2 15.76 2 13 2 7.477 6.477 3 12 3zm10 10c0 2.76-1.12 5.26-2.93 7.07-.392.384-1.02.383-1.41-.006-.39-.39-.39-1.024 0-1.415l.002.002C19.107 17.204 20 15.206 20 13c0-1.022-.192-2-.54-2.897l1.208-2.093C21.515 9.478 22 11.183 22 13z"/></svg>