<svg xmlns="http://www.w3.org/2000/svg" version="1.1" baseProfile="full" width="24" height="24" viewBox="0 0 24.00 24.00" xml:space="preserve"><path fill="#000" fill-opacity="1" stroke-linejoin="round" d="M2 6l5.093 2.546C6.403 9.523 6 10.714 6 12s.404 2.477 1.093 3.454L2 18V6zm4-3h12l-2.546 4.093C14.476 6.403 13.285 6 12 6s-2.477.404-3.454 1.093L6 3zm16 3v12l-5.093-2.546C17.597 14.476 18 13.285 18 12s-.404-2.477-1.093-3.454L22 6zm-4 15H6l2.546-4.093C9.523 17.597 10.714 18 12 18s2.477-.404 3.454-1.093L18 21zM12 8c2.21 0 4 1.79 4 4s-1.79 4-4 4-4-1.79-4-4 1.79-4 4-4zm0 2c-1.105 0-2 .895-2 2s.895 2 2 2 2-.895 2-2-.895-2-2-2z"/></svg>