<svg xmlns="http://www.w3.org/2000/svg" version="1.1" baseProfile="full" width="24" height="24" viewBox="0 0 24.00 24.00" xml:space="preserve"><path fill="#000" fill-opacity="1" stroke-width=".2" stroke-linejoin="round" d="M5.5 0h13C21.538 0 24 2.462 24 5.5v13c0 3.038-2.462 5.5-5.5 5.5h-13C2.462 24 0 21.538 0 18.5v-13C0 2.462 2.462 0 5.5 0zm9.885 15.18c0 1.58-.893 2.625-2.534 2.77l.002-5.34c1.698.525 2.533 1.05 2.533 2.57zM11.65 6.017v4.865c-1.313-.356-2.62-.95-2.62-2.453 0-1.484 1.15-2.312 2.62-2.41zm3.856 1.58l1.013-.792c-.9-1.146-2.12-1.88-3.67-2.038V3.8h-1.2v.947c-2.126.138-3.97 1.425-3.97 3.76 0 2.493 2.062 3.27 3.97 3.785v5.668c-1.114-.118-2.362-.648-3.216-1.935l-1.133.752c.896 1.346 2.462 2.2 4.35 2.36V20.2h1.201l.002-1.04c2.495-.185 3.847-1.824 3.847-4.02 0-2.56-1.888-3.376-3.848-3.95V6.047c1.134.17 1.993.717 2.654 1.55z"/></svg>