<svg xmlns="http://www.w3.org/2000/svg" version="1.1" baseProfile="full" width="24" height="24" viewBox="0 0 24.00 24.00" xml:space="preserve"><path fill="#000" fill-opacity="1" stroke-width=".2" stroke-linejoin="round" d="M20.143 7.786c1.183 0 2.143.96 2.143 2.143 0 1.182-.96 2.14-2.143 2.14-1.184 0-2.143-.958-2.143-2.14 0-1.185.96-2.144 2.143-2.144zM3 6.93c1.657 0 3 1.342 3 3l-.016.313 6.35 3.293c.502-.38 1.13-.607 1.81-.607l2.142-3c0-2.132 1.727-3.86 3.857-3.86S24 7.8 24 9.93c0 2.13-1.727 3.856-3.857 3.856l-3 2.143c0 1.655-1.343 3-3 3s-3-1.345-3-3c0-.04 0-.076.002-.114l-6.507-3.374c-.47.308-1.033.487-1.638.487-1.657 0-3-1.345-3-3 0-1.658 1.343-3 3-3zm12.033 8.006c.633.323.884 1.097.562 1.73-.322.632-1.097.884-1.73.56l-1.837-.952c.165 1.02 1.05 1.797 2.115 1.797 1.183 0 2.143-.958 2.143-2.14 0-1.185-.96-2.144-2.143-2.144-.33 0-.645.075-.925.21l1.815.94zM3 7.786c-1.183 0-2.143.96-2.143 2.143 0 1.182.96 2.14 2.143 2.14.245 0 .48-.04.7-.115l-1.424-.738c-.633-.322-.884-1.097-.562-1.73.323-.632 1.097-.883 1.73-.56l1.695.878C5.075 8.68 4.14 7.785 3 7.785zm17.143-.857c-1.657 0-3 1.342-3 3 0 1.655 1.343 3 3 3s3-1.345 3-3c0-1.658-1.343-3-3-3z"/></svg>