<svg xmlns="http://www.w3.org/2000/svg" version="1.1" baseProfile="full" width="24" height="24" viewBox="0 0 24.00 24.00" xml:space="preserve"><path fill="#000" fill-opacity="1" stroke-linejoin="round" d="M18.996 7.99c.564 0 1 .436 1 1 0 .564-.436 1-1 1-.564 0-1-.436-1-1 0-.564.436-1 1-1zm-17-6.01v9c.003 2.98 2.19 5.5 5.14 5.93C7.763 19.92 10.42 22 13.5 22c3.59 0 6.5-2.91 6.5-6.5v-3.69c1.16-.417 2-1.52 2-2.81 0-1.65-1.35-3-3-3s-3 1.35-3 3c0 1.29.843 2.4 2 2.81l.004 3.6c0 2.5-2 4.5-4.5 4.5-2 0-3.684-1.21-4.284-3.01C12 16.3 14 13.8 14 11V2h-4v3h2v6c0 2.21-1.79 4-4 4s-4-1.8-4-4V5h2V2l-4.004-.02z"/></svg>