<svg xmlns="http://www.w3.org/2000/svg" version="1.1" baseProfile="full" width="24" height="24" viewBox="0 0 24.00 24.00" xml:space="preserve"><path fill="#000" fill-opacity="1" stroke-width="1.333" stroke-linejoin="miter" d="M12.122 18.46l6.177-6.176c-1.36.302-2.986.92-4.235 2.173-1.025 1.03-1.675 2.37-1.943 4.004zm8.632-8.464l.29.005c.396.02.744.27.886.64.143.368.054.787-.226 1.067l-10 10c-.19.19-.446.293-.707.293l-.36-.068c-.37-.142-.62-.49-.638-.884-.163-3.39.733-6.087 2.66-8.014 2.832-2.832 6.96-3.038 8.094-3.038zm-8.754-8c4.52 0 8.34 3 9.577 7.116l-1.59-.115-.568.015c-1.184-2.94-4.063-5.015-7.425-5.015-4.42 0-8 3.582-8 8 0 3.363 2.076 6.242 5.016 7.426-.038.71-.007 1.43.098 2.15C4.995 20.333 2 16.515 2 11.997c0-5.522 4.477-10 10-10z"/></svg>