<svg xmlns="http://www.w3.org/2000/svg" version="1.1" baseProfile="full" width="24" height="24" viewBox="0 0 24.00 24.00" xml:space="preserve"><path fill="#000" fill-opacity="1" stroke-width=".2" stroke-linejoin="round" d="M6 14h2l3 3H9l-3-3zM4 4h1V3c0-.552.448-1 1-1h4c.552 0 1 .448 1 1v1h2V3c0-.552.448-1 1-1h4c.552 0 1 .448 1 1v1h1c1.105 0 2 .895 2 2v13c0 1.105-.895 2-2 2v1h-3v-1H7v1H4v-1c-1.105 0-2-.895-2-2V6c0-1.105.895-2 2-2zm14 3c.552 0 1 .448 1 1s-.448 1-1 1-1-.448-1-1 .448-1 1-1zm-4 0c.552 0 1 .448 1 1s-.448 1-1 1-1-.448-1-1 .448-1 1-1zm6-1H4v4h16V6zM4 19h16v-7H4v7zM6 7c.552 0 1 .448 1 1s-.448 1-1 1-1-.448-1-1 .448-1 1-1zm7 7h2l3 3h-2l-3-3z"/></svg>