<svg xmlns="http://www.w3.org/2000/svg" version="1.1" baseProfile="full" width="24" height="24" viewBox="0 0 24.00 24.00" xml:space="preserve"><path fill="#000" fill-opacity="1" stroke-width=".2" stroke-linejoin="round" d="M18 10.998h-5v-5h5m-1.5 11c-.83 0-1.5-.672-1.5-1.5s.67-1.5 1.5-1.5c.828 0 1.5.672 1.5 1.5s-.672 1.5-1.5 1.5zm-5.5-6H6v-5h5m-3.5 11c-.83 0-1.5-.672-1.5-1.5s.67-1.5 1.5-1.5c.828 0 1.5.672 1.5 1.5s-.672 1.5-1.5 1.5zm4.5-15c-4.42 0-8 .5-8 4v9.5c0 1.933 1.568 3.5 3.5 3.5l-1.5 1.5v.5h12v-.5l-1.5-1.5c1.934 0 3.5-1.567 3.5-3.5v-9.5c0-3.5-3.583-4-8-4z"/></svg>