<svg xmlns="http://www.w3.org/2000/svg" version="1.1" baseProfile="full" width="24" height="24" viewBox="0 0 24.00 24.00" xml:space="preserve"><path fill="#000" fill-opacity="1" stroke-linejoin="round" d="M6.997 17h-3c-1.617 0-3.04-1.257-3.24-2.86L.26 11.148C.15 10.303.39 9.506.907 8.92 1.425 8.337 2.186 8 2.998 8h6c.834 0 1.584.348 2.058.955.12.152.217.318.296.492.425-.09.866-.09 1.292 0 .078-.175.176-.34.295-.492.473-.607 1.223-.955 2.057-.955h6c.812 0 1.572.336 2.09.92.516.587.755 1.384.654 2.19l-.51 3.07C23.037 15.744 21.614 17 20 17h-3c-1.562 0-3.08-1.186-3.456-2.7l-.9-2.713c-.384-.278-.91-.277-1.293 0l-.918 2.786C10.074 15.815 8.556 17 6.997 17z"/></svg>