<svg xmlns="http://www.w3.org/2000/svg" version="1.1" baseProfile="full" width="24" height="24" viewBox="0 0 24.00 24.00" xml:space="preserve"><path fill="#000" fill-opacity="1" stroke-linejoin="round" d="M2 18c2.222-1 4.444-2 6.667-2 2.222 0 4.444 2 6.666 2 2.223 0 4.445-2 6.667-2v3c-2.222 0-4.444 2-6.667 2-2.222 0-4.444-2-6.666-2C6.444 19 4.222 20 2 21v-3zm6.667-5c-.772 0-1.544.12-2.316.32l4.92-3.444-1.036-1.233C10.088 8.47 10 8.245 10 8c0-.344.174-.647.438-.827l5.722-4.007 1.148 1.638-4.84 3.39 5.228 6.23c-.788.325-1.575.576-2.363.576-2.222 0-4.444-2-6.666-2zM18 7c1.105 0 2 .895 2 2s-.895 2-2 2-2-.895-2-2 .895-2 2-2z"/></svg>