<svg xmlns="http://www.w3.org/2000/svg" version="1.1" baseProfile="full" width="24" height="24" viewBox="0 0 24.00 24.00" xml:space="preserve"><path fill="#000" fill-opacity="1" stroke-width=".2" stroke-linejoin="round" d="M21.704 13.35L20.7 14.355 18.646 12.3l1.003-1.004c.214-.214.56-.214.774 0l1.28 1.28c.214.214.214.56 0 .775zm-9.7 5.592l6.06-6.06 2.055 2.053-6.062 6.06h-2.054v-2.053zM4 2h14c1.105 0 2 .895 2 2v4.172L16.172 12H12v4.172L10.172 18H4c-1.105 0-2-.895-2-2V4c0-1.105.895-2 2-2zm0 4v4h6V6H4zm8 0v4h6V6h-6zm-8 6v4h6v-4H4z"/></svg>