<svg xmlns="http://www.w3.org/2000/svg" version="1.1" baseProfile="full" width="24" height="24" viewBox="0 0 24.00 24.00" xml:space="preserve"><path fill="#000" fill-opacity="1" stroke-width=".2" stroke-linejoin="round" d="M5.5 7C6.327 7 7 6.326 7 5.5 7 4.67 6.327 4 5.5 4 4.67 4 4 4.67 4 5.5 4 6.326 4.67 7 5.5 7zm15.91 4.58c.364.362.59.864.59 1.42 0 .55-.224 1.05-.586 1.413l-7 7c-.362.36-.862.586-1.415.586-.552 0-1.052-.225-1.415-.587l-8.998-8.998C2.224 12.053 2 11.552 2 11V4c0-1.106.895-2 2-2h7c.552 0 1.052.222 1.414.584l8.996 8.996zM13 20l7-7-8.5-8.5-7 7L13 20zM10.086 8.914L11.5 7.5 17 13l-1.414 1.414-5.5-5.5zm-2.5 2.5L9 10l4 4-1.414 1.414-4-4z"/></svg>