<svg xmlns="http://www.w3.org/2000/svg" version="1.1" baseProfile="full" width="24" height="24" viewBox="0 0 24.00 24.00" xml:space="preserve"><path fill="#000" fill-opacity="1" stroke-width=".2" stroke-linejoin="round" d="M5.5 9C6.327 9 7 8.327 7 7.5 7 6.67 6.327 6 5.5 6 4.67 6 4 6.67 4 7.5 4 8.327 4.67 9 5.5 9zm11.91 2.58c.364.362.59.864.59 1.42 0 .55-.224 1.05-.586 1.413l-5 5c-.362.36-.862.586-1.415.586-.552 0-1.052-.225-1.415-.587l-6.998-6.998C2.224 12.053 2 11.552 2 11V6c0-1.105.895-2 2-2h5c.552 0 1.052.222 1.414.584l6.996 6.996zm-3.874-5.874l1-1 6.875 6.875c.365.363.59.865.59 1.42 0 .552-.223 1.05-.585 1.414l-5.38 5.38-1-1L20.75 13l-7.214-7.294z"/></svg>