<svg xmlns="http://www.w3.org/2000/svg" version="1.1" baseProfile="full" width="24" height="24" viewBox="0 0 24.00 24.00" xml:space="preserve"><path fill="#000" fill-opacity="1" stroke-width=".2" stroke-linejoin="round" d="M15 17.998c-3.316 0-6-2.686-6-6s2.684-6 6-6c3.314 0 6 2.686 6 6s-2.686 6-6 6zm-11-5c-.552 0-1-.448-1-1s.448-1 1-1c.55 0 1 .448 1 1s-.45 1-1 1zm18-9.99l-14.37-.01c-.662 0-1.25.32-1.614.816L0 12.004l6.016 8.178c.365.495.952.816 1.613.816H22c1.103 0 2-.895 2-2v-14c0-1.105-.897-1.99-2-1.99zm-9 7.99c.552 0 1-.448 1-1s-.448-1-1-1-1 .448-1 1 .448 1 1 1zm2 5c1.862 0 3.353-1.278 3.8-3h-7.6c.446 1.722 1.937 3 3.8 3zm2-5c.552 0 1-.448 1-1s-.448-1-1-1-1 .448-1 1 .448 1 1 1z"/></svg>