<svg xmlns="http://www.w3.org/2000/svg" version="1.1" baseProfile="full" width="24" height="24" viewBox="0 0 24.00 24.00" xml:space="preserve"><path fill="#000" fill-opacity="1" stroke-width=".2" stroke-linejoin="round" d="M5.5 7C4.67 7 4 6.326 4 5.5 4 4.67 4.67 4 5.5 4 6.327 4 7 4.67 7 5.5 7 6.326 6.327 7 5.5 7zm15.91 4.58l-8.996-8.996C12.052 2.222 11.552 2 11 2H4c-1.105 0-2 .894-2 2v7c0 .552.224 1.053.587 1.415l8.998 8.998c.363.362.863.586 1.414.586.552 0 1.052-.226 1.414-.587l7-7C21.776 14.05 22 13.55 22 13c0-.556-.226-1.058-.59-1.42z"/></svg>