<svg xmlns="http://www.w3.org/2000/svg" version="1.1" baseProfile="full" width="24" height="24" viewBox="0 0 24.00 24.00" xml:space="preserve"><path fill="#000" fill-opacity="1" stroke-width="1.333" stroke-linejoin="miter" d="M17.92 13c-.42 2.5-2.42 4.5-4.92 4.92V16h-2v1.92C8.5 17.5 6.5 15.5 6.08 13H8v-2H6.08C6.5 8.5 8.5 6.5 11 6.08V8h2V6.08c2.5.42 4.5 2.42 4.92 4.92H16v2h1.92m2.02-2C19.5 7.38 16.62 4.5 13 4.06V2h-2v2.06C7.38 4.5 4.5 7.38 4.06 11H2v2h2.06c.44 3.62 3.32 6.5 6.94 6.94V22h2v-2.06c3.62-.44 6.5-3.32 6.94-6.94H22v-2h-2.06M12 10c1.105 0 2 .895 2 2s-.895 2-2 2-2-.895-2-2 .895-2 2-2z"/></svg>