<svg xmlns="http://www.w3.org/2000/svg" version="1.1" baseProfile="full" width="24" height="24" viewBox="0 0 24.00 24.00" xml:space="preserve"><path fill="#000" fill-opacity="1" stroke-width=".2" stroke-linejoin="round" d="M16.5 5c1.55 0 2.993.47 4.19 1.278l-1.16 2.895C18.73 8.445 17.668 8 16.5 8c-2.485 0-4.5 2.015-4.5 4.5s2.015 4.5 4.5 4.5c1.027 0 1.974-.344 2.73-.923l1.14 2.85C19.24 19.606 17.916 20 16.5 20 12.358 20 9 16.642 9 12.5 9 8.358 12.358 5 16.5 5zM6 3c1.657 0 3 1.343 3 3S7.657 9 6 9 3 7.657 3 6s1.343-3 3-3zm0 2c-.552 0-1 .448-1 1s.448 1 1 1 1-.448 1-1-.448-1-1-1z"/></svg>