<svg xmlns="http://www.w3.org/2000/svg" version="1.1" baseProfile="full" width="24" height="24" viewBox="0 0 24.00 24.00" xml:space="preserve"><path fill="#000" fill-opacity="1" stroke-linejoin="round" d="M12 2c2.482 0 4.752.904 6.5 2.4C16.358 6.234 15 8.96 15 12s1.358 5.765 3.5 7.6C16.752 21.096 14.482 22 12 22s-4.752-.904-6.5-2.4C7.642 17.765 9 15.04 9 12S7.642 6.234 5.5 4.4C7.248 2.904 9.518 2 12 2zm10 10c0 2.32-.79 4.455-2.115 6.15C18.122 16.685 17 14.474 17 12c0-2.473 1.122-4.684 2.885-6.15C21.21 7.544 22 9.68 22 12zM2 12c0-2.32.79-4.455 2.115-6.15C5.878 7.315 7 9.526 7 12c0 2.473-1.122 4.684-2.885 6.15C2.79 16.456 2 14.32 2 12z"/></svg>