<svg xmlns="http://www.w3.org/2000/svg" version="1.1" baseProfile="full" width="24" height="24" viewBox="0 0 24.00 24.00" xml:space="preserve"><path fill="#000" fill-opacity="1" stroke-width=".2" stroke-linejoin="round" d="M2 5.268L3.277 4 20 20.723 18.732 22l-5.348-5.348c-.838 1.697-2.455 2.94-4.384 3.265V22H7v-2.083C4.162 19.44 2 16.973 2 14h2c0 2.21 1.79 4 4 4 1.823 0 3.362-1.22 3.843-2.888L10 13.268V14c0 1.105-.895 2-2 2s-2-.895-2-2V9.268l-4-4zm19.414 4.146l-4.242 4.243L18.176 10H14c-1.105 0-2-.895-2-2V4c0-1.105.895-2 2-2h6c1.105 0 2 .895 2 2v4c0 .552-.224 1.052-.586 1.414z"/></svg>