<svg xmlns="http://www.w3.org/2000/svg" version="1.1" baseProfile="full" width="24" height="24" viewBox="0 0 24.00 24.00" xml:space="preserve"><path fill="#000" fill-opacity="1" stroke-width=".2" stroke-linejoin="round" d="M8 7c1.105 0 2 .895 2 2v5c0 1.105-.895 2-2 2s-2-.895-2-2V9c0-1.105.895-2 2-2zm6 7c0 2.973-2.162 5.44-5 5.917V22H7v-2.083C4.162 19.44 2 16.973 2 14h2c0 2.21 1.79 4 4 4s4-1.79 4-4h2zm7.414-4.586l-4.242 4.243L18.176 10H14c-1.105 0-2-.895-2-2V4c0-1.105.895-2 2-2h6c1.105 0 2 .895 2 2v4c0 .552-.224 1.052-.586 1.414z"/></svg>