<svg xmlns="http://www.w3.org/2000/svg" version="1.1" baseProfile="full" width="24" height="24" viewBox="0 0 24.00 24.00" xml:space="preserve"><path fill="#000" fill-opacity="1" stroke-width=".2" stroke-linejoin="round" d="M4 15h2c1.105 0 2 .895 2 2v2h1v-2c0-1.105.895-2 2-2h2c1.105 0 2 .895 2 2v2h1v-2c0-1.105.895-2 2-2h2c1.105 0 2 .895 2 2v2h1v3H1v-3h1v-2c0-1.105.895-2 2-2zm7-8l4 3-4 3V7zM4 2h16c1.105 0 2 .895 2 2v9.535c-.588-.34-1.27-.535-2-.535V4H4v9c-.73 0-1.412.195-2 .535V4c0-1.105.895-2 2-2z"/></svg>