<svg xmlns="http://www.w3.org/2000/svg" version="1.1" baseProfile="full" width="24" height="24" viewBox="0 0 24.00 24.00" xml:space="preserve"><path fill="#000" fill-opacity="1" stroke-linejoin="round" d="M7.5 2c-1.79 1.15-3 3.184-3 5.5s1.21 4.35 3.034 5.5C4.462 13 2 10.538 2 7.5S4.462 2 7.5 2zm11.57 1.515l1.415 1.414L4.93 20.484 3.514 19.07 19.07 3.516zm-6.18 2.42L11.405 5l-1.44 1 .43-1.7L9 3.24l1.748-.117.58-1.655.65 1.627 1.752.04-1.345 1.12.504 1.68zM9.585 9.536L8.433 8.81l-1.12.778.333-1.322L6.56 7.44l1.36-.09.45-1.287.508 1.265 1.363.03-1.046.873.392 1.307zM19 13.5c0 3.038-2.462 5.5-5.5 5.5-1.222 0-2.35-.398-3.263-1.072l7.69-7.69C18.603 11.15 19 12.277 19 13.5zm-4.4 6.582l2.773-1.148-.238 3.346-2.534-2.198zm4.33-2.697l1.15-2.772 2.196 2.534-3.346.238zm1.154-4.97l-1.148-2.77 3.346.237-2.198 2.534zM9.63 18.93l2.77 1.147-2.534 2.197-.237-3.346z"/></svg>