<svg xmlns="http://www.w3.org/2000/svg" version="1.1" baseProfile="full" width="24" height="24" viewBox="0 0 24.00 24.00" xml:space="preserve"><path fill="#000" fill-opacity="1" stroke-width=".2" stroke-linejoin="round" d="M17 3h4v2h-4V3zm0 4h4v2h-4V7zm0 4h4v2h-3.255L17 12.1V11zm4 4v2h-2c0-.695-.1-1.366-.29-2H21zm-4 2c0 2.76-2.24 5-5 5s-5-2.24-5-5c0-1.636.786-3.088 2-4V5c0-1.657 1.343-3 3-3s3 1.343 3 3v8c1.214.912 2 2.364 2 4zm-6-9v6.17c-1.165.412-2 1.524-2 2.83 0 1.657 1.343 3 3 3s3-1.343 3-3c0-1.306-.835-2.418-2-2.83V8h-2zM7 3v2H3V3h4zm0 4v2H3V7h4zm0 4v1.1l-.745.9H3v-2h4zm-4 4h2.29c-.19.634-.29 1.305-.29 2H3v-2z"/></svg>