<svg xmlns="http://www.w3.org/2000/svg" version="1.1" baseProfile="full" width="24" height="24" viewBox="0 0 24.00 24.00" xml:space="preserve"><path fill="#000" fill-opacity="1" stroke-width=".2" stroke-linejoin="round" d="M5 9v12H1V9h4zm4 12c-1.104 0-2-.896-2-2V9c0-.552.224-1.052.586-1.414L14.172 1l1.06 1.055c.272.27.44.646.44 1.06l-.033.316L14.684 8H21c1.105 0 2 .895 2 2v2c0 .257-.053.502-.14.727L19.84 19.78C19.538 20.497 18.828 21 18 21H9zm0-2.002h9.026L21 11.992V9.998h-8.786l1.13-5.317L9 9.027v9.972z"/></svg>