<svg xmlns="http://www.w3.org/2000/svg" version="1.1" baseProfile="full" width="24" height="24" viewBox="0 0 24.00 24.00" xml:space="preserve"><path fill="#000" fill-opacity="1" stroke-width=".2" stroke-linejoin="round" d="M19 14.998v-12h4v12h-4zm-4-12c1.103 0 2 .896 2 2v10c0 .552-.225 1.052-.587 1.414l-6.586 6.586-1.06-1.055c-.272-.27-.44-.646-.44-1.06l.033-.316.954-4.57H3c-1.106 0-2-.894-2-2V12c0-.257.052-.502.14-.727L4.157 4.22C4.46 3.5 5.17 2.998 6 2.998h9zM15 5H5.974L3 12.006V14h8.785l-1.13 5.317L15 14.972V5z"/></svg>