<svg xmlns="http://www.w3.org/2000/svg" version="1.1" baseProfile="full" width="24" height="24" viewBox="0 0 24.00 24.00" xml:space="preserve"><path fill="#000" fill-opacity="1" stroke-width="1.333" stroke-linejoin="miter" d="M12.998 8.5H11v-2H13v2zm0 4.498H11V11H13V13zm0 4.502H11v-2.002H13V17.5zm9.005-7.5V6c0-1.112-.904-2-2.003-2H4c-1.1 0-1.99.888-1.99 2v4c1.1 0 1.99.9 1.99 2.002C4 13.1 3.11 14 2 14v3.997C2.002 19.1 2.9 20 4 20h16c1.1 0 2.003-.9 2.003-2.003V14C20.9 14 20 13.1 20 12 20 10.9 20.9 10 22.003 10z"/></svg>