<svg xmlns="http://www.w3.org/2000/svg" version="1.1" baseProfile="full" width="24" height="24" viewBox="0 0 24.00 24.00" xml:space="preserve"><path fill="#000" fill-opacity="1" stroke-width=".2" stroke-linejoin="round" d="M20 11.998c0 1.105.895 2 2 2v4c0 1.105-.896 2-2 2H4c-1.105 0-2-.895-2-2l.003-4c1.103-.002 1.996-.896 1.996-2 0-1.102-.893-1.995-1.994-2l.004-4c0-1.104.885-2 1.99-2h16c1.104 0 2 .896 2 2v4c-1.105 0-2 .896-2 2zm-3.5 4.252c0-1.5-3-2.25-4.5-2.25s-4.5.75-4.5 2.25V17h9v-.75zm-4.5-4c1.242 0 2.25-1.006 2.25-2.25 0-1.242-1.008-2.25-2.25-2.25S9.75 8.758 9.75 10c0 1.244 1.008 2.25 2.25 2.25z"/></svg>