<svg xmlns="http://www.w3.org/2000/svg" version="1.1" baseProfile="full" width="24" height="24" viewBox="0 0 24.00 24.00" xml:space="preserve"><path fill="#000" fill-opacity="1" stroke-width=".2" stroke-linejoin="round" d="M15.577 16.798L12 14.498l-3.578 2.3L9.5 12.682l-3.29-2.69 4.245-.25L12 5.8l1.544 3.945 4.245.25-3.29 2.69m5.5-.685c0-1.104.895-2 2-2v-4c0-1.104-.896-2-2-2H4c-1.105 0-1.99.896-1.99 2l-.004 4c1.1.005 1.993.898 1.993 2 0 1.104-.894 1.998-1.997 2l-.004 4c0 1.105.895 2 2 2h16c1.104 0 2-.895 2-2v-4c-1.105 0-2-.895-2-2z"/></svg>