<svg xmlns="http://www.w3.org/2000/svg" version="1.1" baseProfile="full" width="24" height="24" viewBox="0 0 24.00 24.00" xml:space="preserve"><path fill="#000" fill-opacity="1" stroke-width=".2" stroke-linejoin="round" d="M14 12h1.5v2.823l2.438 1.408-.75 1.3L14 15.69V12zM4 2h14c1.105 0 2 .895 2 2v6.1c1.237 1.264 2 2.993 2 4.9 0 3.866-3.134 7-7 7-1.907 0-3.636-.763-4.9-2H4c-1.105 0-2-.895-2-2V4c0-1.105.895-2 2-2zm0 13v3h4.674C8.242 17.09 8 16.074 8 15H4zm0-7h6V5H4v3zm14 0V5h-6v3h6zM4 13h4.29c.343-1.152.975-2.18 1.81-3H4v3zm11-2.846c-2.677 0-4.846 2.17-4.846 4.846 0 2.677 2.17 4.846 4.846 4.846s4.846-2.17 4.846-4.846-2.17-4.846-4.846-4.846z"/></svg>