<svg xmlns="http://www.w3.org/2000/svg" version="1.1" baseProfile="full" width="24" height="24" viewBox="0 0 24.00 24.00" xml:space="preserve"><path fill="#000" fill-opacity="1" stroke-width=".2" stroke-linejoin="round" d="M12 19.998c-4.42 0-8-3.58-8-8 0-4.418 3.58-8 8-8 4.417 0 8 3.58 8 8 0 4.418-3.583 8-8 8zm0-18c-5.524 0-10 4.477-10 10s4.476 10 10 10c5.522 0 10-4.477 10-10s-4.478-10-10-10zm4.242 5.757C15.07 6.585 13.535 6 12 5.998v6L7.755 16.24c2.344 2.344 6.143 2.343 8.486 0 2.343-2.343 2.343-6.14 0-8.485z"/></svg>