<svg xmlns="http://www.w3.org/2000/svg" version="1.1" baseProfile="full" width="24" height="24" viewBox="0 0 24.00 24.00" xml:space="preserve"><path fill="#000" fill-opacity="1" stroke-width=".2" stroke-linejoin="round" d="M12 14c-1 0-3 1-3 2 0 2 3 2 3 2v-1c-.552 0-1-.448-1-1s.448-1 1-1v-1zm0 5s-4-.5-4-2.5c0-3 3-3.75 4-3.75V11.5c-1 0-5 1.5-5 4.5 0 4 5 4 5 4v-1zM10.072 7.03l1.19.53c.43-2.445 1.578-4.05 1.578-4.05-.425 1.02-.707 1.867-.893 2.543C13.164 3.547 15.607 2 15.607 2c-1.182 1.182-2.042 2.455-2.64 3.526 1.587-1.68 3.772-2.77 3.772-2.77-2.687 1.717-3.904 4.445-4.203 5.205l.553.078c0 .518 0 1.006.253 1.383C14.098 11.31 18 11.473 18 16c0 4.528-4.028 6-6.167 6C9.695 22 5 21.03 5 16s4.947-5.07 5.827-7.082c.126-.377-.755-1.887-.755-1.887z"/></svg>