<svg xmlns="http://www.w3.org/2000/svg" version="1.1" baseProfile="full" width="24" height="24" viewBox="0 0 24.00 24.00" xml:space="preserve"><path fill="#000" fill-opacity="1" stroke-width=".2" stroke-linejoin="round" d="M12 8.998c-1.105 0-2-.895-2-2s.895-2 2-2 2 .895 2 2-.895 2-2 2zm0 5c-1.105 0-2-.895-2-2s.895-2 2-2 2 .895 2 2-.895 2-2 2zm0 5c-1.105 0-2-.895-2-2s.895-2 2-2 2 .895 2 2-.895 2-2 2zm8-9h-3V8.856c1.722-.445 3-1.996 3-3.858h-3v-1c0-.552-.448-1-1-1H8c-.553 0-1 .448-1 1v1H4C4 6.86 5.276 8.41 7 8.856v1.142H4c0 1.862 1.277 3.413 3 3.858v1.142H4c0 1.862 1.277 3.413 3 3.858v1.142c0 .552.447 1 1 1h8c.552 0 1-.448 1-1v-1.142c1.722-.445 3-1.996 3-3.858h-3v-1.142c1.722-.445 3-1.996 3-3.858z"/></svg>