<svg xmlns="http://www.w3.org/2000/svg" version="1.1" baseProfile="full" width="24" height="24" viewBox="0 0 24.00 24.00" xml:space="preserve"><path fill="#000" fill-opacity="1" stroke-width=".2" stroke-linejoin="round" d="M4 3h16c.552 0 1 .448 1 1v16c0 .552-.448 1-1 1H4c-.552 0-1-.448-1-1V4c0-.552.448-1 1-1zm1.5 2c-.276 0-.5.224-.5.5v12c0 .276.224.5.5.5h5c.276 0 .5-.224.5-.5v-12c0-.276-.224-.5-.5-.5h-5zm8 0c-.276 0-.5.224-.5.5v6c0 .276.224.5.5.5h5c.276 0 .5-.224.5-.5v-6c0-.276-.224-.5-.5-.5h-5z"/></svg>