<svg xmlns="http://www.w3.org/2000/svg" version="1.1" baseProfile="full" width="24" height="24" viewBox="0 0 24.00 24.00" xml:space="preserve"><path fill="#000" fill-opacity="1" stroke-width=".2" stroke-linejoin="round" d="M18 18.498c-.83 0-1.5-.672-1.5-1.5s.67-1.5 1.5-1.5c.827 0 1.5.672 1.5 1.5s-.673 1.5-1.5 1.5zm1.5-9l1.963 2.5H17v-2.5m-11 9c-.83 0-1.5-.672-1.5-1.5s.67-1.5 1.5-1.5c.827 0 1.5.672 1.5 1.5s-.673 1.5-1.5 1.5zm14-10.5h-3v-4H3c-1.106 0-2 .895-2 2v11h2c0 1.657 1.342 3 3 3 1.656 0 3-1.343 3-3h6c0 1.657 1.342 3 3 3 1.656 0 3-1.343 3-3h2v-5l-3-4z"/></svg>