<svg xmlns="http://www.w3.org/2000/svg" version="1.1" baseProfile="full" width="24" height="24" viewBox="0 0 24.00 24.00" xml:space="preserve"><path fill="#000" fill-opacity="1" stroke-width=".2" stroke-linejoin="round" d="M2.998 4C1.895 4 1 4.892 1 5.995v11L3 17C2.998 18.657 4.34 20 6 20c1.656 0 3-1.343 3-3.003h6C15 18.657 16.343 20 17.997 20c1.662 0 3.004-1.343 3.004-3.003h1.997v-5l-2.997-4h-2.997V4M10 6l4 4-4 4v-3H4V9h6m7.003.498h2.5l1.962 2.5h-4.462M6 15.498c.826 0 1.5.673 1.5 1.5 0 .83-.674 1.498-1.5 1.498-.83 0-1.497-.668-1.497-1.498 0-.827.668-1.5 1.498-1.5zm11.997 0c.832 0 1.506.673 1.506 1.5 0 .83-.674 1.498-1.506 1.498-.825 0-1.498-.668-1.498-1.498 0-.827.672-1.5 1.497-1.5z"/></svg>