<svg xmlns="http://www.w3.org/2000/svg" version="1.1" baseProfile="full" width="24" height="24" viewBox="0 0 24.00 24.00" xml:space="preserve"><path fill="#000" fill-opacity="1" stroke-width=".2" stroke-linejoin="round" d="M16 21H8c-.552 0-1-.448-1-1v-7.927L5.703 13.12c-.39.39-1.023.39-1.414 0l-2.83-2.83c-.39-.39-.39-1.022 0-1.413L7.34 3H9c0 1.105 1.343 2 3 2s3-.895 3-2h1.662l5.877 5.877c.39.39.39 1.024 0 1.414l-2.83 2.83c-.39.39-1.023.39-1.413 0L17 12.073V20c0 .552-.448 1-1 1zm4.418-11.416L16.11 5.277c-.305.354-.68.665-1.11.923-.836.502-1.874.8-3 .8-1.704 0-3.208-.682-4.11-1.723L3.58 9.584 4.996 11l3-2H9v10h6V9h1.005l3 1.998 1.413-1.414z"/></svg>