<svg xmlns="http://www.w3.org/2000/svg" version="1.1" baseProfile="full" width="24" height="24" viewBox="0 0 24.00 24.00" xml:space="preserve"><path fill="#000" fill-opacity="1" stroke-width=".2" stroke-linejoin="round" d="M16 21H8c-.552 0-1-.448-1-1v-7.927L5.703 13.12c-.39.39-1.023.39-1.414 0l-2.83-2.83c-.39-.39-.39-1.022 0-1.413L7.34 3H9c0 1.105 1 3 3 4.25C14 6 15 4.105 15 3h1.662l5.877 5.877c.39.39.39 1.024 0 1.414l-2.83 2.83c-.39.39-1.023.39-1.413 0L17 12.073V20c0 .552-.448 1-1 1zm4.418-11.416L16.11 5.277C15 7 14 8.25 12 9.25c-2-1-3-2.25-4.11-3.973L3.58 9.584 4.996 11l3-2H9v10h6V9h1.005l3 1.998 1.413-1.414z"/></svg>