<svg xmlns="http://www.w3.org/2000/svg" version="1.1" baseProfile="full" width="24" height="24" viewBox="0 0 24.00 24.00" xml:space="preserve"><path fill="#000" fill-opacity="1" stroke-width=".2" stroke-linejoin="round" d="M22.46 6.012c-.77.342-1.598.572-2.466.676.886-.53 1.567-1.372 1.887-2.374-.828.492-1.746.85-2.724 1.04C18.373 4.522 17.258 4 16.023 4c-2.37 0-4.29 1.92-4.29 4.292 0 .336.037.663.11.978-3.567-.18-6.73-1.888-8.846-4.484-.37.633-.58 1.37-.58 2.157 0 1.49.757 2.803 1.908 3.572-.703-.022-1.365-.215-1.944-.537v.054c0 2.08 1.48 3.814 3.444 4.21-.36.097-.74.15-1.13.15-.278 0-.546-.028-.81-.078.548 1.705 2.133 2.946 4.01 2.98-1.468 1.152-3.32 1.838-5.33 1.838-.346 0-.687-.02-1.023-.06C3.44 20.29 5.697 21 8.12 21c7.893 0 12.21-6.54 12.21-12.21 0-.187-.004-.372-.012-.556.838-.605 1.566-1.36 2.14-2.222z"/></svg>