<svg xmlns="http://www.w3.org/2000/svg" version="1.1" baseProfile="full" width="24" height="24" viewBox="0 0 24.00 24.00" xml:space="preserve"><path fill="#000" fill-opacity="1" stroke-width=".2" stroke-linejoin="round" d="M17.707 9.328c-.064 4.62-3.017 7.783-7.425 7.982-1.818.082-3.137-.503-4.283-1.232 1.343.215 3.008-.322 3.9-1.086-1.317-.13-2.095-.8-2.463-1.877.38.067.78.05 1.144-.03-1.187-.398-2.036-1.132-2.082-2.67.335.15.683.294 1.144.32-.89-.505-1.546-2.354-.793-3.58 1.32 1.45 2.91 2.63 5.516 2.79-.654-2.797 3.058-4.315 4.608-2.435.657-.127 1.19-.375 1.702-.647-.21.65-.618 1.104-1.116 1.47.544-.075 1.03-.208 1.44-.412-.253.53-.814 1.008-1.293 1.408zM20 1.998H4c-1.105 0-1.99.895-1.99 2l-.01 16c0 1.104.895 2 2 2h16c1.103 0 2-.896 2-2v-16c0-1.105-.897-2-2-2z"/></svg>