<svg xmlns="http://www.w3.org/2000/svg" version="1.1" baseProfile="full" width="24" height="24" viewBox="0 0 24.00 24.00" xml:space="preserve"><path fill="#000" fill-opacity="1" stroke-width=".2" stroke-linejoin="round" d="M17.707 9.328c.48-.4 1.04-.877 1.292-1.407-.41.205-.896.338-1.44.412.498-.365.906-.818 1.116-1.47-.513.273-1.045.52-1.702.648-1.55-1.88-5.262-.362-4.608 2.435-2.607-.16-4.196-1.34-5.517-2.79-.754 1.226-.1 3.075.792 3.58-.46-.026-.81-.17-1.144-.32.046 1.538.895 2.272 2.083 2.67-.362.08-.763.097-1.143.03.368 1.078 1.146 1.748 2.464 1.877-.892.764-2.557 1.3-3.9 1.086 1.145.73 2.464 1.314 4.282 1.232 4.408-.2 7.36-3.363 7.425-7.982zM12 2c5.523 0 10 4.477 10 10s-4.477 10-10 10S2 17.523 2 12 6.477 2 12 2z"/></svg>