<svg xmlns="http://www.w3.org/2000/svg" version="1.1" baseProfile="full" width="24" height="24" viewBox="0 0 24.00 24.00" xml:space="preserve"><path fill="#000" fill-opacity="1" stroke-linejoin="round" d="M22 12c0 5.522-4.478 10-10 10S2 17.522 2 12C2 6.478 6.478 2 12 2s10 4.477 10 10zM14.34 7.74c.576.33 1.31.133 1.642-.442.332-.572.135-1.308-.44-1.64-.574-.33-1.31-.134-1.64.44-.33.575-.135 1.31.44 1.64zm-2.458 7.767c-.527 0-1.028-.116-1.477-.326l-.834 1.497c.697.346 1.482.54 2.312.54.484 0 .95-.065 1.395-.19.078-.482.366-.925.82-1.19.46-.264.985-.29 1.443-.115.888-.876 1.466-2.063 1.55-3.388l-1.712-.023c-.158 1.793-1.662 3.197-3.496 3.197zm0-7.02c1.835 0 3.338 1.407 3.496 3.202l1.712-.03c-.084-1.322-.662-2.51-1.55-3.383-.458.17-.986.147-1.442-.118-.456-.265-.743-.708-.82-1.19-.445-.123-.912-.19-1.396-.19-.83 0-1.615.194-2.31.54l.833 1.495c.45-.21.95-.327 1.477-.327zM8.374 12c0-1.188.588-2.238 1.49-2.873l-.877-1.472c-1.05.702-1.834 1.776-2.16 3.034.38.31.622.78.622 1.31 0 .525-.242.996-.623 1.308.326 1.257 1.11 2.33 2.16 3.033l.878-1.47c-.903-.635-1.49-1.683-1.49-2.87zm5.967 4.26c-.573.328-.77 1.064-.438 1.637.33.576 1.066.772 1.64.44.575-.33.773-1.064.44-1.64-.33-.574-1.066-.77-1.64-.438zm-8.577-5.463c-.664 0-1.2.538-1.2 1.203 0 .66.536 1.2 1.2 1.2.664 0 1.2-.54 1.2-1.2 0-.665-.536-1.203-1.2-1.203z"/></svg>