<svg xmlns="http://www.w3.org/2000/svg" version="1.1" baseProfile="full" width="24" height="24" viewBox="0 0 24.00 24.00" xml:space="preserve"><path fill="#000" fill-opacity="1" stroke-linejoin="round" d="M8.598 8.598l-1.427-.22c-.658 3.293-.707 5.86.44 7.134.988 1.098 4.28 1.098 4.28 1.098s3.403 0 4.39-1.098c1.147-1.274 1.098-3.84.44-7.134l-1.427.22s1.25 5.28-.604 6.09c-.88.385-2.8.385-2.8.385s-1.81 0-2.69-.384C7.348 13.877 8.6 8.597 8.6 8.597zM12 3c4.97 0 9 4.03 9 9s-4.03 9-9 9-9-4.03-9-9 4.03-9 9-9z"/></svg>