<svg xmlns="http://www.w3.org/2000/svg" version="1.1" baseProfile="full" width="24" height="24" viewBox="0 0 24.00 24.00" xml:space="preserve"><path fill="#000" fill-opacity="1" stroke-linejoin="round" d="M14.413 4.004s.524.383.552.704c.01.107-.23.143-.286.223-.057.08.02.22-.034.276-.05.055-.158.058-.237.205-.08.15-2.344 4.683-2.675 5.222-.143.4-.26 1.83-.37 2.026-.108.196-5.025 7.184-5.206 7.395-.492.573-1.847.25-2.878-.49-.98-.706-1.542-1.86-1.17-2.4.157-.23 5.035-7.245 5.18-7.414.148-.17 1.455-.767 1.78-1.037.395-.495 3.888-4.168 4-4.292.113-.123.08-.224.113-.292.034-.068.19-.045.248-.124.056-.08-.045-.293.056-.326.1-.034.473-.012.923.326zm-3.566.436l.89.93-1.474 1.567-.8-1.566c-.08-.147-.187-.15-.24-.203-.052-.055.022-.197-.034-.276-.057-.08-.293-.055-.29-.162 0-.107.148-.45.618-.763 0 0 .538-.367.85-.286.104.026.058.265.115.344.057.08.215.055.25.122.034.068 0 .17.114.294zm11.07 12.71c.377.655-.383 1.828-1.43 2.554-.995.69-2.274.833-2.66.3-.165-.226-5.157-7.19-5.268-7.384-.112-.195-.238-1.63-.383-2.03l-.027-.044c.3-.555.925-1.78 1.582-3.08.564.6 1.023 1.093 1.152 1.253.33.268 1.643.86 1.79 1.028.15.168 5.104 7.16 5.243 7.4z"/></svg>