<svg xmlns="http://www.w3.org/2000/svg" version="1.1" baseProfile="full" width="24" height="24" viewBox="0 0 24.00 24.00" xml:space="preserve"><path fill="#000" fill-opacity="1" stroke-width=".2" stroke-linejoin="round" d="M15 6.998v4h1v2h-3v-8h2l-3-4-3 4h2v8H8v-2.07c.703-.367 1.2-1.08 1.2-1.93 0-1.215-.986-2.2-2.2-2.2-1.216 0-2.2.985-2.2 2.2 0 .85.495 1.563 1.2 1.93v2.07c0 1.105.893 2 2 2h3v3.05c-.71.366-1.2 1.097-1.2 1.95 0 1.215.984 2.2 2.2 2.2 1.214 0 2.2-.985 2.2-2.2 0-.853-.492-1.584-1.2-1.95V15h3c1.104 0 2-.895 2-2v-2h1v-4h-4z"/></svg>