<svg xmlns="http://www.w3.org/2000/svg" version="1.1" baseProfile="full" width="24" height="24" viewBox="0 0 24.00 24.00" xml:space="preserve"><path fill="#000" fill-opacity="1" stroke-width=".2" stroke-linejoin="round" d="M22 9h-2.026c-1.27-3.588-4.663-5.995-8.472-6-4.97 0-8.998 4.034-8.998 9.005 0 4.97 4.027 9 8.998 9 3.81-.006 7.203-2.41 8.477-6.002H22m-1.996-4V13H18v-1.996m-.184 3.998c-1.157 2.442-3.613 3.994-6.313 4C7.634 19 4.5 15.865 4.5 12.004c0-3.868 3.135-7.003 7.002-7.003 2.7.005 5.157 1.563 6.31 4h-1.807v6"/></svg>