<svg xmlns="http://www.w3.org/2000/svg" version="1.1" baseProfile="full" width="24" height="24" viewBox="0 0 24.00 24.00" xml:space="preserve"><path fill="#000" fill-opacity="1" fill-rule="evenodd" stroke-width=".2" stroke-linejoin="round" d="M2.002 2.002v5.995h2.276l1.288 8.004H4v6.003h6v-1.94l5-.01v1.95h6V16h-1.83L20 9h2.003V2.997H16v3.536l-1.2 1.463H9.59L7.997 5.82V2.002M4 4h2v2H4m13.997-1H20v2.003h-2.003M6.31 7.997h.804L9 10.587v3.412h6V10.91L16.567 9h1.422l-.83 7H15v2.056l-5 .005V16H7.598M11 10H13v2.002H11m-5 5.995h1.997V20H6.002m11.003-2.003h1.996V20h-1.997"/></svg>