<svg xmlns="http://www.w3.org/2000/svg" version="1.1" baseProfile="full" width="24" height="24" viewBox="0 0 24.00 24.00" xml:space="preserve"><path fill="#000" fill-opacity="1" stroke-width="1.333" stroke-linejoin="miter" d="M3 1h2v2H3v2H1V3c0-1.105.895-2 2-2zm11 0c1.104 0 2 .895 2 2v2h-2V3h-2V1h2zm6 6c1.105 0 2 .895 2 2v2h-2V9h-2V7h2zm2 13c0 1.105-.895 2-2 2h-2v-2h2v-2h2v2zm-2-7h2v3h-2v-3zm-7-4V7h3v3h-2V9h-1zm0 13v-2h3v2h-3zm-4 0c-1.105 0-2-.895-2-2v-2h2v2h2v2H9zm-2-6v-3h2v1h1v2H7zM7 3V1h3v2H7zM3 16c-1.105 0-2-.895-2-2v-2h2v2h2v2H3zM1 7h2v3H1V7zm8 0h2v2H9v2H7V9c0-1.105.895-2 2-2zm7 7c0 1.105-.895 2-2 2h-2v-2h2v-2h2v2z"/></svg>