<svg xmlns="http://www.w3.org/2000/svg" version="1.1" baseProfile="full" width="24" height="24" viewBox="0 0 24.00 24.00" xml:space="preserve"><path fill="#000" fill-opacity="1" stroke-width=".2" stroke-linejoin="round" d="M9 2.002V4.06c-2.28.86-4.082 2.66-4.947 4.94h-2.05V15h2.054c.86 2.28 2.662 4.087 4.942 4.95v2.053h6V19.94c2.28-.858 4.087-2.66 4.95-4.94h2.053V9H19.94c-.858-2.28-2.66-4.082-4.94-4.947v-2.05m-4 1.996H13v2H11m-2 .25v1.747h6V6.25c1.176.61 2.14 1.572 2.754 2.75H16v6h1.754c-.615 1.176-1.578 2.14-2.754 2.754V16H9v1.754C7.82 17.14 6.86 16.176 6.25 15h1.747V9H6.25C6.86 7.82 7.822 6.86 9 6.25zM4 11h2V13H4M17.996 11H20V13h-2.003m-6.996 5H13V20H11"/></svg>