<svg xmlns="http://www.w3.org/2000/svg" version="1.1" baseProfile="full" width="24" height="24" viewBox="0 0 24.00 24.00" xml:space="preserve"><path fill="#000" fill-opacity="1" stroke-width=".2" stroke-linejoin="round" d="M18.5 2c.828 0 1.5.672 1.5 1.5S19.328 5 18.5 5c-.232 0-.45-.052-.647-.146L14.16 8.547l.316.473C16.689 7.736 19.258 7 22 7l1 .033v2.005L22 9c-2.577 0-4.98.75-7 2.044-.024 2.174-1.782 3.932-3.956 3.956C9.75 17.02 9 19.423 9 22l.038 1H7.033L7 22c0-2.742.736-5.312 2.02-7.524l-.473-.316-3.693 3.693c.094.196.146.415.146.647 0 .828-.672 1.5-1.5 1.5S2 19.328 2 18.5 2.672 17 3.5 17c.232 0 .45.052.647.146l3.693-3.693C7.314 12.775 7 11.923 7 11c0-2.21 1.79-4 4-4 .924 0 1.775.314 2.453.84l3.693-3.693C17.052 3.95 17 3.732 17 3.5c0-.828.672-1.5 1.5-1.5zM11 9c-1.105 0-2 .895-2 2s.895 2 2 2 2-.895 2-2-.895-2-2-2z"/></svg>