<svg xmlns="http://www.w3.org/2000/svg" version="1.1" baseProfile="full" width="24" height="24" viewBox="0 0 24.00 24.00" xml:space="preserve"><path fill="#000" fill-opacity="1" stroke-linejoin="round" d="M19.89 11.948c-.464.107-.912.154-1.316.154-2.27 0-4.02-1.586-4.02-4.344 0-1.35.523-2.054 1.262-2.054.703 0 1.172.63 1.172 1.91 0 .728-.195 1.525-.34 1.997 0 0 .7 1.222 2.615.847.406-.902.627-2.07.627-3.095C19.89 4.604 18.484 3 15.906 3c-2.65 0-4.2 2.037-4.2 4.723 0 2.66 1.245 4.944 3.295 5.985-.86 1.725-1.958 3.245-3.103 4.39-2.076-2.51-3.953-5.86-4.724-12.394H4.11c1.415 10.883 5.633 14.35 6.748 15.014.63.38 1.174.36 1.75.036.907-.515 3.626-3.233 5.133-6.417.633-.002 1.393-.075 2.15-.246V11.95z"/></svg>