<svg xmlns="http://www.w3.org/2000/svg" version="1.1" baseProfile="full" width="24" height="24" viewBox="0 0 24.00 24.00" xml:space="preserve"><path fill="#000" fill-opacity="1" stroke-width="1.333" stroke-linejoin="miter" d="M11 2c-.554 0-1 .446-1 1v6c0 .277.223.5.5.5H12c.277 0 .5.223.5.5s-.223.5-.5.5h-1.5C9.734 10.5 9 9.766 9 9V5.156C7.273 5.6 6 7.13 6 9v1.5c1.38 0 2.5 1.12 2.5 2.5S7.38 15.5 6 15.5V17c0 2.77 2.23 5 5 5h2c2.77 0 5-2.23 5-5v-1.5c-1.38 0-2.5-1.12-2.5-2.5s1.12-2.5 2.5-2.5V9c0-2.216-1.784-4-4-4V3c0-.554-.446-1-1-1h-2zm-.25 14.5h2.5l-.5 3.5h-1.5l-.5-3.5z"/></svg>