<svg xmlns="http://www.w3.org/2000/svg" version="1.1" baseProfile="full" width="24" height="24" viewBox="0 0 24.00 24.00" xml:space="preserve"><path fill="#000" fill-opacity="1" stroke-width=".2" stroke-linejoin="round" d="M5 3h14c1.105 0 2 .895 2 2v14c0 1.105-.895 2-2 2H5c-1.105 0-2-.895-2-2V5c0-1.105.895-2 2-2zm12.236 11.027c-1.174-1.09-1.016-.913.4-2.804.864-1.148 1.21-1.85 1.103-2.15-.105-.284-.74-.21-.74-.21l-2.11.014c-.002 0-.16-.023-.275.046-.112.07-.185.228-.185.228s-.335.89-.778 1.646c-.94 1.598-1.317 1.68-1.47 1.582-.356-.23-.268-.928-.268-1.425 0-1.545.236-2.192-.458-2.357-.227-.054-.396-.093-.982-.096-.754-.008-1.39 0-1.752.177-.243.12-.428.38-.312.397.138.015.455.085.62.312.22.292.21.955.21.955s.125 1.82-.292 2.046c-.285.154-.673-.162-1.51-1.61-.43-.74-.754-1.56-.754-1.56l-.173-.24-.323-.13-2.006.008s-.3-.004-.41.127c-.098.12-.01.34-.01.34s1.573 3.636 3.347 5.485c1.63 1.7 3.483 1.506 3.483 1.506h.84s.25.055.38-.083c.12-.127.116-.29.116-.29s-.015-1.124.505-1.29c.517-.165 1.18 1.087 1.88 1.568.528.362.932.285.932.285l1.877-.027s.977-.062.51-.832c-.034-.065-.268-.57-1.393-1.613z"/></svg>