<svg xmlns="http://www.w3.org/2000/svg" version="1.1" baseProfile="full" width="24" height="24" viewBox="0 0 24.00 24.00" xml:space="preserve"><path fill="#000" fill-opacity="1" stroke-width=".2" stroke-linejoin="round" d="M12 2c5.523 0 10 4.477 10 10s-4.477 10-10 10S2 17.523 2 12 6.477 2 12 2zm5.236 12.027c-1.174-1.09-1.016-.913.4-2.804.864-1.148 1.21-1.85 1.103-2.15-.105-.284-.74-.21-.74-.21l-2.11.014c-.002 0-.16-.023-.275.046-.112.07-.185.228-.185.228s-.335.89-.778 1.646c-.94 1.598-1.317 1.68-1.47 1.582-.356-.23-.267-.928-.267-1.425 0-1.545.235-2.192-.46-2.357-.226-.054-.395-.093-.98-.096-.755-.008-1.39 0-1.753.177-.243.12-.428.38-.312.397.138.015.455.085.62.312.22.292.21.955.21.955s.125 1.82-.292 2.046c-.285.154-.673-.162-1.51-1.61-.43-.74-.754-1.56-.754-1.56l-.173-.24-.323-.13-2.006.008s-.3-.004-.41.127c-.098.12-.01.34-.01.34s1.573 3.636 3.347 5.485c1.63 1.7 3.483 1.506 3.483 1.506h.84s.25.055.38-.083c.12-.127.116-.29.116-.29s-.015-1.124.505-1.29c.517-.165 1.18 1.087 1.88 1.568.528.362.932.285.932.285l1.877-.027s.977-.062.51-.832c-.034-.065-.268-.57-1.393-1.613z"/></svg>