<svg xmlns="http://www.w3.org/2000/svg" version="1.1" baseProfile="full" width="24" height="24" viewBox="0 0 24.00 24.00" xml:space="preserve"><path fill="#333" fill-opacity="1" stroke-linejoin="round" d="M19.544 14.6c1.547 1.435 1.87 2.128 1.917 2.22.642 1.058-.703 1.143-.703 1.143l-2.58.037s-.556.106-1.28-.392c-.965-.662-1.876-2.383-2.585-2.156-.716.228-.694 1.775-.694 1.775s.005.223-.16.397c-.18.19-.524.116-.524.116H11.78s-2.547.265-4.788-2.07C4.552 13.126 2.39 8.127 2.39 8.127s-.122-.302.01-.466c.154-.18.567-.175.567-.175l2.76-.01s.258.046.444.18c.154.116.24.327.24.327s.445 1.128 1.037 2.145c1.15 1.99 1.684 2.425 2.076 2.213.572-.31.403-2.812.403-2.812s.01-.91-.29-1.312c-.228-.312-.664-.41-.853-.43-.16-.02.094-.38.428-.545C9.71 7 10.584 6.99 11.62 7c.806.004 1.04.058 1.35.132.955.227.63 1.117.63 3.24 0 .685-.12 1.643.367 1.96.212.133.73.022 2.023-2.176.61-1.038 1.07-2.26 1.07-2.26s.1-.218.255-.314c.16-.095.375-.064.375-.064l2.903-.02s.873-.1 1.017.29c.148.413-.33 1.377-1.516 2.955-1.948 2.6-2.165 2.358-.55 3.857z"/></svg>