<svg xmlns="http://www.w3.org/2000/svg" version="1.1" baseProfile="full" width="24" height="24" viewBox="0 0 24.00 24.00" xml:space="preserve"><path fill="#000" fill-opacity="1" stroke-width=".2" stroke-linejoin="round" d="M18.5 14.998c-1.933 0-3.5-1.567-3.5-3.5s1.567-3.5 3.5-3.5 3.5 1.567 3.5 3.5-1.567 3.5-3.5 3.5zm-13 0c-1.933 0-3.5-1.567-3.5-3.5s1.567-3.5 3.5-3.5S9 9.565 9 11.498s-1.567 3.5-3.5 3.5zm13-9c-3.038 0-5.5 2.462-5.5 5.5 0 1.33.472 2.55 1.257 3.5H9.743c.785-.95 1.257-2.17 1.257-3.5 0-3.038-2.462-5.5-5.5-5.5S0 8.46 0 11.498s2.462 5.5 5.5 5.5h13c3.038 0 5.5-2.462 5.5-5.5s-2.462-5.5-5.5-5.5z"/></svg>