<svg xmlns="http://www.w3.org/2000/svg" version="1.1" baseProfile="full" width="24" height="24" viewBox="0 0 24.00 24.00" xml:space="preserve"><path fill="#000" fill-opacity="1" stroke-width=".2" stroke-linejoin="round" d="M12 3.998l-2.092 2.09 2.09 2.092M4.273 2.998L3 4.27 7.725 9H3v6h4l5 5V13.27l4.254 4.256c-.67.517-1.424.93-2.255 1.178v2.063c1.376-.313 2.628-.947 3.684-1.81l2.042 2.04L21 19.726l-9-9m7 1.273c0 .94-.205 1.824-.54 2.642l1.514 1.514C20.624 14.91 21 13.5 21 11.998c0-4.283-2.994-7.86-7-8.77v2.064c2.89.86 5 3.536 5 6.706zm-2.5 0c0-1.766-1.02-3.29-2.5-4.028v2.21l2.453 2.454c.03-.208.046-.42.046-.636z"/></svg>