<svg xmlns="http://www.w3.org/2000/svg" version="1.1" baseProfile="full" width="24" height="24" viewBox="0 0 24.00 24.00" xml:space="preserve"><path fill="#000" fill-opacity="1" stroke-linejoin="round" d="M9 5h6l-3 3-3-3zm1.517 9.66c-.322.353-.517.824-.517 1.34 0 1.105.895 2 2 2s2-.895 2-2c0-.552-.224-1.052-.586-1.414l1.414-1.414C15.552 13.895 16 14.895 16 16c0 2.21-1.79 4-4 4s-4-1.79-4-4c0-1.067.418-2.036 1.1-2.754l-.006-.004 7.07-7.07.005.003C16.892 5.449 17.893 5 19 5c2.21 0 4 1.79 4 4s-1.79 4-4 4c-1.105 0-2.105-.448-2.828-1.172l1.414-1.414c.362.362.862.586 1.414.586 1.105 0 2-.895 2-2s-.895-2-2-2c-.552 0-1.052.224-1.414.586l-7.07 7.073zM6.414 7.585C6.052 7.224 5.552 7 5 7c-1.105 0-2 .895-2 2s.895 2 2 2c.552 0 1.052-.224 1.414-.586l1.414 1.414C7.105 12.552 6.105 13 5 13c-2.21 0-4-1.79-4-4s1.79-4 4-4c1.106 0 2.107.45 2.83 1.175l.005-.004L10.59 8.93l-1.417 1.418-2.76-2.76z"/></svg>