<svg xmlns="http://www.w3.org/2000/svg" version="1.1" baseProfile="full" width="24" height="24" viewBox="0 0 24.00 24.00" xml:space="preserve"><path fill="#000" fill-opacity="1" stroke-width=".2" stroke-linejoin="round" d="M14.117 9.998H19v-1.8h-3.623l-2-3.33c-.296-.5-.84-.834-1.462-.834-.17 0-.336.025-.49.072L5.998 5.798v5.2h1.8V7.33l2.106-.656L6 21.998h1.8l2.868-8.108 2.33 3.108v5h1.8v-6.406l-2.488-4.54.733-2.868M14 3.798c.99 0 1.8-.807 1.8-1.8 0-.995-.81-1.8-1.8-1.8-.996 0-1.8.805-1.8 1.8 0 .993.804 1.8 1.8 1.8z"/></svg>