<svg xmlns="http://www.w3.org/2000/svg" version="1.1" baseProfile="full" width="24" height="24" viewBox="0 0 24.00 24.00" xml:space="preserve"><path fill="#000" fill-opacity="1" stroke-width=".2" stroke-linejoin="round" d="M21 17.997V19c0 1.098-.902 2-2 2H5c-1.11 0-2.002-.902-2.002-2V5c0-1.1.893-2.002 2.002-2.002h14c1.098 0 2 .903 2 2.002v1h-8.998C10.89 6 10 6.9 10 7.998v8.004c0 1.1.89 1.997 2.002 1.997m0-1.996h10V7.998h-10m4 5.504c-.83 0-1.5-.668-1.5-1.498s.67-1.505 1.5-1.505 1.498.674 1.498 1.505c0 .83-.67 1.5-1.5 1.5z"/></svg>