<svg xmlns="http://www.w3.org/2000/svg" version="1.1" baseProfile="full" width="24" height="24" viewBox="0 0 24.00 24.00" xml:space="preserve"><path fill="#000" fill-opacity="1" stroke-width="1.333" stroke-linejoin="miter" d="M12 2c-4.418 0-8 3.582-8 8 .005 4.028 3.004 7.424 7 7.928V19h-1c-.552 0-1 .448-1 1H2v2h7c0 .552.448 1 1 1h4c.552 0 1-.448 1-1h7v-2h-7c0-.552-.448-1-1-1h-1v-1.07c3.997-.504 6.996-3.9 7-7.93 0-4.418-3.582-8-8-8zm0 2s.738 1.282 1.256 3h-2.512C11.262 5.282 12 4 12 4zm-2.23.434C9.513 4.932 9.095 5.836 8.744 7H6.81c.672-1.162 1.714-2.066 2.96-2.566zm4.46.002c1.245.5 2.286 1.403 2.957 2.564h-1.93c-.35-1.162-.77-2.065-1.027-2.564zM6.09 9h2.226c-.038.33-.066.665-.066 1 0 .335.028.67.066 1h-2.23C6.03 10.67 6 10.335 6 10c.002-.335.032-.67.09-1zm4.226 0h3.368c.038.33.066.665.066 1 0 .335-.028.67-.066 1h-3.368c-.038-.33-.066-.665-.066-1 0-.335.028-.67.066-1zm5.368 0h2.23c.057.33.085.665.086 1-.002.335-.032.67-.09 1h-2.226c.038-.33.066-.665.066-1 0-.335-.028-.67-.066-1zm-8.871 4h1.93c.35 1.162.77 2.065 1.027 2.564-1.245-.5-2.286-1.403-2.957-2.564zm3.93 0h2.513C12.738 14.718 12 16 12 16s-.738-1.282-1.256-3zm4.513 0h1.933c-.672 1.162-1.714 2.066-2.96 2.566.257-.498.675-1.402 1.026-2.566z"/></svg>