<svg xmlns="http://www.w3.org/2000/svg" version="1.1" baseProfile="full" width="24" height="24" viewBox="0 0 24.00 24.00" xml:space="preserve"><path fill="#000" fill-opacity="1" stroke-width=".2" stroke-linejoin="round" d="M14.828 11.172c1.563 1.562 1.563 4.094 0 5.656-1.562 1.563-4.094 1.563-5.656 0l5.656-5.656zM6 2h12c1.105 0 2 .895 2 2v16c0 1.105-.895 2-2 2H6c-1.105 0-2-.895-2-2V4c0-1.105.895-2 2-2zm1 2c-.552 0-1 .448-1 1s.448 1 1 1 1-.448 1-1-.448-1-1-1zm3 0c-.552 0-1 .448-1 1s.448 1 1 1 1-.448 1-1-.448-1-1-1zm2 4c-3.314 0-6 2.686-6 6s2.686 6 6 6 6-2.686 6-6-2.686-6-6-6z"/></svg>