<svg xmlns="http://www.w3.org/2000/svg" version="1.1" baseProfile="full" width="24" height="24" viewBox="0 0 24.00 24.00" xml:space="preserve"><path fill="#000" fill-opacity="1" stroke-width=".2" stroke-linejoin="round" d="M2 11h5.01L4.505 8.495 5.92 7.08 10.84 12l-4.92 4.92-1.415-1.415L7.01 13H2v-2zm10 7c3.312 0 6-2.687 6-6 0-3.315-2.688-6-6-6-1.403 0-2.693.48-3.714 1.286L6.87 5.87l.175-.144L8 0h8l.954 5.726C18.807 7.19 20 9.454 20 12c0 2.544-1.193 4.807-3.046 6.272L16 24H8l-.955-5.728-.175-.142 1.417-1.417C9.307 17.518 10.597 18 12 18z"/></svg>