<svg xmlns="http://www.w3.org/2000/svg" version="1.1" baseProfile="full" width="24" height="24" viewBox="0 0 24.00 24.00" xml:space="preserve"><path fill="#000" fill-opacity="1" stroke-width=".2" stroke-linejoin="round" d="M14 11h5.01l-2.504-2.504 1.414-1.414 4.92 4.92-4.92 4.918-1.414-1.414L19.01 13H14v-2zm-2 7c-3.313 0-6-2.686-6-6s2.687-6 6-6c1.402 0 2.692.48 3.714 1.287L17.13 5.87l-.176-.143L16 0H8l-.955 5.727C5.192 7.192 4 9.455 4 12c0 2.545 1.192 4.808 3.045 6.273L8 24h8l.954-5.727.175-.142-1.417-1.416C14.69 17.52 13.402 18 12 18z"/></svg>