<svg xmlns="http://www.w3.org/2000/svg" version="1.1" baseProfile="full" width="24" height="24" viewBox="0 0 24.00 24.00" xml:space="preserve"><path fill="#000" fill-opacity="1" stroke-width=".2" stroke-linejoin="round" d="M19 14.5s2 2.167 2 3.5c0 1.104-.896 2-2 2s-2-.896-2-2c0-1.333 2-3.5 2-3.5zM5 18V9c-1.105 0-2-.895-2-2s.895-2 2-2V4c0-1.105.895-2 2-2h2c1.105 0 2 .895 2 2v1h8c1.105 0 2 .895 2 2v4c.552 0 1 .448 1 1s-.448 1-1 1h-4c-.552 0-1-.448-1-1s.448-1 1-1V9h-6v9h1c1.105 0 2 .895 2 2v2H2v-2c0-1.105.895-2 2-2h1z"/></svg>