<svg xmlns="http://www.w3.org/2000/svg" version="1.1" baseProfile="full" width="24" height="24" viewBox="0 0 24.00 24.00" xml:space="preserve"><path fill="#000" fill-opacity="1" stroke-width=".2" stroke-linejoin="round" d="M12.002 3.252s-6 6.748-6 10.747c0 3.315 2.684 6 6 6 3.31 0 5.995-2.685 5.995-6 0-4-5.995-10.748-5.995-10.748zm2.465 6.72l1.066 1.058-6.002 6-1.064-1.064M9.75 10c.69 0 1.25.56 1.25 1.25s-.56 1.25-1.25 1.25c-.693 0-1.25-.56-1.25-1.25S9.058 10 9.75 10zm4.498 4.502c.693 0 1.25.557 1.25 1.25 0 .688-.557 1.25-1.25 1.25-.688 0-1.25-.562-1.25-1.25 0-.693.562-1.25 1.25-1.25z"/></svg>