<svg xmlns="http://www.w3.org/2000/svg" version="1.1" baseProfile="full" width="24" height="24" viewBox="0 0 24.00 24.00" xml:space="preserve"><path fill="#000" fill-opacity="1" stroke-width=".2" stroke-linejoin="round" d="M12 7c2.76 0 5 2.24 5 5s-2.24 5-5 5-5-2.24-5-5 2.24-5 5-5zm0 2c-1.657 0-3 1.343-3 3s1.343 3 3 3 3-1.343 3-3-1.343-3-3-3zm0-7l2.394 3.42C13.647 5.148 12.84 5 12 5c-.84 0-1.647.148-2.394.42L12 2zM3.345 7.01l4.16-.364c-.61.51-1.142 1.135-1.562 1.863-.42.727-.695 1.5-.833 2.282L3.345 7.01zm.01 10l1.765-3.784c.138.782.413 1.555.833 2.283.42.727.952 1.35 1.56 1.862l-4.158-.363zm17.29-10.006l-1.764 3.783c-.137-.783-.412-1.555-.832-2.283s-.952-1.353-1.56-1.863l4.158.364zm-.01 9.99l-4.158.363c.608-.51 1.14-1.135 1.56-1.864.42-.728.696-1.5.834-2.283l1.766 3.783zm-8.656 4.985l-2.395-3.42c.747.27 1.553.42 2.394.42.84 0 1.646-.15 2.393-.42l-2.394 3.42z"/></svg>