<svg xmlns="http://www.w3.org/2000/svg" version="1.1" baseProfile="full" width="24" height="24" viewBox="0 0 24.00 24.00" xml:space="preserve"><path fill="#000" fill-opacity="1" stroke-width=".2" stroke-linejoin="round" d="M4 10c-.552 0-1-.448-1-1s.448-1 1-1h8c1.105 0 2-.895 2-2s-.895-2-2-2c-.552 0-1.052.224-1.414.586-.39.39-1.024.39-1.414 0-.39-.39-.39-1.024 0-1.414C9.895 2.448 10.895 2 12 2c2.21 0 4 1.79 4 4s-1.79 4-4 4H4zm15 2c.552 0 1-.448 1-1s-.448-1-1-1c-.276 0-.526.112-.707.293-.39.39-1.024.39-1.414 0-.392-.39-.392-1.024 0-1.414C17.42 8.335 18.17 8 19 8c1.657 0 3 1.343 3 3s-1.343 3-3 3H5c-.552 0-1-.448-1-1s.448-1 1-1h14zm-1 6H4c-.552 0-1-.448-1-1s.448-1 1-1h14c1.657 0 3 1.343 3 3s-1.343 3-3 3c-.828 0-1.578-.336-2.12-.88-.392-.39-.392-1.022 0-1.413.39-.39 1.022-.39 1.413 0 .18.18.43.293.707.293.552 0 1-.448 1-1s-.448-1-1-1z"/></svg>