<svg xmlns="http://www.w3.org/2000/svg" version="1.1" baseProfile="full" width="24" height="24" viewBox="0 0 24.00 24.00" xml:space="preserve"><path fill="#000" fill-opacity="1" stroke-width=".2" stroke-linejoin="round" d="M17.753 4.09L15.22 6.03l.91 3.06-2.63-1.81-2.63 1.81.91-3.06-2.533-1.94 3.19-.08L13.5 1l1.063 3.01 3.19.08zm3.497 6.908l-1.638 1.255.588 1.978-1.7-1.17-1.7 1.17.588-1.977-1.638-1.255 2.063-.053L18.5 9l.688 1.945 2.062.053zm-2.28 4.947c.83-.08 1.724 1.103 1.188 1.854-.32.445-.678.87-1.08 1.272-3.904 3.905-10.235 3.905-14.14 0-3.906-3.906-3.906-10.237 0-14.142.4-.4.826-.76 1.272-1.08.75-.534 1.933.358 1.854 1.188-.272 2.867.69 5.828 2.884 8.023 2.195 2.196 5.156 3.158 8.023 2.885zm-1.636 2.026c-2.84-.16-5.63-1.326-7.8-3.494-2.17-2.17-3.334-4.962-3.496-7.8-2.807 3.14-2.702 7.965.314 10.98 3.016 3.018 7.84 3.122 10.982.315z"/></svg>