<svg xmlns="http://www.w3.org/2000/svg" version="1.1" baseProfile="full" width="24" height="24" viewBox="0 0 24.00 24.00" xml:space="preserve"><path fill="#000" fill-opacity="1" stroke-width=".2" stroke-linejoin="round" d="M6 14c.552 0 1 .448 1 1s-.448 1-1 1c-2.76 0-5-2.24-5-5s2.238-5 4.998-5C6.978 3.65 9.296 2 12 2c3.433 0 6.244 2.66 6.483 6.033L19 8c2.21 0 4 1.79 4 4s-1.79 4-4 4h-1c-.552 0-1-.448-1-1s.448-1 1-1h1c1.105 0 2-.895 2-2s-.895-2-2-2h-2V9c0-2.76-2.24-5-5-5-2.487 0-4.55 1.816-4.935 4.194C6.735 8.07 6.375 8 6 8c-1.657 0-3 1.343-3 3s1.343 3 3 3zm4 4c1.105 0 2 .895 2 2s-.895 2-2 2-2-.895-2-2 .895-2 2-2zm4.5-2c.828 0 1.5.672 1.5 1.5s-.672 1.5-1.5 1.5-1.5-.672-1.5-1.5.672-1.5 1.5-1.5zm-4-4c.828 0 1.5.672 1.5 1.5s-.672 1.5-1.5 1.5S9 14.328 9 13.5s.672-1.5 1.5-1.5z"/></svg>