<svg xmlns="http://www.w3.org/2000/svg" version="1.1" baseProfile="full" width="24" height="24" viewBox="0 0 24.00 24.00" xml:space="preserve"><path fill="#000" fill-opacity="1" stroke-width=".2" stroke-linejoin="round" d="M12.74 5.472c2.36 1.05 3.614 3.554 3.18 5.986C17.195 12.558 18 14.185 18 16l-.002.172c.313-.11.65-.172 1.002-.172 1.657 0 3 1.343 3 3s-1.343 3-3 3H6c-2.21 0-4-1.79-4-4s1.79-4 4-4l.272.01C4.98 12.453 4.6 10.236 5.48 8.26c1.235-2.776 4.486-4.024 7.26-2.788zM11.93 7.3c-1.766-.787-3.835.007-4.62 1.773-.456 1.02-.382 2.144.103 3.06 1.102-1.304 2.75-2.133 4.59-2.133.702 0 1.376.12 2 .342-.056-1.282-.82-2.485-2.072-3.043zm1.627-3.655c-.547-.244-1.108-.416-1.67-.522l2.483-1.305.907 2.89c-.51-.422-1.087-.78-1.72-1.063zM6.09 4.44c-.485.352-.915.75-1.29 1.186l.113-2.804 2.956.66c-.62.23-1.22.55-1.78.958zm11.886 5.273c-.063-.596-.193-1.167-.383-1.71l2.372 1.5-2.05 2.23c.11-.652.134-1.33.06-2.02zm-14.93 1.59c.06.595.192 1.167.382 1.708l-2.372-1.498 2.048-2.23c-.108.653-.132 1.33-.06 2.02zM19 18h-3v-2c0-2.21-1.79-4-4-4s-4 1.79-4 4H6c-1.105 0-2 .895-2 2s.895 2 2 2h13c.552 0 1-.448 1-1s-.448-1-1-1z"/></svg>