<svg xmlns="http://www.w3.org/2000/svg" version="1.1" baseProfile="full" width="24" height="24" viewBox="0 0 24.00 24.00" xml:space="preserve"><path fill="#000" fill-opacity="1" stroke-width="2" stroke-linejoin="round" d="M3 15h10c.552 0 1 .448 1 1s-.448 1-1 1H3c-.552 0-1-.448-1-1s.448-1 1-1zm13 0h5c.552 0 1 .448 1 1s-.448 1-1 1h-5c-.552 0-1-.448-1-1s.448-1 1-1zM1 12c0-2.76 2.238-5 4.998-5C6.978 4.65 9.296 3 12 3c3.433 0 6.244 2.66 6.483 6.033L19 9c2.193 0 3.974 1.764 4 4h-2c0-1.105-.895-2-2-2h-2v-1c0-2.76-2.24-5-5-5-2.487 0-4.55 1.816-4.935 4.194C6.735 9.07 6.375 9 6 9c-1.657 0-3 1.343-3 3 0 .35.06.687.17 1H1.1L1 12zm2 7h2c.552 0 1 .448 1 1s-.448 1-1 1H3c-.552 0-1-.448-1-1s.448-1 1-1zm5 0h13c.552 0 1 .448 1 1s-.448 1-1 1H8c-.552 0-1-.448-1-1s.448-1 1-1z"/></svg>