<svg xmlns="http://www.w3.org/2000/svg" version="1.1" baseProfile="full" width="24" height="24" viewBox="0 0 24.00 24.00" xml:space="preserve"><path fill="#000" fill-opacity="1" stroke-width=".2" stroke-linejoin="round" d="M6 6l.69.06C7.325 3.72 9.46 2 12 2c3.038 0 5.5 2.462 5.5 5.5l-.082.95c.46-.285 1-.45 1.582-.45 1.657 0 3 1.343 3 3s-1.343 3-3 3H6c-2.21 0-4-1.79-4-4s1.79-4 4-4zm0 2c-1.105 0-2 .895-2 2s.895 2 2 2h13c.552 0 1-.448 1-1s-.448-1-1-1h-3.5V7.5C15.5 5.567 13.933 4 12 4S8.5 5.567 8.5 7.5V8H6zm12 10H4c-.552 0-1-.448-1-1s.448-1 1-1h14c1.657 0 3 1.343 3 3s-1.343 3-3 3c-.828 0-1.578-.336-2.12-.88-.392-.39-.392-1.022 0-1.413.39-.39 1.022-.39 1.413 0 .18.18.43.293.707.293.552 0 1-.448 1-1s-.448-1-1-1z"/></svg>