<svg xmlns="http://www.w3.org/2000/svg" version="1.1" baseProfile="full" width="24" height="24" viewBox="0 0 24.00 24.00" xml:space="preserve"><path fill="#000" fill-opacity="1" stroke-width=".2" stroke-linejoin="round" d="M9 12c.533.143.85.69.707 1.225l-1.294 4.83c-.143.533-.69.85-1.225.707-.533-.143-.85-.692-.707-1.225l1.295-4.83c.143-.533.692-.85 1.225-.707zm4 0c.533.143.85.69.707 1.225l-2.07 7.727c-.143.534-.692.85-1.225.707-.534-.144-.85-.692-.707-1.226l2.07-7.727c.143-.533.69-.85 1.225-.707zm4 0c.534.143.85.69.707 1.225l-1.294 4.83c-.143.533-.69.85-1.225.707-.533-.143-.85-.692-.707-1.225l1.295-4.83c.143-.533.69-.85 1.225-.707zm0-2V9c0-2.76-2.24-5-5-5-2.487 0-4.55 1.816-4.935 4.194C6.735 8.07 6.375 8 6 8c-1.657 0-3 1.343-3 3 0 1.11.602 2.079 1.498 2.598l.004-.007c.478.277.642.89.366 1.367-.276.478-.886.642-1.364.367l-.004.007C2.005 14.467 1 12.85 1 11c0-2.76 2.238-5 4.998-5C6.978 3.65 9.296 2 12 2c3.433 0 6.244 2.66 6.483 6.033L19 8c2.21 0 4 1.79 4 4 0 1.48-.804 2.773-2 3.465l-.004-.007c-.478.275-1.088.11-1.364-.367s-.112-1.09.366-1.365l.004.006c.597-.345.998-.99.998-1.73 0-1.105-.895-2-2-2h-2z"/></svg>