<svg xmlns="http://www.w3.org/2000/svg" version="1.1" baseProfile="full" width="24" height="24" viewBox="0 0 24.00 24.00" xml:space="preserve"><path fill="#000" fill-opacity="1" stroke-width=".2" stroke-linejoin="round" d="M3 12h4c0-2.76 2.24-5 5-5s5 2.24 5 5h4c.552 0 1 .448 1 1s-.448 1-1 1H3c-.552 0-1-.448-1-1s.448-1 1-1zm2 4h14c.552 0 1 .448 1 1s-.448 1-1 1H5c-.552 0-1-.448-1-1s.448-1 1-1zm12 4c.552 0 1 .448 1 1s-.448 1-1 1H7c-.552 0-1-.448-1-1s.448-1 1-1h10zm-2-8c0-1.657-1.343-3-3-3s-3 1.343-3 3h6zM12 2l2.394 3.42C13.647 5.148 12.84 5 12 5c-.84 0-1.647.148-2.394.42L12 2zM3.345 7.01l4.16-.364c-.61.51-1.142 1.135-1.562 1.863-.42.727-.695 1.5-.833 2.282L3.345 7.01zm17.3-.006l-1.764 3.783c-.137-.783-.412-1.555-.832-2.283s-.952-1.353-1.56-1.863l4.158.364z"/></svg>