<svg xmlns="http://www.w3.org/2000/svg" version="1.1" baseProfile="full" width="24" height="24" viewBox="0 0 24.00 24.00" xml:space="preserve"><path fill="#000" fill-opacity="1" stroke-width=".2" stroke-linejoin="round" d="M3 12h4c0-2.76 2.24-5 5-5s5 2.24 5 5h4c.552 0 1 .448 1 1s-.448 1-1 1H3c-.552 0-1-.448-1-1s.448-1 1-1zm12 0c0-1.657-1.343-3-3-3s-3 1.343-3 3h6zM12 2l2.394 3.42C13.647 5.148 12.84 5 12 5c-.84 0-1.647.148-2.394.42L12 2zM3.345 7.01l4.16-.364c-.61.51-1.142 1.135-1.562 1.863-.42.727-.695 1.5-.833 2.282L3.345 7.01zm17.3-.006l-1.764 3.783c-.137-.783-.412-1.555-.832-2.283s-.952-1.353-1.56-1.863l4.158.364zm-7.933 13.703l3.11-3.11c.392-.392.392-1.025.002-1.415-.39-.39-1.024-.39-1.415 0L12 18.592l-2.41-2.41c-.39-.39-1.024-.39-1.414 0-.39.39-.39 1.023 0 1.414l3.11 3.11c.198.198.456.296.714.294.258 0 .516-.096.712-.293z"/></svg>