<svg xmlns="http://www.w3.org/2000/svg" version="1.1" baseProfile="full" width="24" height="24" viewBox="0 0 24.00 24.00" xml:space="preserve"><path fill="#000" fill-opacity="1" stroke-width=".2" stroke-linejoin="round" d="M16.36 13.998c.083-.657.14-1.32.14-2 0-.68-.057-1.343-.14-2h3.377c.166.64.263 1.308.263 2s-.097 1.36-.263 2m-5.144 5.56c.6-1.112 1.056-2.31 1.38-3.56h2.948c-.958 1.654-2.49 2.93-4.327 3.56zM14.34 14H9.66c-.095-.655-.16-1.32-.16-2 0-.68.065-1.345.16-2h4.68c.094.655.16 1.32.16 2 0 .68-.066 1.345-.16 2zm-2.342 5.964c-.832-1.2-1.482-2.533-1.91-3.964h3.822c-.428 1.43-1.078 2.764-1.912 3.964zM8.026 7.998h-2.95c.96-1.656 2.49-2.934 4.33-3.563-.6 1.113-1.057 2.31-1.38 3.563zm-2.95 8h2.95c.323 1.25.78 2.45 1.38 3.563-1.84-.628-3.37-1.906-4.33-3.562zm-.815-2c-.164-.64-.26-1.308-.26-2s.096-1.36.26-2H7.64c-.082.657-.138 1.32-.138 2 0 .68.056 1.343.138 2m4.36-9.964c.834 1.2 1.484 2.533 1.912 3.964h-3.82c.426-1.43 1.076-2.764 1.908-3.964zm6.923 3.964h-2.948c-.323-1.25-.78-2.448-1.38-3.56 1.838.63 3.37 1.906 4.33 3.56zm-6.926-6C6.468 1.998 2 6.475 2 11.998s4.468 10 9.994 10c5.527 0 10.006-4.477 10.006-10s-4.48-10-10.006-10z"/></svg>