<svg xmlns="http://www.w3.org/2000/svg" version="1.1" baseProfile="full" width="24" height="24" viewBox="0 0 24.00 24.00" xml:space="preserve"><path fill="#000" fill-opacity="1" stroke-width="1.333" stroke-linejoin="miter" d="M9.5 4C5.358 4 2 6.686 2 10c0 1.885 1.082 3.556 2.78 4.656L4 17l2.5-1.5c.894.313 1.87.49 2.906.5C9.148 15.374 9 14.7 9 14c0-3.314 3.134-6 7-6 .19 0 .377.02.563.03C15.543 5.69 12.777 4 9.5 4zm-3 2.5c.552 0 1 .448 1 1s-.448 1-1 1-1-.448-1-1 .448-1 1-1zm5 0c.552 0 1 .448 1 1s-.448 1-1 1-1-.448-1-1 .448-1 1-1zM16 9c-3.314 0-6 2.24-6 5s2.686 5 6 5c.666 0 1.308-.083 1.906-.25L20 20l-.625-1.875C20.95 17.225 22 15.712 22 14c0-2.76-2.686-5-6-5zm-2 2.5c.552 0 1 .448 1 1s-.448 1-1 1-1-.448-1-1 .448-1 1-1zm4 0c.552 0 1 .448 1 1s-.448 1-1 1-1-.448-1-1 .448-1 1-1z"/></svg>