<svg xmlns="http://www.w3.org/2000/svg" version="1.1" baseProfile="full" width="24" height="24" viewBox="0 0 24.00 24.00" xml:space="preserve"><path fill="#000" fill-opacity="1" stroke-width=".2" stroke-linejoin="round" d="M12 3c2.21 0 4 1.79 4 4 0 .73-.195 1.412-.535 2H18c.952 0 1.75.666 1.95 1.557C21.966 18.567 22 18.78 22 19c0 1.105-.895 2-2 2H4c-1.105 0-2-.895-2-2 0-.22.036-.432 2.05-8.443C4.25 9.667 5.047 9 6 9h2.535C8.195 8.412 8 7.73 8 7c0-2.21 1.79-4 4-4zm0 2c-1.105 0-2 .895-2 2s.895 2 2 2 2-.895 2-2-.895-2-2-2z"/></svg>