<svg xmlns="http://www.w3.org/2000/svg" version="1.1" baseProfile="full" width="24" height="24" viewBox="0 0 24.00 24.00" xml:space="preserve"><path fill="#000" fill-opacity="1" stroke-width=".2" stroke-linejoin="round" d="M12 3c2.21 0 4 1.79 4 4 0 .73-.195 1.412-.535 2H18c.952 0 1.75.666 1.95 1.557C21.966 18.567 22 18.78 22 19c0 1.105-.895 2-2 2H4c-1.105 0-2-.895-2-2 0-.22.036-.432 2.05-8.443C4.25 9.667 5.047 9 6 9h2.535C8.195 8.412 8 7.73 8 7c0-2.21 1.79-4 4-4zm0 2c-1.105 0-2 .895-2 2s.895 2 2 2 2-.895 2-2-.895-2-2-2zM9.037 15.44l1.36 2.56h1.715l-2.04-3.343 1.88-2.716H10.2l-1.333 2.39h-.48v-2.39H6.976V18h1.413v-2.56h.65zm8.276 1.723v-2.235h-2.366v1.11h.954v.757l-.35.132-.607.05c-.356 0-.632-.127-.83-.38-.197-.253-.296-.587-.296-1.002V14.34c0-.406.1-.736.3-.99.2-.257.464-.385.792-.385.327 0 .57.08.73.242.16.16.264.4.31.718h1.322l.008-.025c-.052-.632-.273-1.13-.662-1.496-.39-.365-.974-.548-1.754-.548-.72 0-1.308.232-1.765.695-.458.464-.687 1.06-.687 1.79v1.263c0 .735.234 1.332.702 1.792.468.46 1.077.69 1.828.69.592 0 1.083-.093 1.475-.278.392-.186.69-.4.895-.644z"/></svg>