<svg xmlns="http://www.w3.org/2000/svg" version="1.1" baseProfile="full" width="24" height="24" viewBox="0 0 24.00 24.00" xml:space="preserve"><path fill="#231F20" fill-opacity="1" fill-rule="evenodd" stroke-width=".2" stroke-linejoin="round" d="M16.748 13.956c.244.134.407.202.466.308.058.106.04.604-.19 1.177-.23.574-1.265 1.096-1.723 1.12-.456.025-.47.357-2.96-.733-2.49-1.09-3.99-3.744-4.107-3.914-.118-.17-.964-1.386-.92-2.61.047-1.223.712-1.8.95-2.04.236-.242.508-.294.674-.287l.476.038c.145.006.355-.07.544.436l.698 1.875c.057.126.093.273.004.436l-.265.406-.39.422c-.13.12-.264.25-.128.503.136.255.605 1.088 1.32 1.775.917.883 1.71 1.176 1.953 1.31.244.133.39.118.54-.043l.825-.945c.175-.243.34-.195.564-.103l1.668.872zM12 2c5.523 0 10 4.477 10 10s-4.477 10-10 10c-1.968 0-3.803-.568-5.35-1.55L2 22l1.55-4.65C2.568 15.803 2 13.968 2 12 2 6.477 6.477 2 12 2zm0 2c-4.418 0-8 3.582-8 8 0 1.718.54 3.31 1.463 4.612L4.5 19.5l2.888-.963C8.69 19.46 10.282 20 12 20c4.418 0 8-3.582 8-8s-3.582-8-8-8z"/></svg>