<svg xmlns="http://www.w3.org/2000/svg" version="1.1" baseProfile="full" width="24" height="24" viewBox="0 0 24.00 24.00" xml:space="preserve"><path fill="#000" fill-opacity="1" stroke-width=".2" stroke-linejoin="round" d="M17.242 18.155l1.795 1.795 1.414-1.415-1.794-1.794M20 12.5h3v-2h-3m-5-4.19v-4.81H9v4.81c-1.792 1.038-3 2.97-3 5.19 0 3.314 2.686 6 6 6 3.313 0 6-2.686 6-6 0-2.22-1.21-4.152-3-5.19zm-11 4.19H1v2h3m7 9.95c.315.002 2 0 2 0v-2.95h-2m-7.452-.963l1.414 1.415 1.795-1.795-1.414-1.414-1.795 1.795z"/></svg>