<svg xmlns="http://www.w3.org/2000/svg" version="1.1" baseProfile="full" width="24" height="24" viewBox="0 0 24.00 24.00" xml:space="preserve"><path fill="#000" fill-opacity="1" stroke-width=".2" stroke-linejoin="round" d="M10.3 15.998l-.7-2H6.4l-.7 2H3.8l3.2-9h2l3.2 9m9.8-9l-1.204 6.292L19.3 6.998h-1.6l-1.49 6.292L15 6.998h-.76c-1.467-1.827-3.715-3-6.24-3-4.418 0-8 3.58-8 8s3.582 8 8 8c3.134 0 5.84-1.807 7.153-4.432l.097.432H17l1.5-6.1 1.5 6.1h1.75l2.05-9m-16.95 5.65h2.3L8 8.998l-1.15 3.65z"/></svg>