<svg xmlns="http://www.w3.org/2000/svg" version="1.1" baseProfile="full" width="24" height="24" viewBox="0 0 24.00 24.00" xml:space="preserve"><path fill="#000" fill-opacity="1" stroke-width=".2" stroke-linejoin="round" d="M3.548 18.535l1.414 1.415 1.795-1.795-1.414-1.414M11 22.45c.316.002 2 0 2 0v-2.95h-2m1-14c-3.314 0-6 2.686-6 6 0 3.313 2.686 6 6 6 3.313 0 6-2.687 6-6 0-3.314-2.687-6-6-6zm8 7h3v-2h-3m-2.758 7.657l1.795 1.795 1.414-1.415-1.794-1.794M20.45 4.46l-1.413-1.414-1.795 1.795 1.414 1.415M13 .548h-2v2.95h2m-9 7H1v2h3M6.757 4.84L4.962 3.047 3.548 4.46l1.795 1.795L6.757 4.84z"/></svg>