<svg xmlns="http://www.w3.org/2000/svg" version="1.1" baseProfile="full" width="24" height="24" viewBox="0 0 24.00 24.00" xml:space="preserve"><path fill="#000" fill-opacity="1" stroke-width=".2" stroke-linejoin="round" d="M2.275 2.998L1 4.268l1.47 1.474c-.434.27-.864.552-1.27.86L3 8.998c.527-.396 1.08-.752 1.66-1.075l2.227 2.23c-.737.343-1.44.758-2.085 1.24L6.6 13.8c.778-.583 1.656-1.026 2.6-1.334l2.553 2.554c-1.255.054-2.412.474-3.354 1.18L12 21l2.455-3.275L17.735 21 19 19.72M12 3c-2.148 0-4.2.386-6.103 1.074l2.39 2.393C9.48 6.162 10.72 6 12.004 6 15.375 6 18.49 7.115 21 9l1.802-2.4C19.79 4.34 16.055 3 12.002 3zm0 6c-.38 0-.752.02-1.123.055l3.188 3.193c1.225.288 2.358.82 3.335 1.553l1.796-2.404C17.197 9.892 14.702 9 12.002 9z"/></svg>