<svg xmlns="http://www.w3.org/2000/svg" version="1.1" baseProfile="full" width="24" height="24" viewBox="0 0 24.00 24.00" xml:space="preserve"><path fill="#000" fill-opacity="1" stroke-width=".2" stroke-linejoin="round" d="M12 21l3.6-4.8c-1.003-.754-2.25-1.2-3.6-1.2s-2.597.446-3.6 1.2L12 21zm0-18C7.948 3 4.208 4.34 1.2 6.6L3 9c2.507-1.884 5.623-3 9-3s6.493 1.116 9 3l1.8-2.4C19.793 4.34 16.053 3 12 3zm0 6c-2.702 0-5.195.893-7.2 2.4l1.8 2.4C8.104 12.67 9.974 12 12 12c2.026 0 3.896.67 5.4 1.8l1.8-2.4C17.195 9.892 14.702 9 12 9z"/></svg>