<svg xmlns="http://www.w3.org/2000/svg" version="1.1" baseProfile="full" width="24" height="24" viewBox="0 0 24.00 24.00" xml:space="preserve"><path fill="#000" fill-opacity="1" stroke-linejoin="round" d="M17.845 16.94h-1.88v-6.146h1.88v6.145zm.177-8.363c0 .617-.5 1.117-1.117 1.117s-1.117-.5-1.117-1.117.5-1.118 1.117-1.118 1.117.5 1.117 1.117zm3.8 8.362h-1.88v-6.146h1.88v6.145zM22 8.576c0 .617-.5 1.117-1.117 1.117s-1.117-.5-1.117-1.117.5-1.118 1.117-1.118S22 7.96 22 8.576zm-9.1-.525h2L12.782 15.5s-.288 1.54-1.498 1.54-1.498-1.54-1.498-1.54L8.45 10.642 7.11 15.5s-.287 1.54-1.498 1.54c-1.21 0-1.498-1.54-1.498-1.54L2 8.052h1.998l1.726 6.62 1.388-5.367C7.434 7.95 8.45 7.967 8.45 7.967s1.015-.017 1.337 1.338l1.388 5.366L12.9 8.053z"/></svg>