<svg xmlns="http://www.w3.org/2000/svg" version="1.1" baseProfile="full" width="24" height="24" viewBox="0 0 24.00 24.00" xml:space="preserve"><path fill="#000" fill-opacity="1" stroke-linejoin="round" d="M14.97 18.95l-2.56-6.032c-1.015 1.99-2.14 4.06-3.102 6.03-.005.01-.465.003-.465-.003-1.47-3.43-2.996-6.84-4.473-10.27-.343-.838-1.543-2.186-2.364-2.178C2.006 6.4 2 6.182 2 6.05l5.063-.002-.004.44c-.595.028-1.623.407-1.357 1.064.714 1.54 3.24 7.51 3.923 9.024.477-.933 1.807-3.42 2.355-4.47-.43-.88-1.848-4.17-2.273-5-.32-.54-1.126-.606-1.747-.616 0-.138.008-.245.005-.434l4.45.014v.404c-.602.016-1.173.24-.914.816.6 1.243.948 2.128 1.5 3.277.175-.337 1.074-2.182 1.503-3.156.26-.647-.128-.89-1.213-.92.015-.105.005-.32.014-.42 1.384-.006 3.474-.01 3.844-.017l.002.42c-.706.028-1.437.405-1.82.99L13.48 11.3c.204.508 1.983 4.46 2.17 4.9l3.827-8.832c-.272-.715-1.14-.875-1.48-.883.002-.113.002-.287.003-.432l3.995.03.005.02-.007.38c-.876.027-1.418.496-1.742 1.264-.795 1.798-3.228 7.493-4.853 11.205-.002.002-.425 0-.426-.002z"/></svg>