<svg xmlns="http://www.w3.org/2000/svg" version="1.1" baseProfile="full" width="24" height="24" viewBox="0 0 24.00 24.00" xml:space="preserve"><path fill="#000" fill-opacity="1" fill-rule="evenodd" stroke-width=".2" stroke-linejoin="round" d="M12.202 15.49l-2.555 6.23c.753.182 1.542.28 2.353.28.84 0 1.656-.104 2.436-.297m6.17-14.648c.19.9.15 1.992-.22 3.19-.966 3.125-3.362 8.744-4.288 10.884C19.578 19.58 22 16.12 22 12.1c0-1.843-.51-3.568-1.393-5.045zM4.307 8.64s-.486-.618-1-.618h-.524C2.278 9.132 2 10.62 2 11.985c0 4.104 2.522 7.625 6.118 9.126M3.128 7.136C4.8 4.03 8.143 2 12 2c2.498 0 4.778 1.062 6.53 2.56-.5-.097-1.046.012-1.597.327-1.288.738-1.71 2.825-.04 3.874 1.045.65 1.416 2.28 1.38 3.276-.033.995-2.424 5.574-2.424 5.574l-2.33-7.978s-.08-.56-.08-.723c0-.203.067-.453.193-.595.087-.096.218-.293.376-.293h1.1v-.887h-6v.887H9.3c.195 0 .39.264.573.452.22.227.497 1.076.83 1.956l.873 2.867-1.88 4.337L7.63 8.97s.06-.595.186-.695c.08-.07.206-.253.35-.253h.056v-.887H3.13z"/></svg>