<svg xmlns="http://www.w3.org/2000/svg" version="1.1" baseProfile="full" width="24" height="24" viewBox="0 0 24.00 24.00" xml:space="preserve"><path fill="#000" fill-opacity="1" stroke-width=".2" stroke-linejoin="round" d="M2 5.268L3.277 4 20 20.723 18.732 22l-6.25-6.25H8.75C6.75 15.75 6 18 4 19c-1.985 0-3.478-2.956.42-11.313L2 5.267zm7.326.96h5.348c1.326-1.228 4.14.44 4.14.44l.436.832h.243c3.527 7.48 2.788 10.702 1.196 11.366L7.622 5.8c.627-.073 1.25.01 1.703.428zM12 7c-.552 0-1 .448-1 1s.448 1 1 1 1-.448 1-1-.448-1-1-1z"/></svg>