<svg xmlns="http://www.w3.org/2000/svg" version="1.1" baseProfile="full" width="24" height="24" viewBox="0 0 24.00 24.00" xml:space="preserve"><path fill="#000" fill-opacity="1" stroke-linejoin="round" d="M6.426 3.723c.058-.06.14-.126.194-.16C8.184 2.546 9.994 2 12.002 2c1.875 0 3.637.52 5.136 1.42.11.064.406.27.558.455-1.447-1.598-5.705 1.828-5.705 1.828C10.52 4.57 9.167 3.795 8.158 3.52c-.843-.23-1.427-.04-1.7.176zM19.34 5.207c-.046-.05-.096-.095-.14-.145-.365-.402-.817-.5-1.22-.474-.37.118-2.076.733-4.178 2.718 0 0 2.365 2.3 3.815 4.652 1.45 2.353 2.314 4.2 1.784 6.767C21.015 16.95 22 14.592 22 12c0-2.622-1.01-5.01-2.66-6.793zm-3.614 7.757c-.646-.72-1.598-1.754-2.862-3.01-.273-.273-.566-.558-.873-.854 0 0-.458.46-1.058 1.067-.77.774-1.766 1.787-2.32 2.375-.983 1.05-3.803 4.35-3.962 6.197 0 0-.627-1.465.75-4.846.9-2.213 3.62-5.533 4.754-6.616 0 0-1.036-1.14-2.338-1.927l-.046-.03c-.627-.37-1.31-.66-1.967-.698-.67.046-1.096.54-1.096.54C3.025 6.948 2 9.354 2 12c0 5.52 4.48 10 10.002 10 2.93 0 5.57-1.264 7.4-3.27 0-.005-.21-1.326-1.558-3.216-.315-.444-1.473-1.825-2.118-2.55z"/></svg>