<svg xmlns="http://www.w3.org/2000/svg" version="1.1" baseProfile="full" width="24" height="24" viewBox="0 0 24.00 24.00" xml:space="preserve"><path fill="#000" fill-opacity="1" stroke-width="1.011" stroke-linejoin="round" d="M-.05 16.79l3.245-3.82L-.05 9.147l1.53-1.285 3.02 3.55 3.02-3.55 1.53 1.285-3.245 3.82 3.246 3.82-1.53 1.287-3.02-3.55-3.02 3.55-1.53-1.286zM24 17c0 .552-.448 1-1 1h-3c-1.105 0-2-.895-2-2v-2c0-1.105.895-2 2-2h2v-2h-4V8h5c.547.006 1 .45 1 1m-2 5h-2v2h2v-2zm-6 3c0 .552-.448 1-1 1h-3c-1.105 0-2-.895-2-2v-6c0-1.105.895-2 2-2h2V5h2v12zm-2-1v-6h-2v6h2z"/></svg>