<svg xmlns="http://www.w3.org/2000/svg" version="1.1" baseProfile="full" width="24" height="24" viewBox="0 0 24.00 24.00" xml:space="preserve"><path fill="#000" fill-opacity="1" stroke-width=".2" stroke-linejoin="round" d="M12.002 2.002c-5.522 0-10 4.478-10 10 0 5.523 4.478 10 10 10 5.523 0 10-4.477 10-10 0-5.522-4.477-10-10-10zm3.848 4h1.894c.112 0 .2.038.25.117.05.08.05.184-.005.286l-4.152 7.354 2.642 4.83c.054.1.054.21.005.29-.05.08-.137.12-.25.12H14.36c-.287 0-.43-.19-.522-.358l-2.665-4.887c.136-.235 4.173-7.398 4.173-7.398.103-.18.22-.356.504-.356zM7.51 8.564h1.875c.287 0 .425.185.518.35l1.288 2.253c-.07.136-2.02 3.578-2.02 3.578-.098.17-.23.36-.512.36l-1.875.002c-.113 0-.196-.05-.246-.128-.048-.078-.048-.185 0-.287l1.993-3.525-1.264-2.193c-.053-.107-.064-.21-.015-.29.05-.076.143-.12.26-.12z"/></svg>