<svg xmlns="http://www.w3.org/2000/svg" version="1.1" baseProfile="full" width="24" height="24" viewBox="0 0 24.00 24.00" xml:space="preserve"><path fill="#000" fill-opacity="1" stroke-width=".2" stroke-linejoin="round" d="M4.8 2.998c-.996 0-1.802.806-1.802 1.802v14.4c0 .995.806 1.8 1.802 1.8h14.4c.995 0 1.8-.805 1.8-1.8V4.8c0-.996-.805-1.802-1.8-1.802M16.07 5h2.035c.122 0 .22.044.27.128.052.087.052.2-.006.312l-4.47 7.92 2.847 5.2c.06.11.06.224.006.313-.054.082-.147.126-.268.126h-2.018c-.312 0-.463-.206-.56-.386l-2.872-5.264 4.492-7.964c.108-.196.24-.386.542-.386zM7.084 7.764H9.1c.314 0 .465.2.568.38l1.387 2.422c-.084.14-2.178 3.853-2.178 3.853-.107.185-.25.39-.552.39h-2.02c-.124 0-.21-.054-.265-.138-.054-.087-.054-.2 0-.312l2.144-3.794L6.82 8.202c-.053-.11-.067-.223-.014-.312.054-.082.157-.126.28-.126z"/></svg>