<svg xmlns="http://www.w3.org/2000/svg" version="1.1" baseProfile="full" width="24" height="24" viewBox="0 0 24.00 24.00" xml:space="preserve"><path fill="#000" fill-opacity="1" stroke-width=".2" stroke-linejoin="round" d="M17.666 2.002c-.43 0-.615.268-.77.547 0 0-6.217 11.02-6.417 11.38l4.095 7.52c.14.26.366.553.806.553h2.88c.177 0 .31-.07.382-.187.08-.122.08-.287-.005-.448L14.57 13.92l6.387-11.293c.083-.156.083-.322.01-.444-.073-.118-.21-.18-.386-.18M5.55 5.947c-.174 0-.32.064-.394.186-.077.122-.063.278.02.44l1.948 3.393-3.066 5.405c-.078.163-.073.324 0 .445.073.123.205.2.376.2H7.32c.434 0 .64-.293.785-.56L11.22 9.95 9.24 6.49c-.144-.255-.363-.543-.808-.543"/></svg>