<svg xmlns="http://www.w3.org/2000/svg" version="1.1" baseProfile="full" width="24" height="24" viewBox="0 0 24.00 24.00" xml:space="preserve"><path fill="#000" fill-opacity="1" stroke-linejoin="round" d="M18 14c2.21 0 4 1.79 4 4s-1.79 4-4 4-4-1.79-4-4l.09-.853c-.04-.702-.167-1.31-.54-1.655-.203-.19-.48-.3-.802-.36-.956.552-2.065.868-3.248.868C5.91 16 3 13.09 3 9.5S5.91 3 9.5 3 16 5.91 16 9.5c0 1.183-.316 2.292-.868 3.248.06.323.17.6.36.802.346.373.953.5 1.655.54L18 14zM7.5 10c.828 0 1.5.672 1.5 1.5S8.328 13 7.5 13 6 12.328 6 11.5 6.672 10 7.5 10zm2-5C7.015 5 5 7.015 5 9.5S7.015 14 9.5 14 14 11.985 14 9.5 11.985 5 9.5 5z"/></svg>