<svg xmlns="http://www.w3.org/2000/svg" version="1.1" baseProfile="full" width="24" height="24" viewBox="0 0 24.00 24.00" xml:space="preserve"><path fill="#000" fill-opacity="1" stroke-linejoin="round" d="M10.59 2.016c.642 0 .934.254.993.952l.21 3.175.24 4.143c.02.358-.018.71-.174 1.036-.222.452-.724.565-1.125.26-.25-.188-.427-.44-.584-.707L6.42 4.553c-.36-.613-.253-1.016.346-1.397.75-.477 2.968-1.138 3.823-1.14zm4.244 12.832l.256.066 3.864 1.39c.657.245.833.62.57 1.266-.465 1.128-1.18 2.087-2.103 2.88-.457.395-.91.33-1.207-.17l-2.277-3.96c-.39-.707.098-1.52.898-1.472zm-10.357-.86c.004-.726.045-1.436.27-2.12.22-.67.587-.867 1.232-.6l3.653 1.545c.457.192.72.506.695 1.027-.024.52-.36.74-.8.886l-3.682 1.216c-.698.226-1.06.02-1.21-.693-.086-.421-.16-.85-.16-1.26zm7.49 7.03c-.02.795-.367 1.104-1.153.966-1.04-.185-2.008-.584-2.857-1.227-.415-.313-.507-.812-.2-1.228l2.71-3.562c.23-.3.567-.364.918-.232.384.146.584.446.59.854l-.01 4.43zm2.487-7.698c-.728.006-1.223-.796-.81-1.41.83-1.24 1.704-2.45 2.584-3.654.295-.405.71-.44 1.085-.1.928.844 1.6 1.867 1.975 3.067.143.452-.04.858-.457.975l-3.737.977-.64.145z"/></svg>