<svg xmlns="http://www.w3.org/2000/svg" version="1.1" baseProfile="full" width="24" height="24" viewBox="0 0 24.00 24.00" xml:space="preserve"><path fill="#0D0E0E" fill-opacity="1" stroke-linejoin="round" d="M8.958 15.105h-.91v-.527c-.345.395-.638.595-.957.595-.28 0-.473-.132-.57-.37-.06-.145-.1-.372-.1-.704v-3.833h.91v3.927c.02.134.077.183.193.183.174 0 .332-.15.525-.423v-3.688h.91v4.838zm-4.12-1.437v-1.916c.048-.48-.1-.704-.383-.704-.283 0-.43.225-.383.704v1.916c-.048.48.1.716.383.716.282 0 .43-.237.383-.716zm.91-1.82v1.724c0 .514-.084.87-.268 1.11-.242.33-.642.506-1.025.506-.383 0-.776-.175-1.018-.505-.186-.242-.275-.597-.275-1.11v-1.72c0-.518.1-.91.287-1.155.24-.33.57-.466 1.005-.466.383 0 .763.135 1.006.466.184.244.288.633.288 1.15zm-3.592.622v2.635h-.958V12.47S.205 9.24 0 8.638h1.006l.672 2.523.67-2.522h1.005L2.156 12.47zm21.7-3.31S24 10.314 24 11.466v1.08c0 1.153-.143 2.305-.143 2.305s-.14.98-.57 1.414c-.542.567-1.152.57-1.432.603-2 .144-5.007.148-5.007.148s-3.72-.034-4.863-.143c-.32-.06-1.033-.04-1.577-.608-.43-.433-.57-1.414-.57-1.414s-.142-1.152-.142-2.304v-1.08c0-1.153.143-2.305.143-2.305s.14-.98.568-1.413c.544-.567 1.153-.57 1.433-.603C13.843 7 16.846 7 16.846 7h.006s3.004 0 5.005.144c.28.033.89.036 1.433.603.43.432.57 1.414.57 1.414zm-2.78 2.446c0-.448.124-.57.413-.57.287 0 .4.133.4.576v.523h-.813v-.53zm1.727 1.247v-.98c0-.51-.1-.885-.282-1.127-.242-.327-.588-.5-1.023-.5-.442 0-.788.173-1.038.5-.186.242-.293.638-.293 1.15v1.676c0 .51.118.865.302 1.104.25.327.595.49 1.05.49.452 0 .808-.17 1.048-.518.105-.154.173-.328.203-.52.008-.087.03-.284.03-.564v-.136h-.91c0 .348.003.555-.005.602-.05.232-.174.348-.388.348-.297 0-.423-.222-.42-.664v-.86h1.726zm-4.12.863c0 .48-.114.662-.364.662-.144 0-.308-.073-.454-.218l.002-2.905c.145-.143.308-.22.45-.22.25 0 .364.142.364.62v2.06zm.1-3.478c-.32 0-.636.196-.917.54l.002-2.092h-.863v6.42h.863v-.483c.29.358.606.544.915.544.345 0 .597-.185.713-.54.058-.204.096-.517.096-.96v-1.915c0-.454-.058-.764-.116-.956-.116-.36-.348-.558-.693-.558zm-2.496 4.867v-4.79h-.91v3.64c-.193.272-.35.423-.525.423-.116 0-.173-.05-.194-.183v-3.881h-.91V14.1c0 .33.042.558.1.703.098.238.292.37.572.37.32 0 .61-.2.957-.595v.527h.91zm-3.45 0v-5.51h1.055v-.91l-3.018.002v.91h1.006v5.508h.958z"/></svg>